<svg width="45" height="45" viewBox="0 0 45 45" fill="none" xmlns="http://www.w3.org/2000/svg">
<circle cx="26.8269" cy="26.8269" r="18.1731" fill="#FAD7C9"/>
<path d="M10.9955 0C9.39964 0 8.04202 1.01989 7.53886 2.44344H3.66516C1.64094 2.44344 0 4.08438 0 6.1086V35.4299C0 37.454 1.64094 39.095 3.66516 39.095H20.176C19.5561 38.3446 19.0163 37.5258 18.5694 36.6516H3.66516C2.99043 36.6516 2.44344 36.1045 2.44344 35.4299V6.1086C2.44344 5.43387 2.99043 4.88688 3.66516 4.88688H7.53886C8.04202 6.31042 9.39964 7.33032 10.9955 7.33032H18.3258C19.9216 7.33032 21.2792 6.31042 21.7823 4.88688H25.6561C26.3307 4.88688 26.8778 5.43387 26.8778 6.1086V17.6099C27.6653 17.3872 28.4822 17.2345 29.3213 17.1589V6.1086C29.3213 4.08438 27.6803 2.44344 25.6561 2.44344H21.7823C21.2792 1.01989 19.9216 0 18.3258 0H10.9955ZM9.77376 3.66516C9.77376 2.99043 10.3207 2.44344 10.9955 2.44344H18.3258C19.0005 2.44344 19.5475 2.99043 19.5475 3.66516C19.5475 4.33989 19.0005 4.88688 18.3258 4.88688H10.9955C10.3207 4.88688 9.77376 4.33989 9.77376 3.66516ZM21.6332 19.1897C22.1102 18.7126 22.1102 17.939 21.6332 17.4619C21.156 16.9848 20.3824 16.9848 19.9052 17.4619L12.2172 25.1501L9.41591 22.3487C8.93881 21.8717 8.16526 21.8717 7.68816 22.3487C7.21103 22.8259 7.21103 23.5995 7.68816 24.0767L11.3533 27.7418C11.8304 28.2188 12.604 28.2188 13.0811 27.7418L21.6332 19.1897ZM41.5385 30.543C41.5385 36.6157 36.6157 41.5385 30.543 41.5385C24.4703 41.5385 19.5475 36.6157 19.5475 30.543C19.5475 24.4703 24.4703 19.5475 30.543 19.5475C36.6157 19.5475 41.5385 24.4703 41.5385 30.543ZM31.7647 25.6561C31.7647 24.9815 31.2176 24.4344 30.543 24.4344C29.8684 24.4344 29.3213 24.9815 29.3213 25.6561V29.3213H25.6561C24.9815 29.3213 24.4344 29.8684 24.4344 30.543C24.4344 31.2176 24.9815 31.7647 25.6561 31.7647H29.3213V35.4299C29.3213 36.1045 29.8684 36.6516 30.543 36.6516C31.2176 36.6516 31.7647 36.1045 31.7647 35.4299V31.7647H35.4299C36.1045 31.7647 36.6516 31.2176 36.6516 30.543C36.6516 29.8684 36.1045 29.3213 35.4299 29.3213H31.7647V25.6561Z" fill="#305070"/>
</svg>
