<svg width="55" height="53" viewBox="0 0 56 54" fill="none" xmlns="http://www.w3.org/2000/svg">
<circle cx="35" cy="33" r="21" fill="#D2F9F9"/>
<path d="M42.6664 21.8333C42.6708 20.5312 42.1917 19.2738 41.322 18.3047C40.7279 17.6381 40.3996 16.7763 40.3997 15.8833C40.4011 15.6321 40.4264 15.3815 40.4754 15.135C40.5486 14.7835 40.5874 14.4257 40.5914 14.0667C40.5905 12.9503 40.2373 11.8626 39.582 10.9587C38.9268 10.0548 38.003 9.3807 36.9423 9.03251C36.4019 8.85866 35.9107 8.55861 35.5093 8.1572C35.1079 7.7558 34.8078 7.26457 34.634 6.72418C34.4421 6.13614 34.1475 5.58673 33.764 5.10143C33.2664 4.47284 32.6337 3.96431 31.9129 3.61352C31.192 3.26273 30.4014 3.07868 29.5997 3.07501C29.2382 3.07913 28.8779 3.1182 28.5239 3.19168C27.9682 3.30499 27.3937 3.28774 26.8458 3.14128C26.2979 2.99482 25.7915 2.72316 25.3664 2.34768C24.402 1.48684 23.1565 1.00766 21.8638 1.00009C20.5711 0.992526 19.3202 1.4571 18.3457 2.3066C18.314 2.32802 18.2835 2.3514 18.2547 2.3766C17.836 2.74979 17.3346 3.01817 16.7918 3.15965C16.2491 3.30113 15.6805 3.31165 15.1329 3.19035C14.7819 3.11768 14.4248 3.07905 14.0664 3.07501C13.2653 3.07865 12.4752 3.26248 11.7548 3.6129C11.0344 3.96333 10.402 4.47135 9.90458 5.09935C9.52017 5.58516 9.22507 6.13537 9.03299 6.72435C8.85872 7.26537 8.55803 7.75709 8.15583 8.15873C7.75363 8.56038 7.26151 8.8604 6.72024 9.03393C5.66033 9.38253 4.73741 10.0566 4.08287 10.9602C3.42834 11.8638 3.07555 12.9509 3.07474 14.0667C3.07859 14.4248 3.11702 14.7816 3.18949 15.1323C3.23918 15.3796 3.26494 15.6311 3.26641 15.8833C3.26683 16.7741 2.9402 17.6341 2.34849 18.3C1.48075 19.2712 1.00075 20.5277 1 21.8301C0.999248 23.1325 1.47779 24.3896 2.34441 25.3618C2.93847 26.0285 3.26663 26.8904 3.26641 27.7833C3.26506 28.0346 3.23972 28.2852 3.19074 28.5317C3.11757 28.8832 3.07872 29.241 3.07474 29.6C3.07572 30.7167 3.42916 31.8046 4.0847 32.7086C4.74023 33.6126 5.66441 34.2866 6.72549 34.6346C7.04355 34.7434 7.34396 34.8982 7.61716 35.0941L2.77708 44.3988C2.71331 44.5211 2.68091 44.6573 2.68277 44.7951C2.68463 44.933 2.7207 45.0683 2.78774 45.1887C2.85477 45.3092 2.95069 45.4112 3.06686 45.4855C3.18303 45.5597 3.31583 45.604 3.45333 45.6143L9.43158 46.0627L13.2304 50.6953C13.3086 50.7905 13.407 50.8672 13.5184 50.9199C13.6298 50.9726 13.7515 51 13.8747 51C13.9032 51 13.9317 50.9983 13.961 50.9955C14.0981 50.9814 14.2295 50.9334 14.3435 50.8558C14.4574 50.7782 14.5502 50.6735 14.6137 50.5512L19.1065 41.9137C19.9305 42.4065 20.8727 42.6668 21.8328 42.6667C22.793 42.6666 23.7352 42.4062 24.5591 41.9132L29.0522 50.5512C29.1156 50.6735 29.2084 50.7782 29.3223 50.8558C29.4363 50.9334 29.5677 50.9814 29.7048 50.9955C29.7341 50.9983 29.7626 51 29.7911 51C29.9143 51 30.0361 50.9727 30.1475 50.92C30.259 50.8673 30.3573 50.7905 30.4356 50.6953L34.2344 46.0627L40.2118 45.6143C40.3493 45.604 40.4822 45.5598 40.5984 45.4856C40.7146 45.4113 40.8105 45.3094 40.8776 45.1888C40.9446 45.0683 40.9807 44.9331 40.9825 44.7952C40.9844 44.6573 40.9519 44.5211 40.8881 44.3988L36.0452 35.0876C36.3229 34.8948 36.6261 34.7418 36.9462 34.6328C38.006 34.2842 38.9289 33.6101 39.5834 32.7064C40.2379 31.8028 40.5906 30.7158 40.5914 29.6C40.5875 29.2419 40.5491 28.885 40.4767 28.5343C40.427 28.2871 40.4012 28.0356 40.3997 27.7833C40.3996 26.8908 40.7275 26.0294 41.3209 25.3628C42.1908 24.3934 42.6702 23.1358 42.6664 21.8333ZM9.36366 44.3862L4.83866 44.0469L8.80708 36.418C8.81441 36.4324 8.82308 36.4458 8.83033 36.4603C8.90967 36.6169 8.97768 36.779 9.03382 36.9453C9.4731 38.2634 10.4124 39.3563 11.6495 39.9887L9.36366 44.3862ZM13.7187 48.6612L10.843 45.1544L13.2497 40.525C13.8754 40.6271 14.5147 40.6106 15.1342 40.4764C15.3766 40.4284 15.6229 40.4033 15.8699 40.4014C15.95 40.4007 16.0249 40.4155 16.1032 40.4198C16.6158 40.4511 17.1157 40.5912 17.5699 40.8308C17.6273 40.8613 17.6882 40.8822 17.7444 40.9158L17.747 40.9176L13.7187 48.6612ZM29.9475 48.6612L25.9192 40.9167C26.1021 40.8074 26.294 40.7138 26.4927 40.637C26.8435 40.5082 27.212 40.4343 27.5853 40.418C27.6564 40.4144 27.7241 40.4007 27.7966 40.4013C28.0144 40.4054 28.2315 40.4275 28.4457 40.4675C28.4752 40.4727 28.5026 40.471 28.5323 40.4768C28.5452 40.4793 28.5557 40.4794 28.5684 40.4818C28.7902 40.5241 28.9948 40.551 29.1897 40.5684C29.2647 40.5753 29.3369 40.5773 29.4094 40.5808C29.4721 40.5835 29.5396 40.5916 29.6 40.5916C29.6297 40.5916 29.6578 40.5851 29.6874 40.5846C29.9271 40.5845 30.1665 40.5654 30.4032 40.5275L30.4176 40.5263L32.8232 45.1548L29.9475 48.6612ZM38.8269 44.0466L34.3025 44.3858L32.0237 40.0014C32.0817 39.9715 32.1332 39.9315 32.1899 39.8996C32.2739 39.8525 32.3542 39.8006 32.4352 39.7491C32.5527 39.6741 32.6707 39.6017 32.7819 39.5177C32.9528 39.3894 33.1157 39.251 33.2699 39.1031C33.3415 39.034 33.4054 38.9578 33.4732 38.8846C33.5806 38.7692 33.6851 38.6517 33.782 38.5268C33.8403 38.4512 33.8949 38.3728 33.9495 38.2935C34.0464 38.1537 34.1358 38.009 34.2193 37.8596C34.2582 37.7898 34.2987 37.7218 34.3347 37.6499C34.4511 37.422 34.551 37.1859 34.6334 36.9435L34.6408 36.9257C34.7041 36.7564 34.78 36.592 34.8678 36.434L38.8269 44.0466ZM40.081 24.25L40.0769 24.2545C39.2111 25.226 38.7327 26.482 38.7331 27.7833C38.7347 28.142 38.7704 28.4996 38.8397 28.8515C38.8917 29.0976 38.92 29.3482 38.9243 29.5998C38.9235 30.3647 38.6814 31.1099 38.2326 31.7293C37.7837 32.3487 37.151 32.8108 36.4243 33.0498C35.5066 33.3538 34.6899 33.9039 34.0632 34.6401C34.031 34.6773 33.9966 34.7118 33.9653 34.7498C33.875 34.8613 33.7937 34.9796 33.7126 35.0983C33.6732 35.1558 33.6298 35.2098 33.5927 35.2689C33.5065 35.4063 33.4311 35.5506 33.3577 35.6961C33.3359 35.7391 33.3097 35.7794 33.2892 35.823C33.1973 36.0172 33.1175 36.2169 33.0502 36.4209C32.9939 36.5862 32.926 36.7473 32.8469 36.903C32.8205 36.9558 32.7907 37.0064 32.7619 37.0577C32.7078 37.1542 32.6498 37.2475 32.5877 37.3378C32.5461 37.3983 32.5044 37.4589 32.4589 37.5168C32.4051 37.5861 32.3462 37.6501 32.2878 37.7152C32.0478 37.9817 31.7696 38.2113 31.4623 38.3965C31.4445 38.4073 31.4272 38.4188 31.4092 38.4292C31.2905 38.4975 31.1681 38.5592 31.0425 38.6138L31.0138 38.6258C30.8818 38.6822 30.7467 38.7309 30.6091 38.7716C30.5657 38.7852 30.5237 38.793 30.4809 38.8049C30.3814 38.8299 30.2838 38.8612 30.1816 38.8778L30.1677 38.8795C29.997 38.9056 29.8246 38.9195 29.6519 38.9212C29.5963 38.9212 29.5405 38.9212 29.4818 38.9182C29.4292 38.9159 29.3765 38.9137 29.3197 38.9083C29.1745 38.8943 29.0224 38.8744 28.8512 38.8411C28.6385 38.7995 28.4236 38.7699 28.2076 38.7523C28.1196 38.7452 28.034 38.7487 27.9469 38.7457C27.8255 38.7416 27.7032 38.7332 27.5836 38.7373C27.4142 38.7428 27.2483 38.7611 27.0832 38.7823C27.0491 38.7867 27.0138 38.7868 26.9799 38.7918C26.392 38.8791 25.8236 39.0678 25.3002 39.3496L25.2905 39.3543C25.1306 39.4413 24.9752 39.5366 24.8251 39.6397C24.8092 39.6503 24.7924 39.6592 24.7767 39.67C24.6387 39.7659 24.5062 39.8721 24.3758 39.9818C24.3521 40.0017 24.3263 40.0181 24.3029 40.0384L24.2996 40.0424C24.2835 40.0564 24.2662 40.0674 24.25 40.082C23.584 40.6738 22.724 41.0007 21.833 41.0007C20.942 41.0007 20.082 40.6738 19.416 40.082C19.4013 40.0689 19.3867 40.057 19.3721 40.0449L19.3477 40.0254C19.2659 39.955 19.1784 39.8943 19.0935 39.8293C19.0208 39.7734 18.9507 39.713 18.8758 39.6612C18.816 39.6195 18.7522 39.5862 18.6911 39.5477C18.5827 39.4793 18.4761 39.4084 18.3638 39.3483C18.3367 39.3338 18.3077 39.3233 18.2805 39.3093C17.2125 38.7635 15.9902 38.5984 14.8157 38.8413C14.2293 38.9835 13.6148 38.9579 13.0424 38.7673C12.4786 38.6019 11.9632 38.3023 11.5407 37.894C11.1181 37.4857 10.801 36.9809 10.6164 36.4231C10.35 35.6044 9.88305 34.8653 9.25808 34.2731L9.25091 34.2668L9.24341 34.2585L9.23874 34.2558C8.67616 33.7058 7.99395 33.2935 7.24549 33.0512C6.51797 32.8127 5.88426 32.3507 5.43464 31.731C4.98502 31.1114 4.74242 30.3656 4.74141 29.6C4.74571 29.3476 4.77435 29.0962 4.82691 28.8493C4.89574 28.4981 4.93128 28.1412 4.93308 27.7833C4.93311 26.48 4.45339 25.2223 3.58541 24.25C2.99287 23.5834 2.66591 22.7223 2.66666 21.8304C2.66741 20.9385 2.99583 20.078 3.58949 19.4123C4.45529 18.4408 4.93351 17.1847 4.93308 15.8833C4.93141 15.5247 4.89572 15.1671 4.82649 14.8152C4.7743 14.569 4.74581 14.3183 4.74141 14.0667C4.74223 13.3017 4.98429 12.5565 5.43314 11.9371C5.88199 11.3177 6.51476 10.8557 7.24141 10.6167C8.02876 10.3576 8.74431 9.91739 9.33049 9.33138C9.91668 8.74537 10.3571 8.02995 10.6164 7.24268C10.7477 6.83989 10.9497 6.46373 11.213 6.13185C11.5538 5.70084 11.9872 5.35209 12.4812 5.11143C12.9752 4.87078 13.517 4.74441 14.0664 4.74168C14.3181 4.74602 14.5687 4.77423 14.8151 4.82593C15.6045 4.99342 16.4221 4.97541 17.2034 4.77333C17.9848 4.57124 18.7086 4.1906 19.3178 3.66135C19.3525 3.63842 19.3854 3.61305 19.4164 3.58543C20.0831 2.99296 20.9442 2.666 21.8361 2.66668C22.7281 2.66736 23.5887 2.99561 24.2545 3.5891C24.8725 4.13707 25.6094 4.53403 26.407 4.74869C27.2046 4.96335 28.0412 4.98985 28.8508 4.8261C29.0972 4.77442 29.348 4.74615 29.5997 4.74168C30.1495 4.74455 30.6916 4.87113 31.1858 5.11204C31.68 5.35295 32.1136 5.70201 32.4546 6.13335C32.7171 6.46496 32.9186 6.84058 33.0497 7.24268C33.3086 8.02942 33.7484 8.74445 34.3338 9.33031C34.9192 9.91617 35.6339 10.3565 36.4205 10.6159C37.148 10.8543 37.7817 11.3163 38.2313 11.9358C38.681 12.5554 38.9236 13.3011 38.9247 14.0667C38.9204 14.3191 38.8918 14.5705 38.8392 14.8174C38.7704 15.1686 38.7349 15.5255 38.7331 15.8833C38.733 17.1867 39.2128 18.4444 40.0807 19.4167C40.6726 20.0825 40.9996 20.9424 40.9996 21.8333C40.9996 22.7242 40.6729 23.5842 40.081 24.25Z" fill="#305070" stroke="#305070"/>
<path d="M30.3397 17.9723L25.5611 17.0376L23.1954 12.7819C23.0605 12.5388 22.863 12.3363 22.6234 12.1953C22.3838 12.0542 22.1109 11.9799 21.8329 11.9799C21.5549 11.9799 21.282 12.0542 21.0424 12.1953C20.8028 12.3363 20.6053 12.5388 20.4704 12.7819L18.1047 17.0376L13.3264 17.9723C13.0537 18.0257 12.8002 18.1511 12.5922 18.3354C12.3842 18.5197 12.2293 18.7562 12.1434 19.0205C12.0575 19.2848 12.0438 19.5673 12.1037 19.8386C12.1636 20.11 12.295 20.3604 12.4842 20.564L15.8003 24.1284L15.2128 28.9628C15.1795 29.2387 15.2205 29.5185 15.3316 29.7732C15.4427 30.028 15.6199 30.2484 15.8448 30.4117C16.0697 30.575 16.3341 30.6752 16.6107 30.7019C16.8874 30.7287 17.1661 30.6811 17.4182 30.564L21.8331 28.5119L26.2487 30.5643C26.5008 30.6813 26.7795 30.7289 27.0561 30.7021C27.3327 30.6752 27.597 30.5749 27.8219 30.4116C28.0467 30.2483 28.2238 30.0279 28.3348 29.7731C28.4458 29.5184 28.4867 29.2386 28.4533 28.9627L27.8658 24.1287L31.1825 20.5639C31.3717 20.3603 31.5031 20.1099 31.5631 19.8385C31.623 19.5671 31.6093 19.2847 31.5234 19.0204C31.4375 18.756 31.2825 18.5195 31.0745 18.3352C30.8664 18.1509 30.6125 18.0257 30.3397 17.9723ZM26.6109 23.0306C26.4561 23.1968 26.3396 23.3947 26.2694 23.6107C26.1993 23.8266 26.1772 24.0553 26.2048 24.2806L26.7753 28.9714L22.4898 26.9792C22.284 26.8835 22.0596 26.8339 21.8326 26.834C21.6056 26.834 21.3813 26.8838 21.1755 26.9796L16.8908 28.9713L17.4605 24.2814C17.4885 24.0559 17.4667 23.8271 17.3967 23.611C17.3267 23.3949 17.2101 23.1967 17.0552 23.0306L13.8367 19.5711L18.4747 18.6636C18.6976 18.6202 18.9082 18.5286 19.0918 18.3951C19.2754 18.2616 19.4276 18.0895 19.5376 17.8909L21.8331 13.7613L24.1288 17.8913C24.2389 18.0898 24.3911 18.2618 24.5747 18.3952C24.7583 18.5286 24.9689 18.6202 25.1916 18.6636L29.8295 19.5711L26.6109 23.0306Z" fill="#305070" stroke="#305070"/>
<path d="M21.8332 6.49036C18.8761 6.49039 15.9855 7.36728 13.5269 9.01015C11.0682 10.653 9.15191 12.9881 8.02034 15.72C6.88876 18.452 6.59272 21.4581 7.16965 24.3583C7.74658 27.2585 9.17056 29.9225 11.2615 32.0135C13.3525 34.1044 16.0165 35.5283 18.9167 36.1051C21.817 36.682 24.8231 36.3858 27.555 35.2542C30.287 34.1225 32.622 32.2062 34.2648 29.7475C35.9076 27.2888 36.7844 24.3981 36.7843 21.4411C36.7797 17.4773 35.203 13.6771 32.4001 10.8742C29.5972 8.07142 25.797 6.49483 21.8332 6.49036ZM21.8332 34.7256C19.2058 34.7256 16.6374 33.9464 14.4528 32.4867C12.2683 31.027 10.5656 28.9523 9.56017 26.5249C8.55474 24.0975 8.29168 21.4265 8.80426 18.8496C9.31684 16.2727 10.5821 13.9057 12.4399 12.0478C14.2977 10.19 16.6647 8.92479 19.2416 8.4122C21.8185 7.89962 24.4896 8.16268 26.9169 9.16812C29.3443 10.1736 31.4191 11.8762 32.8788 14.0608C34.3385 16.2454 35.1176 18.8137 35.1177 21.4411C35.1136 24.9631 33.7126 28.3397 31.2222 30.8301C28.7317 33.3206 25.3552 34.7215 21.8332 34.7256Z" fill="#305070" stroke="#305070"/>
</svg>
