<svg width="180" height="123" viewBox="0 0 180 123" fill="none" xmlns="http://www.w3.org/2000/svg">
<path d="M91.4237 30.946C108.124 47.6465 108.124 74.7231 91.4239 91.4236C74.7234 108.124 47.6465 108.124 30.946 91.4237C14.2455 74.7232 14.2456 47.6463 30.9461 30.9458C47.6466 14.2453 74.7232 14.2455 91.4237 30.946Z" fill="#D2F9F9" stroke="#305070"/>
<path d="M93.1294 101.676C97.2685 103.391 99.2342 108.136 97.5197 112.275C95.8052 116.414 91.0599 118.379 86.9208 116.665C82.7816 114.95 80.816 110.205 82.5305 106.066C84.245 101.927 88.9902 99.9616 93.1294 101.676Z" fill="#F9E2D2" stroke="#305070"/>
<path d="M120.255 27.4517C120.255 31.9318 116.623 35.5638 112.143 35.5638C107.663 35.5638 104.031 31.9318 104.031 27.4517C104.031 22.9715 107.663 19.3396 112.143 19.3396C116.623 19.3396 120.255 22.9715 120.255 27.4517Z" fill="#D2F9F9" stroke="#305070"/>
<path d="M133.66 70.2566L134.609 70.7432L134.514 70.3195L153.323 70.6795C167.279 70.9447 178.457 82.3395 178.457 96.2995C178.457 111.472 165.209 124.512 150.395 121.808C148.715 121.501 145.384 120.599 142.45 119.767C140.988 119.352 139.632 118.957 138.642 118.666C138.147 118.52 137.744 118.4 137.464 118.317L137.141 118.22L137.057 118.195L137.036 118.188L137.03 118.187L137.029 118.186L137.029 118.186C137.029 118.186 137.029 118.186 136.885 118.665L137.029 118.186L136.899 118.147L136.767 118.179L136.767 118.179L136.767 118.179L136.765 118.18L136.758 118.181L136.728 118.188C136.701 118.195 136.66 118.204 136.606 118.216C136.497 118.241 136.335 118.276 136.123 118.32C135.7 118.408 135.078 118.528 134.289 118.659C132.71 118.92 130.464 119.22 127.801 119.378C122.468 119.694 115.491 119.435 108.852 117.159C96.8151 113.033 90.9683 103.27 88.448 99.0612C88.194 98.6371 87.9738 98.2693 87.7844 97.9695C87.2032 97.0491 86.1364 96.2725 84.8553 95.5517C83.5622 94.8242 81.973 94.1125 80.2797 93.3549L80.2688 93.35C76.861 91.8252 72.9957 90.0957 69.9027 87.5914C66.8842 85.1473 65.7154 81.6629 66.0893 78.5629C66.4633 75.4621 68.371 72.774 71.5036 71.8423C74.7167 70.8885 78.0961 71.0942 81.0234 71.9276C83.9593 72.7634 86.3867 74.2148 87.7121 75.6907L88.5065 75.0891C86.8859 72.5293 86.1995 69.1566 86.2483 66.1437C86.2726 64.6411 86.4798 63.2477 86.8328 62.1094C87.1895 60.9593 87.6782 60.1232 88.2256 59.6702C89.1327 58.9215 90.6919 58.2827 92.4402 57.7659C94.1704 57.2545 96.0175 56.8816 97.4463 56.6351L97.9462 56.5488L97.8527 56.0502L95.9465 45.8823L95.8516 45.3764L95.3486 45.4859L95.455 45.9745C95.3486 45.4859 95.3486 45.486 95.3485 45.486L95.3482 45.486L95.3469 45.4863L95.3418 45.4874L95.322 45.4918L95.2444 45.5088L94.9453 45.5746C94.685 45.6322 94.307 45.7162 93.8358 45.8221C92.8934 46.0341 91.5779 46.3339 90.0852 46.6856C87.1024 47.3885 83.4027 48.3008 80.5592 49.1336C77.7935 49.9436 74.925 50.1024 72.566 49.4997C70.2163 48.8993 68.409 47.5585 67.6344 45.3773C66.8344 43.1241 66.8786 40.3472 68.2427 37.7745C69.6038 35.2075 72.3044 32.7982 76.8981 31.332C81.5819 29.8393 87.7245 28.1041 93.5118 27.119C96.4056 26.6265 99.1985 26.3237 101.669 26.3294C104.147 26.3352 106.259 26.6518 107.817 27.3655C109.331 28.0592 110.944 29.8389 112.526 32.2352C114.094 34.6095 115.58 37.506 116.866 40.3231C118.151 43.1377 119.231 45.8599 119.99 47.8795C120.37 48.889 120.669 49.722 120.873 50.3023C120.975 50.5924 121.053 50.8193 121.106 50.9733C121.132 51.0503 121.152 51.1091 121.165 51.1486L121.18 51.193L121.184 51.204L121.185 51.2066L121.185 51.2073C121.185 51.2074 121.185 51.2074 121.659 51.0495L121.185 51.2074L121.298 51.5465L121.655 51.5495C124.786 51.5758 127.29 54.1185 129.262 57.8185C131.217 61.4861 132.548 66.1105 133.4 69.9208L133.755 69.8416L133.651 70.2522L133.66 70.2566Z" fill="white" stroke="#305070"/>
<path d="M87.0824 98.4181C86.1072 96.8801 83.2307 95.5903 79.8975 94.101M87.0824 98.4181C87.2521 98.6849 87.4475 99.0106 87.6721 99.3852L87.7381 99.4952L79.8975 94.101M87.0824 98.4181L87.205 98.3401L150.279 122.477C150.279 122.477 150.278 122.477 150.278 122.477L150.278 122.477C147.05 121.885 137.893 119.154 136.92 118.863C136.907 118.859 136.896 118.856 136.886 118.853C136.875 118.855 136.86 118.859 136.842 118.863C135.673 119.13 121.483 122.21 108.631 117.81C108.631 117.81 108.631 117.81 108.631 117.81C108.629 117.81 108.627 117.809 108.625 117.808L108.741 117.472M87.0824 98.4181L87.2051 98.3403C87.3877 98.6317 87.6065 98.9946 87.8579 99.418L87.8589 99.4196L87.8602 99.4219L87.8603 99.422L87.8711 99.44C90.394 103.654 96.3509 113.603 108.625 117.808L108.741 117.472M79.8975 94.101C76.4536 92.563 72.553 90.8166 69.375 88.2414M79.8975 94.101L69.375 88.2414M108.741 117.472C96.5981 113.311 90.7123 103.488 88.1671 99.2383L88.1669 99.2379L88.1657 99.2359L88.1654 99.2355L88.1001 99.1267C87.8768 98.7543 87.6781 98.4229 87.5046 98.1504L150.341 122.136C150.341 122.136 150.341 122.136 150.34 122.136C150.34 122.136 150.34 122.135 150.34 122.135C147.102 121.543 138.072 118.847 137.019 118.532L136.943 118.509L136.941 118.503L136.982 118.359M108.741 117.472C108.742 117.473 108.744 117.474 108.746 117.474L108.746 117.474C121.449 121.831 135.53 118.804 136.764 118.523L136.825 118.51L136.8 118.359M136.8 118.359L136.836 118.507L136.875 118.498L136.889 118.495V118.391V118.346M136.8 118.359L136.81 118.358C136.832 118.354 136.852 118.35 136.875 118.35L136.889 118.346M136.8 118.359C136.654 118.395 121.987 121.856 108.787 117.335C96.686 113.189 90.8085 103.373 88.2927 99.1708L88.2878 99.1628C88.0352 98.7373 87.8135 98.3694 87.6273 98.0724L136.982 118.359M136.889 118.346L136.939 118.499L136.982 118.359M136.889 118.346C136.92 118.346 136.951 118.35 136.982 118.359M69.375 88.2414C66.1438 85.6263 64.6104 81.5973 65.3772 77.7279L69.375 88.2414ZM87.3359 74.4084C87.1867 74.282 87.0303 74.1566 86.8671 74.0326L87.075 73.8683C87.1582 74.0503 87.2452 74.2304 87.3359 74.4084Z" fill="#305070" stroke="#305070"/>
<path d="M145.389 120.59C157.045 117.743 165.902 106.237 165.902 93.383C165.902 84.009 161.229 75.7078 154.066 70.7129C167.675 71.3579 178.461 82.5956 178.461 96.3084C178.461 111.48 165.214 124.52 150.401 121.817C149.27 121.608 147.392 121.133 145.389 120.59Z" fill="#305070" stroke="#305070"/>
<path d="M121.659 51.0513L121.662 51.0509L121.659 51.0513Z" fill="#305070" stroke="#305070"/>
<mask id="path-8-inside-1_113_1142" fill="white">
<path d="M111.975 100.883C106.966 100.883 103.039 99.5307 100.295 96.8624C96.7314 93.3919 96.3282 88.8398 96.2839 87.6874C86.7543 85.5909 87.6851 75.9373 87.7516 75.3522C87.7427 74.8646 87.7739 68.2471 93.9305 65.1711C100.154 62.0596 114.621 59.8034 115.232 59.7059C115.409 59.6793 115.578 59.799 115.604 59.9763C115.631 60.1536 115.512 60.3221 115.334 60.3487C115.184 60.3708 100.357 62.6845 94.2231 65.7517C88.2394 68.7435 88.403 75.2901 88.403 75.3566C88.403 75.3744 88.403 75.3921 88.403 75.4098C88.3498 75.8087 87.2153 85.1965 96.6695 87.1024C96.8202 87.1334 96.931 87.2708 96.931 87.4259C96.931 87.4791 96.9265 92.6783 100.756 96.4015C103.566 99.1318 107.697 100.413 113.056 100.209C113.251 100.209 113.389 100.342 113.393 100.524C113.402 100.705 113.26 100.856 113.078 100.86C112.702 100.874 112.334 100.883 111.97 100.883H111.975Z"/>
</mask>
<path d="M111.975 100.883C106.966 100.883 103.039 99.5307 100.295 96.8624C96.7314 93.3919 96.3282 88.8398 96.2839 87.6874C86.7543 85.5909 87.6851 75.9373 87.7516 75.3522C87.7427 74.8646 87.7739 68.2471 93.9305 65.1711C100.154 62.0596 114.621 59.8034 115.232 59.7059C115.409 59.6793 115.578 59.799 115.604 59.9763C115.631 60.1536 115.512 60.3221 115.334 60.3487C115.184 60.3708 100.357 62.6845 94.2231 65.7517C88.2394 68.7435 88.403 75.2901 88.403 75.3566C88.403 75.3744 88.403 75.3921 88.403 75.4098C88.3498 75.8087 87.2153 85.1965 96.6695 87.1024C96.8202 87.1334 96.931 87.2708 96.931 87.4259C96.931 87.4791 96.9265 92.6783 100.756 96.4015C103.566 99.1318 107.697 100.413 113.056 100.209C113.251 100.209 113.389 100.342 113.393 100.524C113.402 100.705 113.26 100.856 113.078 100.86C112.702 100.874 112.334 100.883 111.97 100.883H111.975Z" fill="#305070"/>
<path d="M100.295 96.8624L99.5974 97.5788L99.5979 97.5793L100.295 96.8624ZM96.2839 87.6874L97.2831 87.649L97.2534 86.8768L96.4987 86.7108L96.2839 87.6874ZM87.7516 75.3522L88.7452 75.4651L88.7526 75.3998L88.7514 75.334L87.7516 75.3522ZM93.9305 65.1711L94.3774 66.0656L94.3777 66.0655L93.9305 65.1711ZM115.232 59.7059L115.084 58.717L115.075 58.7184L115.232 59.7059ZM115.334 60.3487L115.48 61.338L115.483 61.3376L115.334 60.3487ZM88.403 75.4098L89.3942 75.542L89.403 75.4762V75.4098H88.403ZM96.6695 87.1024L96.8712 86.1229L96.8671 86.1221L96.6695 87.1024ZM100.756 96.4015L100.059 97.1184L100.059 97.1187L100.756 96.4015ZM113.056 100.209V99.2088H113.037L113.018 99.2096L113.056 100.209ZM113.393 100.524L112.393 100.548L112.394 100.56L112.394 100.572L113.393 100.524ZM113.078 100.86L113.054 99.8606L113.043 99.861L113.078 100.86ZM111.975 99.8826C107.143 99.8826 103.497 98.5815 100.992 96.1456L99.5979 97.5793C102.58 100.48 106.789 101.883 111.975 101.883V99.8826ZM100.993 96.146C97.7083 92.9474 97.3243 88.7196 97.2831 87.649L95.2846 87.7259C95.3321 88.9601 95.7546 93.8364 99.5974 97.5788L100.993 96.146ZM96.4987 86.7108C92.1325 85.7502 90.2219 83.1069 89.3643 80.6263C88.4857 78.0847 88.7186 75.6992 88.7452 75.4651L86.758 75.2393C86.7181 75.5902 86.4523 78.3241 87.4741 81.2797C88.5169 84.2963 90.9057 87.5281 96.069 88.6641L96.4987 86.7108ZM88.7514 75.334C88.7433 74.8881 88.7923 68.8562 94.3774 66.0656L93.4835 64.2765C86.7556 67.6381 86.7421 74.8412 86.7517 75.3704L88.7514 75.334ZM94.3777 66.0655C97.3622 64.5732 102.418 63.2524 106.897 62.2857C111.34 61.3266 115.087 60.7417 115.39 60.6935L115.075 58.7184C114.765 58.7677 110.974 59.3596 106.475 60.3308C102.011 61.2944 96.7218 62.6574 93.4833 64.2766L94.3777 66.0655ZM115.381 60.6949C115.033 60.747 114.674 60.5149 114.616 60.1246L116.593 59.828C116.482 59.0831 115.786 58.6117 115.084 58.717L115.381 60.6949ZM114.616 60.1246C114.564 59.779 114.794 59.4185 115.186 59.3597L115.483 61.3376C116.229 61.2256 116.698 60.5282 116.593 59.828L114.616 60.1246ZM115.189 59.3593C115.096 59.373 111.33 59.9606 106.813 60.9306C102.331 61.8929 96.9717 63.2593 93.7759 64.8573L94.6703 66.6461C97.6088 65.1769 102.73 63.8528 107.233 62.886C109.464 62.4068 111.511 62.0219 113.01 61.7555C113.759 61.6223 114.37 61.5188 114.799 61.448C115.013 61.4126 115.181 61.3854 115.298 61.3668C115.356 61.3575 115.401 61.3503 115.433 61.3453C115.467 61.34 115.481 61.3379 115.48 61.338L115.189 59.3593ZM93.7759 64.8573C90.4927 66.4988 88.8939 69.1263 88.1254 71.3206C87.7423 72.4143 87.5623 73.4069 87.4777 74.1326C87.4352 74.4964 87.4165 74.7955 87.4084 75.0098C87.4002 75.2253 87.403 75.361 87.403 75.3566H89.403C89.403 75.2726 89.2738 69.3444 94.6703 66.6461L93.7759 64.8573ZM87.403 75.3566C87.403 75.3567 87.403 75.3567 87.403 75.3567C87.403 75.3568 87.403 75.3568 87.403 75.3568C87.403 75.3569 87.403 75.3569 87.403 75.3569C87.403 75.357 87.403 75.357 87.403 75.357C87.403 75.3571 87.403 75.3571 87.403 75.3571C87.403 75.3572 87.403 75.3572 87.403 75.3572C87.403 75.3573 87.403 75.3573 87.403 75.3573C87.403 75.3574 87.403 75.3574 87.403 75.3575C87.403 75.3575 87.403 75.3575 87.403 75.3576C87.403 75.3576 87.403 75.3576 87.403 75.3577C87.403 75.3577 87.403 75.3577 87.403 75.3578C87.403 75.3578 87.403 75.3578 87.403 75.3579C87.403 75.3579 87.403 75.3579 87.403 75.358C87.403 75.358 87.403 75.358 87.403 75.3581C87.403 75.3581 87.403 75.3581 87.403 75.3582C87.403 75.3582 87.403 75.3582 87.403 75.3583C87.403 75.3583 87.403 75.3584 87.403 75.3584C87.403 75.3584 87.403 75.3585 87.403 75.3585C87.403 75.3585 87.403 75.3586 87.403 75.3586C87.403 75.3586 87.403 75.3587 87.403 75.3587C87.403 75.3587 87.403 75.3588 87.403 75.3588C87.403 75.3588 87.403 75.3589 87.403 75.3589C87.403 75.3589 87.403 75.359 87.403 75.359C87.403 75.359 87.403 75.3591 87.403 75.3591C87.403 75.3591 87.403 75.3592 87.403 75.3592C87.403 75.3593 87.403 75.3593 87.403 75.3593C87.403 75.3594 87.403 75.3594 87.403 75.3594C87.403 75.3595 87.403 75.3595 87.403 75.3595C87.403 75.3596 87.403 75.3596 87.403 75.3596C87.403 75.3597 87.403 75.3597 87.403 75.3597C87.403 75.3598 87.403 75.3598 87.403 75.3598C87.403 75.3599 87.403 75.3599 87.403 75.3599C87.403 75.36 87.403 75.36 87.403 75.36C87.403 75.3601 87.403 75.3601 87.403 75.3602C87.403 75.3602 87.403 75.3602 87.403 75.3603C87.403 75.3603 87.403 75.3603 87.403 75.3604C87.403 75.3604 87.403 75.3604 87.403 75.3605C87.403 75.3605 87.403 75.3605 87.403 75.3606C87.403 75.3606 87.403 75.3606 87.403 75.3607C87.403 75.3607 87.403 75.3607 87.403 75.3608C87.403 75.3608 87.403 75.3608 87.403 75.3609C87.403 75.3609 87.403 75.3609 87.403 75.361C87.403 75.361 87.403 75.3611 87.403 75.3611C87.403 75.3611 87.403 75.3612 87.403 75.3612C87.403 75.3612 87.403 75.3613 87.403 75.3613C87.403 75.3613 87.403 75.3614 87.403 75.3614C87.403 75.3614 87.403 75.3615 87.403 75.3615C87.403 75.3615 87.403 75.3616 87.403 75.3616C87.403 75.3616 87.403 75.3617 87.403 75.3617C87.403 75.3617 87.403 75.3618 87.403 75.3618C87.403 75.3618 87.403 75.3619 87.403 75.3619C87.403 75.362 87.403 75.362 87.403 75.362C87.403 75.3621 87.403 75.3621 87.403 75.3621C87.403 75.3622 87.403 75.3622 87.403 75.3622C87.403 75.3623 87.403 75.3623 87.403 75.3623C87.403 75.3624 87.403 75.3624 87.403 75.3624C87.403 75.3625 87.403 75.3625 87.403 75.3625C87.403 75.3626 87.403 75.3626 87.403 75.3626C87.403 75.3627 87.403 75.3627 87.403 75.3628C87.403 75.3628 87.403 75.3628 87.403 75.3629C87.403 75.3629 87.403 75.3629 87.403 75.363C87.403 75.363 87.403 75.363 87.403 75.3631C87.403 75.3631 87.403 75.3631 87.403 75.3632C87.403 75.3632 87.403 75.3632 87.403 75.3633C87.403 75.3633 87.403 75.3633 87.403 75.3634C87.403 75.3634 87.403 75.3634 87.403 75.3635C87.403 75.3635 87.403 75.3635 87.403 75.3636C87.403 75.3636 87.403 75.3637 87.403 75.3637C87.403 75.3637 87.403 75.3638 87.403 75.3638C87.403 75.3638 87.403 75.3639 87.403 75.3639C87.403 75.3639 87.403 75.364 87.403 75.364C87.403 75.364 87.403 75.3641 87.403 75.3641C87.403 75.3641 87.403 75.3642 87.403 75.3642C87.403 75.3642 87.403 75.3643 87.403 75.3643C87.403 75.3643 87.403 75.3644 87.403 75.3644C87.403 75.3644 87.403 75.3645 87.403 75.3645C87.403 75.3646 87.403 75.3646 87.403 75.3646C87.403 75.3647 87.403 75.3647 87.403 75.3647C87.403 75.3648 87.403 75.3648 87.403 75.3648C87.403 75.3649 87.403 75.3649 87.403 75.3649C87.403 75.365 87.403 75.365 87.403 75.365C87.403 75.3651 87.403 75.3651 87.403 75.3651C87.403 75.3652 87.403 75.3652 87.403 75.3652C87.403 75.3653 87.403 75.3653 87.403 75.3653C87.403 75.3654 87.403 75.3654 87.403 75.3655C87.403 75.3655 87.403 75.3655 87.403 75.3656C87.403 75.3656 87.403 75.3656 87.403 75.3657C87.403 75.3657 87.403 75.3657 87.403 75.3658C87.403 75.3658 87.403 75.3658 87.403 75.3659C87.403 75.3659 87.403 75.3659 87.403 75.366C87.403 75.366 87.403 75.366 87.403 75.3661C87.403 75.3661 87.403 75.3661 87.403 75.3662C87.403 75.3662 87.403 75.3662 87.403 75.3663C87.403 75.3663 87.403 75.3664 87.403 75.3664C87.403 75.3664 87.403 75.3665 87.403 75.3665C87.403 75.3665 87.403 75.3666 87.403 75.3666C87.403 75.3666 87.403 75.3667 87.403 75.3667C87.403 75.3667 87.403 75.3668 87.403 75.3668C87.403 75.3668 87.403 75.3669 87.403 75.3669C87.403 75.3669 87.403 75.367 87.403 75.367C87.403 75.367 87.403 75.3671 87.403 75.3671C87.403 75.3671 87.403 75.3672 87.403 75.3672C87.403 75.3673 87.403 75.3673 87.403 75.3673C87.403 75.3674 87.403 75.3674 87.403 75.3674C87.403 75.3675 87.403 75.3675 87.403 75.3675C87.403 75.3676 87.403 75.3676 87.403 75.3676C87.403 75.3677 87.403 75.3677 87.403 75.3677C87.403 75.3678 87.403 75.3678 87.403 75.3678C87.403 75.3679 87.403 75.3679 87.403 75.3679C87.403 75.368 87.403 75.368 87.403 75.368C87.403 75.3681 87.403 75.3681 87.403 75.3682C87.403 75.3682 87.403 75.3682 87.403 75.3683C87.403 75.3683 87.403 75.3683 87.403 75.3684C87.403 75.3684 87.403 75.3684 87.403 75.3685C87.403 75.3685 87.403 75.3685 87.403 75.3686C87.403 75.3686 87.403 75.3686 87.403 75.3687C87.403 75.3687 87.403 75.3687 87.403 75.3688C87.403 75.3688 87.403 75.3688 87.403 75.3689C87.403 75.3689 87.403 75.3689 87.403 75.369C87.403 75.369 87.403 75.3691 87.403 75.3691C87.403 75.3691 87.403 75.3692 87.403 75.3692C87.403 75.3692 87.403 75.3693 87.403 75.3693C87.403 75.3693 87.403 75.3694 87.403 75.3694C87.403 75.3694 87.403 75.3695 87.403 75.3695C87.403 75.3695 87.403 75.3696 87.403 75.3696C87.403 75.3696 87.403 75.3697 87.403 75.3697C87.403 75.3697 87.403 75.3698 87.403 75.3698C87.403 75.3698 87.403 75.3699 87.403 75.3699C87.403 75.37 87.403 75.37 87.403 75.37C87.403 75.3701 87.403 75.3701 87.403 75.3701C87.403 75.3702 87.403 75.3702 87.403 75.3702C87.403 75.3703 87.403 75.3703 87.403 75.3703C87.403 75.3704 87.403 75.3704 87.403 75.3704C87.403 75.3705 87.403 75.3705 87.403 75.3705C87.403 75.3706 87.403 75.3706 87.403 75.3706C87.403 75.3707 87.403 75.3707 87.403 75.3707C87.403 75.3708 87.403 75.3708 87.403 75.3709C87.403 75.3709 87.403 75.3709 87.403 75.371C87.403 75.371 87.403 75.371 87.403 75.3711C87.403 75.3711 87.403 75.3711 87.403 75.3712C87.403 75.3712 87.403 75.3712 87.403 75.3713C87.403 75.3713 87.403 75.3713 87.403 75.3714C87.403 75.3714 87.403 75.3714 87.403 75.3715C87.403 75.3715 87.403 75.3715 87.403 75.3716C87.403 75.3716 87.403 75.3716 87.403 75.3717C87.403 75.3717 87.403 75.3718 87.403 75.3718C87.403 75.3718 87.403 75.3719 87.403 75.3719C87.403 75.3719 87.403 75.372 87.403 75.372C87.403 75.372 87.403 75.3721 87.403 75.3721C87.403 75.3721 87.403 75.3722 87.403 75.3722C87.403 75.3722 87.403 75.3723 87.403 75.3723C87.403 75.3723 87.403 75.3724 87.403 75.3724C87.403 75.3724 87.403 75.3725 87.403 75.3725C87.403 75.3725 87.403 75.3726 87.403 75.3726C87.403 75.3727 87.403 75.3727 87.403 75.3727C87.403 75.3728 87.403 75.3728 87.403 75.3728C87.403 75.3729 87.403 75.3729 87.403 75.3729C87.403 75.373 87.403 75.373 87.403 75.373C87.403 75.3731 87.403 75.3731 87.403 75.3731C87.403 75.3732 87.403 75.3732 87.403 75.3732C87.403 75.3733 87.403 75.3733 87.403 75.3733C87.403 75.3734 87.403 75.3734 87.403 75.3734C87.403 75.3735 87.403 75.3735 87.403 75.3736C87.403 75.3736 87.403 75.3736 87.403 75.3737C87.403 75.3737 87.403 75.3737 87.403 75.3738C87.403 75.3738 87.403 75.3738 87.403 75.3739C87.403 75.3739 87.403 75.3739 87.403 75.374C87.403 75.374 87.403 75.374 87.403 75.3741C87.403 75.3741 87.403 75.3741 87.403 75.3742C87.403 75.3742 87.403 75.3742 87.403 75.3743C87.403 75.3743 87.403 75.3743 87.403 75.3744C87.403 75.3744 87.403 75.3745 87.403 75.3745C87.403 75.3745 87.403 75.3746 87.403 75.3746C87.403 75.3746 87.403 75.3747 87.403 75.3747C87.403 75.3747 87.403 75.3748 87.403 75.3748C87.403 75.3748 87.403 75.3749 87.403 75.3749C87.403 75.3749 87.403 75.375 87.403 75.375C87.403 75.375 87.403 75.3751 87.403 75.3751C87.403 75.3751 87.403 75.3752 87.403 75.3752C87.403 75.3752 87.403 75.3753 87.403 75.3753C87.403 75.3754 87.403 75.3754 87.403 75.3754C87.403 75.3755 87.403 75.3755 87.403 75.3755C87.403 75.3756 87.403 75.3756 87.403 75.3756C87.403 75.3757 87.403 75.3757 87.403 75.3757C87.403 75.3758 87.403 75.3758 87.403 75.3758C87.403 75.3759 87.403 75.3759 87.403 75.3759C87.403 75.376 87.403 75.376 87.403 75.376C87.403 75.3761 87.403 75.3761 87.403 75.3762C87.403 75.3762 87.403 75.3762 87.403 75.3763C87.403 75.3763 87.403 75.3763 87.403 75.3764C87.403 75.3764 87.403 75.3764 87.403 75.3765C87.403 75.3765 87.403 75.3765 87.403 75.3766C87.403 75.3766 87.403 75.3766 87.403 75.3767C87.403 75.3767 87.403 75.3767 87.403 75.3768C87.403 75.3768 87.403 75.3768 87.403 75.3769C87.403 75.3769 87.403 75.3769 87.403 75.377C87.403 75.377 87.403 75.3771 87.403 75.3771C87.403 75.3771 87.403 75.3772 87.403 75.3772C87.403 75.3772 87.403 75.3773 87.403 75.3773C87.403 75.3773 87.403 75.3774 87.403 75.3774C87.403 75.3774 87.403 75.3775 87.403 75.3775C87.403 75.3775 87.403 75.3776 87.403 75.3776C87.403 75.3776 87.403 75.3777 87.403 75.3777C87.403 75.3777 87.403 75.3778 87.403 75.3778C87.403 75.3778 87.403 75.3779 87.403 75.3779C87.403 75.378 87.403 75.378 87.403 75.378C87.403 75.3781 87.403 75.3781 87.403 75.3781C87.403 75.3782 87.403 75.3782 87.403 75.3782C87.403 75.3783 87.403 75.3783 87.403 75.3783C87.403 75.3784 87.403 75.3784 87.403 75.3784C87.403 75.3785 87.403 75.3785 87.403 75.3785C87.403 75.3786 87.403 75.3786 87.403 75.3786C87.403 75.3787 87.403 75.3787 87.403 75.3787C87.403 75.3788 87.403 75.3788 87.403 75.3789C87.403 75.3789 87.403 75.3789 87.403 75.379C87.403 75.379 87.403 75.379 87.403 75.3791C87.403 75.3791 87.403 75.3791 87.403 75.3792C87.403 75.3792 87.403 75.3792 87.403 75.3793C87.403 75.3793 87.403 75.3793 87.403 75.3794C87.403 75.3794 87.403 75.3794 87.403 75.3795C87.403 75.3795 87.403 75.3795 87.403 75.3796C87.403 75.3796 87.403 75.3796 87.403 75.3797C87.403 75.3797 87.403 75.3798 87.403 75.3798C87.403 75.3798 87.403 75.3799 87.403 75.3799C87.403 75.3799 87.403 75.38 87.403 75.38C87.403 75.38 87.403 75.3801 87.403 75.3801C87.403 75.3801 87.403 75.3802 87.403 75.3802C87.403 75.3802 87.403 75.3803 87.403 75.3803C87.403 75.3803 87.403 75.3804 87.403 75.3804C87.403 75.3804 87.403 75.3805 87.403 75.3805C87.403 75.3805 87.403 75.3806 87.403 75.3806C87.403 75.3807 87.403 75.3807 87.403 75.3807C87.403 75.3808 87.403 75.3808 87.403 75.3808C87.403 75.3809 87.403 75.3809 87.403 75.3809C87.403 75.381 87.403 75.381 87.403 75.381C87.403 75.3811 87.403 75.3811 87.403 75.3811C87.403 75.3812 87.403 75.3812 87.403 75.3812C87.403 75.3813 87.403 75.3813 87.403 75.3813C87.403 75.3814 87.403 75.3814 87.403 75.3814C87.403 75.3815 87.403 75.3815 87.403 75.3816C87.403 75.3816 87.403 75.3816 87.403 75.3817C87.403 75.3817 87.403 75.3817 87.403 75.3818C87.403 75.3818 87.403 75.3818 87.403 75.3819C87.403 75.3819 87.403 75.3819 87.403 75.382C87.403 75.382 87.403 75.382 87.403 75.3821C87.403 75.3821 87.403 75.3821 87.403 75.3822C87.403 75.3822 87.403 75.3822 87.403 75.3823C87.403 75.3823 87.403 75.3823 87.403 75.3824C87.403 75.3824 87.403 75.3825 87.403 75.3825C87.403 75.3825 87.403 75.3826 87.403 75.3826C87.403 75.3826 87.403 75.3827 87.403 75.3827C87.403 75.3827 87.403 75.3828 87.403 75.3828C87.403 75.3828 87.403 75.3829 87.403 75.3829C87.403 75.3829 87.403 75.383 87.403 75.383C87.403 75.383 87.403 75.3831 87.403 75.3831C87.403 75.3831 87.403 75.3832 87.403 75.3832C87.403 75.3832 87.403 75.3833 87.403 75.3833C87.403 75.3834 87.403 75.3834 87.403 75.3834C87.403 75.3835 87.403 75.3835 87.403 75.3835C87.403 75.3836 87.403 75.3836 87.403 75.3836C87.403 75.3837 87.403 75.3837 87.403 75.3837C87.403 75.3838 87.403 75.3838 87.403 75.3838C87.403 75.3839 87.403 75.3839 87.403 75.3839C87.403 75.384 87.403 75.384 87.403 75.384C87.403 75.3841 87.403 75.3841 87.403 75.3841C87.403 75.3842 87.403 75.3842 87.403 75.3843C87.403 75.3843 87.403 75.3843 87.403 75.3844C87.403 75.3844 87.403 75.3844 87.403 75.3845C87.403 75.3845 87.403 75.3845 87.403 75.3846C87.403 75.3846 87.403 75.3846 87.403 75.3847C87.403 75.3847 87.403 75.3847 87.403 75.3848C87.403 75.3848 87.403 75.3848 87.403 75.3849C87.403 75.3849 87.403 75.3849 87.403 75.385C87.403 75.385 87.403 75.385 87.403 75.3851C87.403 75.3851 87.403 75.3852 87.403 75.3852C87.403 75.3852 87.403 75.3853 87.403 75.3853C87.403 75.3853 87.403 75.3854 87.403 75.3854C87.403 75.3854 87.403 75.3855 87.403 75.3855C87.403 75.3855 87.403 75.3856 87.403 75.3856C87.403 75.3856 87.403 75.3857 87.403 75.3857C87.403 75.3857 87.403 75.3858 87.403 75.3858C87.403 75.3858 87.403 75.3859 87.403 75.3859C87.403 75.3859 87.403 75.386 87.403 75.386C87.403 75.3861 87.403 75.3861 87.403 75.3861C87.403 75.3862 87.403 75.3862 87.403 75.3862C87.403 75.3863 87.403 75.3863 87.403 75.3863C87.403 75.3864 87.403 75.3864 87.403 75.3864C87.403 75.3865 87.403 75.3865 87.403 75.3865C87.403 75.3866 87.403 75.3866 87.403 75.3866C87.403 75.3867 87.403 75.3867 87.403 75.3867C87.403 75.3868 87.403 75.3868 87.403 75.3868C87.403 75.3869 87.403 75.3869 87.403 75.387C87.403 75.387 87.403 75.387 87.403 75.3871C87.403 75.3871 87.403 75.3871 87.403 75.3872C87.403 75.3872 87.403 75.3872 87.403 75.3873C87.403 75.3873 87.403 75.3873 87.403 75.3874C87.403 75.3874 87.403 75.3874 87.403 75.3875C87.403 75.3875 87.403 75.3875 87.403 75.3876C87.403 75.3876 87.403 75.3876 87.403 75.3877C87.403 75.3877 87.403 75.3877 87.403 75.3878C87.403 75.3878 87.403 75.3879 87.403 75.3879C87.403 75.3879 87.403 75.388 87.403 75.388C87.403 75.388 87.403 75.3881 87.403 75.3881C87.403 75.3881 87.403 75.3882 87.403 75.3882C87.403 75.3882 87.403 75.3883 87.403 75.3883C87.403 75.3883 87.403 75.3884 87.403 75.3884C87.403 75.3884 87.403 75.3885 87.403 75.3885C87.403 75.3885 87.403 75.3886 87.403 75.3886C87.403 75.3886 87.403 75.3887 87.403 75.3887C87.403 75.3888 87.403 75.3888 87.403 75.3888C87.403 75.3889 87.403 75.3889 87.403 75.3889C87.403 75.389 87.403 75.389 87.403 75.389C87.403 75.3891 87.403 75.3891 87.403 75.3891C87.403 75.3892 87.403 75.3892 87.403 75.3892C87.403 75.3893 87.403 75.3893 87.403 75.3893C87.403 75.3894 87.403 75.3894 87.403 75.3894C87.403 75.3895 87.403 75.3895 87.403 75.3896C87.403 75.3896 87.403 75.3896 87.403 75.3897C87.403 75.3897 87.403 75.3897 87.403 75.3898C87.403 75.3898 87.403 75.3898 87.403 75.3899C87.403 75.3899 87.403 75.3899 87.403 75.39C87.403 75.39 87.403 75.39 87.403 75.3901C87.403 75.3901 87.403 75.3901 87.403 75.3902C87.403 75.3902 87.403 75.3902 87.403 75.3903C87.403 75.3903 87.403 75.3903 87.403 75.3904C87.403 75.3904 87.403 75.3905 87.403 75.3905C87.403 75.3905 87.403 75.3906 87.403 75.3906C87.403 75.3906 87.403 75.3907 87.403 75.3907C87.403 75.3907 87.403 75.3908 87.403 75.3908C87.403 75.3908 87.403 75.3909 87.403 75.3909C87.403 75.3909 87.403 75.391 87.403 75.391C87.403 75.391 87.403 75.3911 87.403 75.3911C87.403 75.3911 87.403 75.3912 87.403 75.3912C87.403 75.3912 87.403 75.3913 87.403 75.3913C87.403 75.3914 87.403 75.3914 87.403 75.3914C87.403 75.3915 87.403 75.3915 87.403 75.3915C87.403 75.3916 87.403 75.3916 87.403 75.3916C87.403 75.3917 87.403 75.3917 87.403 75.3917C87.403 75.3918 87.403 75.3918 87.403 75.3918C87.403 75.3919 87.403 75.3919 87.403 75.3919C87.403 75.392 87.403 75.392 87.403 75.392C87.403 75.3921 87.403 75.3921 87.403 75.3921C87.403 75.3922 87.403 75.3922 87.403 75.3923C87.403 75.3923 87.403 75.3923 87.403 75.3924C87.403 75.3924 87.403 75.3924 87.403 75.3925C87.403 75.3925 87.403 75.3925 87.403 75.3926C87.403 75.3926 87.403 75.3926 87.403 75.3927C87.403 75.3927 87.403 75.3927 87.403 75.3928C87.403 75.3928 87.403 75.3928 87.403 75.3929C87.403 75.3929 87.403 75.3929 87.403 75.393C87.403 75.393 87.403 75.393 87.403 75.3931C87.403 75.3931 87.403 75.3932 87.403 75.3932C87.403 75.3932 87.403 75.3933 87.403 75.3933C87.403 75.3933 87.403 75.3934 87.403 75.3934C87.403 75.3934 87.403 75.3935 87.403 75.3935C87.403 75.3935 87.403 75.3936 87.403 75.3936C87.403 75.3936 87.403 75.3937 87.403 75.3937C87.403 75.3937 87.403 75.3938 87.403 75.3938C87.403 75.3938 87.403 75.3939 87.403 75.3939C87.403 75.3939 87.403 75.394 87.403 75.394C87.403 75.3941 87.403 75.3941 87.403 75.3941C87.403 75.3942 87.403 75.3942 87.403 75.3942C87.403 75.3943 87.403 75.3943 87.403 75.3943C87.403 75.3944 87.403 75.3944 87.403 75.3944C87.403 75.3945 87.403 75.3945 87.403 75.3945C87.403 75.3946 87.403 75.3946 87.403 75.3946C87.403 75.3947 87.403 75.3947 87.403 75.3947C87.403 75.3948 87.403 75.3948 87.403 75.3948C87.403 75.3949 87.403 75.3949 87.403 75.395C87.403 75.395 87.403 75.395 87.403 75.3951C87.403 75.3951 87.403 75.3951 87.403 75.3952C87.403 75.3952 87.403 75.3952 87.403 75.3953C87.403 75.3953 87.403 75.3953 87.403 75.3954C87.403 75.3954 87.403 75.3954 87.403 75.3955C87.403 75.3955 87.403 75.3955 87.403 75.3956C87.403 75.3956 87.403 75.3956 87.403 75.3957C87.403 75.3957 87.403 75.3957 87.403 75.3958C87.403 75.3958 87.403 75.3959 87.403 75.3959C87.403 75.3959 87.403 75.396 87.403 75.396C87.403 75.396 87.403 75.3961 87.403 75.3961C87.403 75.3961 87.403 75.3962 87.403 75.3962C87.403 75.3962 87.403 75.3963 87.403 75.3963C87.403 75.3963 87.403 75.3964 87.403 75.3964C87.403 75.3964 87.403 75.3965 87.403 75.3965C87.403 75.3965 87.403 75.3966 87.403 75.3966C87.403 75.3966 87.403 75.3967 87.403 75.3967C87.403 75.3968 87.403 75.3968 87.403 75.3968C87.403 75.3969 87.403 75.3969 87.403 75.3969C87.403 75.397 87.403 75.397 87.403 75.397C87.403 75.3971 87.403 75.3971 87.403 75.3971C87.403 75.3972 87.403 75.3972 87.403 75.3972C87.403 75.3973 87.403 75.3973 87.403 75.3973C87.403 75.3974 87.403 75.3974 87.403 75.3974C87.403 75.3975 87.403 75.3975 87.403 75.3975C87.403 75.3976 87.403 75.3976 87.403 75.3977C87.403 75.3977 87.403 75.3977 87.403 75.3978C87.403 75.3978 87.403 75.3978 87.403 75.3979C87.403 75.3979 87.403 75.3979 87.403 75.398C87.403 75.398 87.403 75.398 87.403 75.3981C87.403 75.3981 87.403 75.3981 87.403 75.3982C87.403 75.3982 87.403 75.3982 87.403 75.3983C87.403 75.3983 87.403 75.3983 87.403 75.3984C87.403 75.3984 87.403 75.3984 87.403 75.3985C87.403 75.3985 87.403 75.3986 87.403 75.3986C87.403 75.3986 87.403 75.3987 87.403 75.3987C87.403 75.3987 87.403 75.3988 87.403 75.3988C87.403 75.3988 87.403 75.3989 87.403 75.3989C87.403 75.3989 87.403 75.399 87.403 75.399C87.403 75.399 87.403 75.3991 87.403 75.3991C87.403 75.3991 87.403 75.3992 87.403 75.3992C87.403 75.3992 87.403 75.3993 87.403 75.3993C87.403 75.3993 87.403 75.3994 87.403 75.3994C87.403 75.3995 87.403 75.3995 87.403 75.3995C87.403 75.3996 87.403 75.3996 87.403 75.3996C87.403 75.3997 87.403 75.3997 87.403 75.3997C87.403 75.3998 87.403 75.3998 87.403 75.3998C87.403 75.3999 87.403 75.3999 87.403 75.3999C87.403 75.4 87.403 75.4 87.403 75.4C87.403 75.4001 87.403 75.4001 87.403 75.4001C87.403 75.4002 87.403 75.4002 87.403 75.4002C87.403 75.4003 87.403 75.4003 87.403 75.4004C87.403 75.4004 87.403 75.4004 87.403 75.4005C87.403 75.4005 87.403 75.4005 87.403 75.4006C87.403 75.4006 87.403 75.4006 87.403 75.4007C87.403 75.4007 87.403 75.4007 87.403 75.4008C87.403 75.4008 87.403 75.4008 87.403 75.4009C87.403 75.4009 87.403 75.4009 87.403 75.401C87.403 75.401 87.403 75.401 87.403 75.4011C87.403 75.4011 87.403 75.4011 87.403 75.4012C87.403 75.4012 87.403 75.4013 87.403 75.4013C87.403 75.4013 87.403 75.4014 87.403 75.4014C87.403 75.4014 87.403 75.4015 87.403 75.4015C87.403 75.4015 87.403 75.4016 87.403 75.4016C87.403 75.4016 87.403 75.4017 87.403 75.4017C87.403 75.4017 87.403 75.4018 87.403 75.4018C87.403 75.4018 87.403 75.4019 87.403 75.4019C87.403 75.4019 87.403 75.402 87.403 75.402C87.403 75.4021 87.403 75.4021 87.403 75.4021C87.403 75.4022 87.403 75.4022 87.403 75.4022C87.403 75.4023 87.403 75.4023 87.403 75.4023C87.403 75.4024 87.403 75.4024 87.403 75.4024C87.403 75.4025 87.403 75.4025 87.403 75.4025C87.403 75.4026 87.403 75.4026 87.403 75.4026C87.403 75.4027 87.403 75.4027 87.403 75.4027C87.403 75.4028 87.403 75.4028 87.403 75.4028C87.403 75.4029 87.403 75.4029 87.403 75.403C87.403 75.403 87.403 75.403 87.403 75.4031C87.403 75.4031 87.403 75.4031 87.403 75.4032C87.403 75.4032 87.403 75.4032 87.403 75.4033C87.403 75.4033 87.403 75.4033 87.403 75.4034C87.403 75.4034 87.403 75.4034 87.403 75.4035C87.403 75.4035 87.403 75.4035 87.403 75.4036C87.403 75.4036 87.403 75.4036 87.403 75.4037C87.403 75.4037 87.403 75.4037 87.403 75.4038C87.403 75.4038 87.403 75.4039 87.403 75.4039C87.403 75.4039 87.403 75.404 87.403 75.404C87.403 75.404 87.403 75.4041 87.403 75.4041C87.403 75.4041 87.403 75.4042 87.403 75.4042C87.403 75.4042 87.403 75.4043 87.403 75.4043C87.403 75.4043 87.403 75.4044 87.403 75.4044C87.403 75.4044 87.403 75.4045 87.403 75.4045C87.403 75.4045 87.403 75.4046 87.403 75.4046C87.403 75.4046 87.403 75.4047 87.403 75.4047C87.403 75.4048 87.403 75.4048 87.403 75.4048C87.403 75.4049 87.403 75.4049 87.403 75.4049C87.403 75.405 87.403 75.405 87.403 75.405C87.403 75.4051 87.403 75.4051 87.403 75.4051C87.403 75.4052 87.403 75.4052 87.403 75.4052C87.403 75.4053 87.403 75.4053 87.403 75.4053C87.403 75.4054 87.403 75.4054 87.403 75.4054C87.403 75.4055 87.403 75.4055 87.403 75.4055C87.403 75.4056 87.403 75.4056 87.403 75.4057C87.403 75.4057 87.403 75.4057 87.403 75.4058C87.403 75.4058 87.403 75.4058 87.403 75.4059C87.403 75.4059 87.403 75.4059 87.403 75.406C87.403 75.406 87.403 75.406 87.403 75.4061C87.403 75.4061 87.403 75.4061 87.403 75.4062C87.403 75.4062 87.403 75.4062 87.403 75.4063C87.403 75.4063 87.403 75.4063 87.403 75.4064C87.403 75.4064 87.403 75.4064 87.403 75.4065C87.403 75.4065 87.403 75.4066 87.403 75.4066C87.403 75.4066 87.403 75.4067 87.403 75.4067C87.403 75.4067 87.403 75.4068 87.403 75.4068C87.403 75.4068 87.403 75.4069 87.403 75.4069C87.403 75.4069 87.403 75.407 87.403 75.407C87.403 75.407 87.403 75.4071 87.403 75.4071C87.403 75.4071 87.403 75.4072 87.403 75.4072C87.403 75.4072 87.403 75.4073 87.403 75.4073C87.403 75.4073 87.403 75.4074 87.403 75.4074C87.403 75.4075 87.403 75.4075 87.403 75.4075C87.403 75.4076 87.403 75.4076 87.403 75.4076C87.403 75.4077 87.403 75.4077 87.403 75.4077C87.403 75.4078 87.403 75.4078 87.403 75.4078C87.403 75.4079 87.403 75.4079 87.403 75.4079C87.403 75.408 87.403 75.408 87.403 75.408C87.403 75.4081 87.403 75.4081 87.403 75.4081C87.403 75.4082 87.403 75.4082 87.403 75.4082C87.403 75.4083 87.403 75.4083 87.403 75.4084C87.403 75.4084 87.403 75.4084 87.403 75.4085C87.403 75.4085 87.403 75.4085 87.403 75.4086C87.403 75.4086 87.403 75.4086 87.403 75.4087C87.403 75.4087 87.403 75.4087 87.403 75.4088C87.403 75.4088 87.403 75.4088 87.403 75.4089C87.403 75.4089 87.403 75.4089 87.403 75.409C87.403 75.409 87.403 75.409 87.403 75.4091C87.403 75.4091 87.403 75.4091 87.403 75.4092C87.403 75.4092 87.403 75.4093 87.403 75.4093C87.403 75.4093 87.403 75.4094 87.403 75.4094C87.403 75.4094 87.403 75.4095 87.403 75.4095C87.403 75.4095 87.403 75.4096 87.403 75.4096C87.403 75.4096 87.403 75.4097 87.403 75.4097C87.403 75.4097 87.403 75.4098 87.403 75.4098H89.403C89.403 75.4098 89.403 75.4097 89.403 75.4097C89.403 75.4097 89.403 75.4096 89.403 75.4096C89.403 75.4096 89.403 75.4095 89.403 75.4095C89.403 75.4095 89.403 75.4094 89.403 75.4094C89.403 75.4094 89.403 75.4093 89.403 75.4093C89.403 75.4093 89.403 75.4092 89.403 75.4092C89.403 75.4091 89.403 75.4091 89.403 75.4091C89.403 75.409 89.403 75.409 89.403 75.409C89.403 75.4089 89.403 75.4089 89.403 75.4089C89.403 75.4088 89.403 75.4088 89.403 75.4088C89.403 75.4087 89.403 75.4087 89.403 75.4087C89.403 75.4086 89.403 75.4086 89.403 75.4086C89.403 75.4085 89.403 75.4085 89.403 75.4085C89.403 75.4084 89.403 75.4084 89.403 75.4084C89.403 75.4083 89.403 75.4083 89.403 75.4082C89.403 75.4082 89.403 75.4082 89.403 75.4081C89.403 75.4081 89.403 75.4081 89.403 75.408C89.403 75.408 89.403 75.408 89.403 75.4079C89.403 75.4079 89.403 75.4079 89.403 75.4078C89.403 75.4078 89.403 75.4078 89.403 75.4077C89.403 75.4077 89.403 75.4077 89.403 75.4076C89.403 75.4076 89.403 75.4076 89.403 75.4075C89.403 75.4075 89.403 75.4075 89.403 75.4074C89.403 75.4074 89.403 75.4073 89.403 75.4073C89.403 75.4073 89.403 75.4072 89.403 75.4072C89.403 75.4072 89.403 75.4071 89.403 75.4071C89.403 75.4071 89.403 75.407 89.403 75.407C89.403 75.407 89.403 75.4069 89.403 75.4069C89.403 75.4069 89.403 75.4068 89.403 75.4068C89.403 75.4068 89.403 75.4067 89.403 75.4067C89.403 75.4067 89.403 75.4066 89.403 75.4066C89.403 75.4066 89.403 75.4065 89.403 75.4065C89.403 75.4064 89.403 75.4064 89.403 75.4064C89.403 75.4063 89.403 75.4063 89.403 75.4063C89.403 75.4062 89.403 75.4062 89.403 75.4062C89.403 75.4061 89.403 75.4061 89.403 75.4061C89.403 75.406 89.403 75.406 89.403 75.406C89.403 75.4059 89.403 75.4059 89.403 75.4059C89.403 75.4058 89.403 75.4058 89.403 75.4058C89.403 75.4057 89.403 75.4057 89.403 75.4057C89.403 75.4056 89.403 75.4056 89.403 75.4055C89.403 75.4055 89.403 75.4055 89.403 75.4054C89.403 75.4054 89.403 75.4054 89.403 75.4053C89.403 75.4053 89.403 75.4053 89.403 75.4052C89.403 75.4052 89.403 75.4052 89.403 75.4051C89.403 75.4051 89.403 75.4051 89.403 75.405C89.403 75.405 89.403 75.405 89.403 75.4049C89.403 75.4049 89.403 75.4049 89.403 75.4048C89.403 75.4048 89.403 75.4048 89.403 75.4047C89.403 75.4047 89.403 75.4046 89.403 75.4046C89.403 75.4046 89.403 75.4045 89.403 75.4045C89.403 75.4045 89.403 75.4044 89.403 75.4044C89.403 75.4044 89.403 75.4043 89.403 75.4043C89.403 75.4043 89.403 75.4042 89.403 75.4042C89.403 75.4042 89.403 75.4041 89.403 75.4041C89.403 75.4041 89.403 75.404 89.403 75.404C89.403 75.404 89.403 75.4039 89.403 75.4039C89.403 75.4039 89.403 75.4038 89.403 75.4038C89.403 75.4037 89.403 75.4037 89.403 75.4037C89.403 75.4036 89.403 75.4036 89.403 75.4036C89.403 75.4035 89.403 75.4035 89.403 75.4035C89.403 75.4034 89.403 75.4034 89.403 75.4034C89.403 75.4033 89.403 75.4033 89.403 75.4033C89.403 75.4032 89.403 75.4032 89.403 75.4032C89.403 75.4031 89.403 75.4031 89.403 75.4031C89.403 75.403 89.403 75.403 89.403 75.403C89.403 75.4029 89.403 75.4029 89.403 75.4028C89.403 75.4028 89.403 75.4028 89.403 75.4027C89.403 75.4027 89.403 75.4027 89.403 75.4026C89.403 75.4026 89.403 75.4026 89.403 75.4025C89.403 75.4025 89.403 75.4025 89.403 75.4024C89.403 75.4024 89.403 75.4024 89.403 75.4023C89.403 75.4023 89.403 75.4023 89.403 75.4022C89.403 75.4022 89.403 75.4022 89.403 75.4021C89.403 75.4021 89.403 75.4021 89.403 75.402C89.403 75.402 89.403 75.4019 89.403 75.4019C89.403 75.4019 89.403 75.4018 89.403 75.4018C89.403 75.4018 89.403 75.4017 89.403 75.4017C89.403 75.4017 89.403 75.4016 89.403 75.4016C89.403 75.4016 89.403 75.4015 89.403 75.4015C89.403 75.4015 89.403 75.4014 89.403 75.4014C89.403 75.4014 89.403 75.4013 89.403 75.4013C89.403 75.4013 89.403 75.4012 89.403 75.4012C89.403 75.4011 89.403 75.4011 89.403 75.4011C89.403 75.401 89.403 75.401 89.403 75.401C89.403 75.4009 89.403 75.4009 89.403 75.4009C89.403 75.4008 89.403 75.4008 89.403 75.4008C89.403 75.4007 89.403 75.4007 89.403 75.4007C89.403 75.4006 89.403 75.4006 89.403 75.4006C89.403 75.4005 89.403 75.4005 89.403 75.4005C89.403 75.4004 89.403 75.4004 89.403 75.4004C89.403 75.4003 89.403 75.4003 89.403 75.4002C89.403 75.4002 89.403 75.4002 89.403 75.4001C89.403 75.4001 89.403 75.4001 89.403 75.4C89.403 75.4 89.403 75.4 89.403 75.3999C89.403 75.3999 89.403 75.3999 89.403 75.3998C89.403 75.3998 89.403 75.3998 89.403 75.3997C89.403 75.3997 89.403 75.3997 89.403 75.3996C89.403 75.3996 89.403 75.3996 89.403 75.3995C89.403 75.3995 89.403 75.3995 89.403 75.3994C89.403 75.3994 89.403 75.3993 89.403 75.3993C89.403 75.3993 89.403 75.3992 89.403 75.3992C89.403 75.3992 89.403 75.3991 89.403 75.3991C89.403 75.3991 89.403 75.399 89.403 75.399C89.403 75.399 89.403 75.3989 89.403 75.3989C89.403 75.3989 89.403 75.3988 89.403 75.3988C89.403 75.3988 89.403 75.3987 89.403 75.3987C89.403 75.3987 89.403 75.3986 89.403 75.3986C89.403 75.3986 89.403 75.3985 89.403 75.3985C89.403 75.3984 89.403 75.3984 89.403 75.3984C89.403 75.3983 89.403 75.3983 89.403 75.3983C89.403 75.3982 89.403 75.3982 89.403 75.3982C89.403 75.3981 89.403 75.3981 89.403 75.3981C89.403 75.398 89.403 75.398 89.403 75.398C89.403 75.3979 89.403 75.3979 89.403 75.3979C89.403 75.3978 89.403 75.3978 89.403 75.3978C89.403 75.3977 89.403 75.3977 89.403 75.3977C89.403 75.3976 89.403 75.3976 89.403 75.3975C89.403 75.3975 89.403 75.3975 89.403 75.3974C89.403 75.3974 89.403 75.3974 89.403 75.3973C89.403 75.3973 89.403 75.3973 89.403 75.3972C89.403 75.3972 89.403 75.3972 89.403 75.3971C89.403 75.3971 89.403 75.3971 89.403 75.397C89.403 75.397 89.403 75.397 89.403 75.3969C89.403 75.3969 89.403 75.3969 89.403 75.3968C89.403 75.3968 89.403 75.3968 89.403 75.3967C89.403 75.3967 89.403 75.3966 89.403 75.3966C89.403 75.3966 89.403 75.3965 89.403 75.3965C89.403 75.3965 89.403 75.3964 89.403 75.3964C89.403 75.3964 89.403 75.3963 89.403 75.3963C89.403 75.3963 89.403 75.3962 89.403 75.3962C89.403 75.3962 89.403 75.3961 89.403 75.3961C89.403 75.3961 89.403 75.396 89.403 75.396C89.403 75.396 89.403 75.3959 89.403 75.3959C89.403 75.3959 89.403 75.3958 89.403 75.3958C89.403 75.3957 89.403 75.3957 89.403 75.3957C89.403 75.3956 89.403 75.3956 89.403 75.3956C89.403 75.3955 89.403 75.3955 89.403 75.3955C89.403 75.3954 89.403 75.3954 89.403 75.3954C89.403 75.3953 89.403 75.3953 89.403 75.3953C89.403 75.3952 89.403 75.3952 89.403 75.3952C89.403 75.3951 89.403 75.3951 89.403 75.3951C89.403 75.395 89.403 75.395 89.403 75.395C89.403 75.3949 89.403 75.3949 89.403 75.3948C89.403 75.3948 89.403 75.3948 89.403 75.3947C89.403 75.3947 89.403 75.3947 89.403 75.3946C89.403 75.3946 89.403 75.3946 89.403 75.3945C89.403 75.3945 89.403 75.3945 89.403 75.3944C89.403 75.3944 89.403 75.3944 89.403 75.3943C89.403 75.3943 89.403 75.3943 89.403 75.3942C89.403 75.3942 89.403 75.3942 89.403 75.3941C89.403 75.3941 89.403 75.3941 89.403 75.394C89.403 75.394 89.403 75.3939 89.403 75.3939C89.403 75.3939 89.403 75.3938 89.403 75.3938C89.403 75.3938 89.403 75.3937 89.403 75.3937C89.403 75.3937 89.403 75.3936 89.403 75.3936C89.403 75.3936 89.403 75.3935 89.403 75.3935C89.403 75.3935 89.403 75.3934 89.403 75.3934C89.403 75.3934 89.403 75.3933 89.403 75.3933C89.403 75.3933 89.403 75.3932 89.403 75.3932C89.403 75.3932 89.403 75.3931 89.403 75.3931C89.403 75.393 89.403 75.393 89.403 75.393C89.403 75.3929 89.403 75.3929 89.403 75.3929C89.403 75.3928 89.403 75.3928 89.403 75.3928C89.403 75.3927 89.403 75.3927 89.403 75.3927C89.403 75.3926 89.403 75.3926 89.403 75.3926C89.403 75.3925 89.403 75.3925 89.403 75.3925C89.403 75.3924 89.403 75.3924 89.403 75.3924C89.403 75.3923 89.403 75.3923 89.403 75.3923C89.403 75.3922 89.403 75.3922 89.403 75.3921C89.403 75.3921 89.403 75.3921 89.403 75.392C89.403 75.392 89.403 75.392 89.403 75.3919C89.403 75.3919 89.403 75.3919 89.403 75.3918C89.403 75.3918 89.403 75.3918 89.403 75.3917C89.403 75.3917 89.403 75.3917 89.403 75.3916C89.403 75.3916 89.403 75.3916 89.403 75.3915C89.403 75.3915 89.403 75.3915 89.403 75.3914C89.403 75.3914 89.403 75.3914 89.403 75.3913C89.403 75.3913 89.403 75.3912 89.403 75.3912C89.403 75.3912 89.403 75.3911 89.403 75.3911C89.403 75.3911 89.403 75.391 89.403 75.391C89.403 75.391 89.403 75.3909 89.403 75.3909C89.403 75.3909 89.403 75.3908 89.403 75.3908C89.403 75.3908 89.403 75.3907 89.403 75.3907C89.403 75.3907 89.403 75.3906 89.403 75.3906C89.403 75.3906 89.403 75.3905 89.403 75.3905C89.403 75.3905 89.403 75.3904 89.403 75.3904C89.403 75.3903 89.403 75.3903 89.403 75.3903C89.403 75.3902 89.403 75.3902 89.403 75.3902C89.403 75.3901 89.403 75.3901 89.403 75.3901C89.403 75.39 89.403 75.39 89.403 75.39C89.403 75.3899 89.403 75.3899 89.403 75.3899C89.403 75.3898 89.403 75.3898 89.403 75.3898C89.403 75.3897 89.403 75.3897 89.403 75.3897C89.403 75.3896 89.403 75.3896 89.403 75.3896C89.403 75.3895 89.403 75.3895 89.403 75.3894C89.403 75.3894 89.403 75.3894 89.403 75.3893C89.403 75.3893 89.403 75.3893 89.403 75.3892C89.403 75.3892 89.403 75.3892 89.403 75.3891C89.403 75.3891 89.403 75.3891 89.403 75.389C89.403 75.389 89.403 75.389 89.403 75.3889C89.403 75.3889 89.403 75.3889 89.403 75.3888C89.403 75.3888 89.403 75.3888 89.403 75.3887C89.403 75.3887 89.403 75.3886 89.403 75.3886C89.403 75.3886 89.403 75.3885 89.403 75.3885C89.403 75.3885 89.403 75.3884 89.403 75.3884C89.403 75.3884 89.403 75.3883 89.403 75.3883C89.403 75.3883 89.403 75.3882 89.403 75.3882C89.403 75.3882 89.403 75.3881 89.403 75.3881C89.403 75.3881 89.403 75.388 89.403 75.388C89.403 75.388 89.403 75.3879 89.403 75.3879C89.403 75.3879 89.403 75.3878 89.403 75.3878C89.403 75.3877 89.403 75.3877 89.403 75.3877C89.403 75.3876 89.403 75.3876 89.403 75.3876C89.403 75.3875 89.403 75.3875 89.403 75.3875C89.403 75.3874 89.403 75.3874 89.403 75.3874C89.403 75.3873 89.403 75.3873 89.403 75.3873C89.403 75.3872 89.403 75.3872 89.403 75.3872C89.403 75.3871 89.403 75.3871 89.403 75.3871C89.403 75.387 89.403 75.387 89.403 75.387C89.403 75.3869 89.403 75.3869 89.403 75.3868C89.403 75.3868 89.403 75.3868 89.403 75.3867C89.403 75.3867 89.403 75.3867 89.403 75.3866C89.403 75.3866 89.403 75.3866 89.403 75.3865C89.403 75.3865 89.403 75.3865 89.403 75.3864C89.403 75.3864 89.403 75.3864 89.403 75.3863C89.403 75.3863 89.403 75.3863 89.403 75.3862C89.403 75.3862 89.403 75.3862 89.403 75.3861C89.403 75.3861 89.403 75.3861 89.403 75.386C89.403 75.386 89.403 75.3859 89.403 75.3859C89.403 75.3859 89.403 75.3858 89.403 75.3858C89.403 75.3858 89.403 75.3857 89.403 75.3857C89.403 75.3857 89.403 75.3856 89.403 75.3856C89.403 75.3856 89.403 75.3855 89.403 75.3855C89.403 75.3855 89.403 75.3854 89.403 75.3854C89.403 75.3854 89.403 75.3853 89.403 75.3853C89.403 75.3853 89.403 75.3852 89.403 75.3852C89.403 75.3852 89.403 75.3851 89.403 75.3851C89.403 75.385 89.403 75.385 89.403 75.385C89.403 75.3849 89.403 75.3849 89.403 75.3849C89.403 75.3848 89.403 75.3848 89.403 75.3848C89.403 75.3847 89.403 75.3847 89.403 75.3847C89.403 75.3846 89.403 75.3846 89.403 75.3846C89.403 75.3845 89.403 75.3845 89.403 75.3845C89.403 75.3844 89.403 75.3844 89.403 75.3844C89.403 75.3843 89.403 75.3843 89.403 75.3843C89.403 75.3842 89.403 75.3842 89.403 75.3841C89.403 75.3841 89.403 75.3841 89.403 75.384C89.403 75.384 89.403 75.384 89.403 75.3839C89.403 75.3839 89.403 75.3839 89.403 75.3838C89.403 75.3838 89.403 75.3838 89.403 75.3837C89.403 75.3837 89.403 75.3837 89.403 75.3836C89.403 75.3836 89.403 75.3836 89.403 75.3835C89.403 75.3835 89.403 75.3835 89.403 75.3834C89.403 75.3834 89.403 75.3834 89.403 75.3833C89.403 75.3833 89.403 75.3832 89.403 75.3832C89.403 75.3832 89.403 75.3831 89.403 75.3831C89.403 75.3831 89.403 75.383 89.403 75.383C89.403 75.383 89.403 75.3829 89.403 75.3829C89.403 75.3829 89.403 75.3828 89.403 75.3828C89.403 75.3828 89.403 75.3827 89.403 75.3827C89.403 75.3827 89.403 75.3826 89.403 75.3826C89.403 75.3826 89.403 75.3825 89.403 75.3825C89.403 75.3825 89.403 75.3824 89.403 75.3824C89.403 75.3823 89.403 75.3823 89.403 75.3823C89.403 75.3822 89.403 75.3822 89.403 75.3822C89.403 75.3821 89.403 75.3821 89.403 75.3821C89.403 75.382 89.403 75.382 89.403 75.382C89.403 75.3819 89.403 75.3819 89.403 75.3819C89.403 75.3818 89.403 75.3818 89.403 75.3818C89.403 75.3817 89.403 75.3817 89.403 75.3817C89.403 75.3816 89.403 75.3816 89.403 75.3816C89.403 75.3815 89.403 75.3815 89.403 75.3814C89.403 75.3814 89.403 75.3814 89.403 75.3813C89.403 75.3813 89.403 75.3813 89.403 75.3812C89.403 75.3812 89.403 75.3812 89.403 75.3811C89.403 75.3811 89.403 75.3811 89.403 75.381C89.403 75.381 89.403 75.381 89.403 75.3809C89.403 75.3809 89.403 75.3809 89.403 75.3808C89.403 75.3808 89.403 75.3808 89.403 75.3807C89.403 75.3807 89.403 75.3807 89.403 75.3806C89.403 75.3806 89.403 75.3805 89.403 75.3805C89.403 75.3805 89.403 75.3804 89.403 75.3804C89.403 75.3804 89.403 75.3803 89.403 75.3803C89.403 75.3803 89.403 75.3802 89.403 75.3802C89.403 75.3802 89.403 75.3801 89.403 75.3801C89.403 75.3801 89.403 75.38 89.403 75.38C89.403 75.38 89.403 75.3799 89.403 75.3799C89.403 75.3799 89.403 75.3798 89.403 75.3798C89.403 75.3798 89.403 75.3797 89.403 75.3797C89.403 75.3796 89.403 75.3796 89.403 75.3796C89.403 75.3795 89.403 75.3795 89.403 75.3795C89.403 75.3794 89.403 75.3794 89.403 75.3794C89.403 75.3793 89.403 75.3793 89.403 75.3793C89.403 75.3792 89.403 75.3792 89.403 75.3792C89.403 75.3791 89.403 75.3791 89.403 75.3791C89.403 75.379 89.403 75.379 89.403 75.379C89.403 75.3789 89.403 75.3789 89.403 75.3789C89.403 75.3788 89.403 75.3788 89.403 75.3787C89.403 75.3787 89.403 75.3787 89.403 75.3786C89.403 75.3786 89.403 75.3786 89.403 75.3785C89.403 75.3785 89.403 75.3785 89.403 75.3784C89.403 75.3784 89.403 75.3784 89.403 75.3783C89.403 75.3783 89.403 75.3783 89.403 75.3782C89.403 75.3782 89.403 75.3782 89.403 75.3781C89.403 75.3781 89.403 75.3781 89.403 75.378C89.403 75.378 89.403 75.378 89.403 75.3779C89.403 75.3779 89.403 75.3778 89.403 75.3778C89.403 75.3778 89.403 75.3777 89.403 75.3777C89.403 75.3777 89.403 75.3776 89.403 75.3776C89.403 75.3776 89.403 75.3775 89.403 75.3775C89.403 75.3775 89.403 75.3774 89.403 75.3774C89.403 75.3774 89.403 75.3773 89.403 75.3773C89.403 75.3773 89.403 75.3772 89.403 75.3772C89.403 75.3772 89.403 75.3771 89.403 75.3771C89.403 75.3771 89.403 75.377 89.403 75.377C89.403 75.3769 89.403 75.3769 89.403 75.3769C89.403 75.3768 89.403 75.3768 89.403 75.3768C89.403 75.3767 89.403 75.3767 89.403 75.3767C89.403 75.3766 89.403 75.3766 89.403 75.3766C89.403 75.3765 89.403 75.3765 89.403 75.3765C89.403 75.3764 89.403 75.3764 89.403 75.3764C89.403 75.3763 89.403 75.3763 89.403 75.3763C89.403 75.3762 89.403 75.3762 89.403 75.3762C89.403 75.3761 89.403 75.3761 89.403 75.376C89.403 75.376 89.403 75.376 89.403 75.3759C89.403 75.3759 89.403 75.3759 89.403 75.3758C89.403 75.3758 89.403 75.3758 89.403 75.3757C89.403 75.3757 89.403 75.3757 89.403 75.3756C89.403 75.3756 89.403 75.3756 89.403 75.3755C89.403 75.3755 89.403 75.3755 89.403 75.3754C89.403 75.3754 89.403 75.3754 89.403 75.3753C89.403 75.3753 89.403 75.3752 89.403 75.3752C89.403 75.3752 89.403 75.3751 89.403 75.3751C89.403 75.3751 89.403 75.375 89.403 75.375C89.403 75.375 89.403 75.3749 89.403 75.3749C89.403 75.3749 89.403 75.3748 89.403 75.3748C89.403 75.3748 89.403 75.3747 89.403 75.3747C89.403 75.3747 89.403 75.3746 89.403 75.3746C89.403 75.3746 89.403 75.3745 89.403 75.3745C89.403 75.3745 89.403 75.3744 89.403 75.3744C89.403 75.3743 89.403 75.3743 89.403 75.3743C89.403 75.3742 89.403 75.3742 89.403 75.3742C89.403 75.3741 89.403 75.3741 89.403 75.3741C89.403 75.374 89.403 75.374 89.403 75.374C89.403 75.3739 89.403 75.3739 89.403 75.3739C89.403 75.3738 89.403 75.3738 89.403 75.3738C89.403 75.3737 89.403 75.3737 89.403 75.3737C89.403 75.3736 89.403 75.3736 89.403 75.3736C89.403 75.3735 89.403 75.3735 89.403 75.3734C89.403 75.3734 89.403 75.3734 89.403 75.3733C89.403 75.3733 89.403 75.3733 89.403 75.3732C89.403 75.3732 89.403 75.3732 89.403 75.3731C89.403 75.3731 89.403 75.3731 89.403 75.373C89.403 75.373 89.403 75.373 89.403 75.3729C89.403 75.3729 89.403 75.3729 89.403 75.3728C89.403 75.3728 89.403 75.3728 89.403 75.3727C89.403 75.3727 89.403 75.3727 89.403 75.3726C89.403 75.3726 89.403 75.3725 89.403 75.3725C89.403 75.3725 89.403 75.3724 89.403 75.3724C89.403 75.3724 89.403 75.3723 89.403 75.3723C89.403 75.3723 89.403 75.3722 89.403 75.3722C89.403 75.3722 89.403 75.3721 89.403 75.3721C89.403 75.3721 89.403 75.372 89.403 75.372C89.403 75.372 89.403 75.3719 89.403 75.3719C89.403 75.3719 89.403 75.3718 89.403 75.3718C89.403 75.3718 89.403 75.3717 89.403 75.3717C89.403 75.3716 89.403 75.3716 89.403 75.3716C89.403 75.3715 89.403 75.3715 89.403 75.3715C89.403 75.3714 89.403 75.3714 89.403 75.3714C89.403 75.3713 89.403 75.3713 89.403 75.3713C89.403 75.3712 89.403 75.3712 89.403 75.3712C89.403 75.3711 89.403 75.3711 89.403 75.3711C89.403 75.371 89.403 75.371 89.403 75.371C89.403 75.3709 89.403 75.3709 89.403 75.3709C89.403 75.3708 89.403 75.3708 89.403 75.3707C89.403 75.3707 89.403 75.3707 89.403 75.3706C89.403 75.3706 89.403 75.3706 89.403 75.3705C89.403 75.3705 89.403 75.3705 89.403 75.3704C89.403 75.3704 89.403 75.3704 89.403 75.3703C89.403 75.3703 89.403 75.3703 89.403 75.3702C89.403 75.3702 89.403 75.3702 89.403 75.3701C89.403 75.3701 89.403 75.3701 89.403 75.37C89.403 75.37 89.403 75.37 89.403 75.3699C89.403 75.3699 89.403 75.3698 89.403 75.3698C89.403 75.3698 89.403 75.3697 89.403 75.3697C89.403 75.3697 89.403 75.3696 89.403 75.3696C89.403 75.3696 89.403 75.3695 89.403 75.3695C89.403 75.3695 89.403 75.3694 89.403 75.3694C89.403 75.3694 89.403 75.3693 89.403 75.3693C89.403 75.3693 89.403 75.3692 89.403 75.3692C89.403 75.3692 89.403 75.3691 89.403 75.3691C89.403 75.3691 89.403 75.369 89.403 75.369C89.403 75.3689 89.403 75.3689 89.403 75.3689C89.403 75.3688 89.403 75.3688 89.403 75.3688C89.403 75.3687 89.403 75.3687 89.403 75.3687C89.403 75.3686 89.403 75.3686 89.403 75.3686C89.403 75.3685 89.403 75.3685 89.403 75.3685C89.403 75.3684 89.403 75.3684 89.403 75.3684C89.403 75.3683 89.403 75.3683 89.403 75.3683C89.403 75.3682 89.403 75.3682 89.403 75.3682C89.403 75.3681 89.403 75.3681 89.403 75.368C89.403 75.368 89.403 75.368 89.403 75.3679C89.403 75.3679 89.403 75.3679 89.403 75.3678C89.403 75.3678 89.403 75.3678 89.403 75.3677C89.403 75.3677 89.403 75.3677 89.403 75.3676C89.403 75.3676 89.403 75.3676 89.403 75.3675C89.403 75.3675 89.403 75.3675 89.403 75.3674C89.403 75.3674 89.403 75.3674 89.403 75.3673C89.403 75.3673 89.403 75.3673 89.403 75.3672C89.403 75.3672 89.403 75.3671 89.403 75.3671C89.403 75.3671 89.403 75.367 89.403 75.367C89.403 75.367 89.403 75.3669 89.403 75.3669C89.403 75.3669 89.403 75.3668 89.403 75.3668C89.403 75.3668 89.403 75.3667 89.403 75.3667C89.403 75.3667 89.403 75.3666 89.403 75.3666C89.403 75.3666 89.403 75.3665 89.403 75.3665C89.403 75.3665 89.403 75.3664 89.403 75.3664C89.403 75.3664 89.403 75.3663 89.403 75.3663C89.403 75.3662 89.403 75.3662 89.403 75.3662C89.403 75.3661 89.403 75.3661 89.403 75.3661C89.403 75.366 89.403 75.366 89.403 75.366C89.403 75.3659 89.403 75.3659 89.403 75.3659C89.403 75.3658 89.403 75.3658 89.403 75.3658C89.403 75.3657 89.403 75.3657 89.403 75.3657C89.403 75.3656 89.403 75.3656 89.403 75.3656C89.403 75.3655 89.403 75.3655 89.403 75.3655C89.403 75.3654 89.403 75.3654 89.403 75.3653C89.403 75.3653 89.403 75.3653 89.403 75.3652C89.403 75.3652 89.403 75.3652 89.403 75.3651C89.403 75.3651 89.403 75.3651 89.403 75.365C89.403 75.365 89.403 75.365 89.403 75.3649C89.403 75.3649 89.403 75.3649 89.403 75.3648C89.403 75.3648 89.403 75.3648 89.403 75.3647C89.403 75.3647 89.403 75.3647 89.403 75.3646C89.403 75.3646 89.403 75.3646 89.403 75.3645C89.403 75.3645 89.403 75.3644 89.403 75.3644C89.403 75.3644 89.403 75.3643 89.403 75.3643C89.403 75.3643 89.403 75.3642 89.403 75.3642C89.403 75.3642 89.403 75.3641 89.403 75.3641C89.403 75.3641 89.403 75.364 89.403 75.364C89.403 75.364 89.403 75.3639 89.403 75.3639C89.403 75.3639 89.403 75.3638 89.403 75.3638C89.403 75.3638 89.403 75.3637 89.403 75.3637C89.403 75.3637 89.403 75.3636 89.403 75.3636C89.403 75.3635 89.403 75.3635 89.403 75.3635C89.403 75.3634 89.403 75.3634 89.403 75.3634C89.403 75.3633 89.403 75.3633 89.403 75.3633C89.403 75.3632 89.403 75.3632 89.403 75.3632C89.403 75.3631 89.403 75.3631 89.403 75.3631C89.403 75.363 89.403 75.363 89.403 75.363C89.403 75.3629 89.403 75.3629 89.403 75.3629C89.403 75.3628 89.403 75.3628 89.403 75.3628C89.403 75.3627 89.403 75.3627 89.403 75.3626C89.403 75.3626 89.403 75.3626 89.403 75.3625C89.403 75.3625 89.403 75.3625 89.403 75.3624C89.403 75.3624 89.403 75.3624 89.403 75.3623C89.403 75.3623 89.403 75.3623 89.403 75.3622C89.403 75.3622 89.403 75.3622 89.403 75.3621C89.403 75.3621 89.403 75.3621 89.403 75.362C89.403 75.362 89.403 75.362 89.403 75.3619C89.403 75.3619 89.403 75.3618 89.403 75.3618C89.403 75.3618 89.403 75.3617 89.403 75.3617C89.403 75.3617 89.403 75.3616 89.403 75.3616C89.403 75.3616 89.403 75.3615 89.403 75.3615C89.403 75.3615 89.403 75.3614 89.403 75.3614C89.403 75.3614 89.403 75.3613 89.403 75.3613C89.403 75.3613 89.403 75.3612 89.403 75.3612C89.403 75.3612 89.403 75.3611 89.403 75.3611C89.403 75.3611 89.403 75.361 89.403 75.361C89.403 75.3609 89.403 75.3609 89.403 75.3609C89.403 75.3608 89.403 75.3608 89.403 75.3608C89.403 75.3607 89.403 75.3607 89.403 75.3607C89.403 75.3606 89.403 75.3606 89.403 75.3606C89.403 75.3605 89.403 75.3605 89.403 75.3605C89.403 75.3604 89.403 75.3604 89.403 75.3604C89.403 75.3603 89.403 75.3603 89.403 75.3603C89.403 75.3602 89.403 75.3602 89.403 75.3602C89.403 75.3601 89.403 75.3601 89.403 75.36C89.403 75.36 89.403 75.36 89.403 75.3599C89.403 75.3599 89.403 75.3599 89.403 75.3598C89.403 75.3598 89.403 75.3598 89.403 75.3597C89.403 75.3597 89.403 75.3597 89.403 75.3596C89.403 75.3596 89.403 75.3596 89.403 75.3595C89.403 75.3595 89.403 75.3595 89.403 75.3594C89.403 75.3594 89.403 75.3594 89.403 75.3593C89.403 75.3593 89.403 75.3593 89.403 75.3592C89.403 75.3592 89.403 75.3591 89.403 75.3591C89.403 75.3591 89.403 75.359 89.403 75.359C89.403 75.359 89.403 75.3589 89.403 75.3589C89.403 75.3589 89.403 75.3588 89.403 75.3588C89.403 75.3588 89.403 75.3587 89.403 75.3587C89.403 75.3587 89.403 75.3586 89.403 75.3586C89.403 75.3586 89.403 75.3585 89.403 75.3585C89.403 75.3585 89.403 75.3584 89.403 75.3584C89.403 75.3584 89.403 75.3583 89.403 75.3583C89.403 75.3582 89.403 75.3582 89.403 75.3582C89.403 75.3581 89.403 75.3581 89.403 75.3581C89.403 75.358 89.403 75.358 89.403 75.358C89.403 75.3579 89.403 75.3579 89.403 75.3579C89.403 75.3578 89.403 75.3578 89.403 75.3578C89.403 75.3577 89.403 75.3577 89.403 75.3577C89.403 75.3576 89.403 75.3576 89.403 75.3576C89.403 75.3575 89.403 75.3575 89.403 75.3575C89.403 75.3574 89.403 75.3574 89.403 75.3573C89.403 75.3573 89.403 75.3573 89.403 75.3572C89.403 75.3572 89.403 75.3572 89.403 75.3571C89.403 75.3571 89.403 75.3571 89.403 75.357C89.403 75.357 89.403 75.357 89.403 75.3569C89.403 75.3569 89.403 75.3569 89.403 75.3568C89.403 75.3568 89.403 75.3568 89.403 75.3567C89.403 75.3567 89.403 75.3567 89.403 75.3566H87.403ZM87.4118 75.2776C87.3775 75.5345 87.0595 78.1614 88.0237 81.0114C89.0117 83.9317 91.3438 87.0489 96.4719 88.0827L96.8671 86.1221C92.541 85.25 90.7132 82.7203 89.9182 80.3705C89.0995 77.9504 89.3753 75.6841 89.3942 75.542L87.4118 75.2776ZM96.4679 88.0818C96.146 88.0156 95.931 87.7374 95.931 87.4259H97.931C97.931 86.8042 97.4945 86.2512 96.8712 86.1229L96.4679 88.0818ZM95.931 87.4259C95.931 87.4259 95.931 87.4265 95.931 87.427C95.931 87.4277 95.931 87.4284 95.931 87.4293C95.931 87.4312 95.931 87.4333 95.931 87.4359C95.931 87.441 95.931 87.4475 95.9311 87.4552C95.9313 87.4706 95.9315 87.491 95.9321 87.5161C95.9332 87.5663 95.9353 87.6354 95.9394 87.7217C95.9476 87.8943 95.9638 88.1361 95.9958 88.434C96.0597 89.029 96.1872 89.8527 96.4419 90.7977C96.9497 92.6819 97.9763 95.0936 100.059 97.1184L101.453 95.6845C97.9356 92.2646 97.931 87.4378 97.931 87.4259H95.931ZM100.059 97.1187C103.129 100.101 107.565 101.418 113.094 101.208L113.018 99.2096C107.829 99.407 104.003 98.1624 101.453 95.6842L100.059 97.1187ZM113.056 101.209C112.922 101.209 112.752 101.16 112.61 101.026C112.466 100.89 112.397 100.712 112.393 100.548L114.393 100.499C114.374 99.7427 113.761 99.2088 113.056 99.2088V101.209ZM112.394 100.572C112.375 100.186 112.681 99.8698 113.054 99.8607L113.103 101.86C113.839 101.842 114.428 101.225 114.392 100.475L112.394 100.572ZM113.043 99.861C112.673 99.8741 112.318 99.8826 111.97 99.8826V101.883C112.35 101.883 112.73 101.873 113.114 101.86L113.043 99.861ZM111.97 101.883H111.975V99.8826H111.97V101.883Z" fill="#305070" mask="url(#path-8-inside-1_113_1142)"/>
<mask id="path-10-inside-2_113_1142" fill="white">
<path d="M96.6079 87.7495C96.4084 87.7406 96.2708 87.5855 96.2841 87.4082C96.3018 87.0536 96.8206 78.7075 101.741 76.7395C106.505 74.8336 123.49 72.3914 124.212 72.2894C124.385 72.2628 124.554 72.3869 124.58 72.5642C124.607 72.7415 124.483 72.9055 124.305 72.9321C124.128 72.9587 106.678 75.4674 101.984 77.3423C97.4455 79.1551 96.94 87.3595 96.9355 87.4437C96.9267 87.6165 96.7806 87.7495 96.6122 87.7495H96.6079Z"/>
</mask>
<path d="M96.6079 87.7495C96.4084 87.7406 96.2708 87.5855 96.2841 87.4082C96.3018 87.0536 96.8206 78.7075 101.741 76.7395C106.505 74.8336 123.49 72.3914 124.212 72.2894C124.385 72.2628 124.554 72.3869 124.58 72.5642C124.607 72.7415 124.483 72.9055 124.305 72.9321C124.128 72.9587 106.678 75.4674 101.984 77.3423C97.4455 79.1551 96.94 87.3595 96.9355 87.4437C96.9267 87.6165 96.7806 87.7495 96.6122 87.7495H96.6079Z" fill="#305070"/>
<path d="M96.6079 87.7495L96.5635 88.7485L96.5856 88.7495H96.6079V87.7495ZM96.2841 87.4082L97.2813 87.483L97.2822 87.4706L97.2828 87.4581L96.2841 87.4082ZM101.741 76.7395L102.112 77.668L101.741 76.7395ZM124.212 72.2894L124.352 73.2797L124.364 73.2778L124.212 72.2894ZM101.984 77.3423L102.355 78.271L102.355 78.271L101.984 77.3423ZM96.9355 87.4437L95.9369 87.3911L95.9368 87.3925L96.9355 87.4437ZM96.6523 86.7505C96.9719 86.7647 97.3135 87.0541 97.2813 87.483L95.2869 87.3334C95.2281 88.1168 95.8449 88.7166 96.5635 88.7485L96.6523 86.7505ZM97.2828 87.4581C97.2897 87.3207 97.4172 85.2405 98.128 82.9787C98.8555 80.6636 100.093 78.4755 102.112 77.668L101.369 75.811C98.468 76.9715 96.9863 79.9405 96.22 82.3791C95.437 84.8709 95.2962 87.141 95.2853 87.3582L97.2828 87.4581ZM102.112 77.668C104.376 76.7622 109.697 75.6908 114.664 74.8231C119.582 73.9641 123.997 73.3297 124.352 73.2796L124.073 71.2992C123.705 71.351 119.267 71.9888 114.32 72.8529C109.424 73.7082 103.869 74.8109 101.369 75.811L102.112 77.668ZM124.364 73.2778C123.981 73.3368 123.645 73.0738 123.591 72.7126L125.569 72.4159C125.462 71.7 124.789 71.1889 124.06 71.301L124.364 73.2778ZM123.591 72.7126C123.534 72.3304 123.802 71.9965 124.157 71.9431L124.454 73.921C125.164 73.8145 125.68 73.1526 125.569 72.4159L123.591 72.7126ZM124.157 71.9431C124.158 71.9431 124.157 71.9432 124.153 71.9437C124.15 71.9442 124.146 71.9448 124.14 71.9456C124.129 71.9472 124.114 71.9494 124.095 71.9522C124.056 71.9578 124.002 71.9657 123.932 71.9759C123.793 71.9963 123.593 72.0257 123.341 72.0632C122.836 72.1382 122.119 72.246 121.25 72.3805C119.512 72.6493 117.161 73.0251 114.667 73.4589C112.175 73.8925 109.533 74.3853 107.215 74.8888C104.918 75.3876 102.873 75.9106 101.613 76.4137L102.355 78.271C103.443 77.8366 105.339 77.3429 107.639 76.8432C109.919 76.3481 112.531 75.8606 115.01 75.4293C119.967 74.5669 124.36 73.935 124.454 73.921L124.157 71.9431ZM101.613 76.4136C98.8856 77.5032 97.5091 80.4225 96.8026 82.7509C96.0753 85.1479 95.9412 87.3097 95.9369 87.3911L97.9341 87.4962C97.9337 87.5041 97.9633 87.0066 98.0774 86.2301C98.1914 85.4539 98.3877 84.415 98.7164 83.3316C99.3986 81.0835 100.544 78.9943 102.355 78.271L101.613 76.4136ZM95.9368 87.3925C95.956 87.0188 96.2632 86.7495 96.6122 86.7495V88.7495C97.298 88.7495 97.8973 88.2142 97.9342 87.4949L95.9368 87.3925ZM96.6122 86.7495H96.6079V88.7495H96.6122V86.7495Z" fill="#305070" mask="url(#path-10-inside-2_113_1142)"/>
<path d="M104.467 92.3004C104.468 92.3005 104.469 92.3005 104.47 92.3006C104.469 92.3006 104.468 92.3005 104.467 92.3004L104.467 92.3004Z" fill="#305070" stroke="#305070"/>
<mask id="path-13-inside-3_113_1142" fill="white">
<path d="M136.889 82.1603C136.743 82.1603 136.61 82.0627 136.574 81.912L133.573 69.8915C133.529 69.7186 133.636 69.5413 133.808 69.497C133.977 69.4527 134.158 69.5591 134.203 69.7319L137.204 81.7525C137.248 81.9253 137.142 82.1026 136.969 82.147C136.942 82.1514 136.916 82.1558 136.889 82.1558V82.1603Z"/>
</mask>
<path d="M136.889 82.1603C136.743 82.1603 136.61 82.0627 136.574 81.912L133.573 69.8915C133.529 69.7186 133.636 69.5413 133.808 69.497C133.977 69.4527 134.158 69.5591 134.203 69.7319L137.204 81.7525C137.248 81.9253 137.142 82.1026 136.969 82.147C136.942 82.1514 136.916 82.1558 136.889 82.1558V82.1603Z" fill="#305070"/>
<path d="M136.889 82.1603V83.1603H137.889V82.1603H136.889ZM136.574 81.912L137.548 81.683L137.545 81.6698L136.574 81.912ZM133.573 69.8915L134.544 69.6493L134.542 69.6431L133.573 69.8915ZM133.808 69.497L134.057 70.4657L134.063 70.4641L133.808 69.497ZM134.203 69.7319L135.173 69.4897L135.171 69.4835L134.203 69.7319ZM137.204 81.7525L136.233 81.9947L136.235 82.0008L137.204 81.7525ZM136.969 82.147L137.133 83.1333L137.175 83.1263L137.217 83.1156L136.969 82.147ZM136.889 82.1558V81.1558H135.889V82.1558H136.889ZM136.889 81.1603C137.186 81.1603 137.472 81.362 137.548 81.683L135.601 82.1411C135.747 82.7634 136.3 83.1603 136.889 83.1603V81.1603ZM137.545 81.6698L134.544 69.6493L132.603 70.1337L135.604 82.1542L137.545 81.6698ZM134.542 69.6431C134.637 70.0126 134.412 70.3747 134.057 70.4656L133.56 68.5283C132.86 68.7079 132.421 69.4246 132.605 70.1398L134.542 69.6431ZM134.063 70.4641C133.688 70.5627 133.326 70.3379 133.234 69.9803L135.171 69.4835C134.991 68.7802 134.266 68.3426 133.554 68.5299L134.063 70.4641ZM133.233 69.9741L136.233 81.9947L138.174 81.5103L135.173 69.4897L133.233 69.9741ZM136.235 82.0008C136.14 81.6314 136.366 81.2692 136.72 81.1783L137.217 83.1156C137.917 82.936 138.356 82.2193 138.172 81.5041L136.235 82.0008ZM136.804 81.1606C136.797 81.1619 136.795 81.1621 136.794 81.1623C136.794 81.1623 136.798 81.1617 136.804 81.1608C136.817 81.1592 136.848 81.1558 136.889 81.1558V83.1558C137.013 83.1558 137.122 83.1352 137.133 83.1333L136.804 81.1606ZM135.889 82.1558V82.1603H137.889V82.1558H135.889Z" fill="#305070" mask="url(#path-13-inside-3_113_1142)"/>
<path d="M48.9066 35.6781L45.2456 39.6052L39.9354 38.8207L42.5416 43.5145L40.1484 48.3192L45.4183 47.2953L49.2525 51.054L49.9039 45.7219L54.6644 43.2397L49.7974 40.9748L48.9066 35.6781Z" fill="white"/>
<path d="M44.5362 73.5083L44.5098 78.2908L40.5562 80.9813L45.0946 82.4838L46.4334 87.0757L49.2655 83.2196L54.0437 83.3703L51.2557 79.4875L52.8737 74.9843L48.3171 76.4381L44.5362 73.5083Z" fill="#D2F9F9"/>
<path d="M50.6618 72.5288C50.5155 72.5288 50.3826 72.4268 50.3471 72.2761C50.1521 71.4295 49.9481 70.5564 49.9835 69.6522C50.0234 68.5973 50.4004 67.6931 51.0475 67.1124C51.6414 66.5761 52.479 66.288 53.6004 66.2348C53.6004 66.217 53.6046 66.1949 53.6091 66.1772C53.7686 65.2242 54.2342 64.2668 55.0232 63.2518C55.5462 62.5781 56.0647 62.064 56.6143 61.6828C57.7357 60.8983 59.2251 60.4772 61.1709 60.4018C61.3571 60.4018 61.5032 60.5348 61.5077 60.7121C61.5165 60.8938 61.3746 61.0445 61.1973 61.0489C59.3756 61.1199 58.0016 61.501 56.9866 62.2147C56.4946 62.5604 56.0205 63.0302 55.5374 63.6507C54.8327 64.5594 54.4116 65.4015 54.2609 66.2303C55.0543 66.2525 56.1091 66.3899 56.8139 67.1257C57.2349 67.5689 57.4209 68.256 57.2835 68.8765C57.1727 69.3729 56.8671 69.7541 56.4416 69.9225C55.697 70.2151 54.9213 69.8028 54.4869 69.3596C53.8796 68.7391 53.5472 67.8482 53.5472 66.8908C52.6252 66.9484 51.947 67.1789 51.4816 67.6C50.9763 68.0565 50.6661 68.8189 50.6306 69.6832C50.5996 70.5032 50.7947 71.332 50.9808 72.1343C51.0207 72.3116 50.9144 72.4844 50.7371 72.5243C50.7105 72.5288 50.6884 72.5332 50.6618 72.5332V72.5288ZM54.1986 66.8731C54.1986 67.662 54.4691 68.4066 54.9522 68.8986C55.2713 69.2222 55.7812 69.4793 56.2023 69.3109C56.5037 69.1912 56.6099 68.8986 56.6498 68.7346C56.7385 68.3224 56.619 67.857 56.3442 67.5734C55.9143 67.1213 55.2317 66.8997 54.2034 66.8775L54.1986 66.8731Z" fill="#305070"/>
<path d="M58.6756 51.5327C58.6224 51.5327 58.569 51.5193 58.5202 51.4927L54.509 49.3209C54.3495 49.2367 54.2919 49.0372 54.3762 48.8821C54.4604 48.7225 54.6598 48.6649 54.8194 48.7491L58.8306 50.921C58.9902 51.0052 59.0477 51.2047 58.9635 51.3598C58.9059 51.4706 58.7909 51.5282 58.6756 51.5282V51.5327Z" fill="#305070"/>
<path d="M131.251 38.4572C131.118 38.4572 130.998 38.3774 130.945 38.2488L120.454 10.9588L94.8348 16.2865C94.6619 16.322 94.4846 16.2111 94.4491 16.0339C94.4136 15.8566 94.5246 15.6837 94.7019 15.6482L120.591 10.2674C120.746 10.2364 120.906 10.3206 120.959 10.4713L131.548 38.0184C131.615 38.1868 131.53 38.373 131.362 38.4394C131.322 38.4527 131.282 38.4616 131.246 38.4616L131.251 38.4572Z" fill="#305070"/>
<path d="M127.448 36.5025C128.348 34.4016 130.777 33.4264 132.878 34.3262C134.979 35.226 135.953 37.6549 135.054 39.7558C134.154 41.8568 131.725 42.8319 129.624 41.9321C127.523 41.0324 126.548 38.6034 127.448 36.5025Z" fill="#D2F9F9"/>
<path d="M116.859 8.95539C117.759 6.85445 120.188 5.87932 122.288 6.77909C124.389 7.67885 125.365 10.1078 124.465 12.2087C123.565 14.3097 121.136 15.2848 119.035 14.385C116.934 13.4853 115.959 11.0563 116.859 8.95539Z" fill="white"/>
<path d="M90.9693 14.3363C91.8691 12.2353 94.298 11.2602 96.3989 12.16C98.4999 13.0598 99.4751 15.4887 98.5753 17.5896C97.6755 19.6906 95.2466 20.6657 93.1456 19.7659C91.0447 18.8662 90.0695 16.4372 90.9693 14.3363Z" fill="white"/>
<path d="M131.251 42.5925C130.657 42.5925 130.063 42.4729 129.496 42.2291C127.235 41.2629 126.18 38.6344 127.146 36.3739C128.113 34.1134 130.741 33.0586 133.002 34.0248C134.096 34.4946 134.943 35.359 135.386 36.467C135.829 37.5751 135.816 38.7851 135.346 39.8799C134.876 40.9747 134.012 41.8213 132.904 42.2646C132.368 42.4817 131.805 42.5881 131.242 42.5881L131.251 42.5925ZM127.749 36.631C126.925 38.5635 127.824 40.8063 129.753 41.6351C130.688 42.034 131.725 42.0474 132.669 41.6706C133.613 41.2939 134.353 40.567 134.757 39.6318C135.156 38.6965 135.169 37.6593 134.792 36.7152C134.415 35.7711 133.689 35.031 132.754 34.6276C130.825 33.8032 128.578 34.6985 127.754 36.631H127.749Z" fill="#305070"/>
<path d="M120.657 15.041C120.072 15.041 119.478 14.9258 118.911 14.682C117.816 14.2122 116.97 13.3478 116.526 12.2398C116.083 11.1317 116.096 9.92166 116.566 8.82686C117.532 6.56636 120.161 5.51144 122.421 6.47769C123.516 6.94752 124.363 7.81184 124.806 8.91992C125.249 10.028 125.236 11.238 124.766 12.3328C124.043 14.026 122.39 15.041 120.657 15.041ZM120.671 6.77024C119.19 6.77024 117.781 7.63897 117.16 9.08392C116.761 10.0191 116.748 11.0563 117.125 12.0004C117.502 12.9445 118.228 13.6847 119.164 14.0881C121.092 14.9125 123.339 14.0171 124.163 12.0846C124.562 11.1494 124.576 10.1122 124.199 9.16811C123.822 8.22402 123.095 7.48383 122.16 7.08049C121.672 6.87216 121.167 6.77468 120.666 6.77468L120.671 6.77024Z" fill="#305070"/>
<path d="M94.7725 20.4263C94.1785 20.4263 93.5846 20.3067 93.0173 20.0629C90.7568 19.0966 89.7019 16.4682 90.6682 14.2077C91.6344 11.9472 94.2628 10.8923 96.5233 11.8586C97.6181 12.3284 98.4646 13.1927 98.9079 14.3008C99.3511 15.4089 99.3379 16.6189 98.8681 17.7137C98.3982 18.8085 97.534 19.6551 96.4259 20.0983C95.8896 20.3155 95.3267 20.4219 94.7638 20.4219L94.7725 20.4263ZM91.2711 14.4648C90.4467 16.3973 91.3463 18.6401 93.2744 19.4645C94.2096 19.8634 95.2468 19.8767 96.1909 19.5C97.135 19.1232 97.8752 18.3963 98.2785 17.4611C98.6774 16.5259 98.6908 15.4887 98.314 14.5446C97.9373 13.6005 97.2105 12.8603 96.2753 12.4569C94.3428 11.6325 92.0999 12.5279 91.2755 14.4604L91.2711 14.4648Z" fill="#305070"/>
<path d="M73.4792 69.2577L73.6965 58.6377L76.3957 58.6954L76.1788 69.3153L81.1029 71.5271C81.6082 71.7531 81.4397 72.511 80.8856 72.5022L68.6438 72.2496C68.0898 72.2363 67.9478 71.4739 68.4664 71.2656L73.4792 69.2621V69.2577Z" fill="#F9E2D2"/>
<path d="M80.8994 72.8213L68.6394 72.5687C68.2316 72.5598 67.9082 72.285 67.8373 71.8816C67.762 71.4783 67.97 71.1104 68.3468 70.9553L73.1605 69.0317L73.3778 58.6289C73.3778 58.4472 73.5107 58.2965 73.7102 58.3098L76.4094 58.3674C76.4937 58.3674 76.5778 58.4073 76.6354 58.4694C76.6974 58.5314 76.7286 58.6156 76.7241 58.6998L76.5068 69.1026L81.2361 71.2257C81.6084 71.3941 81.7992 71.7708 81.7105 72.1697C81.6219 72.5598 81.2983 72.8213 80.8994 72.8213ZM74.0158 58.9702L73.8033 69.2621C73.8033 69.3907 73.7191 69.5103 73.5994 69.5591L68.5862 71.5625C68.462 71.6113 68.4665 71.7221 68.4753 71.7664C68.4842 71.8108 68.5154 71.9127 68.6528 71.9171L80.895 72.1697C81.0236 72.1697 81.068 72.0723 81.0768 72.0279C81.0857 71.9836 81.0944 71.8772 80.9747 71.8196L76.0506 69.6123C75.9309 69.5591 75.8553 69.4394 75.8597 69.3065L76.0727 59.0145L74.0206 58.9702H74.0158Z" fill="#305070"/>
<path d="M83.2837 48.0311L83.1729 53.3367C83.0798 57.7602 79.4231 61.2706 74.9951 61.182C70.5716 61.0889 67.0616 57.4322 67.1502 53.0042L67.261 47.6987L83.2794 48.0311H83.2837Z" fill="#F9E2D2"/>
<path d="M75.1682 61.51C75.1105 61.51 75.0526 61.51 74.995 61.51C72.77 61.4656 70.6913 60.5526 69.1533 58.948C67.6109 57.3391 66.7867 55.2293 66.8354 53.0042L66.9462 47.6987C66.9462 47.6145 66.9815 47.5303 67.0479 47.4727C67.11 47.415 67.1944 47.3796 67.2787 47.384L83.297 47.7165C83.3813 47.7165 83.4654 47.7563 83.523 47.8184C83.585 47.8804 83.6162 47.9647 83.6117 48.0489L83.5009 53.3544C83.4078 57.8931 79.6847 61.5188 75.1682 61.5188V61.51ZM67.5842 48.0311L67.4825 53.0131C67.4382 55.0653 68.2003 57.0111 69.6186 58.4915C71.0414 59.9719 72.9518 60.814 75.0084 60.8539C79.2325 60.9426 82.7652 57.5651 82.8538 53.3278L82.956 48.3458L67.5842 48.0267V48.0311Z" fill="#305070"/>
<path d="M84.268 56.3994C83.8603 56.3994 83.4524 56.2132 83.1998 55.8764C82.8363 55.3888 82.9206 54.6309 83.3816 54.1832C83.776 53.8021 84.3256 53.7976 84.7688 53.7932C84.9107 53.7932 85.0481 53.7932 85.1722 53.7799C85.5933 53.7356 86.0053 53.5671 86.3643 53.2968C87.0602 52.7649 87.4191 51.9094 87.2906 51.0628C87.1621 50.1941 86.5373 49.4229 85.7306 49.1436C84.8087 48.8245 84.0729 48.9398 83.4789 49.4938C83.346 49.6179 83.1421 49.609 83.018 49.4805C82.8939 49.3475 82.9027 49.1436 83.0357 49.0195C83.8114 48.2926 84.7911 48.1286 85.9479 48.532C86.9895 48.8954 87.7693 49.8528 87.9377 50.9742C88.0973 52.0557 87.6451 53.146 86.7586 53.8198C86.3065 54.1655 85.7835 54.3738 85.2428 54.4314C85.0965 54.4491 84.9372 54.4492 84.7732 54.4492C84.3964 54.4492 84.0462 54.4536 83.8334 54.6575C83.6251 54.8569 83.5322 55.2426 83.7183 55.4952C83.9045 55.7434 84.2898 55.8276 84.5602 55.6814C84.7198 55.5972 84.9149 55.6592 84.9991 55.8143C85.0833 55.9739 85.0214 56.169 84.8662 56.2532C84.6756 56.3551 84.4716 56.3994 84.2633 56.3994H84.268Z" fill="#305070"/>
<path d="M66.0194 56.0183C65.7933 56.0183 65.5674 55.9606 65.3679 55.8454C65.2128 55.7568 65.1597 55.5573 65.2528 55.4022C65.3459 55.247 65.5453 55.1938 65.696 55.2869C65.962 55.4421 66.352 55.3712 66.547 55.1362C66.7465 54.8925 66.6668 54.5024 66.4674 54.2941C66.2679 54.0813 65.9131 54.068 65.5363 54.0503C65.3723 54.0414 65.2174 54.0326 65.0667 54.0104C64.5304 53.9306 64.0116 53.6957 63.5773 53.3367C62.7218 52.6275 62.3142 51.5194 62.5181 50.4468C62.7308 49.3342 63.5508 48.4079 64.6057 48.0888C65.7891 47.7298 66.7245 47.9248 67.4647 48.6783C67.5888 48.8068 67.5888 49.0107 67.4647 49.1392C67.3361 49.2678 67.1322 49.2633 67.0037 49.1392C66.4408 48.5675 65.7358 48.4345 64.7962 48.7182C63.9806 48.962 63.3249 49.711 63.1609 50.5709C63.0013 51.413 63.3204 52.2818 63.9941 52.8403C64.3398 53.1284 64.743 53.3101 65.1641 53.3722C65.2926 53.3899 65.4301 53.3987 65.5675 53.4032C66.0063 53.4253 66.5558 53.4519 66.937 53.8508C67.3803 54.3162 67.4334 55.083 67.0478 55.5529C66.7952 55.8631 66.4051 56.0316 66.0151 56.0316L66.0194 56.0183Z" fill="#305070"/>
<path d="M75.1904 57.6671C74.9954 57.6582 74.8582 57.5031 74.8671 57.3258L75.1415 51.7986L73.4616 53.1461C73.3198 53.2569 73.1162 53.2347 73.0054 53.0973C72.8946 52.9554 72.9165 52.7516 73.0539 52.6408L75.2969 50.8368C75.3988 50.757 75.5363 50.7437 75.6471 50.8014C75.7623 50.859 75.8285 50.9786 75.8241 51.1072L75.5142 57.3613C75.5053 57.5341 75.3633 57.6715 75.1904 57.6715V57.6671Z" fill="white"/>
<path d="M21.9558 74.1842C29.2518 73.7392 34.8057 67.4639 34.3608 60.168C33.9158 52.872 27.6404 47.3182 20.3445 47.7632C13.0485 48.2081 7.49499 54.4834 7.93995 61.7793C8.38491 69.0752 14.6599 74.6291 21.9558 74.1842Z" fill="white"/>
<path d="M21.1596 74.745C16.7981 74.745 12.5121 72.6485 9.89256 68.7701C5.71285 62.5693 7.35758 54.1256 13.554 49.9414C19.7549 45.7617 28.2027 47.4061 32.3825 53.607C36.5622 59.8079 34.9179 68.2515 28.7214 72.4357C26.4033 74.0003 23.7658 74.7494 21.1596 74.7494V74.745ZM21.1198 48.2793C18.6376 48.2793 16.1293 48.993 13.9219 50.4822C8.01804 54.4625 6.45337 62.5028 10.4336 68.4067C14.4139 74.3106 22.4539 75.8752 28.3578 71.8949C34.2617 67.9147 35.8264 59.8744 31.8462 53.9705C29.3552 50.2739 25.2729 48.2793 21.1198 48.2793Z" fill="#305070"/>
<path d="M12.1798 62.9593C13.7133 64.7455 16.3597 65.57 18.598 66.2924C19.5066 66.585 23.1899 67.5424 24.9717 67.9989C25.477 68.1275 26.009 67.764 26.0755 67.2498C26.3059 65.4237 26.78 61.6473 26.842 60.6944C26.9972 58.3496 27.2056 55.5839 26.1153 53.4962C25.1623 51.6789 23.0791 50.7881 20.9648 51.6435C19.3204 52.3084 18.1903 54.0502 18.4651 56.59C18.4962 56.8914 18.1502 57.1219 17.8843 56.9756C15.6636 55.7567 13.5762 56.1999 12.3529 57.4809C10.775 59.1297 10.8369 61.3947 12.1754 62.9505L12.1798 62.9593Z" fill="#F9E2D2"/>
<path d="M67.6555 25.302C66.0643 29.8185 61.1088 32.1854 56.5967 30.5942C52.0801 29.003 49.7135 24.0476 51.3047 19.5355C52.8959 15.0189 57.8509 12.652 62.3631 14.2432C66.8796 15.8345 69.2467 20.7898 67.6555 25.302Z" fill="#305070"/>
<path d="M55.0451 18.3964C54.7038 19.8989 55.3023 21.6142 55.7987 23.0725C55.9981 23.6664 56.9333 25.9757 57.3898 27.0927C57.5184 27.4074 57.9174 27.5492 58.2144 27.3808C59.2649 26.7913 61.4368 25.568 61.9598 25.2267C63.2541 24.3934 64.7918 23.4227 65.4611 22.0353C66.0462 20.8253 65.7004 19.3803 64.4284 18.6047C63.4355 17.9975 62.0795 18.0817 60.8517 19.2208C60.7055 19.3582 60.4481 19.2651 60.4215 19.0657C60.1954 17.4213 59.1495 16.4993 57.9971 16.3531C56.5167 16.1669 55.3464 17.08 55.0494 18.3919L55.0451 18.3964Z" fill="#D2F9F9"/>
<path d="M64.4936 109.533C68.1614 105.865 68.1616 99.9182 64.4937 96.2503C60.8259 92.5824 54.8789 92.5826 51.211 96.2504C47.5432 99.9183 47.5434 105.865 51.2112 109.533C54.8791 113.201 60.8257 113.201 64.4936 109.533Z" fill="white"/>
<path d="M57.8467 112.611C52.488 112.611 48.131 108.254 48.131 102.895C48.131 97.5362 52.488 93.1791 57.8467 93.1791C63.2054 93.1791 67.5624 97.5362 67.5624 102.895C67.5624 108.254 63.2054 112.611 57.8467 112.611ZM57.8467 93.8307C52.847 93.8307 48.7824 97.8952 48.7824 102.895C48.7824 107.895 52.847 111.959 57.8467 111.959C62.8464 111.959 66.9109 107.895 66.9109 102.895C66.9109 97.8952 62.8464 93.8307 57.8467 93.8307Z" fill="#305070"/>
<path d="M56.1532 105.82C56.0734 105.82 55.9893 105.789 55.9272 105.727L52.8601 102.744C52.7315 102.62 52.7272 102.412 52.8557 102.283C52.9798 102.155 53.1882 102.15 53.3167 102.279L56.1623 105.045L62.3321 99.1672C62.465 99.0431 62.6689 99.0476 62.7931 99.1806C62.9172 99.3091 62.9125 99.5174 62.784 99.6415L56.3882 105.736C56.3262 105.794 56.2465 105.825 56.1623 105.825L56.1532 105.82Z" fill="#305070"/>
<path d="M13.6561 41.6396C13.5143 41.6396 13.3814 41.5466 13.3415 41.4047C11.9852 36.6133 14.2282 31.1527 18.5586 28.6971C18.6251 27.496 19.024 26.2106 19.7952 24.7124C22.0735 20.3067 26.0316 16.7475 30.6545 14.9568C35.2819 13.1661 40.6005 13.1218 45.2545 14.846C45.4229 14.9081 45.507 15.0942 45.4449 15.2626C45.3829 15.4311 45.1925 15.5153 45.0285 15.4532C40.5208 13.7867 35.3702 13.8221 30.8891 15.5596C26.408 17.2971 22.5742 20.741 20.3713 25.0094C19.7242 26.2593 19.3564 27.3452 19.2412 28.3425C20.2429 27.886 21.5235 27.5358 22.8001 27.8417C24.2273 28.183 25.6237 29.5703 25.3932 31.2191C25.2869 31.9903 24.8169 32.6641 24.0679 33.1162C23.2257 33.6259 22.1617 33.7456 21.2885 33.4353C19.786 32.8946 18.6914 31.2945 18.5629 29.4417C14.7511 31.8042 12.7344 36.9014 13.9622 41.2185C14.0109 41.3914 13.9087 41.5731 13.7358 41.6219C13.7048 41.6308 13.6785 41.6352 13.6475 41.6352L13.6561 41.6396ZM19.21 29.0872C19.21 29.1891 19.2146 29.2866 19.2234 29.3841C19.3121 30.7183 20.0565 32.3006 21.5236 32.8236C22.215 33.0718 23.0659 32.9699 23.7441 32.5621C24.3203 32.2164 24.6793 31.7067 24.7591 31.1349C24.932 29.8894 23.8154 28.7548 22.6585 28.48C21.4219 28.183 20.1497 28.6085 19.21 29.0872Z" fill="#305070"/>
<path d="M45.0723 62.29C44.9881 62.29 44.904 62.2589 44.842 62.1925L40.3296 57.6803C40.201 57.5518 40.201 57.3479 40.3296 57.2194C40.4581 57.0908 40.662 57.0908 40.7905 57.2194L45.303 61.7315C45.4315 61.8601 45.4315 62.0639 45.303 62.1925C45.2409 62.2545 45.1565 62.29 45.0723 62.29Z" fill="#305070"/>
<path d="M40.556 62.29C40.4718 62.29 40.3873 62.2589 40.3253 62.1925C40.1967 62.0639 40.1967 61.8601 40.3253 61.7315L44.8377 57.2194C44.9663 57.0908 45.1697 57.0908 45.2983 57.2194C45.4268 57.3479 45.4268 57.5518 45.2983 57.6803L40.7863 62.1925C40.7242 62.2545 40.6402 62.29 40.556 62.29Z" fill="#305070"/>
</svg>
