<svg width="170" height="134" viewBox="0 0 170 134" fill="none" xmlns="http://www.w3.org/2000/svg">
<path d="M148.013 70.4335C148.013 102.453 122.056 128.411 90.036 128.411C58.0161 128.411 32.0588 102.453 32.0588 70.4335C32.0588 38.4136 58.0161 12.4562 90.036 12.4562C122.056 12.4562 148.013 38.4136 148.013 70.4335Z" fill="#D2F9F9" stroke="#305070"/>
<path d="M91.7427 67.8754V67.1457V67.1412V66.448L92.2331 66.6111C92.8379 66.3613 93.4661 66.0186 94.121 65.557L94.1223 65.5561C95.9433 64.2814 96.9576 62.8093 97.38 61.2265C97.8046 59.6353 97.6451 57.8793 97.0208 56.0219C95.7671 52.2923 92.6807 48.276 89.0567 44.661L89.4098 44.307L89.0567 44.661C83.3539 38.9714 68.6446 33.8536 55.1903 41.9121L54.5242 42.311L54.4366 41.5396L54.9334 41.4831C54.4366 41.5396 54.4365 41.5395 54.4365 41.5395L54.4365 41.5391L54.4364 41.5379L54.4358 41.5332L54.4337 41.5144L54.4254 41.4407L54.3935 41.154C54.3657 40.9031 54.3254 40.5355 54.2752 40.0684C54.1749 39.1343 54.0351 37.802 53.8773 36.2089C53.5618 33.0232 53.174 28.7922 52.8853 24.6149C52.4071 17.7107 51.6696 13.2732 50.2863 10.6219C49.6047 9.31568 48.7795 8.47051 47.7698 7.96901C46.753 7.46395 45.4976 7.28171 43.9128 7.39716L91.7427 67.8754ZM91.7427 67.8754L92.2598 67.6752M91.7427 67.8754L92.2598 67.6752M92.2598 67.6752C95.857 68.9297 97.6252 71.3786 97.6861 74.3328C97.7491 77.3884 95.9897 81.1172 92.2057 84.779C90.189 86.7286 87.3463 89.2059 85.0015 91.2008C83.8303 92.1971 82.7857 93.0712 82.0339 93.6961C81.658 94.0085 81.3554 94.2586 81.1468 94.4305C81.0425 94.5165 80.9618 94.5829 80.9071 94.6278L80.8451 94.6787L80.8293 94.6916L80.8254 94.6949L80.8244 94.6956L80.8242 94.6958L81.1409 95.0828L80.8242 94.6959L80.6381 94.8482L80.6409 95.0887L80.7311 102.664C80.9216 118.991 68.518 132.307 51.4339 132.307C34.3542 132.307 20.8967 117.76 22.2208 100.733L22.2208 100.733L23.4369 85.0644L23.4465 84.9402L23.3967 84.8259C14.7367 64.9651 13.5547 63.0106 9.7926 56.7896L9.71083 56.6544L9.71076 56.6543C5.1112 49.0523 2.12152 43.4699 1.1631 39.3674C0.686566 37.3277 0.727525 35.7131 1.2722 34.418C1.81299 33.1322 2.88279 32.0849 4.62345 31.241L4.62348 31.241C7.65049 29.7733 10.5103 30.7391 13.3118 33.0462C16.1259 35.3636 18.7658 38.9485 21.2606 42.466L22.1486 42.0373L21.6684 42.1767L22.1486 42.0372L22.1485 42.037L22.1482 42.0361L22.1471 42.0321L22.1424 42.0159L22.1238 41.9515C22.1074 41.8944 22.0831 41.8094 22.0515 41.6983C21.9883 41.4759 21.8962 41.1489 21.7804 40.7308C21.5487 39.8946 21.2226 38.6945 20.8451 37.2399C20.0898 34.3301 19.1294 30.4054 18.3076 26.3413L18.3076 26.3412C17.3626 21.6741 17.6172 18.4346 18.6671 16.2107C19.7053 14.0118 21.5604 12.7253 24.0224 12.0417L24.0224 12.0417C25.6652 11.5854 27.5609 12.3095 29.3333 14.059C31.0946 15.7976 32.6506 18.4787 33.5638 21.6949C33.5638 21.6949 33.5638 21.6949 33.5638 21.6949L34.0448 21.5584M92.2598 67.6752L38.8191 38.8332C38.5615 37.0214 38.328 35.3036 38.1194 33.6756C37.7853 32.646 37.4042 31.607 36.981 30.453C36.1521 28.1932 35.1615 25.4924 34.0448 21.5584M34.0448 21.5584C32.1802 14.9918 27.6673 10.5105 23.8886 11.5599M34.0448 21.5584L23.8886 11.5599M23.8886 11.5599C18.7633 12.9831 15.9079 17.0095 17.8175 26.4404C19.0361 32.4668 20.5575 38.183 21.268 40.7542L23.8886 11.5599ZM71.6153 78.0875L71.2217 78.1732C70.5813 78.3126 69.9331 78.1188 69.3379 77.7608C68.7407 77.4016 68.1489 76.8499 67.5872 76.1803C66.4622 74.8391 65.3948 72.9493 64.5975 70.9198C63.8002 68.8902 63.2588 66.685 63.2137 64.7067C63.1689 62.7418 63.614 60.9026 64.9082 59.7391C67.2325 57.6477 69.5345 56.5477 71.8117 56.429C74.0946 56.31 76.27 57.1813 78.3274 58.8682C78.3275 58.8682 78.3276 58.8683 78.3277 58.8684L78.0107 59.2551L71.6153 78.0875ZM71.6153 78.0875V78.0546V78.0875Z" fill="white" stroke="#305070"/>
<path d="M21.2404 41.2852C21.0757 41.0553 20.9108 40.8265 20.7459 40.5989L21.0156 40.4702C21.1002 40.7795 21.1757 41.0524 21.2404 41.2852ZM38.3544 32.8356C38.423 33.3857 38.4948 33.9471 38.5697 34.52C38.4095 33.9814 38.2362 33.4485 38.0503 32.906L38.3544 32.8356Z" fill="#305070" stroke="#305070"/>
<path d="M22.3774 98.7127C29.0462 109.533 41.0047 116.827 54.7758 116.827C64.6971 116.827 73.7205 113.029 80.4866 106.814C78.6234 121.178 66.3429 132.307 51.4341 132.307C34.3544 132.307 20.8969 117.76 22.2209 100.733L22.2209 100.733L22.3774 98.7127Z" fill="#305070" stroke="#305070"/>
<mask id="path-5-inside-1_110_750" fill="white">
<path d="M57.3926 70.7623C57.2079 70.7623 57.0638 70.6137 57.0638 70.4335C57.0638 63.849 54.983 58.7147 50.8801 55.1837C42.1247 47.6443 26.9154 49.8241 26.7668 49.8466C26.6407 49.8647 26.5191 49.8106 26.447 49.7071L21.4027 42.3704C21.2991 42.2217 21.3396 42.0146 21.4882 41.911C21.6368 41.8074 21.844 41.8434 21.9476 41.9966L26.8747 49.1666C28.7483 48.9279 42.8858 47.4326 51.3124 54.6837C55.5685 58.3498 57.7303 63.6508 57.7303 70.438C57.7303 70.6227 57.5817 70.7668 57.4016 70.7668L57.3926 70.7623Z"/>
</mask>
<path d="M57.3926 70.7623C57.2079 70.7623 57.0638 70.6137 57.0638 70.4335C57.0638 63.849 54.983 58.7147 50.8801 55.1837C42.1247 47.6443 26.9154 49.8241 26.7668 49.8466C26.6407 49.8647 26.5191 49.8106 26.447 49.7071L21.4027 42.3704C21.2991 42.2217 21.3396 42.0146 21.4882 41.911C21.6368 41.8074 21.844 41.8434 21.9476 41.9966L26.8747 49.1666C28.7483 48.9279 42.8858 47.4326 51.3124 54.6837C55.5685 58.3498 57.7303 63.6508 57.7303 70.438C57.7303 70.6227 57.5817 70.7668 57.4016 70.7668L57.3926 70.7623Z" fill="#305070"/>
<path d="M57.3926 70.7623L57.8398 69.8679L57.6286 69.7623H57.3926V70.7623ZM50.8801 55.1837L50.2276 55.9415L50.2278 55.9416L50.8801 55.1837ZM26.7668 49.8466L26.9082 50.8366L26.9166 50.8354L26.7668 49.8466ZM26.447 49.7071L25.623 50.2736L25.6261 50.2781L26.447 49.7071ZM21.4027 42.3704L22.2267 41.8038L22.2231 41.7986L21.4027 42.3704ZM21.9476 41.9966L21.1193 42.5569L21.1235 42.5629L21.9476 41.9966ZM26.8747 49.1666L26.0506 49.7329L26.396 50.2356L27.0011 50.1585L26.8747 49.1666ZM51.3124 54.6837L51.9651 53.926L51.9647 53.9257L51.3124 54.6837ZM57.4016 70.7668L56.9544 71.6612L57.1655 71.7668H57.4016V70.7668ZM57.3926 69.7623C57.7691 69.7623 58.0638 70.0703 58.0638 70.4335H56.0638C56.0638 71.157 56.6467 71.7623 57.3926 71.7623V69.7623ZM58.0638 70.4335C58.0638 63.6268 55.9036 58.1875 51.5324 54.4257L50.2278 55.9416C54.0625 59.2418 56.0638 64.0711 56.0638 70.4335H58.0638ZM51.5326 54.4259C46.9164 50.4508 40.6697 49.0836 35.6759 48.6827C30.6579 48.2798 26.7362 48.8399 26.617 48.8579L26.9166 50.8354C26.9148 50.8356 26.9741 50.8269 27.0911 50.8122C27.2062 50.7976 27.3746 50.7776 27.591 50.7548C28.024 50.7093 28.6484 50.6531 29.4225 50.6092C30.9722 50.5214 33.114 50.4834 35.5159 50.6763C40.3527 51.0646 46.0884 52.3772 50.2276 55.9415L51.5326 54.4259ZM26.6253 48.8567C26.8778 48.8206 27.1267 48.933 27.2679 49.136L25.6261 50.2781C25.9114 50.6883 26.4035 50.9087 26.9082 50.8366L26.6253 48.8567ZM27.271 49.1405L22.2267 41.8038L20.5787 42.9369L25.623 50.2736L27.271 49.1405ZM22.2231 41.7986C22.4462 42.1187 22.3486 42.5302 22.06 42.7314L20.9164 41.0906C20.3306 41.4989 20.152 42.3248 20.5823 42.9422L22.2231 41.7986ZM22.06 42.7314C21.756 42.9433 21.3316 42.8706 21.1193 42.5569L22.7759 41.4363C22.3565 40.8162 21.5177 40.6715 20.9164 41.0906L22.06 42.7314ZM21.1235 42.5629L26.0506 49.7329L27.6989 48.6002L22.7718 41.4302L21.1235 42.5629ZM27.0011 50.1585C27.8964 50.0445 31.8155 49.6193 36.5325 50.1111C41.2686 50.6049 46.6713 52.0093 50.6602 55.4417L51.9647 53.9257C47.527 50.107 41.6476 48.6335 36.7399 48.1219C31.8131 47.6082 27.7267 48.0499 26.7484 48.1746L27.0011 50.1585ZM50.6598 55.4414C54.6499 58.8783 56.7303 63.876 56.7303 70.438H58.7303C58.7303 63.4256 56.4872 57.8213 51.9651 53.926L50.6598 55.4414ZM56.7303 70.438C56.7303 70.0615 57.0384 69.7668 57.4016 69.7668V71.7668C58.125 71.7668 58.7303 71.1839 58.7303 70.438H56.7303ZM57.8488 69.8724L57.8398 69.8679L56.9453 71.6567L56.9544 71.6612L57.8488 69.8724Z" fill="#305070" mask="url(#path-5-inside-1_110_750)"/>
<mask id="path-7-inside-2_110_750" fill="white">
<path d="M40.949 48.2478C40.7914 48.2478 40.6519 48.1352 40.6248 47.9731L38.9583 38.5872C38.9268 38.407 39.0486 38.2359 39.2242 38.2043C39.4044 38.1728 39.5753 38.2899 39.6069 38.4701L41.2734 47.856C41.3049 48.0361 41.1834 48.2073 41.0077 48.2388C40.9897 48.2388 40.967 48.2433 40.949 48.2433V48.2478Z"/>
</mask>
<path d="M40.949 48.2478C40.7914 48.2478 40.6519 48.1352 40.6248 47.9731L38.9583 38.5872C38.9268 38.407 39.0486 38.2359 39.2242 38.2043C39.4044 38.1728 39.5753 38.2899 39.6069 38.4701L41.2734 47.856C41.3049 48.0361 41.1834 48.2073 41.0077 48.2388C40.9897 48.2388 40.967 48.2433 40.949 48.2433V48.2478Z" fill="#305070"/>
<path d="M40.949 48.2478V49.2478H41.949V48.2478H40.949ZM40.6248 47.9731L41.6113 47.8087L41.6094 47.7983L40.6248 47.9731ZM38.9583 38.5872L37.9733 38.7595L37.9737 38.762L38.9583 38.5872ZM39.2242 38.2043L39.0518 37.2193L39.0476 37.2201L39.2242 38.2043ZM39.6069 38.4701L38.6218 38.6424L38.6223 38.6449L39.6069 38.4701ZM41.2734 47.856L42.2584 47.6836L42.258 47.6812L41.2734 47.856ZM41.0077 48.2388V49.2388H41.0967L41.1844 49.2231L41.0077 48.2388ZM40.949 48.2433V47.2433H39.949V48.2433H40.949ZM40.949 47.2478C41.2681 47.2478 41.5559 47.4768 41.6112 47.8087L39.6384 48.1375C39.7478 48.7936 40.3146 49.2478 40.949 49.2478V47.2478ZM41.6094 47.7983L39.9429 38.4123L37.9737 38.762L39.6402 48.1479L41.6094 47.7983ZM39.9434 38.4148C40.0069 38.778 39.7661 39.1231 39.4009 39.1886L39.0476 37.2201C38.3311 37.3487 37.8467 38.036 37.9733 38.7595L39.9434 38.4148ZM39.3966 39.1894C39.0461 39.2507 38.6878 39.0196 38.6218 38.6424L40.5919 38.2977C40.4628 37.5602 39.7626 37.0949 39.0518 37.2193L39.3966 39.1894ZM38.6223 38.6449L40.2888 48.0308L42.258 47.6812L40.5915 38.2952L38.6223 38.6449ZM40.2883 48.0284C40.2249 47.6661 40.4649 47.3203 40.831 47.2545L41.1844 49.2231C41.9018 49.0943 42.3848 48.4062 42.2584 47.6836L40.2883 48.0284ZM41.0077 47.2388C40.9639 47.2388 40.9281 47.2414 40.9082 47.2431C40.8975 47.2441 40.8883 47.245 40.8819 47.2457C40.8759 47.2463 40.8703 47.2469 40.8683 47.2471C40.8652 47.2475 40.8657 47.2474 40.8667 47.2473C40.868 47.2472 40.8722 47.2467 40.878 47.2462C40.888 47.2454 40.9142 47.2433 40.949 47.2433V49.2433C40.9928 49.2433 41.0285 49.2407 41.0484 49.239C41.0592 49.238 41.0684 49.2371 41.0748 49.2365C41.0808 49.2358 41.0864 49.2352 41.0884 49.235C41.0915 49.2346 41.091 49.2347 41.09 49.2348C41.0887 49.2349 41.0845 49.2354 41.0787 49.2359C41.0687 49.2367 41.0425 49.2388 41.0077 49.2388V47.2388ZM39.949 48.2433V48.2478H41.949V48.2433H39.949Z" fill="#305070" mask="url(#path-7-inside-2_110_750)"/>
<path d="M55.3927 45.7527H55.3567V45.4642L55.3927 45.7527ZM55.3927 45.7527C55.5729 45.7302 55.7034 45.5681 55.6854 45.3879M55.3927 45.7527V45.4215V45.4211V45.419L55.5249 45.405C55.5249 45.4057 55.525 45.4064 55.5251 45.4071L55.5249 45.405L55.6854 45.3879M55.6854 45.3879L55.2665 41.4471C55.2485 41.2669 55.0818 41.1318 54.9017 41.1543C54.7215 41.1768 54.5909 41.339 54.609 41.5191M55.6854 45.3879L55.5248 45.404L55.1062 41.4662L54.9428 41.4836L54.7696 41.502C54.7695 41.5013 54.7694 41.5006 54.7693 41.4999C54.7692 41.4989 54.7691 41.4979 54.769 41.4968L54.769 41.4968L54.7693 41.4999L54.7695 41.502L54.609 41.5191M54.609 41.5191L55.0059 45.2527H55.1682L54.7696 41.503L54.609 41.5191ZM55.5247 45.404L55.3927 45.4172V45.261C55.4617 45.2758 55.5156 45.3321 55.5247 45.404ZM54.9637 41.6505C54.8631 41.663 54.7821 41.5951 54.7697 41.503L54.9431 41.4857L55.1065 41.4694C55.1158 41.5623 55.0496 41.6397 54.9637 41.6505Z" fill="#305070" stroke="#305070"/>
<mask id="path-10-inside-3_110_750" fill="white">
<path d="M92.2428 67.4745L87.1085 67.4475C86.9238 67.4475 86.7797 67.2989 86.7797 67.1142C86.7797 66.9296 86.9463 66.7899 87.1129 66.7854L92.2428 66.8124C92.4274 66.8124 92.5715 66.9611 92.5715 67.1457C92.5715 67.3259 92.4229 67.4745 92.2428 67.4745Z"/>
</mask>
<path d="M92.2428 67.4745L87.1085 67.4475C86.9238 67.4475 86.7797 67.2989 86.7797 67.1142C86.7797 66.9296 86.9463 66.7899 87.1129 66.7854L92.2428 66.8124C92.4274 66.8124 92.5715 66.9611 92.5715 67.1457C92.5715 67.3259 92.4229 67.4745 92.2428 67.4745Z" fill="#305070"/>
<path d="M92.2428 67.4745L92.2375 68.4745H92.2428V67.4745ZM87.1085 67.4475L87.1137 66.4475H87.1085V67.4475ZM87.1129 66.7854L87.1182 65.7854L87.102 65.7853L87.0859 65.7858L87.1129 66.7854ZM92.2428 66.8124L92.2375 67.8124H92.2428V66.8124ZM92.248 66.4745L87.1137 66.4475L87.1032 68.4475L92.2375 68.4745L92.248 66.4745ZM87.1085 66.4475C87.4938 66.4475 87.7797 66.7645 87.7797 67.1142H85.7797C85.7797 67.8333 86.3538 68.4475 87.1085 68.4475V66.4475ZM87.7797 67.1142C87.7797 67.3361 87.6776 67.5088 87.5678 67.6118C87.4645 67.7085 87.3183 67.7802 87.1399 67.785L87.0859 65.7858C86.4647 65.8025 85.7797 66.3047 85.7797 67.1142H87.7797ZM87.1076 67.7854L92.2375 67.8124L92.248 65.8124L87.1182 65.7854L87.1076 67.7854ZM92.2428 67.8124C91.8574 67.8124 91.5715 67.4954 91.5715 67.1457H93.5715C93.5715 66.4267 92.9974 65.8124 92.2428 65.8124V67.8124ZM91.5715 67.1457C91.5715 66.7736 91.8706 66.4745 92.2428 66.4745V68.4745C92.9752 68.4745 93.5715 67.8781 93.5715 67.1457H91.5715Z" fill="#305070" mask="url(#path-10-inside-3_110_750)"/>
<path d="M91.9049 66.299C91.9049 75.4077 84.5208 82.7918 75.4121 82.7918C66.3033 82.7918 58.9193 75.4077 58.9193 66.299C58.9193 57.1903 66.3033 49.8062 75.4121 49.8062C84.5208 49.8062 91.9049 57.1903 91.9049 66.299Z" fill="#F9E2D2" stroke="#305070"/>
<mask id="path-13-inside-4_110_750" fill="white">
<path d="M75.4121 83.6206C65.8595 83.6206 58.0861 75.847 58.0861 66.2945C58.0861 56.7419 65.8595 48.9684 75.4121 48.9684C84.9646 48.9684 92.7383 56.7419 92.7383 66.2945C92.7383 75.847 84.9646 83.6206 75.4121 83.6206ZM75.4121 49.635C66.2244 49.635 58.7481 57.1113 58.7481 66.299C58.7481 75.4867 66.2244 82.963 75.4121 82.963C84.5998 82.963 92.0761 75.4867 92.0761 66.299C92.0761 57.1113 84.5998 49.635 75.4121 49.635Z"/>
</mask>
<path d="M75.4121 83.6206C65.8595 83.6206 58.0861 75.847 58.0861 66.2945C58.0861 56.7419 65.8595 48.9684 75.4121 48.9684C84.9646 48.9684 92.7383 56.7419 92.7383 66.2945C92.7383 75.847 84.9646 83.6206 75.4121 83.6206ZM75.4121 49.635C66.2244 49.635 58.7481 57.1113 58.7481 66.299C58.7481 75.4867 66.2244 82.963 75.4121 82.963C84.5998 82.963 92.0761 75.4867 92.0761 66.299C92.0761 57.1113 84.5998 49.635 75.4121 49.635Z" fill="#305070"/>
<path d="M75.4121 82.6206C66.4118 82.6206 59.0861 75.2948 59.0861 66.2945H57.0861C57.0861 76.3993 65.3073 84.6206 75.4121 84.6206V82.6206ZM59.0861 66.2945C59.0861 57.2942 66.4118 49.9684 75.4121 49.9684V47.9684C65.3073 47.9684 57.0861 56.1897 57.0861 66.2945H59.0861ZM75.4121 49.9684C84.4124 49.9684 91.7383 57.2942 91.7383 66.2945H93.7383C93.7383 56.1897 85.5169 47.9684 75.4121 47.9684V49.9684ZM91.7383 66.2945C91.7383 75.2947 84.4124 82.6206 75.4121 82.6206V84.6206C85.5169 84.6206 93.7383 76.3993 93.7383 66.2945H91.7383ZM75.4121 48.635C65.6721 48.635 57.7481 56.559 57.7481 66.299H59.7481C59.7481 57.6635 66.7766 50.635 75.4121 50.635V48.635ZM57.7481 66.299C57.7481 76.039 65.6721 83.963 75.4121 83.963V81.963C66.7766 81.963 59.7481 74.9345 59.7481 66.299H57.7481ZM75.4121 83.963C85.1521 83.963 93.0761 76.039 93.0761 66.299H91.0761C91.0761 74.9345 84.0475 81.963 75.4121 81.963V83.963ZM93.0761 66.299C93.0761 56.559 85.1521 48.635 75.4121 48.635V50.635C84.0475 50.635 91.0761 57.6635 91.0761 66.299H93.0761Z" fill="#305070" mask="url(#path-13-inside-4_110_750)"/>
<mask id="path-15-inside-5_110_750" fill="white">
<path d="M72.3451 71.3388C72.264 71.3388 72.1784 71.3072 72.1153 71.2442L66.5621 65.8487C66.4315 65.7226 66.427 65.5109 66.5531 65.3802C66.6792 65.2496 66.8909 65.2451 67.0215 65.3757L72.3495 70.5506L83.6992 59.7415C83.8298 59.6154 84.0415 59.6199 84.1676 59.755C84.2937 59.8856 84.289 60.0973 84.1539 60.2234L72.5747 71.2532C72.5116 71.3163 72.4307 71.3433 72.3451 71.3433V71.3388Z"/>
</mask>
<path d="M72.3451 71.3388C72.264 71.3388 72.1784 71.3072 72.1153 71.2442L66.5621 65.8487C66.4315 65.7226 66.427 65.5109 66.5531 65.3802C66.6792 65.2496 66.8909 65.2451 67.0215 65.3757L72.3495 70.5506L83.6992 59.7415C83.8298 59.6154 84.0415 59.6199 84.1676 59.755C84.2937 59.8856 84.289 60.0973 84.1539 60.2234L72.5747 71.2532C72.5116 71.3163 72.4307 71.3433 72.3451 71.3433V71.3388Z" fill="white"/>
<path d="M72.3451 71.3388H73.3451V70.3388H72.3451V71.3388ZM72.1153 71.2442L72.8224 70.5371L72.8173 70.532L72.8122 70.527L72.1153 71.2442ZM66.5621 65.8487L67.2589 65.1314L67.2567 65.1293L66.5621 65.8487ZM67.0215 65.3757L66.3144 66.0828L66.3195 66.088L66.3248 66.0931L67.0215 65.3757ZM72.3495 70.5506L71.6528 71.268L72.3427 71.9381L73.0392 71.2748L72.3495 70.5506ZM83.6992 59.7415L84.3888 60.4657L84.3937 60.4609L83.6992 59.7415ZM84.1676 59.755L83.4365 60.4373L83.4423 60.4435L83.4482 60.4496L84.1676 59.755ZM84.1539 60.2234L83.4716 59.4923L83.4642 59.4994L84.1539 60.2234ZM72.5747 71.2532L71.885 70.5291L71.8762 70.5375L71.8676 70.5461L72.5747 71.2532ZM72.3451 71.3433H71.3451V72.3433H72.3451V71.3433ZM72.3451 70.3388C72.5113 70.3388 72.6856 70.4003 72.8224 70.5371L71.4082 71.9513C71.6711 72.2142 72.0167 72.3388 72.3451 72.3388V70.3388ZM72.8122 70.527L67.2589 65.1314L65.8652 66.5659L71.4184 71.9614L72.8122 70.527ZM67.2567 65.1293C67.5202 65.3837 67.5331 65.805 67.2725 66.0748L65.8337 64.6857C65.3209 65.2168 65.3428 66.0614 65.8675 66.5681L67.2567 65.1293ZM67.2725 66.0748C67.0161 66.3403 66.5852 66.3536 66.3144 66.0828L67.7286 64.6686C67.1966 64.1366 66.3422 64.1589 65.8337 64.6857L67.2725 66.0748ZM66.3248 66.0931L71.6528 71.268L73.0462 69.8333L67.7182 64.6584L66.3248 66.0931ZM73.0392 71.2748L84.3888 60.4657L83.0095 59.0174L71.6599 69.8265L73.0392 71.2748ZM84.3937 60.4609C84.1218 60.7235 83.6913 60.7103 83.4365 60.4373L84.8986 59.0727C84.3916 58.5295 83.5377 58.5074 83.0046 59.0221L84.3937 60.4609ZM83.4482 60.4496C83.1849 60.177 83.1993 59.7465 83.4716 59.4924L84.8362 60.9545C85.3788 60.4481 85.4024 59.5943 84.887 59.0604L83.4482 60.4496ZM83.4642 59.4994L71.885 70.5291L73.2644 71.9773L84.8436 60.9475L83.4642 59.4994ZM71.8676 70.5461C72.0237 70.39 72.2138 70.3433 72.3451 70.3433V72.3433C72.6476 72.3433 72.9996 72.2425 73.2818 71.9603L71.8676 70.5461ZM73.3451 71.3433V71.3388H71.3451V71.3433H73.3451Z" fill="#305070" mask="url(#path-15-inside-5_110_750)"/>
<path d="M97.9537 52.6373L85.9247 44.1172L113.664 4.95379L125.693 13.4739L97.9537 52.6373Z" fill="#F9E2D2" stroke="#305070"/>
<mask id="path-18-inside-6_110_750" fill="white">
<path d="M98.1878 53.7875C98.1203 53.7875 98.0527 53.7649 97.9987 53.7244L85.1539 44.6268C85.0818 44.5772 85.0321 44.5007 85.0186 44.4106C85.0051 44.325 85.0232 44.2349 85.0727 44.1628L113.393 4.18267C113.442 4.11061 113.519 4.0611 113.609 4.04759C113.694 4.03408 113.784 4.05209 113.857 4.10163L126.701 13.1993C126.85 13.3029 126.886 13.51 126.778 13.6587L98.4581 53.6388C98.4085 53.7109 98.332 53.7605 98.2419 53.774C98.2239 53.774 98.2058 53.7784 98.1878 53.7784V53.7875ZM85.8068 44.2799L98.1113 52.9948L126.048 13.5551L113.744 4.84026L85.8068 44.2799Z"/>
</mask>
<path d="M98.1878 53.7875C98.1203 53.7875 98.0527 53.7649 97.9987 53.7244L85.1539 44.6268C85.0818 44.5772 85.0321 44.5007 85.0186 44.4106C85.0051 44.325 85.0232 44.2349 85.0727 44.1628L113.393 4.18267C113.442 4.11061 113.519 4.0611 113.609 4.04759C113.694 4.03408 113.784 4.05209 113.857 4.10163L126.701 13.1993C126.85 13.3029 126.886 13.51 126.778 13.6587L98.4581 53.6388C98.4085 53.7109 98.332 53.7605 98.2419 53.774C98.2239 53.774 98.2058 53.7784 98.1878 53.7784V53.7875ZM85.8068 44.2799L98.1113 52.9948L126.048 13.5551L113.744 4.84026L85.8068 44.2799Z" fill="#305070"/>
<path d="M98.1878 53.7875V54.7875H99.1878V53.7875H98.1878ZM97.9987 53.7244L98.5987 52.9244L98.5878 52.9162L98.5767 52.9083L97.9987 53.7244ZM85.1539 44.6268L85.7319 43.8106L85.7204 43.8027L85.1539 44.6268ZM85.0186 44.4106L86.0076 44.2622L86.0064 44.2546L85.0186 44.4106ZM85.0727 44.1628L84.2566 43.5848L84.2487 43.5963L85.0727 44.1628ZM113.393 4.18267L114.209 4.76075L114.217 4.7492L113.393 4.18267ZM113.609 4.04759L113.757 5.03655L113.765 5.03535L113.609 4.04759ZM113.857 4.10163L114.435 3.2855L114.423 3.27759L113.857 4.10163ZM126.701 13.1993L126.123 14.0153L126.13 14.0197L126.701 13.1993ZM126.778 13.6587L125.969 13.0704L125.962 13.0806L126.778 13.6587ZM98.4581 53.6388L97.642 53.0608L97.634 53.0723L98.4581 53.6388ZM98.2419 53.774V54.774H98.3165L98.3903 54.7629L98.2419 53.774ZM98.1878 53.7784V52.7784H97.1878V53.7784H98.1878ZM85.8068 44.2799L84.9908 43.7019L84.4127 44.518L85.2288 45.096L85.8068 44.2799ZM98.1113 52.9948L97.5333 53.8108L98.3493 54.3888L98.9273 53.5728L98.1113 52.9948ZM126.048 13.5551L126.864 14.1331L127.442 13.3171L126.626 12.739L126.048 13.5551ZM113.744 4.84026L114.322 4.02421L113.506 3.44625L112.928 4.26223L113.744 4.84026ZM98.1878 52.7875C98.3368 52.7875 98.4798 52.8352 98.5987 52.9244L97.3987 54.5244C97.6257 54.6946 97.9037 54.7875 98.1878 54.7875V52.7875ZM98.5767 52.9083L85.7318 43.8107L84.5759 45.4428L97.4207 54.5404L98.5767 52.9083ZM85.7204 43.8027C85.871 43.9062 85.979 44.0716 86.0076 44.2622L84.0297 44.5589C84.0853 44.9298 84.2926 45.2482 84.5873 45.4508L85.7204 43.8027ZM86.0064 44.2546C86.03 44.4041 86.0022 44.576 85.8968 44.7294L84.2487 43.5963C84.0442 43.8938 83.9802 44.2459 84.0309 44.5665L86.0064 44.2546ZM85.8887 44.7409L114.209 4.76069L112.576 3.60464L84.2567 43.5848L85.8887 44.7409ZM114.217 4.7492C114.112 4.90078 113.947 5.00809 113.757 5.03652L113.46 3.05865C113.091 3.1141 112.772 3.32044 112.568 3.61614L114.217 4.7492ZM113.765 5.03535C113.616 5.05885 113.444 5.03145 113.29 4.92567L114.423 3.27759C114.125 3.07272 113.773 3.0093 113.453 3.05982L113.765 5.03535ZM113.279 4.91768L126.123 14.0153L127.279 12.3832L114.435 3.28558L113.279 4.91768ZM126.13 14.0197C125.82 13.8036 125.747 13.3758 125.969 13.0705L127.587 14.2468C128.025 13.6443 127.88 12.8021 127.273 12.3789L126.13 14.0197ZM125.962 13.0806L97.6421 53.0608L99.2741 54.2169L127.594 14.2367L125.962 13.0806ZM97.634 53.0723C97.738 52.9211 97.9037 52.8135 98.0936 52.785L98.3903 54.7629C98.7603 54.7074 99.0791 54.5008 99.2821 54.2054L97.634 53.0723ZM98.2419 52.774C98.1971 52.774 98.1601 52.7767 98.1362 52.7789C98.124 52.7801 98.1138 52.7812 98.1067 52.782C98.1 52.7828 98.094 52.7835 98.0924 52.7837C98.0895 52.7841 98.091 52.7839 98.0932 52.7837C98.0957 52.7834 98.1015 52.7827 98.1091 52.782C98.124 52.7806 98.152 52.7784 98.1878 52.7784V54.7784C98.2327 54.7784 98.2696 54.7757 98.2935 54.7735C98.3057 54.7724 98.316 54.7712 98.323 54.7704C98.3297 54.7696 98.3357 54.7689 98.3374 54.7687C98.3402 54.7683 98.3387 54.7685 98.3366 54.7688C98.334 54.7691 98.3283 54.7697 98.3206 54.7704C98.3057 54.7718 98.2777 54.774 98.2419 54.774V52.774ZM97.1878 53.7784V53.7875H99.1878V53.7784H97.1878ZM85.2288 45.096L97.5333 53.8108L98.6893 52.1787L86.3848 43.4639L85.2288 45.096ZM98.9273 53.5728L126.864 14.1331L125.232 12.9771L97.2953 52.4168L98.9273 53.5728ZM126.626 12.739L114.322 4.02421L113.166 5.65631L125.47 14.3711L126.626 12.739ZM112.928 4.26223L84.9908 43.7019L86.6228 44.858L114.56 5.41829L112.928 4.26223Z" fill="#305070" mask="url(#path-18-inside-6_110_750)"/>
<path d="M85.7624 45.2708L97.1902 53.3648L84.5003 59.1628L85.7624 45.2708Z" fill="white" stroke="#305070"/>
<mask id="path-21-inside-7_110_750" fill="white">
<path d="M83.9244 60.309C83.8569 60.309 83.7891 60.2865 83.7351 60.2459C83.6405 60.1784 83.5866 60.0658 83.5956 59.9442L85.0143 44.325C85.0233 44.2079 85.0998 44.1043 85.2034 44.0548C85.3115 44.0052 85.4376 44.0188 85.5322 44.0863L98.377 53.184C98.4716 53.2515 98.5257 53.3686 98.5167 53.4857C98.5076 53.6028 98.431 53.7064 98.3229 53.756L84.0594 60.2774C84.0144 60.2955 83.9694 60.309 83.9244 60.309ZM85.6223 44.9646L84.3071 59.4443L97.5304 53.4001L85.6223 44.9646Z"/>
</mask>
<path d="M83.9244 60.309C83.8569 60.309 83.7891 60.2865 83.7351 60.2459C83.6405 60.1784 83.5866 60.0658 83.5956 59.9442L85.0143 44.325C85.0233 44.2079 85.0998 44.1043 85.2034 44.0548C85.3115 44.0052 85.4376 44.0188 85.5322 44.0863L98.377 53.184C98.4716 53.2515 98.5257 53.3686 98.5167 53.4857C98.5076 53.6028 98.431 53.7064 98.3229 53.756L84.0594 60.2774C84.0144 60.2955 83.9694 60.309 83.9244 60.309ZM85.6223 44.9646L84.3071 59.4443L97.5304 53.4001L85.6223 44.9646Z" fill="#305070"/>
<path d="M83.7351 60.2459L84.3351 59.4459L84.3258 59.439L84.3163 59.4322L83.7351 60.2459ZM83.5956 59.9442L82.5997 59.8537L82.599 59.862L82.5984 59.8703L83.5956 59.9442ZM85.0143 44.325L86.0103 44.4155L86.0113 44.4017L85.0143 44.325ZM85.2034 44.0548L84.7868 43.1457L84.7793 43.1491L84.772 43.1526L85.2034 44.0548ZM85.5322 44.0863L84.9509 44.9001L84.9542 44.9024L85.5322 44.0863ZM98.377 53.184L98.9583 52.3702L98.955 52.3679L98.377 53.184ZM98.3229 53.756L98.7387 54.6654L98.7396 54.665L98.3229 53.756ZM84.0594 60.2774L84.4308 61.2059L84.4533 61.1969L84.4753 61.1869L84.0594 60.2774ZM85.6223 44.9646L86.2004 44.1486L84.7835 43.1448L84.6264 44.8741L85.6223 44.9646ZM84.3071 59.4443L83.3112 59.3538L83.1552 61.0702L84.7228 60.3538L84.3071 59.4443ZM97.5304 53.4001L97.9461 54.3096L99.5252 53.5878L98.1084 52.5841L97.5304 53.4001ZM83.9244 59.309C84.0721 59.309 84.2152 59.356 84.3351 59.4459L83.1351 61.0459C83.3631 61.217 83.6416 61.309 83.9244 61.309V59.309ZM84.3163 59.4322C84.5082 59.5693 84.6095 59.7943 84.5929 60.018L82.5984 59.8703C82.5638 60.3372 82.7728 60.7875 83.1538 61.0597L84.3163 59.4322ZM84.5915 60.0346L86.0102 44.4154L84.0184 44.2345L82.5997 59.8537L84.5915 60.0346ZM86.0113 44.4017C85.9909 44.667 85.8297 44.8638 85.6349 44.9569L84.772 43.1526C84.37 43.3449 84.0557 43.7488 84.0172 44.2483L86.0113 44.4017ZM85.6201 44.9638C85.3975 45.0659 85.1434 45.0375 84.9509 44.9001L86.1134 43.2726C85.7318 43 85.2255 42.9446 84.7868 43.1457L85.6201 44.9638ZM84.9542 44.9024L97.799 54L98.955 52.3679L86.1102 43.2703L84.9542 44.9024ZM97.7958 53.9977C97.6008 53.8584 97.5022 53.6354 97.5196 53.4091L99.5137 53.5624C99.5491 53.1019 99.3424 52.6446 98.9582 52.3702L97.7958 53.9977ZM97.5196 53.4091C97.5405 53.1375 97.7088 52.9374 97.9063 52.8469L98.7396 54.665C99.1533 54.4754 99.4748 54.0682 99.5137 53.5624L97.5196 53.4091ZM97.9071 52.8465L83.6436 59.368L84.4753 61.1869L98.7387 54.6654L97.9071 52.8465ZM83.688 59.349C83.6901 59.3481 83.713 59.3389 83.7494 59.3298C83.7868 59.3204 83.8474 59.309 83.9244 59.309V61.309C84.1604 61.309 84.3464 61.2397 84.4308 61.2059L83.688 59.349ZM84.6264 44.8741L83.3112 59.3538L85.303 59.5347L86.6182 45.055L84.6264 44.8741ZM84.7228 60.3538L97.9461 54.3096L97.1146 52.4907L83.8913 58.5348L84.7228 60.3538ZM98.1084 52.5841L86.2004 44.1486L85.0443 45.7806L96.9523 54.2161L98.1084 52.5841Z" fill="#305070" mask="url(#path-21-inside-7_110_750)"/>
<path d="M90.2548 56.5311L84.5003 59.1625L85.0732 52.8598L90.2548 56.5311Z" fill="#305070" stroke="#305070"/>
<mask id="path-24-inside-8_110_750" fill="white">
<path d="M94.7828 51.3779C94.7153 51.3779 94.6478 51.3599 94.5937 51.3149C94.4451 51.2113 94.409 51.0041 94.5126 50.8555L120.36 14.3658C120.468 14.2172 120.671 14.1811 120.819 14.2892C120.968 14.3928 121.004 14.6 120.896 14.7486L95.0485 51.2383C94.9854 51.3284 94.8818 51.3779 94.7782 51.3779H94.7828Z"/>
</mask>
<path d="M94.7828 51.3779C94.7153 51.3779 94.6478 51.3599 94.5937 51.3149C94.4451 51.2113 94.409 51.0041 94.5126 50.8555L120.36 14.3658C120.468 14.2172 120.671 14.1811 120.819 14.2892C120.968 14.3928 121.004 14.6 120.896 14.7486L95.0485 51.2383C94.9854 51.3284 94.8818 51.3779 94.7782 51.3779H94.7828Z" fill="#305070"/>
<path d="M94.5937 51.3149L95.2339 50.5466L95.2008 50.5191L95.1655 50.4945L94.5937 51.3149ZM94.5126 50.8555L93.6965 50.2774L93.6922 50.2837L94.5126 50.8555ZM120.36 14.3658L119.551 13.7776L119.544 13.7878L120.36 14.3658ZM120.819 14.2892L120.231 15.0979L120.239 15.1039L120.247 15.1096L120.819 14.2892ZM120.896 14.7486L120.087 14.1604L120.08 14.1706L120.896 14.7486ZM95.0485 51.2383L94.2325 50.6603L94.2293 50.6649L95.0485 51.2383ZM94.7828 50.3779C94.8872 50.3779 95.0658 50.4065 95.2339 50.5466L93.9535 52.0831C94.2298 52.3133 94.5433 52.3779 94.7828 52.3779V50.3779ZM95.1655 50.4945C95.474 50.7095 95.5424 51.1268 95.333 51.4273L93.6922 50.2837C93.2756 50.8814 93.4162 51.7131 94.0219 52.1353L95.1655 50.4945ZM95.3286 51.4335L121.176 14.9438L119.544 13.7878L93.6965 50.2775L95.3286 51.4335ZM121.169 14.954C120.965 15.2337 120.547 15.3278 120.231 15.0979L121.407 13.4805C120.794 13.0344 119.971 13.2006 119.551 13.7776L121.169 14.954ZM120.247 15.1096C119.937 14.8935 119.865 14.4657 120.087 14.1604L121.705 15.3368C122.143 14.7342 121.998 13.8921 121.391 13.4688L120.247 15.1096ZM120.08 14.1706L94.2325 50.6603L95.8645 51.8164L121.712 15.3266L120.08 14.1706ZM94.2293 50.6649C94.3634 50.4733 94.5734 50.3779 94.7782 50.3779V52.3779C95.1902 52.3779 95.6075 52.1836 95.8677 51.8118L94.2293 50.6649ZM94.7782 52.3779H94.7828V50.3779H94.7782V52.3779Z" fill="#305070" mask="url(#path-24-inside-8_110_750)"/>
<mask id="path-26-inside-9_110_750" fill="white">
<path d="M88.7479 47.1039C88.6804 47.1039 88.6129 47.0858 88.5588 47.0408C88.4102 46.9372 88.374 46.73 88.4821 46.5814L114.329 10.0917C114.437 9.94304 114.64 9.90704 114.789 10.0151C114.937 10.1187 114.973 10.3259 114.865 10.4745L89.018 46.9643C88.9549 47.0543 88.8515 47.1039 88.7479 47.1039Z"/>
</mask>
<path d="M88.7479 47.1039C88.6804 47.1039 88.6129 47.0858 88.5588 47.0408C88.4102 46.9372 88.374 46.73 88.4821 46.5814L114.329 10.0917C114.437 9.94304 114.64 9.90704 114.789 10.0151C114.937 10.1187 114.973 10.3259 114.865 10.4745L89.018 46.9643C88.9549 47.0543 88.8515 47.1039 88.7479 47.1039Z" fill="#305070"/>
<path d="M88.5588 47.0408L89.199 46.2726L89.1659 46.245L89.1306 46.2204L88.5588 47.0408ZM88.4821 46.5814L89.2909 47.1696L89.2981 47.1594L88.4821 46.5814ZM114.329 10.0917L113.521 9.50344L113.513 9.51364L114.329 10.0917ZM114.789 10.0151L114.201 10.8239L114.209 10.8298L114.217 10.8355L114.789 10.0151ZM114.865 10.4745L114.057 9.88631L114.049 9.8965L114.865 10.4745ZM89.018 46.9643L88.202 46.3862L88.1988 46.3908L89.018 46.9643ZM88.7479 46.1039C88.8523 46.1039 89.0309 46.1325 89.199 46.2726L87.9186 47.809C88.1949 48.0392 88.5084 48.1039 88.7479 48.1039V46.1039ZM89.1306 46.2204C89.4396 46.4358 89.5135 46.8633 89.2908 47.1696L87.6733 45.9932C87.2344 46.5967 87.3808 47.4386 87.987 47.8612L89.1306 46.2204ZM89.2981 47.1594L115.145 10.6697L113.513 9.51364L87.666 46.0034L89.2981 47.1594ZM115.138 10.6798C114.934 10.9598 114.516 11.0536 114.201 10.8239L115.377 9.2064C114.764 8.76052 113.94 8.92623 113.521 9.50349L115.138 10.6798ZM114.217 10.8355C113.907 10.6195 113.835 10.1916 114.057 9.88636L115.674 11.0627C116.112 10.4602 115.968 9.61798 115.361 9.19473L114.217 10.8355ZM114.049 9.8965L88.202 46.3862L89.834 47.5423L115.681 11.0526L114.049 9.8965ZM88.1988 46.3908C88.3325 46.1998 88.5424 46.1039 88.7479 46.1039V48.1039C89.1606 48.1039 89.5774 47.9089 89.8372 47.5377L88.1988 46.3908Z" fill="#305070" mask="url(#path-26-inside-9_110_750)"/>
<path d="M111.887 7.7523L114.584 3.94479L114.584 3.94473C116.938 0.62111 121.539 -0.163202 124.858 2.19007L124.858 2.19024C128.182 4.54377 128.966 9.14519 126.613 12.4642L126.613 12.4644L123.916 16.272L111.887 7.7523Z" fill="#D2F9F9" stroke="#305070"/>
<mask id="path-29-inside-10_110_750" fill="white">
<path d="M124.035 17.2977C123.967 17.2977 123.9 17.2797 123.846 17.2347L111.001 8.13699C110.929 8.08745 110.879 8.01089 110.866 7.92082C110.852 7.83525 110.87 7.74515 110.92 7.67309L113.906 3.45754C116.518 -0.231062 121.648 -1.10928 125.336 1.50742C127.124 2.77299 128.309 4.66009 128.678 6.81741C129.048 8.97473 128.552 11.15 127.287 12.938L124.301 17.1536C124.238 17.2437 124.134 17.2932 124.03 17.2932L124.035 17.2977ZM111.654 7.79019L123.958 16.5051L126.751 12.5597C127.913 10.9159 128.368 8.92069 128.03 6.93451C127.692 4.94834 126.598 3.21434 124.958 2.05236C121.567 -0.352662 116.851 0.453508 114.446 3.84486L111.654 7.79019Z"/>
</mask>
<path d="M124.035 17.2977C123.967 17.2977 123.9 17.2797 123.846 17.2347L111.001 8.13699C110.929 8.08745 110.879 8.01089 110.866 7.92082C110.852 7.83525 110.87 7.74515 110.92 7.67309L113.906 3.45754C116.518 -0.231062 121.648 -1.10928 125.336 1.50742C127.124 2.77299 128.309 4.66009 128.678 6.81741C129.048 8.97473 128.552 11.15 127.287 12.938L124.301 17.1536C124.238 17.2437 124.134 17.2932 124.03 17.2932L124.035 17.2977ZM111.654 7.79019L123.958 16.5051L126.751 12.5597C127.913 10.9159 128.368 8.92069 128.03 6.93451C127.692 4.94834 126.598 3.21434 124.958 2.05236C121.567 -0.352662 116.851 0.453508 114.446 3.84486L111.654 7.79019Z" fill="#305070"/>
<path d="M124.035 17.2977V18.2977H126.428L124.746 16.595L124.035 17.2977ZM123.846 17.2347L124.486 16.4665L124.456 16.4413L124.424 16.4186L123.846 17.2347ZM111.001 8.13699L111.579 7.32087L111.567 7.31295L111.001 8.13699ZM110.866 7.92082L111.855 7.77247L111.854 7.76486L110.866 7.92082ZM110.92 7.67309L110.104 7.09502L110.096 7.10656L110.92 7.67309ZM113.906 3.45754L114.722 4.03556L114.722 4.03548L113.906 3.45754ZM125.336 1.50742L124.758 2.32304L124.759 2.32365L125.336 1.50742ZM127.287 12.938L128.103 13.5161L128.103 13.5158L127.287 12.938ZM124.301 17.1536L123.485 16.5756L123.481 16.5801L124.301 17.1536ZM124.03 17.2932V16.2932H121.637L123.319 17.9959L124.03 17.2932ZM111.654 7.79019L110.838 7.21247L110.26 8.02844L111.076 8.60624L111.654 7.79019ZM123.958 16.5051L123.38 17.3211L124.197 17.8993L124.775 17.0828L123.958 16.5051ZM126.751 12.5597L127.567 13.1375L127.567 13.137L126.751 12.5597ZM124.958 2.05236L124.38 2.86807L124.38 2.86821L124.958 2.05236ZM114.446 3.84486L113.631 3.2664L113.63 3.26715L114.446 3.84486ZM124.035 16.2977C124.139 16.2977 124.317 16.326 124.486 16.4665L123.206 18.0029C123.482 18.2334 123.796 18.2977 124.035 18.2977V16.2977ZM124.424 16.4186L111.579 7.32095L110.423 8.95304L123.268 18.0507L124.424 16.4186ZM111.567 7.31295C111.719 7.41738 111.826 7.58332 111.855 7.77248L109.877 8.06916C109.932 8.43847 110.138 8.75751 110.434 8.96103L111.567 7.31295ZM111.854 7.76486C111.877 7.91436 111.849 8.08626 111.744 8.23962L110.096 7.10656C109.891 7.40403 109.827 7.75614 109.878 8.07678L111.854 7.76486ZM111.736 8.2511L114.722 4.03556L113.09 2.87953L110.104 7.09508L111.736 8.2511ZM114.722 4.03548C117.015 0.797286 121.521 0.0264604 124.758 2.32304L125.915 0.691809C121.775 -2.24502 116.021 -1.25941 113.09 2.87961L114.722 4.03548ZM124.759 2.32365C126.329 3.43534 127.368 5.08907 127.693 6.98615L129.664 6.64868C129.25 4.23112 127.92 2.11063 125.914 0.691195L124.759 2.32365ZM127.693 6.98615C128.017 8.88138 127.583 10.7883 126.47 12.3603L128.103 13.5158C129.521 11.5118 130.078 9.06808 129.664 6.64868L127.693 6.98615ZM126.471 12.36L123.485 16.5756L125.117 17.7316L128.103 13.5161L126.471 12.36ZM123.481 16.5801C123.615 16.3888 123.825 16.2932 124.03 16.2932V18.2932C124.443 18.2932 124.86 18.0985 125.12 17.7271L123.481 16.5801ZM123.319 17.9959L123.323 18.0004L124.746 16.595L124.742 16.5905L123.319 17.9959ZM111.076 8.60624L123.38 17.3211L124.536 15.689L112.232 6.97415L111.076 8.60624ZM124.775 17.0828L127.567 13.1375L125.934 11.982L123.142 15.9274L124.775 17.0828ZM127.567 13.137C128.882 11.2773 129.398 9.01434 129.016 6.76685L127.044 7.10217C127.337 8.82703 126.944 10.5544 125.934 11.9825L127.567 13.137ZM129.016 6.76685C128.633 4.51824 127.392 2.55142 125.536 1.23652L124.38 2.86821C125.804 3.87727 126.751 5.37845 127.044 7.10217L129.016 6.76685ZM125.537 1.23666C121.694 -1.48837 116.355 -0.574719 113.631 3.2664L115.262 4.42333C117.348 1.48173 121.44 0.783049 124.38 2.86807L125.537 1.23666ZM113.63 3.26715L110.838 7.21247L112.47 8.36791L115.263 4.42258L113.63 3.26715Z" fill="#305070" mask="url(#path-29-inside-10_110_750)"/>
<path d="M125.684 13.7191L122.287 18.5152L110.258 9.99511L113.655 5.19902L125.684 13.7191Z" fill="white" stroke="#305070"/>
<mask id="path-32-inside-11_110_750" fill="white">
<path d="M122.531 19.4235C122.463 19.4235 122.396 19.401 122.342 19.3605L109.497 10.2628C109.348 10.1592 109.312 9.95207 109.416 9.80345L113.392 4.19169C113.442 4.11962 113.519 4.07012 113.609 4.0566C113.694 4.04309 113.784 4.06111 113.856 4.11065L126.701 13.2083C126.85 13.3119 126.886 13.5191 126.778 13.6677L122.801 19.2794C122.751 19.3515 122.675 19.401 122.585 19.4145C122.567 19.4145 122.549 19.419 122.531 19.419V19.4235ZM110.15 9.91604L122.454 18.6309L126.048 13.5551L113.744 4.84026L110.15 9.91604Z"/>
</mask>
<path d="M122.531 19.4235C122.463 19.4235 122.396 19.401 122.342 19.3605L109.497 10.2628C109.348 10.1592 109.312 9.95207 109.416 9.80345L113.392 4.19169C113.442 4.11962 113.519 4.07012 113.609 4.0566C113.694 4.04309 113.784 4.06111 113.856 4.11065L126.701 13.2083C126.85 13.3119 126.886 13.5191 126.778 13.6677L122.801 19.2794C122.751 19.3515 122.675 19.401 122.585 19.4145C122.567 19.4145 122.549 19.419 122.531 19.419V19.4235ZM110.15 9.91604L122.454 18.6309L126.048 13.5551L113.744 4.84026L110.15 9.91604Z" fill="#305070"/>
<path d="M122.531 19.4235V20.4235H123.531V19.4235H122.531ZM122.342 19.3605L122.942 18.5605L122.931 18.5523L122.92 18.5444L122.342 19.3605ZM109.497 10.2628L110.075 9.44672L110.069 9.44239L109.497 10.2628ZM109.416 9.80345L108.6 9.22523L108.595 9.23166L109.416 9.80345ZM113.392 4.19169L114.208 4.76989L114.212 4.76408L114.217 4.75821L113.392 4.19169ZM113.609 4.0566L113.757 5.04557L113.765 5.04437L113.609 4.0566ZM113.856 4.11065L114.435 3.29452L114.423 3.28661L113.856 4.11065ZM126.701 13.2083L126.123 14.0244L126.13 14.0287L126.701 13.2083ZM126.778 13.6677L125.969 13.0795L125.962 13.0895L126.778 13.6677ZM122.801 19.2794L121.985 18.7012L121.981 18.707L121.977 18.7129L122.801 19.2794ZM122.585 19.4145V20.4145H122.659L122.733 20.4035L122.585 19.4145ZM122.531 19.419V18.419H121.531V19.419H122.531ZM110.15 9.91604L109.334 9.33817L108.756 10.1542L109.572 10.7321L110.15 9.91604ZM122.454 18.6309L121.876 19.4469L122.692 20.025L123.27 19.2087L122.454 18.6309ZM126.048 13.5551L126.864 14.133L127.442 13.3169L126.626 12.739L126.048 13.5551ZM113.744 4.84026L114.322 4.02421L113.506 3.44615L112.928 4.26239L113.744 4.84026ZM122.531 18.4235C122.68 18.4235 122.823 18.4713 122.942 18.5605L121.742 20.1605C121.969 20.3307 122.247 20.4235 122.531 20.4235V18.4235ZM122.92 18.5444L110.075 9.44674L108.919 11.0788L121.764 20.1765L122.92 18.5444ZM110.069 9.44239C110.377 9.65735 110.445 10.0747 110.236 10.3752L108.595 9.23166C108.179 9.82942 108.319 10.6611 108.925 11.0832L110.069 9.44239ZM110.231 10.3816L114.208 4.76989L112.577 3.61349L108.6 9.22525L110.231 10.3816ZM114.217 4.75821C114.112 4.90979 113.947 5.01711 113.757 5.04554L113.46 3.06767C113.091 3.12312 112.772 3.32945 112.568 3.62516L114.217 4.75821ZM113.765 5.04437C113.616 5.06787 113.444 5.04047 113.29 4.93469L114.423 3.28661C114.125 3.08174 113.773 3.01832 113.453 3.06884L113.765 5.04437ZM113.278 4.9267L126.123 14.0243L127.279 12.3922L114.434 3.2946L113.278 4.9267ZM126.13 14.0287C125.819 13.8126 125.747 13.3848 125.969 13.0795L127.587 14.2559C128.025 13.6533 127.88 12.8111 127.273 12.3879L126.13 14.0287ZM125.962 13.0895L121.985 18.7012L123.617 19.8576L127.594 14.2459L125.962 13.0895ZM121.977 18.7129C122.081 18.5616 122.247 18.4541 122.436 18.4256L122.733 20.4035C123.103 20.348 123.422 20.1413 123.625 19.8459L121.977 18.7129ZM122.585 18.4145C122.539 18.4145 122.502 18.4173 122.478 18.4196C122.466 18.4208 122.455 18.4219 122.448 18.4227C122.441 18.4235 122.435 18.4243 122.434 18.4245C122.431 18.4249 122.432 18.4247 122.435 18.4244C122.437 18.4241 122.443 18.4234 122.451 18.4227C122.466 18.4213 122.494 18.419 122.531 18.419V20.419C122.576 20.419 122.613 20.4162 122.638 20.414C122.65 20.4128 122.66 20.4117 122.667 20.4108C122.674 20.41 122.68 20.4093 122.682 20.4091C122.685 20.4087 122.683 20.4089 122.681 20.4092C122.678 20.4095 122.672 20.4101 122.665 20.4109C122.649 20.4123 122.621 20.4145 122.585 20.4145V18.4145ZM121.531 19.419V19.4235H123.531V19.419H121.531ZM109.572 10.7321L121.876 19.4469L123.032 17.8148L110.728 9.1L109.572 10.7321ZM123.27 19.2087L126.864 14.133L125.232 12.9772L121.638 18.053L123.27 19.2087ZM126.626 12.739L114.322 4.02421L113.166 5.65631L125.47 14.3711L126.626 12.739ZM112.928 4.26239L109.334 9.33817L110.966 10.4939L114.56 5.41814L112.928 4.26239Z" fill="#305070" mask="url(#path-32-inside-11_110_750)"/>
<path d="M104.942 85.2369L105.99 88.1796L106.158 88.6506L106.629 88.4828L109.638 87.4109L110.108 87.2433L109.941 86.7726L108.897 83.8298L111.364 82.9529L112.413 85.8918L112.581 86.3626L113.052 86.1949L116.06 85.123L116.531 84.9551L116.363 84.484L115.315 81.5458L117.787 80.6653L118.835 83.6082L119.003 84.0793L119.474 83.9115L122.482 82.8396L122.953 82.6718L122.786 82.2008L121.737 79.2577L124.205 78.3776L125.253 81.3203L125.421 81.7913L125.892 81.6235L128.9 80.5516L129.371 80.3838L129.204 79.9128L128.156 76.9705L130.627 76.0934L131.675 79.0326L131.843 79.5033L132.314 79.3356L135.323 78.2637L135.794 78.0958L135.626 77.6247L134.578 74.6865L137.05 73.806L138.098 76.7444L138.098 76.7446L151.293 113.803L116.718 126.115L103.523 89.0601L103.523 89.0601L102.475 86.117L104.942 85.2369Z" fill="white" stroke="#305070"/>
<mask id="path-35-inside-12_110_750" fill="white">
<path d="M116.415 127.087C116.365 127.087 116.316 127.078 116.275 127.055C116.194 127.019 116.135 126.952 116.104 126.866L101.525 85.9265C101.494 85.8455 101.498 85.7509 101.539 85.6743C101.575 85.5933 101.642 85.5347 101.728 85.5032L105.142 84.2872C105.313 84.2241 105.502 84.3142 105.565 84.4898L106.669 87.5884L109.056 86.7372L107.952 83.6386C107.92 83.5575 107.925 83.463 107.966 83.3864C108.002 83.3054 108.069 83.2468 108.155 83.2153L111.569 81.9992C111.744 81.9362 111.929 82.0263 111.992 82.2019L113.096 85.3005L115.482 84.4493L114.379 81.3507C114.347 81.2696 114.352 81.175 114.393 81.0985C114.429 81.0174 114.496 80.9588 114.582 80.9273L117.996 79.7113C118.167 79.6528 118.356 79.7383 118.419 79.914L119.522 83.0126L121.909 82.1614L120.806 79.0627C120.774 78.9817 120.779 78.8871 120.819 78.8106C120.856 78.7295 120.923 78.6709 121.009 78.6394L124.423 77.4234C124.594 77.3603 124.783 77.4504 124.846 77.6261L125.949 80.7247L128.336 79.8734L127.233 76.7748C127.201 76.6938 127.206 76.5992 127.246 76.5226C127.282 76.4415 127.35 76.383 127.436 76.3515L130.849 75.1354C131.021 75.0724 131.21 75.1625 131.273 75.3382L132.376 78.4367L134.763 77.5855L133.66 74.4869C133.597 74.3158 133.687 74.1266 133.862 74.0635L137.276 72.8475C137.357 72.816 137.448 72.8205 137.529 72.8611C137.61 72.9016 137.668 72.9646 137.7 73.0502L152.279 113.99C152.31 114.071 152.305 114.165 152.265 114.242C152.229 114.323 152.161 114.381 152.076 114.413L116.559 127.06C116.523 127.073 116.487 127.078 116.446 127.078L116.415 127.087ZM102.259 86.0166L116.617 126.335L151.513 113.909L137.155 73.5907L134.367 74.586L135.47 77.6846C135.533 77.8558 135.443 78.0449 135.268 78.1079L132.259 79.1798C132.178 79.2114 132.083 79.2069 132.007 79.1664C131.926 79.1303 131.867 79.0628 131.836 78.9772L130.732 75.8786L127.944 76.8739L129.048 79.9725C129.111 80.1437 129.021 80.3329 128.845 80.3959L125.837 81.4678C125.755 81.4993 125.661 81.4903 125.585 81.4543C125.503 81.4183 125.445 81.3507 125.413 81.2651L124.31 78.1665L121.522 79.1619L122.625 82.2605C122.688 82.4316 122.599 82.6208 122.423 82.6838L119.414 83.7557C119.333 83.7872 119.239 83.7827 119.162 83.7422C119.081 83.7062 119.022 83.6386 118.991 83.5531L117.887 80.4545L115.1 81.4498L116.203 84.5484C116.266 84.7195 116.176 84.9087 116 84.9717L112.992 86.0436C112.911 86.0751 112.816 86.0707 112.74 86.0302C112.659 85.9941 112.6 85.9265 112.568 85.841L111.465 82.7424L108.677 83.7377L109.781 86.8363C109.812 86.9174 109.808 87.012 109.767 87.0885C109.731 87.1696 109.664 87.2282 109.578 87.2597L106.569 88.3316C106.398 88.3946 106.209 88.3045 106.146 88.1289L105.043 85.0303L102.255 86.0256L102.259 86.0166Z"/>
</mask>
<path d="M116.415 127.087C116.365 127.087 116.316 127.078 116.275 127.055C116.194 127.019 116.135 126.952 116.104 126.866L101.525 85.9265C101.494 85.8455 101.498 85.7509 101.539 85.6743C101.575 85.5933 101.642 85.5347 101.728 85.5032L105.142 84.2872C105.313 84.2241 105.502 84.3142 105.565 84.4898L106.669 87.5884L109.056 86.7372L107.952 83.6386C107.92 83.5575 107.925 83.463 107.966 83.3864C108.002 83.3054 108.069 83.2468 108.155 83.2153L111.569 81.9992C111.744 81.9362 111.929 82.0263 111.992 82.2019L113.096 85.3005L115.482 84.4493L114.379 81.3507C114.347 81.2696 114.352 81.175 114.393 81.0985C114.429 81.0174 114.496 80.9588 114.582 80.9273L117.996 79.7113C118.167 79.6528 118.356 79.7383 118.419 79.914L119.522 83.0126L121.909 82.1614L120.806 79.0627C120.774 78.9817 120.779 78.8871 120.819 78.8106C120.856 78.7295 120.923 78.6709 121.009 78.6394L124.423 77.4234C124.594 77.3603 124.783 77.4504 124.846 77.6261L125.949 80.7247L128.336 79.8734L127.233 76.7748C127.201 76.6938 127.206 76.5992 127.246 76.5226C127.282 76.4415 127.35 76.383 127.436 76.3515L130.849 75.1354C131.021 75.0724 131.21 75.1625 131.273 75.3382L132.376 78.4367L134.763 77.5855L133.66 74.4869C133.597 74.3158 133.687 74.1266 133.862 74.0635L137.276 72.8475C137.357 72.816 137.448 72.8205 137.529 72.8611C137.61 72.9016 137.668 72.9646 137.7 73.0502L152.279 113.99C152.31 114.071 152.305 114.165 152.265 114.242C152.229 114.323 152.161 114.381 152.076 114.413L116.559 127.06C116.523 127.073 116.487 127.078 116.446 127.078L116.415 127.087ZM102.259 86.0166L116.617 126.335L151.513 113.909L137.155 73.5907L134.367 74.586L135.47 77.6846C135.533 77.8558 135.443 78.0449 135.268 78.1079L132.259 79.1798C132.178 79.2114 132.083 79.2069 132.007 79.1664C131.926 79.1303 131.867 79.0628 131.836 78.9772L130.732 75.8786L127.944 76.8739L129.048 79.9725C129.111 80.1437 129.021 80.3329 128.845 80.3959L125.837 81.4678C125.755 81.4993 125.661 81.4903 125.585 81.4543C125.503 81.4183 125.445 81.3507 125.413 81.2651L124.31 78.1665L121.522 79.1619L122.625 82.2605C122.688 82.4316 122.599 82.6208 122.423 82.6838L119.414 83.7557C119.333 83.7872 119.239 83.7827 119.162 83.7422C119.081 83.7062 119.022 83.6386 118.991 83.5531L117.887 80.4545L115.1 81.4498L116.203 84.5484C116.266 84.7195 116.176 84.9087 116 84.9717L112.992 86.0436C112.911 86.0751 112.816 86.0707 112.74 86.0302C112.659 85.9941 112.6 85.9265 112.568 85.841L111.465 82.7424L108.677 83.7377L109.781 86.8363C109.812 86.9174 109.808 87.012 109.767 87.0885C109.731 87.1696 109.664 87.2282 109.578 87.2597L106.569 88.3316C106.398 88.3946 106.209 88.3045 106.146 88.1289L105.043 85.0303L102.255 86.0256L102.259 86.0166Z" fill="#305070"/>
<path d="M116.415 127.087V128.087H116.554L116.688 128.048L116.415 127.087ZM116.275 127.055L116.761 126.181L116.722 126.159L116.681 126.141L116.275 127.055ZM116.104 126.866L115.162 127.201L115.166 127.212L116.104 126.866ZM101.525 85.9265L102.467 85.591L102.462 85.5775L102.457 85.5641L101.525 85.9265ZM101.539 85.6743L102.423 86.1422L102.439 86.1119L102.453 86.0805L101.539 85.6743ZM101.728 85.5032L101.392 84.5611L101.382 84.5648L101.728 85.5032ZM105.142 84.2872L105.477 85.2293L105.487 85.2255L105.142 84.2872ZM105.565 84.4898L106.507 84.1543L106.506 84.152L105.565 84.4898ZM106.669 87.5884L105.727 87.9239L106.062 88.8664L107.005 88.5303L106.669 87.5884ZM109.056 86.7372L109.391 87.6791L110.333 87.3434L109.998 86.4017L109.056 86.7372ZM107.952 83.6386L108.894 83.3031L108.889 83.2896L108.884 83.2762L107.952 83.6386ZM107.966 83.3864L108.849 83.8543L108.866 83.824L108.879 83.7926L107.966 83.3864ZM108.155 83.2153L107.819 82.2732L107.809 82.2769L108.155 83.2153ZM111.569 81.9992L111.904 82.9412L111.907 82.9404L111.569 81.9992ZM111.992 82.2019L112.934 81.8664L112.933 81.8641L111.992 82.2019ZM113.096 85.3005L112.153 85.636L112.489 86.5785L113.431 86.2424L113.096 85.3005ZM115.482 84.4493L115.818 85.3912L116.76 85.0555L116.424 84.1138L115.482 84.4493ZM114.379 81.3507L115.321 81.0152L115.316 81.0017L115.311 80.9883L114.379 81.3507ZM114.393 81.0985L115.276 81.5664L115.292 81.536L115.306 81.5046L114.393 81.0985ZM114.582 80.9273L114.246 79.9852L114.236 79.989L114.582 80.9273ZM117.996 79.7113L117.672 78.7651L117.66 78.7693L117.996 79.7113ZM118.419 79.914L119.361 79.5785L119.36 79.5761L118.419 79.914ZM119.522 83.0126L118.58 83.3481L118.916 84.2905L119.858 83.9545L119.522 83.0126ZM121.909 82.1614L122.245 83.1033L123.187 82.7675L122.851 81.8259L121.909 82.1614ZM120.806 79.0627L121.748 78.7273L121.743 78.7137L121.738 78.7003L120.806 79.0627ZM120.819 78.8106L121.703 79.2784L121.719 79.2481L121.733 79.2167L120.819 78.8106ZM121.009 78.6394L120.673 77.6973L120.663 77.7011L121.009 78.6394ZM124.423 77.4234L124.758 78.3654L124.768 78.3617L124.423 77.4234ZM124.846 77.6261L125.788 77.2906L125.787 77.2882L124.846 77.6261ZM125.949 80.7247L125.007 81.0601L125.343 82.0026L126.285 81.6666L125.949 80.7247ZM128.336 79.8734L128.672 80.8154L129.614 80.4796L129.278 79.538L128.336 79.8734ZM127.233 76.7748L128.175 76.4393L128.17 76.4258L128.165 76.4124L127.233 76.7748ZM127.246 76.5226L128.13 76.9905L128.146 76.9601L128.16 76.9287L127.246 76.5226ZM127.436 76.3515L127.1 75.4094L127.09 75.4132L127.436 76.3515ZM130.849 75.1354L131.185 76.0775L131.195 76.0738L130.849 75.1354ZM131.273 75.3382L132.215 75.0027L132.214 75.0003L131.273 75.3382ZM132.376 78.4367L131.434 78.7721L131.77 79.7146L132.712 79.3786L132.376 78.4367ZM134.763 77.5855L135.099 78.5275L136.041 78.1917L135.705 77.25L134.763 77.5855ZM133.66 74.4869L134.602 74.1514L134.598 74.1412L133.66 74.4869ZM133.862 74.0635L133.527 73.1215L133.525 73.1223L133.862 74.0635ZM137.276 72.8475L137.612 73.7896L137.625 73.7848L137.639 73.7795L137.276 72.8475ZM137.7 73.0502L138.642 72.7147L138.638 72.7045L137.7 73.0502ZM152.279 113.99L151.336 114.325L151.341 114.339L151.347 114.352L152.279 113.99ZM152.265 114.242L151.381 113.774L151.365 113.804L151.351 113.836L152.265 114.242ZM152.076 114.413L152.411 115.355L152.421 115.351L152.076 114.413ZM116.559 127.06L116.223 126.118L116.216 126.12L116.208 126.123L116.559 127.06ZM116.446 127.078V126.078H116.307L116.172 126.116L116.446 127.078ZM102.259 86.0166L103.201 85.6811L102.425 83.5002L101.369 85.5608L102.259 86.0166ZM116.617 126.335L115.675 126.67L116.011 127.612L116.953 127.277L116.617 126.335ZM151.513 113.909L151.848 114.851L152.79 114.515L152.455 113.573L151.513 113.909ZM137.155 73.5907L138.097 73.2552L137.761 72.3124L136.819 72.6489L137.155 73.5907ZM134.367 74.586L134.031 73.6442L133.09 73.9802L133.425 74.9214L134.367 74.586ZM135.47 77.6846L134.528 78.0201L134.532 78.0303L135.47 77.6846ZM135.268 78.1079L135.603 79.0499L135.606 79.0491L135.268 78.1079ZM132.259 79.1798L131.923 78.2378L131.91 78.2427L131.897 78.2478L132.259 79.1798ZM132.007 79.1664L132.475 78.2826L132.444 78.2665L132.413 78.2526L132.007 79.1664ZM131.836 78.9772L130.894 79.3127L130.897 79.3229L131.836 78.9772ZM130.732 75.8786L131.674 75.5431L131.339 74.6003L130.396 74.9368L130.732 75.8786ZM127.944 76.8739L127.608 75.9321L126.667 76.2681L127.002 77.2094L127.944 76.8739ZM129.048 79.9725L128.106 80.308L128.11 80.3182L129.048 79.9725ZM128.845 80.3959L129.181 81.3379L129.183 81.3371L128.845 80.3959ZM125.837 81.4678L125.501 80.5258L125.487 80.5306L125.474 80.5358L125.837 81.4678ZM125.585 81.4543L126.01 80.5495L126.001 80.5449L125.991 80.5405L125.585 81.4543ZM125.413 81.2651L124.471 81.6006L124.475 81.6108L125.413 81.2651ZM124.31 78.1665L125.252 77.8311L124.916 76.8882L123.974 77.2247L124.31 78.1665ZM121.522 79.1619L121.186 78.2201L120.245 78.5561L120.58 79.4973L121.522 79.1619ZM122.625 82.2605L121.683 82.5959L121.687 82.6062L122.625 82.2605ZM122.423 82.6838L122.758 83.6258L122.761 83.625L122.423 82.6838ZM119.414 83.7557L119.079 82.8137L119.065 82.8185L119.052 82.8237L119.414 83.7557ZM119.162 83.7422L119.63 82.8584L119.6 82.8423L119.568 82.8284L119.162 83.7422ZM118.991 83.5531L118.049 83.8886L118.053 83.8988L118.991 83.5531ZM117.887 80.4545L118.829 80.119L118.494 79.1762L117.551 79.5127L117.887 80.4545ZM115.1 81.4498L114.763 80.508L113.822 80.844L114.158 81.7853L115.1 81.4498ZM116.203 84.5484L115.261 84.8839L115.265 84.8941L116.203 84.5484ZM116 84.9717L116.336 85.9137L116.338 85.9129L116 84.9717ZM112.992 86.0436L112.656 85.1016L112.643 85.1064L112.63 85.1116L112.992 86.0436ZM112.74 86.0302L113.208 85.1464L113.177 85.1303L113.146 85.1163L112.74 86.0302ZM112.568 85.841L111.626 86.1764L111.63 86.1867L112.568 85.841ZM111.465 82.7424L112.407 82.4069L112.071 81.4641L111.129 81.8006L111.465 82.7424ZM108.677 83.7377L108.341 82.7959L107.4 83.1319L107.735 84.0731L108.677 83.7377ZM109.781 86.8363L108.839 87.1717L108.843 87.1853L108.849 87.1987L109.781 86.8363ZM109.767 87.0885L108.883 86.6206L108.867 86.651L108.853 86.6824L109.767 87.0885ZM109.578 87.2597L109.914 88.2017L109.924 88.198L109.578 87.2597ZM106.569 88.3316L106.234 87.3895L106.224 87.3932L106.569 88.3316ZM106.146 88.1289L105.204 88.4644L105.205 88.4667L106.146 88.1289ZM105.043 85.0303L105.985 84.6948L105.649 83.752L104.706 84.0885L105.043 85.0303ZM102.255 86.0256L101.365 85.5698L100.214 87.816L102.591 86.9674L102.255 86.0256ZM116.415 126.087C116.471 126.087 116.605 126.095 116.761 126.181L115.789 127.929C116.026 128.061 116.259 128.087 116.415 128.087V126.087ZM116.681 126.141C116.877 126.228 116.992 126.385 117.042 126.52L115.166 127.212C115.279 127.518 115.511 127.81 115.869 127.969L116.681 126.141ZM117.046 126.531L102.467 85.591L100.583 86.262L115.162 127.201L117.046 126.531ZM102.457 85.5641C102.528 85.7463 102.522 85.9552 102.423 86.1422L100.655 85.2064C100.475 85.5466 100.459 85.9446 100.593 86.289L102.457 85.5641ZM102.453 86.0805C102.366 86.2755 102.21 86.3914 102.074 86.4415L101.382 84.5648C101.075 84.6781 100.784 84.911 100.625 85.2682L102.453 86.0805ZM102.063 86.4452L105.477 85.2292L104.806 83.3452L101.392 84.5612L102.063 86.4452ZM105.487 85.2255C105.121 85.3606 104.743 85.1584 104.624 84.8277L106.506 84.152C106.261 83.47 105.505 83.0877 104.796 83.3488L105.487 85.2255ZM104.623 84.8253L105.727 87.9239L107.611 87.253L106.507 84.1543L104.623 84.8253ZM107.005 88.5303L109.391 87.6791L108.72 85.7953L106.333 86.6465L107.005 88.5303ZM109.998 86.4017L108.894 83.3031L107.01 83.9741L108.113 87.0727L109.998 86.4017ZM108.884 83.2762C108.955 83.4583 108.948 83.6673 108.849 83.8543L107.082 82.9185C106.902 83.2587 106.886 83.6567 107.02 84.0011L108.884 83.2762ZM108.879 83.7926C108.793 83.9876 108.637 84.1034 108.5 84.1536L107.809 82.2769C107.502 82.3902 107.211 82.6231 107.052 82.9803L108.879 83.7926ZM108.49 84.1573L111.904 82.9412L111.233 81.0572L107.819 82.2733L108.49 84.1573ZM111.907 82.9404C111.548 83.0691 111.169 82.8695 111.051 82.5398L112.933 81.8641C112.689 81.183 111.941 80.8032 111.231 81.058L111.907 82.9404ZM111.05 82.5374L112.153 85.636L114.038 84.965L112.934 81.8664L111.05 82.5374ZM113.431 86.2424L115.818 85.3912L115.147 83.5074L112.76 84.3586L113.431 86.2424ZM116.424 84.1138L115.321 81.0152L113.437 81.6862L114.54 84.7848L116.424 84.1138ZM115.311 80.9883C115.382 81.1704 115.375 81.3793 115.276 81.5664L113.509 80.6306C113.329 80.9707 113.313 81.3689 113.447 81.7132L115.311 80.9883ZM115.306 81.5046C115.22 81.6997 115.064 81.8155 114.927 81.8657L114.236 79.989C113.929 80.1022 113.638 80.3351 113.479 80.6923L115.306 81.5046ZM114.917 81.8693L118.331 80.6533L117.66 78.7693L114.246 79.9853L114.917 81.8693ZM118.319 80.6575C117.988 80.7707 117.605 80.6053 117.478 80.2518L119.36 79.5761C119.107 78.8713 118.345 78.5349 117.672 78.7652L118.319 80.6575ZM117.477 80.2495L118.58 83.3481L120.464 82.6771L119.361 79.5785L117.477 80.2495ZM119.858 83.9545L122.245 83.1033L121.573 81.2195L119.187 82.0707L119.858 83.9545ZM122.851 81.8259L121.748 78.7273L119.864 79.3982L120.967 82.4968L122.851 81.8259ZM121.738 78.7003C121.809 78.8825 121.802 79.0914 121.703 79.2784L119.936 78.3427C119.756 78.6828 119.74 79.0809 119.874 79.4252L121.738 78.7003ZM121.733 79.2167C121.647 79.4117 121.491 79.5276 121.354 79.5778L120.663 77.7011C120.356 77.8143 120.064 78.0472 119.906 78.4044L121.733 79.2167ZM121.344 79.5814L124.758 78.3654L124.087 76.4813L120.673 77.6974L121.344 79.5814ZM124.768 78.3617C124.401 78.4968 124.023 78.2943 123.905 77.9639L125.787 77.2882C125.542 76.6065 124.786 76.2238 124.077 76.485L124.768 78.3617ZM123.904 77.9615L125.007 81.0601L126.891 80.3892L125.788 77.2906L123.904 77.9615ZM126.285 81.6666L128.672 80.8154L128 78.9315L125.613 79.7828L126.285 81.6666ZM129.278 79.538L128.175 76.4393L126.291 77.1103L127.394 80.2089L129.278 79.538ZM128.165 76.4124C128.236 76.5945 128.229 76.8034 128.13 76.9905L126.363 76.0547C126.183 76.3949 126.167 76.793 126.301 77.1373L128.165 76.4124ZM128.16 76.9287C128.073 77.1241 127.917 77.2398 127.781 77.2898L127.09 75.4132C126.783 75.5263 126.491 75.759 126.333 76.1165L128.16 76.9287ZM127.771 77.2935L131.185 76.0775L130.514 74.1934L127.1 75.4095L127.771 77.2935ZM131.195 76.0738C130.828 76.2089 130.45 76.0064 130.332 75.676L132.214 75.0003C131.969 74.3186 131.213 73.9359 130.504 74.1971L131.195 76.0738ZM130.331 75.6736L131.434 78.7721L133.318 78.1013L132.215 75.0027L130.331 75.6736ZM132.712 79.3786L135.099 78.5275L134.427 76.6436L132.04 77.4948L132.712 79.3786ZM135.705 77.25L134.602 74.1514L132.718 74.8224L133.821 77.921L135.705 77.25ZM134.598 74.1412C134.733 74.5081 134.531 74.8862 134.2 75.0047L133.525 73.1223C132.843 73.367 132.46 74.1235 132.721 74.8326L134.598 74.1412ZM134.198 75.0056L137.612 73.7896L136.941 71.9055L133.527 73.1215L134.198 75.0056ZM137.639 73.7795C137.448 73.8536 137.245 73.8371 137.081 73.7555L137.976 71.9666C137.651 71.804 137.267 71.7784 136.914 71.9155L137.639 73.7795ZM137.081 73.7555C137.021 73.7254 136.954 73.6791 136.893 73.612C136.832 73.5444 136.788 73.4692 136.761 73.3959L138.638 72.7045C138.514 72.3688 138.273 72.1154 137.976 71.9666L137.081 73.7555ZM136.758 73.3857L151.336 114.325L153.221 113.654L138.642 72.7147L136.758 73.3857ZM151.347 114.352C151.276 114.17 151.282 113.961 151.381 113.774L153.149 114.71C153.329 114.37 153.344 113.972 153.211 113.627L151.347 114.352ZM151.351 113.836C151.438 113.641 151.594 113.525 151.73 113.475L152.421 115.351C152.729 115.238 153.02 115.005 153.179 114.648L151.351 113.836ZM151.74 113.471L116.223 126.118L116.894 128.002L152.411 115.355L151.74 113.471ZM116.208 126.123C116.318 126.082 116.41 126.078 116.446 126.078V128.078C116.564 128.078 116.727 128.065 116.91 127.996L116.208 126.123ZM116.172 126.116L116.141 126.125L116.688 128.048L116.72 128.039L116.172 126.116ZM101.317 86.3521L115.675 126.67L117.559 125.999L103.201 85.6811L101.317 86.3521ZM116.953 127.277L151.848 114.851L151.177 112.967L116.282 125.393L116.953 127.277ZM152.455 113.573L138.097 73.2552L136.213 73.9262L150.571 114.244L152.455 113.573ZM136.819 72.6489L134.031 73.6442L134.703 75.5278L137.491 74.5325L136.819 72.6489ZM133.425 74.9214L134.528 78.02L136.412 77.3492L135.309 74.2506L133.425 74.9214ZM134.532 78.0303C134.397 77.6643 134.599 77.2856 134.93 77.1667L135.606 79.0491C136.288 78.8041 136.67 78.0472 136.409 77.3389L134.532 78.0303ZM134.932 77.1659L131.923 78.2378L132.595 80.1218L135.603 79.0499L134.932 77.1659ZM131.897 78.2478C132.077 78.1775 132.286 78.1829 132.475 78.2826L131.539 80.0502C131.88 80.2309 132.279 80.2452 132.622 80.1119L131.897 78.2478ZM132.413 78.2526C132.609 78.3395 132.724 78.4959 132.774 78.6315L130.897 79.3229C131.01 79.6296 131.243 79.9212 131.601 80.0802L132.413 78.2526ZM132.778 78.6417L131.674 75.5431L129.79 76.2141L130.894 79.3127L132.778 78.6417ZM130.396 74.9368L127.608 75.9321L128.281 77.8157L131.068 76.8204L130.396 74.9368ZM127.002 77.2094L128.106 80.308L129.99 79.637L128.886 76.5384L127.002 77.2094ZM128.11 80.3182C127.974 79.9513 128.177 79.5733 128.507 79.4547L129.183 81.3371C129.865 81.0924 130.248 80.336 129.986 79.6268L128.11 80.3182ZM128.51 79.4539L125.501 80.5258L126.172 82.4098L129.181 81.3379L128.51 79.4539ZM125.474 80.5358C125.688 80.4525 125.88 80.4883 126.01 80.5495L125.159 82.3591C125.442 82.4923 125.823 82.5461 126.199 82.3998L125.474 80.5358ZM125.991 80.5405C126.185 80.6269 126.301 80.7825 126.352 80.9194L124.475 81.6108C124.588 81.9189 124.822 82.2096 125.178 82.3681L125.991 80.5405ZM126.355 80.9297L125.252 77.8311L123.368 78.5019L124.471 81.6005L126.355 80.9297ZM123.974 77.2247L121.186 78.2201L121.858 80.1036L124.646 79.1083L123.974 77.2247ZM120.58 79.4973L121.683 82.5959L123.567 81.925L122.464 78.8264L120.58 79.4973ZM121.687 82.6062C121.552 82.2402 121.754 81.8615 122.085 81.7426L122.761 83.625C123.443 83.38 123.825 82.623 123.564 81.9148L121.687 82.6062ZM122.087 81.7418L119.079 82.8137L119.75 84.6977L122.758 83.6258L122.087 81.7418ZM119.052 82.8237C119.233 82.7532 119.442 82.759 119.63 82.8584L118.694 84.626C119.035 84.8065 119.433 84.8213 119.777 84.6877L119.052 82.8237ZM119.568 82.8284C119.764 82.9152 119.879 83.0715 119.929 83.2074L118.053 83.8988C118.166 84.2058 118.398 84.4971 118.756 84.656L119.568 82.8284ZM119.933 83.2176L118.829 80.119L116.945 80.7899L118.049 83.8886L119.933 83.2176ZM117.551 79.5127L114.763 80.508L115.436 82.3916L118.224 81.3962L117.551 79.5127ZM114.158 81.7853L115.261 84.8839L117.145 84.2129L116.042 81.1143L114.158 81.7853ZM115.265 84.8941C115.13 84.5271 115.332 84.149 115.662 84.0305L116.338 85.9129C117.02 85.6683 117.403 84.912 117.141 84.2027L115.265 84.8941ZM115.665 84.0297L112.656 85.1016L113.328 86.9856L116.336 85.9137L115.665 84.0297ZM112.63 85.1116C112.81 85.0413 113.019 85.0467 113.208 85.1464L112.272 86.9139C112.613 87.0947 113.011 87.109 113.354 86.9756L112.63 85.1116ZM113.146 85.1163C113.34 85.2027 113.456 85.3584 113.507 85.4953L111.63 86.1867C111.744 86.4947 111.977 86.7855 112.334 86.944L113.146 85.1163ZM113.51 85.5055L112.407 82.4069L110.523 83.0778L111.626 86.1764L113.51 85.5055ZM111.129 81.8006L108.341 82.7959L109.014 84.6795L111.801 83.6841L111.129 81.8006ZM107.735 84.0731L108.839 87.1717L110.723 86.5009L109.619 83.4022L107.735 84.0731ZM108.849 87.1987C108.778 87.0183 108.784 86.8093 108.883 86.6206L110.651 87.5564C110.832 87.2146 110.846 86.8164 110.713 86.4738L108.849 87.1987ZM108.853 86.6824C108.94 86.4873 109.096 86.3715 109.232 86.3213L109.924 88.198C110.231 88.0848 110.522 87.8519 110.681 87.4947L108.853 86.6824ZM109.242 86.3177L106.234 87.3896L106.905 89.2736L109.914 88.2017L109.242 86.3177ZM106.224 87.3932C106.59 87.2581 106.969 87.4606 107.087 87.791L105.205 88.4667C105.45 89.1485 106.206 89.5312 106.915 89.2699L106.224 87.3932ZM107.088 87.7934L105.985 84.6948L104.101 85.3658L105.204 88.4644L107.088 87.7934ZM104.706 84.0885L101.919 85.0839L102.591 86.9674L105.379 85.972L104.706 84.0885ZM103.145 86.4815L103.149 86.4725L101.369 85.5608L101.365 85.5698L103.145 86.4815Z" fill="#305070" mask="url(#path-35-inside-12_110_750)"/>
<path d="M144.928 66.9527L117.339 59.4363L124.855 31.8475L152.444 39.3639L144.928 66.9527Z" fill="#F9E2D2" stroke="#305070"/>
<path d="M144.573 54.6428C145.757 54.6941 146.905 54.9954 147.793 55.654L144.744 66.8561L117.155 59.3409L120.73 46.2123C122.4 44.8042 124.576 44.0588 126.746 44.2775L126.746 44.2775C128.354 44.4387 129.903 45.0844 131.177 46.0986C132.688 47.3056 133.501 48.9312 134.389 50.7793L134.389 50.7794C134.813 51.6617 135.329 52.6374 136.021 53.4357C136.72 54.241 137.62 54.8892 138.808 55.0699C139.836 55.2272 140.859 55.0835 141.811 54.929C141.907 54.9134 142.002 54.8978 142.097 54.8822C142.964 54.7396 143.771 54.6068 144.573 54.6428L144.573 54.6428Z" fill="#305070" stroke="#305070"/>
<mask id="path-39-inside-13_110_750" fill="white">
<path d="M145.09 67.7987C145.063 67.7987 145.032 67.7988 145.005 67.7853L116.451 60.0072C116.275 59.9577 116.171 59.7775 116.216 59.6018L123.995 31.0478C124.017 30.9622 124.071 30.8902 124.148 30.8497C124.224 30.8046 124.314 30.7956 124.4 30.8181L152.954 38.5962C153.13 38.6457 153.233 38.8259 153.184 39.0015L145.406 67.5556C145.383 67.6411 145.329 67.7132 145.253 67.7537C145.203 67.7807 145.144 67.7987 145.09 67.7987ZM116.942 59.4578L144.856 67.0602L152.459 39.1456L124.544 31.5432L116.942 59.4578Z"/>
</mask>
<path d="M145.09 67.7987C145.063 67.7987 145.032 67.7988 145.005 67.7853L116.451 60.0072C116.275 59.9577 116.171 59.7775 116.216 59.6018L123.995 31.0478C124.017 30.9622 124.071 30.8902 124.148 30.8497C124.224 30.8046 124.314 30.7956 124.4 30.8181L152.954 38.5962C153.13 38.6457 153.233 38.8259 153.184 39.0015L145.406 67.5556C145.383 67.6411 145.329 67.7132 145.253 67.7537C145.203 67.7807 145.144 67.7987 145.09 67.7987ZM116.942 59.4578L144.856 67.0602L152.459 39.1456L124.544 31.5432L116.942 59.4578Z" fill="#305070"/>
<path d="M145.005 67.7853L145.452 66.8908L145.363 66.8465L145.267 66.8204L145.005 67.7853ZM116.451 60.0072L116.179 60.9697L116.188 60.972L116.451 60.0072ZM116.216 59.6018L115.252 59.339L115.25 59.3462L115.248 59.3535L116.216 59.6018ZM123.995 31.0478L124.959 31.3106L124.962 31.3023L123.995 31.0478ZM124.148 30.8497L124.615 31.7334L124.635 31.723L124.655 31.7116L124.148 30.8497ZM124.4 30.8181L124.663 29.8532L124.654 29.851L124.4 30.8181ZM152.954 38.5962L153.226 37.6337L153.217 37.6313L152.954 38.5962ZM153.184 39.0015L152.221 38.73L152.219 38.7387L153.184 39.0015ZM145.406 67.5556L144.441 67.2927L144.438 67.3011L145.406 67.5556ZM145.253 67.7537L144.785 66.8698L144.774 66.8758L145.253 67.7537ZM116.942 59.4578L115.977 59.195L115.714 60.1598L116.679 60.4226L116.942 59.4578ZM144.856 67.0602L144.593 68.025L145.558 68.2878L145.821 67.3229L144.856 67.0602ZM152.459 39.1456L153.423 39.4084L153.686 38.4435L152.721 38.1807L152.459 39.1456ZM124.544 31.5432L124.807 30.5783L123.842 30.3156L123.579 31.2804L124.544 31.5432ZM145.09 66.7987C145.068 66.7987 145.11 66.7977 145.161 66.8036C145.218 66.8101 145.327 66.8284 145.452 66.8908L144.557 68.6797C144.709 68.7556 144.848 68.7807 144.933 68.7905C145.014 68.7998 145.086 68.7987 145.09 68.7987V66.7987ZM145.267 66.8204L116.713 59.0424L116.188 60.972L144.742 68.7501L145.267 66.8204ZM116.722 59.0448C117.068 59.1422 117.275 59.4984 117.185 59.8502L115.248 59.3535C115.067 60.0566 115.482 60.7731 116.179 60.9697L116.722 59.0448ZM117.181 59.8647L124.959 31.3106L123.03 30.785L115.252 59.339L117.181 59.8647ZM124.962 31.3023C124.919 31.463 124.807 31.632 124.615 31.7334L123.68 29.9659C123.335 30.1484 123.115 30.4615 123.027 30.7933L124.962 31.3023ZM124.655 31.7116C124.478 31.8154 124.29 31.8233 124.145 31.7852L124.654 29.851C124.338 29.7679 123.97 29.7939 123.641 29.9877L124.655 31.7116ZM124.137 31.7829L152.691 39.561L153.217 37.6313L124.663 29.8532L124.137 31.7829ZM152.683 39.5586C152.339 39.4617 152.117 39.0981 152.221 38.73L154.146 39.273C154.349 38.5536 153.92 37.8297 153.225 37.6337L152.683 39.5586ZM152.219 38.7387L144.441 67.2927L146.37 67.8184L154.148 39.2643L152.219 38.7387ZM144.438 67.3011C144.481 67.1404 144.593 66.9714 144.785 66.8699L145.72 68.6375C146.065 68.455 146.285 68.1419 146.373 67.8101L144.438 67.3011ZM144.774 66.8758C144.811 66.8555 144.852 66.8379 144.899 66.8247C144.944 66.8117 145.009 66.7987 145.09 66.7987V68.7987C145.348 68.7987 145.571 68.7192 145.731 68.6316L144.774 66.8758ZM116.679 60.4226L144.593 68.025L145.119 66.0953L117.204 58.4929L116.679 60.4226ZM145.821 67.3229L153.423 39.4084L151.494 38.8828L143.891 66.7974L145.821 67.3229ZM152.721 38.1807L124.807 30.5783L124.281 32.5081L152.196 40.1105L152.721 38.1807ZM123.579 31.2804L115.977 59.195L117.906 59.7205L125.509 31.806L123.579 31.2804Z" fill="#305070" mask="url(#path-39-inside-13_110_750)"/>
<path d="M147.242 46.0133C146.675 48.0974 144.523 49.3278 142.438 48.7607C140.354 48.1937 139.124 46.0412 139.691 43.9563C140.258 41.8721 142.41 40.6418 144.495 41.2089C146.579 41.7759 147.81 43.9284 147.242 46.0133Z" fill="white" stroke="#305070"/>
<path d="M127.593 93.2317L127.44 93.2378C127.427 92.8674 127.567 92.4923 127.777 92.2727C127.778 92.2723 127.778 92.272 127.778 92.2716L127.78 92.2701L127.781 92.2691C127.926 92.1154 128.091 92.0462 128.268 92.0428C128.268 92.0428 128.268 92.0428 128.269 92.0428C128.652 92.0455 128.985 92.3842 129.145 92.8128C129.145 92.8128 129.146 92.8129 129.146 92.8129C129.146 92.8139 129.146 92.8149 129.147 92.8159L129.147 92.8169C129.334 93.3179 129.347 93.9648 129.135 94.7042L129.07 94.6857L129.087 94.657C129.055 94.6381 129.023 94.6187 128.993 94.5988C129.12 94.1289 129.214 93.4712 128.989 92.8714C128.868 92.5471 128.593 92.2048 128.269 92.2048C128.129 92.2048 128.003 92.2679 127.89 92.3805C127.701 92.5786 127.58 92.9209 127.593 93.2317ZM127.593 93.2317L127.44 93.2384C127.44 93.2389 127.44 93.2394 127.44 93.2399C127.471 94.0602 127.997 94.7662 128.754 95.2193C128.772 95.2305 128.791 95.2416 128.81 95.2525L128.921 95.3159L128.969 95.1915C128.974 95.1765 128.98 95.1616 128.986 95.1468C129.044 94.9936 129.094 94.8488 129.134 94.7083L129.135 94.706C129.135 94.7056 129.135 94.7052 129.135 94.7049L129.069 94.6861L128.832 95.0873L128.365 94.9068C128.381 94.867 128.396 94.8272 128.41 94.7874C127.942 94.3899 127.618 93.8548 127.593 93.2317ZM114.093 100.782C114.093 100.782 114.093 100.783 114.093 100.783C114.093 100.783 114.093 100.782 114.093 100.782ZM114.093 100.782C114.093 100.782 114.093 100.782 114.093 100.782L113.974 100.902L114.093 100.782C114.093 100.782 114.093 100.782 114.093 100.782Z" fill="#305070" stroke="#305070"/>
<mask id="path-43-inside-14_110_750" fill="white">
<path d="M120.536 113.742C120.171 113.742 119.81 113.701 119.455 113.611C119.279 113.566 119.171 113.386 119.216 113.21C119.261 113.035 119.441 112.927 119.617 112.967C121.504 113.436 123.621 112.404 124.548 110.72C124.017 110.531 123.513 110.251 123.076 109.887C122.414 109.337 121.792 108.369 122.211 107.45C122.405 107.022 122.814 106.725 123.328 106.635C123.94 106.527 124.598 106.729 125.008 107.148C125.638 107.792 125.846 108.846 125.557 109.968C125.53 110.076 125.499 110.179 125.463 110.288C126.733 110.531 128.106 110.256 129.124 109.45C129.318 109.297 129.503 109.126 129.683 108.959C130.056 108.612 130.439 108.256 130.926 108.022C131.939 107.527 133.043 107.702 134.106 107.874C134.79 107.982 135.497 108.099 136.155 108.018C137.461 107.864 138.681 106.986 139.997 105.257C140.109 105.113 140.316 105.081 140.46 105.194C140.604 105.306 140.636 105.513 140.523 105.658C139.623 106.842 138.195 108.445 136.231 108.675C135.484 108.765 134.732 108.644 134.002 108.527C132.993 108.364 132.043 108.211 131.214 108.617C130.818 108.81 130.484 109.121 130.133 109.445C129.939 109.625 129.741 109.806 129.534 109.972C128.332 110.923 126.692 111.233 125.202 110.905C124.332 112.589 122.441 113.737 120.544 113.737L120.536 113.742ZM123.652 107.274C123.58 107.274 123.508 107.279 123.436 107.292C123.26 107.324 122.95 107.419 122.81 107.729C122.562 108.27 122.977 108.95 123.499 109.382C123.891 109.707 124.341 109.954 124.819 110.121C124.855 110.017 124.886 109.914 124.913 109.81C125.143 108.918 124.999 108.094 124.53 107.617C124.319 107.401 123.986 107.274 123.652 107.274Z"/>
</mask>
<path d="M120.536 113.742C120.171 113.742 119.81 113.701 119.455 113.611C119.279 113.566 119.171 113.386 119.216 113.21C119.261 113.035 119.441 112.927 119.617 112.967C121.504 113.436 123.621 112.404 124.548 110.72C124.017 110.531 123.513 110.251 123.076 109.887C122.414 109.337 121.792 108.369 122.211 107.45C122.405 107.022 122.814 106.725 123.328 106.635C123.94 106.527 124.598 106.729 125.008 107.148C125.638 107.792 125.846 108.846 125.557 109.968C125.53 110.076 125.499 110.179 125.463 110.288C126.733 110.531 128.106 110.256 129.124 109.45C129.318 109.297 129.503 109.126 129.683 108.959C130.056 108.612 130.439 108.256 130.926 108.022C131.939 107.527 133.043 107.702 134.106 107.874C134.79 107.982 135.497 108.099 136.155 108.018C137.461 107.864 138.681 106.986 139.997 105.257C140.109 105.113 140.316 105.081 140.46 105.194C140.604 105.306 140.636 105.513 140.523 105.658C139.623 106.842 138.195 108.445 136.231 108.675C135.484 108.765 134.732 108.644 134.002 108.527C132.993 108.364 132.043 108.211 131.214 108.617C130.818 108.81 130.484 109.121 130.133 109.445C129.939 109.625 129.741 109.806 129.534 109.972C128.332 110.923 126.692 111.233 125.202 110.905C124.332 112.589 122.441 113.737 120.544 113.737L120.536 113.742ZM123.652 107.274C123.58 107.274 123.508 107.279 123.436 107.292C123.26 107.324 122.95 107.419 122.81 107.729C122.562 108.27 122.977 108.95 123.499 109.382C123.891 109.707 124.341 109.954 124.819 110.121C124.855 110.017 124.886 109.914 124.913 109.81C125.143 108.918 124.999 108.094 124.53 107.617C124.319 107.401 123.986 107.274 123.652 107.274Z" fill="#305070"/>
<path d="M120.536 113.742V114.742H120.777L120.992 114.632L120.536 113.742ZM119.455 113.611L119.206 114.58L119.209 114.581L119.455 113.611ZM119.617 112.967L119.858 111.997L119.85 111.995L119.842 111.993L119.617 112.967ZM124.548 110.72L125.424 111.202L125.992 110.172L124.884 109.778L124.548 110.72ZM123.076 109.887L123.717 109.119L123.714 109.117L123.076 109.887ZM122.211 107.45L123.121 107.865L123.122 107.862L122.211 107.45ZM123.328 106.635L123.501 107.62L123.502 107.62L123.328 106.635ZM125.008 107.148L124.293 107.848L124.293 107.848L125.008 107.148ZM125.557 109.968L124.589 109.719L124.587 109.725L125.557 109.968ZM125.463 110.288L124.514 109.971L124.153 111.055L125.275 111.27L125.463 110.288ZM129.124 109.45L128.504 108.665L128.503 108.666L129.124 109.45ZM129.683 108.959L130.362 109.693L130.363 109.692L129.683 108.959ZM130.926 108.022L131.36 108.923L131.365 108.92L130.926 108.022ZM134.106 107.874L133.947 108.861L133.95 108.861L134.106 107.874ZM136.155 108.018L136.038 107.024L136.032 107.025L136.155 108.018ZM139.997 105.257L139.208 104.641L139.201 104.651L139.997 105.257ZM140.523 105.658L139.735 105.042L139.727 105.052L140.523 105.658ZM136.231 108.675L136.115 107.682L136.112 107.682L136.231 108.675ZM134.002 108.527L133.843 109.514L133.844 109.514L134.002 108.527ZM131.214 108.617L131.653 109.515L131.654 109.515L131.214 108.617ZM130.133 109.445L129.455 108.711L129.452 108.713L130.133 109.445ZM129.534 109.972L130.154 110.757L130.161 110.751L129.534 109.972ZM125.202 110.905L125.417 109.928L124.666 109.762L124.313 110.446L125.202 110.905ZM120.544 113.737V112.737H120.303L120.088 112.847L120.544 113.737ZM123.436 107.292L123.613 108.277L123.62 108.275L123.436 107.292ZM122.81 107.729L123.719 108.146L123.722 108.139L122.81 107.729ZM123.499 109.382L124.137 108.612L123.499 109.382ZM124.819 110.121L124.489 111.065L125.434 111.395L125.763 110.449L124.819 110.121ZM124.913 109.81L125.881 110.063L125.882 110.06L124.913 109.81ZM124.53 107.617L123.816 108.316L123.817 108.317L124.53 107.617ZM120.536 112.742C120.246 112.742 119.968 112.71 119.7 112.642L119.209 114.581C119.653 114.693 120.096 114.742 120.536 114.742V112.742ZM119.703 112.643C120.056 112.733 120.278 113.093 120.185 113.459L118.247 112.962C118.063 113.679 118.502 114.399 119.206 114.58L119.703 112.643ZM120.185 113.459C120.094 113.814 119.74 114.022 119.392 113.942L119.842 111.993C119.142 111.831 118.428 112.256 118.247 112.962L120.185 113.459ZM119.376 113.938C121.741 114.525 124.297 113.249 125.424 111.202L123.672 110.237C122.944 111.56 121.267 112.347 119.858 111.997L119.376 113.938ZM124.884 109.778C124.455 109.625 124.056 109.403 123.717 109.119L122.435 110.654C122.969 111.1 123.578 111.436 124.213 111.662L124.884 109.778ZM123.714 109.117C123.474 108.918 123.264 108.658 123.154 108.407C123.051 108.17 123.058 108.003 123.121 107.865L121.301 107.035C120.945 107.816 121.053 108.593 121.321 109.207C121.583 109.807 122.015 110.306 122.437 110.656L123.714 109.117ZM123.122 107.862C123.161 107.776 123.267 107.661 123.501 107.62L123.155 105.65C122.362 105.789 121.648 106.269 121.3 107.038L123.122 107.862ZM123.502 107.62C123.809 107.565 124.128 107.679 124.293 107.848L125.723 106.449C125.068 105.78 124.071 105.488 123.154 105.65L123.502 107.62ZM124.293 107.848C124.61 108.172 124.818 108.828 124.589 109.719L126.526 110.217C126.873 108.864 126.667 107.413 125.722 106.449L124.293 107.848ZM124.587 109.725C124.568 109.801 124.545 109.879 124.514 109.971L126.411 110.604C126.453 110.48 126.492 110.35 126.527 110.21L124.587 109.725ZM125.275 111.27C126.797 111.561 128.474 111.241 129.745 110.234L128.503 108.666C127.739 109.271 126.669 109.5 125.651 109.305L125.275 111.27ZM129.745 110.234C129.974 110.053 130.188 109.854 130.362 109.693L129.004 108.225C128.817 108.397 128.662 108.541 128.504 108.665L129.745 110.234ZM130.363 109.692C130.753 109.33 131.031 109.082 131.36 108.923L130.492 107.121C129.848 107.431 129.36 107.895 129.003 108.226L130.363 109.692ZM131.365 108.92C132.047 108.587 132.824 108.68 133.947 108.861L134.265 106.886C133.261 106.725 131.831 106.466 130.487 107.124L131.365 108.92ZM133.95 108.861C134.595 108.963 135.452 109.112 136.277 109.01L136.032 107.025C135.542 107.086 134.985 107 134.262 106.886L133.95 108.861ZM136.271 109.011C137.979 108.811 139.416 107.673 140.793 105.862L139.201 104.651C137.947 106.3 136.943 106.918 136.038 107.024L136.271 109.011ZM140.785 105.872C140.578 106.137 140.162 106.23 139.845 105.982L141.076 104.406C140.47 103.933 139.64 104.089 139.209 104.641L140.785 105.872ZM139.845 105.982C139.581 105.775 139.487 105.36 139.735 105.042L141.311 106.273C141.785 105.667 141.628 104.837 141.076 104.406L139.845 105.982ZM139.727 105.052C138.824 106.24 137.622 107.506 136.115 107.682L136.347 109.668C138.768 109.385 140.421 107.444 141.319 106.263L139.727 105.052ZM136.112 107.682C135.527 107.753 134.916 107.66 134.16 107.539L133.844 109.514C134.547 109.627 135.44 109.778 136.351 109.668L136.112 107.682ZM134.161 107.539C133.233 107.39 131.941 107.148 130.775 107.718L131.654 109.515C132.144 109.275 132.753 109.339 133.843 109.514L134.161 107.539ZM130.775 107.718C130.222 107.988 129.779 108.411 129.455 108.711L130.811 110.18C131.189 109.831 131.413 109.632 131.653 109.515L130.775 107.718ZM129.452 108.713C129.262 108.89 129.085 109.05 128.907 109.193L130.161 110.751C130.398 110.561 130.617 110.361 130.814 110.178L129.452 108.713ZM128.914 109.188C127.971 109.933 126.645 110.199 125.417 109.928L124.986 111.881C126.74 112.268 128.693 111.912 130.154 110.757L128.914 109.188ZM124.313 110.446C123.616 111.797 122.068 112.737 120.544 112.737V114.737C122.813 114.737 125.049 113.381 126.09 111.363L124.313 110.446ZM120.088 112.847L120.08 112.852L120.992 114.632L121.001 114.627L120.088 112.847ZM123.652 106.274C123.539 106.274 123.402 106.281 123.252 106.31L123.62 108.275C123.614 108.277 123.621 108.274 123.652 108.274V106.274ZM123.259 106.308C123.007 106.354 122.251 106.534 121.898 107.32L123.722 108.139C123.707 108.173 123.685 108.205 123.659 108.231C123.635 108.256 123.614 108.27 123.603 108.276C123.592 108.282 123.588 108.283 123.592 108.282C123.596 108.28 123.603 108.278 123.613 108.277L123.259 106.308ZM121.901 107.313C121.611 107.945 121.75 108.576 121.962 109.024C122.175 109.475 122.513 109.865 122.861 110.153L124.137 108.612C123.962 108.468 123.832 108.301 123.77 108.169C123.706 108.034 123.761 108.054 123.719 108.146L121.901 107.313ZM122.861 110.153C123.35 110.557 123.906 110.862 124.489 111.065L125.148 109.177C124.776 109.047 124.431 108.856 124.137 108.612L122.861 110.153ZM125.763 110.449C125.808 110.321 125.847 110.192 125.881 110.063L123.946 109.558C123.925 109.635 123.902 109.713 123.874 109.792L125.763 110.449ZM125.882 110.06C126.162 108.971 126.046 107.733 125.244 106.916L123.817 108.317C123.952 108.455 124.124 108.866 123.945 109.561L125.882 110.06ZM125.245 106.917C124.817 106.48 124.211 106.274 123.652 106.274V108.274C123.695 108.274 123.74 108.283 123.776 108.297C123.814 108.312 123.824 108.324 123.816 108.316L125.245 106.917Z" fill="#305070" mask="url(#path-43-inside-14_110_750)"/>
<path d="M84.8601 8.44771L84.6768 9.77084L84.6767 9.77171L82.0105 29.2731L64.0763 26.819L66.7425 7.31749L66.7426 7.31718L66.9226 5.9943L67.7514 6.1092L67.5713 7.4299L67.5038 7.92471L67.9985 7.99282L69.6016 8.2135L70.0977 8.28178L70.1653 7.78565L70.3456 6.4615L71.1743 6.57432L70.994 7.89836L70.9266 8.39309L71.4212 8.46117L73.0246 8.68186L73.5206 8.75013L73.5882 8.25401L73.7685 6.92989L74.5961 7.04253L74.4126 8.3656L74.3439 8.86134L74.8397 8.92959L76.4431 9.15027L76.9392 9.21855L77.0067 8.72236L77.1869 7.39827L78.0155 7.51109L77.8352 8.83519L77.7676 9.33129L78.2638 9.39818L79.8672 9.61436L80.3619 9.68105L80.4294 9.18649L80.6096 7.86665L81.4385 7.9795L81.2581 9.30354L81.1905 9.79964L81.6867 9.86654L83.2901 10.0827L83.7848 10.1494L83.8523 9.65485L84.0325 8.33506L84.8601 8.44771Z" fill="white" stroke="#305070"/>
<path d="M69.6869 27.5387L63.8458 26.7406L64.6438 20.8995L70.4849 21.6976L69.6869 27.5387Z" fill="#F9E2D2" stroke="#305070"/>
<path d="M63.7025 27.1073L63.7248 26.944L63.804 26.9548L63.7547 27.1144L63.7025 27.1073Z" fill="#305070" stroke="#305070"/>
<path d="M168.933 83.2918C168.933 87.8486 165.239 91.5427 160.682 91.5427C156.126 91.5427 152.432 87.8486 152.432 83.2918C152.432 78.735 156.126 75.041 160.682 75.041C165.239 75.041 168.933 78.735 168.933 83.2918Z" fill="#D2F9F9" stroke="#305070"/>
<mask id="path-49-inside-15_110_750" fill="white">
<path d="M112.294 71.073C112.208 71.073 112.123 71.0415 112.06 70.9784L107.475 66.3935C107.344 66.2629 107.344 66.0558 107.475 65.9252C107.606 65.7946 107.812 65.7946 107.943 65.9252L112.528 70.51C112.659 70.6406 112.659 70.8478 112.528 70.9784C112.465 71.0415 112.379 71.073 112.294 71.073Z"/>
</mask>
<path d="M112.294 71.073C112.208 71.073 112.123 71.0415 112.06 70.9784L107.475 66.3935C107.344 66.2629 107.344 66.0558 107.475 65.9252C107.606 65.7946 107.812 65.7946 107.943 65.9252L112.528 70.51C112.659 70.6406 112.659 70.8478 112.528 70.9784C112.465 71.0415 112.379 71.073 112.294 71.073Z" fill="#305070"/>
<path d="M112.06 70.9784L111.353 71.6855L111.353 71.6855L112.06 70.9784ZM107.475 66.3935L108.182 65.6865L108.182 65.6864L107.475 66.3935ZM107.943 65.9252L107.236 66.6323L107.236 66.6323L107.943 65.9252ZM112.528 70.51L113.235 69.8029L113.235 69.8029L112.528 70.51ZM112.294 70.073C112.448 70.073 112.625 70.1297 112.767 70.2713L111.353 71.6855C111.62 71.9533 111.968 72.073 112.294 72.073V70.073ZM112.767 70.2713L108.182 65.6865L106.768 67.1006L111.353 71.6855L112.767 70.2713ZM108.182 65.6864C108.442 65.9464 108.442 66.3724 108.182 66.6323L106.768 65.2181C106.247 65.7392 106.247 66.5795 106.768 67.1007L108.182 65.6864ZM108.182 66.6323C107.922 66.8922 107.496 66.8922 107.236 66.6323L108.65 65.2181C108.129 64.6969 107.289 64.6969 106.768 65.2181L108.182 66.6323ZM107.236 66.6323L111.821 71.2171L113.235 69.8029L108.65 65.2181L107.236 66.6323ZM111.821 71.2171C111.561 70.9572 111.561 70.5312 111.821 70.2713L113.235 71.6855C113.756 71.1644 113.756 70.324 113.235 69.8029L111.821 71.2171ZM111.821 70.2713C111.963 70.1297 112.139 70.073 112.294 70.073V72.073C112.619 72.073 112.967 71.9533 113.235 71.6855L111.821 70.2713Z" fill="#305070" mask="url(#path-49-inside-15_110_750)"/>
<path d="M107.59 70.6249C107.59 70.6248 107.59 70.6248 107.59 70.6248L107.59 70.6249Z" fill="#305070" stroke="#305070"/>
<mask id="path-52-inside-16_110_750" fill="white">
<path d="M94.783 115.278C92.3329 115.278 90.3377 113.283 90.3377 110.833C90.3377 108.382 92.3329 106.387 94.783 106.387C97.2331 106.387 99.2283 108.382 99.2283 110.833C99.2283 113.283 97.2331 115.278 94.783 115.278ZM94.783 107.049C92.6977 107.049 90.9999 108.747 90.9999 110.833C90.9999 112.918 92.6977 114.616 94.783 114.616C96.8683 114.616 98.5661 112.918 98.5661 110.833C98.5661 108.747 96.8683 107.049 94.783 107.049Z"/>
</mask>
<path d="M94.783 115.278C92.3329 115.278 90.3377 113.283 90.3377 110.833C90.3377 108.382 92.3329 106.387 94.783 106.387C97.2331 106.387 99.2283 108.382 99.2283 110.833C99.2283 113.283 97.2331 115.278 94.783 115.278ZM94.783 107.049C92.6977 107.049 90.9999 108.747 90.9999 110.833C90.9999 112.918 92.6977 114.616 94.783 114.616C96.8683 114.616 98.5661 112.918 98.5661 110.833C98.5661 108.747 96.8683 107.049 94.783 107.049Z" fill="#305070"/>
<path d="M94.783 114.278C92.8852 114.278 91.3377 112.73 91.3377 110.833H89.3377C89.3377 113.835 91.7807 116.278 94.783 116.278V114.278ZM91.3377 110.833C91.3377 108.935 92.8852 107.387 94.783 107.387V105.387C91.7807 105.387 89.3377 107.83 89.3377 110.833H91.3377ZM94.783 107.387C96.6808 107.387 98.2283 108.935 98.2283 110.833H100.228C100.228 107.83 97.7853 105.387 94.783 105.387V107.387ZM98.2283 110.833C98.2283 112.73 96.6808 114.278 94.783 114.278V116.278C97.7853 116.278 100.228 113.835 100.228 110.833H98.2283ZM94.783 106.049C92.1454 106.049 89.9999 108.195 89.9999 110.833H91.9999C91.9999 109.3 93.2501 108.049 94.783 108.049V106.049ZM89.9999 110.833C89.9999 113.47 92.1454 115.616 94.783 115.616V113.616C93.2501 113.616 91.9999 112.365 91.9999 110.833H89.9999ZM94.783 115.616C97.4206 115.616 99.5661 113.47 99.5661 110.833H97.5661C97.5661 112.365 96.316 113.616 94.783 113.616V115.616ZM99.5661 110.833C99.5661 108.195 97.4206 106.049 94.783 106.049V108.049C96.316 108.049 97.5661 109.3 97.5661 110.833H99.5661Z" fill="#305070" mask="url(#path-52-inside-16_110_750)"/>
</svg>
