<svg width="184" height="154" viewBox="0 0 184 154" fill="none" xmlns="http://www.w3.org/2000/svg">
<path d="M153.161 12.7992C153.161 7.93903 149.221 3.9984 144.361 3.9984C139.5 3.9984 135.56 7.93903 135.56 12.7992C135.56 17.6593 139.5 21.5999 144.361 21.5999C149.221 21.5999 153.161 17.6593 153.161 12.7992Z" fill="#F9E2D2"/>
<path d="M50.7544 61.7853C56.5158 80.193 74.9146 90.8282 91.7914 97.5273C103.781 102.288 116.518 105.816 129.499 105.884C155.666 106.025 182.055 87.5127 183.626 59.9237C184.274 48.6181 177.792 38.232 168.095 32.611C163.719 30.0745 159.086 28.9194 154.049 29.0961C147.042 29.3362 140.642 30.5002 134.445 26.3241C130.736 23.8238 127.697 20.1866 125.309 16.4317C120.585 9.01241 113.397 3.5544 105.194 1.25343C89.1733 -3.24887 70.5391 4.90418 60.1439 17.3013C59.5596 17.9943 59.0026 18.7055 58.4591 19.4347C52.1994 27.8686 48.6844 38.6895 48.8203 49.3428C48.8746 53.5688 49.4997 57.7722 50.7544 61.7853Z" fill="#F9E2D2"/>
<path d="M144.569 66.4143H52.3758C46.8223 66.4143 42.3205 70.9162 42.3205 76.4697V129.388C42.3205 134.941 46.8223 139.443 52.3758 139.443H144.569C150.122 139.443 154.624 134.941 154.624 129.388V76.4697C154.624 70.9162 150.122 66.4143 144.569 66.4143Z" fill="white"/>
<path d="M144.574 139.774H52.3761C46.6509 139.774 41.9902 135.113 41.9902 129.387V76.4697C41.9902 70.7399 46.6509 66.0836 52.3761 66.0836H144.574C150.299 66.0836 154.96 70.7444 154.96 76.4697V129.387C154.96 135.113 150.299 139.774 144.574 139.774ZM52.3761 66.7449C47.0132 66.7449 42.6559 71.1068 42.6559 76.4651V129.383C42.6559 134.746 47.0178 139.103 52.3761 139.103H144.574C149.937 139.103 154.294 134.741 154.294 129.383V76.4651C154.294 71.1023 149.932 66.7449 144.574 66.7449H52.3761Z" fill="#305070"/>
<path d="M143.21 133.591H53.7393C51.0488 133.591 48.8611 131.403 48.8611 128.713V77.1446C48.8611 74.4541 51.0488 72.2663 53.7393 72.2663H142.164C145.434 72.2663 148.088 74.9206 148.088 78.1909V128.713C148.088 131.403 145.9 133.591 143.21 133.591Z" fill="#D2F9F9"/>
<path d="M117.351 136.132H107.169V133.129C107.169 132.354 107.799 131.725 108.573 131.725H115.947C116.722 131.725 117.351 132.354 117.351 133.129V136.132Z" fill="#305070"/>
<path d="M103.564 136.132H93.3813V133.129C93.3813 132.354 94.0109 131.725 94.7855 131.725H102.159C102.934 131.725 103.564 132.354 103.564 133.129V136.132Z" fill="#305070"/>
<path d="M131.139 136.132H120.956V133.129C120.956 132.354 121.586 131.725 122.36 131.725H129.735C130.509 131.725 131.139 132.354 131.139 133.129V136.132Z" fill="#305070"/>
<path d="M144.926 136.132H134.744V133.129C134.744 132.354 135.374 131.725 136.148 131.725H143.522C144.297 131.725 144.926 132.354 144.926 133.129V136.132Z" fill="#305070"/>
<path d="M75.9881 136.132H65.8058V133.129C65.8058 132.354 66.4355 131.725 67.21 131.725H74.5839C75.3584 131.725 75.9881 132.354 75.9881 133.129V136.132Z" fill="#305070"/>
<path d="M89.7757 136.132H79.5934V133.129C79.5934 132.354 80.2231 131.725 80.9976 131.725H88.3715C89.146 131.725 89.7757 132.354 89.7757 133.129V136.132Z" fill="#305070"/>
<path d="M62.2002 136.132H52.018V133.129C52.018 132.354 52.6476 131.725 53.4221 131.725H60.796C61.5706 131.725 62.2002 132.354 62.2002 133.129V136.132Z" fill="#305070"/>
<path d="M154.253 145.78H42.7013C40.0425 145.78 37.8819 143.624 37.8819 140.96C37.8819 138.297 40.038 136.141 42.7013 136.141H154.253C156.912 136.141 159.072 138.297 159.072 140.96C159.072 143.624 156.916 145.78 154.253 145.78Z" fill="white"/>
<path d="M154.253 146.115H42.7011C39.8611 146.115 37.551 143.805 37.551 140.965C37.551 138.125 39.8611 135.815 42.7011 135.815H154.253C157.093 135.815 159.403 138.125 159.403 140.965C159.403 143.805 157.093 146.115 154.253 146.115ZM42.7011 136.481C40.228 136.481 38.2169 138.492 38.2169 140.965C38.2169 143.438 40.228 145.449 42.7011 145.449H154.253C156.726 145.449 158.737 143.438 158.737 140.965C158.737 138.492 156.726 136.481 154.253 136.481H42.7011Z" fill="#305070"/>
<path d="M170.174 146.115H2.21207C2.02636 146.115 1.88143 145.965 1.88143 145.784C1.88143 145.603 2.03089 145.454 2.21207 145.454H170.174C170.36 145.454 170.505 145.603 170.505 145.784C170.505 145.965 170.355 146.115 170.174 146.115Z" fill="#305070"/>
<path d="M128.331 78.7526H68.6231V127.082H128.331V78.7526Z" fill="white"/>
<path d="M128.331 127.44H68.6233C68.4376 127.44 68.2926 127.291 68.2926 127.109V78.7799C68.2926 78.5942 68.4421 78.4493 68.6233 78.4493H128.331C128.516 78.4493 128.661 78.5988 128.661 78.7799V127.109C128.661 127.295 128.512 127.44 128.331 127.44ZM68.9539 126.774H127.996V79.1106H68.9539V126.774Z" fill="#305070"/>
<path d="M128.33 83.1507H68.8585C68.6727 83.1507 68.5278 83.0013 68.5278 82.8201C68.5278 82.6389 68.6773 82.4895 68.8585 82.4895H128.33C128.516 82.4895 128.661 82.6389 128.661 82.8201C128.661 83.0013 128.511 83.1507 128.33 83.1507Z" fill="#305070"/>
<path d="M104.528 106.722H88.1632C87.9775 106.722 87.8325 106.573 87.8325 106.391V90.0265C87.8325 89.8408 87.982 89.6959 88.1632 89.6959H104.528C104.714 89.6959 104.859 89.8453 104.859 90.0265V106.391C104.859 106.577 104.709 106.722 104.528 106.722ZM88.4982 106.056H104.197V90.3572H88.4982V106.056Z" fill="#305070"/>
<path d="M112.709 114.572V98.2068H96.3436V114.572H112.709Z" fill="#F9E2D2"/>
<path d="M136.18 99.9505L125.092 97.8262L127.217 108.914L129.631 106.505L136.407 113.281L140.547 109.141L133.771 102.365L136.18 99.9505Z" fill="white"/>
<path d="M136.407 113.611C136.321 113.611 136.235 113.575 136.171 113.512L129.631 106.971L127.457 109.145C127.371 109.231 127.244 109.263 127.126 109.227C127.008 109.191 126.922 109.091 126.895 108.973L124.771 97.8851C124.748 97.7764 124.784 97.6631 124.861 97.5861C124.938 97.5091 125.051 97.4729 125.16 97.4956L136.248 99.6199C136.371 99.6425 136.466 99.7331 136.502 99.8509C136.538 99.9686 136.502 100.095 136.421 100.182L134.246 102.356L140.787 108.896C140.918 109.028 140.918 109.236 140.787 109.367L136.647 113.507C136.584 113.571 136.502 113.607 136.411 113.607L136.407 113.611ZM129.631 106.169C129.717 106.169 129.803 106.206 129.866 106.265L136.407 112.805L140.076 109.136L133.535 102.596C133.404 102.464 133.404 102.256 133.535 102.125L135.501 100.159L125.509 98.2429L127.425 108.235L129.391 106.269C129.454 106.206 129.536 106.174 129.626 106.174L129.631 106.169Z" fill="#305070"/>
<path d="M68.619 122.634H128.326V118.598H68.619V122.634Z" fill="#305070"/>
<path d="M114.308 122.634H116.676V118.598H114.308V122.634Z" fill="#F9E2D2"/>
<path d="M128.33 122.915H68.6231C68.4691 122.915 68.3422 122.788 68.3422 122.634V118.598C68.3422 118.444 68.4691 118.318 68.6231 118.318H128.33C128.484 118.318 128.611 118.444 128.611 118.598V122.634C128.611 122.788 128.484 122.915 128.33 122.915ZM68.904 122.353H128.05V118.879H68.904V122.353Z" fill="#305070"/>
<path d="M46.936 15.5712C67.3911 15.5712 83.9735 32.1536 83.9735 52.6087C83.9735 58.8594 82.4198 64.7523 79.684 69.9158L84.8838 89.3337L66.1046 84.3014C60.5107 87.694 53.952 89.6462 46.9314 89.6462C26.4763 89.6462 9.89388 73.0638 9.89388 52.6087C9.89388 32.1536 26.4763 15.5712 46.9314 15.5712H46.936Z" fill="white"/>
<path d="M46.9363 89.9767C26.3318 89.9767 9.56819 73.2131 9.56819 52.6086C9.56819 32.004 26.3318 15.2404 46.9363 15.2404C67.5409 15.2404 84.3044 32.004 84.3044 52.6086C84.3044 58.6464 82.8324 64.6388 80.0377 69.9564L85.2057 89.2475C85.2374 89.3607 85.2057 89.483 85.1197 89.5691C85.0381 89.6551 84.9113 89.6868 84.7981 89.6551L66.1547 84.6591C60.3661 88.1377 53.7214 89.9767 46.9317 89.9767H46.9363ZM46.9363 15.9063C26.6987 15.9063 10.2339 32.3709 10.2339 52.6086C10.2339 72.8463 26.6987 89.3109 46.9363 89.3109C53.6535 89.3109 60.2211 87.481 65.9373 84.0159C66.0143 83.9706 66.1096 83.957 66.1956 83.9797L84.4177 88.8625L79.3627 70.0018C79.3401 69.9202 79.3492 69.8342 79.3899 69.7617C82.171 64.512 83.6385 58.5829 83.6385 52.6086C83.6385 32.3709 67.174 15.9063 46.9363 15.9063Z" fill="#305070"/>
<path d="M66.1095 84.3014C60.5156 87.694 53.9569 89.6462 46.9363 89.6462C28.062 89.6462 12.4851 75.5233 10.1931 57.2695C16.163 47.5311 24.855 43.2598 36.2195 42.7344L49.6358 42.7888C57.1321 43.1919 65.6837 46.0726 69.5383 52.0651C71.0285 54.3797 83.1494 52.0787 83.9647 51.9202C83.9647 52.1467 83.9735 52.3777 83.9735 52.6087C83.9735 58.8594 82.4198 64.7523 79.684 69.9158L84.8838 89.3337L66.1046 84.3014L66.1095 84.3014Z" fill="#305070"/>
<path d="M45.7041 49.8729C40.8711 49.8774 34.317 46.1813 30.7659 43.3187C32.5097 43.0152 34.3261 42.8205 36.2195 42.7344L49.6358 42.7888C51.2166 42.8748 52.838 43.0696 54.4596 43.3821C53.7349 45.4113 51.4927 49.8683 45.7041 49.8729Z" fill="white"/>
<path d="M22.0285 81.5338C22.0059 81.5338 21.9833 81.5338 21.9606 81.5248C21.7795 81.4885 21.6663 81.3119 21.7025 81.1307L26.5671 58.2659C26.6033 58.0848 26.78 57.9715 26.9612 58.0077C27.1424 58.044 27.2555 58.2207 27.2193 58.4018L22.3548 81.2666C22.323 81.4251 22.1825 81.5293 22.0285 81.5293V81.5338Z" fill="white"/>
<path d="M58.8306 88.0245C58.7763 88.0245 58.722 88.0109 58.6676 87.9838C58.4412 87.8569 53.1508 84.7407 55.2389 71.8136C57.3406 58.8094 67.6812 57.1879 67.7854 57.1698C67.9666 57.1426 68.1342 57.2694 68.1614 57.4506C68.1886 57.6318 68.0617 57.7994 67.8805 57.8265C67.7809 57.8401 57.9157 59.4119 55.8955 71.9177C53.8799 84.3874 58.9394 87.3723 58.9892 87.404C59.1477 87.4946 59.2065 87.6939 59.1159 87.8569C59.0571 87.9656 58.944 88.0291 58.8262 88.0291L58.8306 88.0245Z" fill="white"/>
<path d="M46.9363 89.9767C28.139 89.9767 12.1996 75.9355 9.86241 57.3103C9.85336 57.2333 9.87152 57.1608 9.90775 57.0929C15.6285 47.7576 24.2298 42.9519 36.2012 42.3993L49.6311 42.4536C56.7106 42.8341 65.7154 45.511 69.81 51.884C70.8291 53.4738 78.7918 52.5815 83.8965 51.5941C83.9916 51.576 84.0913 51.5986 84.1683 51.6621C84.2453 51.7255 84.2906 51.8161 84.2906 51.9157V52.0063C84.2951 52.2056 84.2997 52.4094 84.2997 52.6087C84.2997 58.6465 82.8276 64.639 80.0329 69.9566L85.2011 89.2476C85.2328 89.3608 85.2011 89.4831 85.1151 89.5692C85.0336 89.6553 84.9068 89.687 84.7935 89.6553L66.1501 84.6592C60.3615 88.1379 53.7168 89.9768 46.9271 89.9768L46.9363 89.9767ZM10.5372 57.342C12.888 75.5731 28.515 89.3109 46.9363 89.3109C53.6535 89.3109 60.2211 87.481 65.9373 84.0159C66.0143 83.9706 66.1096 83.957 66.1956 83.9797L84.4177 88.8625L79.3627 70.0018C79.3401 69.9202 79.3492 69.8342 79.3899 69.7617C82.171 64.512 83.6385 58.5829 83.6385 52.6086C83.6385 52.5135 83.6384 52.4185 83.6384 52.3233C80.7667 52.8623 70.7384 54.5518 69.2573 52.2463C65.294 46.0817 56.516 43.4909 49.6176 43.1194L36.2194 43.0651C24.3793 43.6132 16.2126 48.1517 10.5372 57.342Z" fill="#305070"/>
<path d="M44.2939 39.0471C49.8698 39.0237 54.3711 34.4846 54.3477 28.9087C54.3244 23.3328 49.7852 18.8315 44.2093 18.8549C38.6334 18.8782 34.1321 23.4174 34.1555 28.9933C34.1789 34.5692 38.718 39.0704 44.2939 39.0471Z" fill="#305070"/>
<path d="M46.2709 17.5496C47.3587 12.9408 44.5043 8.3227 39.8955 7.23493C35.2867 6.14715 30.6687 9.00158 29.5809 13.6104C28.4931 18.2192 31.3475 22.8373 35.9563 23.9251C40.5651 25.0129 45.1831 22.1584 46.2709 17.5496Z" fill="#305070"/>
<path d="M38.679 23.3799C33.769 23.3799 29.7739 19.3848 29.7739 14.4749C29.7739 9.56496 33.769 5.56998 38.679 5.56998C43.5889 5.56998 47.5837 9.56496 47.5837 14.4749C47.5837 19.3848 43.5889 23.3799 38.679 23.3799ZM38.679 6.23126C34.1359 6.23126 30.4352 9.92731 30.4352 14.4749C30.4352 19.0225 34.1314 22.7185 38.679 22.7185C43.2265 22.7185 46.9225 19.0225 46.9225 14.4749C46.9225 9.92731 43.2265 6.23126 38.679 6.23126Z" fill="#305070"/>
<path d="M37.8003 45.9141L39.0412 37.7565C43.5073 36.298 41.1202 30.9079 41.1202 30.9079C45.8807 30.9487 47.5384 26.2108 48.245 23.6109C48.4398 22.8907 49.2371 22.5239 49.912 22.8409C51.3161 23.5068 53.3454 24.6391 53.5809 26.2063C54.6951 33.5531 56.9372 40.7912 49.0333 41.4389V45.9141H37.8003Z" fill="white"/>
<path d="M38.0627 44.5054C38.0627 44.5054 38.0311 44.5054 38.0129 44.5054C37.8318 44.4783 37.7049 44.3062 37.7321 44.125L38.7105 37.7067C38.7377 37.5255 38.9052 37.3987 39.0909 37.4259C39.2721 37.4531 39.399 37.6252 39.3718 37.8064L38.3933 44.2246C38.3662 44.3877 38.2259 44.5054 38.0673 44.5054H38.0627Z" fill="#305070"/>
<path d="M49.0334 45.1802C48.8477 45.1802 48.7028 45.0307 48.7028 44.8495V41.4388C48.7028 41.2667 48.8341 41.1217 49.0062 41.1081C51.0535 40.9406 52.4667 40.32 53.3273 39.2148C55.0531 36.9909 54.3782 32.9778 53.658 28.7291C53.5176 27.9138 53.3816 27.0849 53.2548 26.256C53.2548 26.256 52.9469 25.2278 52.2403 24.1997C52.1361 24.0502 52.1769 23.8418 52.3263 23.7376C52.4758 23.6335 52.6842 23.6742 52.7883 23.8237C53.5674 24.9651 53.889 26.0703 53.9026 26.1156C54.0385 26.9807 54.1744 27.8051 54.3148 28.6204C55.0577 33.0185 55.7597 37.1721 53.8528 39.6225C52.9152 40.8273 51.4475 41.5203 49.3685 41.7423V44.8495C49.3685 45.0352 49.219 45.1802 49.0378 45.1802H49.0334Z" fill="#305070"/>
<path d="M49.0333 41.7696C46.746 41.7696 45.0067 41.1265 44.9343 41.0993C44.7621 41.0359 44.676 40.8456 44.7394 40.6735C44.8028 40.5014 44.993 40.4153 45.1651 40.4787C45.1833 40.4833 46.8681 41.1038 49.0287 41.1038C49.2144 41.1038 49.3593 41.2533 49.3593 41.4345C49.3593 41.6156 49.2099 41.7651 49.0287 41.7651L49.0333 41.7696Z" fill="#305070"/>
<path d="M49.0332 44.2653C49.0332 44.2653 47.7152 45.4112 46.379 44.4827C45.0428 43.5541 44.7347 40.6372 44.7347 40.6372L49.0333 41.4389L49.0332 44.2653Z" fill="#305070"/>
<path d="M35.6124 24.1815C35.4855 24.1815 35.3633 24.1091 35.3089 23.9822C35.2364 23.8147 35.3087 23.6199 35.4763 23.5429L46.0074 18.8821C46.1749 18.8096 46.3698 18.8821 46.4468 19.0497C46.5193 19.2173 46.4468 19.412 46.2792 19.489L35.7481 24.1498C35.7029 24.1679 35.6576 24.177 35.6124 24.177V24.1815Z" fill="#D2F9F9"/>
<path d="M41.6681 34.7626C43.3241 34.7626 44.6667 33.4201 44.6667 31.764C44.6667 30.108 43.3241 28.7655 41.6681 28.7655C40.0121 28.7655 38.6698 30.108 38.6698 31.764C38.6698 33.4201 40.0121 34.7626 41.6681 34.7626Z" fill="white"/>
<path d="M42.2208 32.6336C42.1166 32.6336 42.0169 32.5838 41.949 32.4932L40.8529 30.9577C40.7442 30.8083 40.7804 30.5999 40.9299 30.4957C41.0793 30.387 41.2877 30.4233 41.3919 30.5727L42.488 32.1082C42.5967 32.2577 42.5605 32.466 42.411 32.5702C42.3521 32.611 42.2843 32.6336 42.2164 32.6336H42.2208Z" fill="#305070"/>
<path d="M49.0834 41.7243C46.2479 41.6156 44.5902 40.8592 44.5223 40.8275C44.3547 40.7505 44.2823 40.5512 44.3593 40.3881C44.4363 40.2205 44.6354 40.1481 44.7985 40.2251C44.8166 40.2341 46.4155 40.9588 49.0924 41.063C49.2781 41.0721 49.4185 41.2261 49.414 41.4073C49.4095 41.5884 49.26 41.7288 49.0834 41.7288V41.7243Z" fill="#305070"/>
<path d="M51.2529 34.373C51.0853 34.373 50.9449 34.2507 50.9222 34.0786L50.4014 29.6351C50.3787 29.454 50.5101 29.2864 50.6913 29.2683C50.8725 29.2456 51.0399 29.3769 51.058 29.5581L51.5791 34.0015C51.6017 34.1827 51.4703 34.3503 51.2891 34.3684C51.2755 34.3684 51.262 34.3684 51.2484 34.3684L51.2529 34.373Z" fill="#305070"/>
<path d="M50.4784 36.1666C50.4467 36.1666 50.4103 36.1621 50.3786 36.153C49.4093 35.845 49.0245 34.7897 49.0109 34.7444C48.9475 34.5723 49.038 34.382 49.2146 34.3186C49.3868 34.2597 49.577 34.3458 49.6404 34.5224C49.6449 34.536 49.9348 35.3151 50.5826 35.5189C50.7592 35.5733 50.8543 35.7635 50.8 35.9356C50.7547 36.076 50.6234 36.1666 50.483 36.1666H50.4784Z" fill="#305070"/>
<path d="M47.3933 30.6361C47.3571 31.0075 47.0264 31.2748 46.6595 31.2385C46.2881 31.2023 46.0211 30.8716 46.0573 30.5047C46.0935 30.1333 46.424 29.8661 46.7909 29.9023C47.1623 29.9386 47.4296 30.2692 47.3933 30.6361Z" fill="#305070"/>
<path d="M52.5934 30.6361C52.5571 31.0075 52.2264 31.2748 51.8596 31.2385C51.4881 31.2023 51.2211 30.8716 51.2573 30.5047C51.2936 30.1333 51.624 29.8661 51.9909 29.9023C52.3623 29.9386 52.6296 30.2692 52.5934 30.6361Z" fill="#305070"/>
<path d="M66.4492 34.8168C69.1669 33.7206 72.0293 37.1585 73.2704 41.5113C73.2704 41.5113 75.7889 31.5012 76.3143 29.703C76.9122 27.6466 77.7184 26.6048 79.272 26.8585C81.5141 27.2254 81.1518 29.3225 80.6173 31.9903C80.6173 31.9903 82.0804 25.7759 85.174 26.709C88.2676 27.6421 86.6552 31.0301 85.8127 33.6753C85.8127 33.6753 87.6288 28.4302 90.3782 29.8207C92.9374 31.1162 90.8177 34.3819 89.4861 37.6341C88.1589 40.8817 85.8534 45.0081 85.8534 45.0081C85.8534 45.0081 88.1905 41.8012 89.5765 40.2249C90.9671 38.6487 92.6022 37.4257 93.7481 38.9114C94.8941 40.3971 93.3043 42.6527 89.264 48.7267C89.264 48.7267 89.2233 54.2301 84.1639 57.3962L82.4156 63.52C81.2379 67.6418 77.0028 70.0787 72.8493 69.0233C68.0934 67.8139 65.566 62.6186 67.5544 58.1299L68.8995 55.0952C68.8995 55.0952 67.2191 50.7424 67.1828 47.8707C67.1466 45.0035 68.0888 43.921 67.3777 42.4534C66.6711 40.9859 63.7269 35.9084 66.4446 34.8122L66.4492 34.8168Z" fill="white"/>
<path d="M74.833 69.6077C74.1535 69.6077 73.4605 69.5216 72.7675 69.3495C70.4031 68.7516 68.4373 67.1482 67.3728 64.9559C66.3084 62.7636 66.2631 60.2272 67.2505 57.9987L68.5415 55.0862C68.2561 54.3253 66.8837 50.5295 66.852 47.8753C66.8339 46.6025 67.006 45.6694 67.1464 44.9221C67.323 43.9664 67.4364 43.3368 67.0831 42.603C67.0152 42.4626 66.9245 42.2814 66.8204 42.0776C66.0051 40.4741 64.4831 37.4847 65.1534 35.6865C65.3618 35.1339 65.756 34.7353 66.3267 34.5088C67.2009 34.1555 68.1068 34.2053 69.0263 34.6583C70.6931 35.4736 72.2513 37.5889 73.2342 40.3111C73.909 37.6432 75.5848 31.0347 75.997 29.6124C76.4952 27.9003 77.2789 26.2018 79.3262 26.5324C80.0554 26.6502 80.5945 26.9536 80.9252 27.4383C81.2196 27.8641 81.3373 28.4121 81.3509 29.0282C81.8356 28.0634 82.4923 27.1122 83.3348 26.623C83.9508 26.2697 84.6029 26.1927 85.2733 26.392C86.1113 26.6456 86.7001 27.0895 87.0263 27.7191C87.443 28.5299 87.3842 29.5309 87.1351 30.5954C87.5563 30.0881 88.05 29.6532 88.6072 29.4267C89.2458 29.1686 89.889 29.2048 90.5322 29.5264C92.9373 30.7448 91.7052 33.4716 90.5185 36.1122C90.2739 36.6558 90.0248 37.2084 89.7984 37.761C89.2956 38.993 88.6478 40.3609 88.0363 41.5793C88.4938 40.9995 88.9467 40.4424 89.3317 40.0076C90.5999 38.5672 91.6735 37.8742 92.593 37.9104C93.1411 37.9286 93.6213 38.1958 94.0153 38.7076C95.2609 40.3201 93.8296 42.4671 90.0158 48.2014L89.5991 48.831C89.5674 49.6282 89.187 54.5789 84.4537 57.6091L82.7414 63.6107C81.7042 67.2478 78.4383 69.6077 74.8374 69.6077H74.833ZM66.5758 35.1248C66.1817 35.2834 65.9189 35.5461 65.7785 35.922C65.2077 37.4439 66.6981 40.37 67.4137 41.7786C67.5225 41.987 67.613 42.1682 67.6809 42.3131C68.1293 43.2462 67.9845 44.0388 67.7988 45.0443C67.6674 45.7645 67.4998 46.6659 67.5179 47.8708C67.5542 50.6473 69.1982 54.9367 69.2118 54.9775C69.2435 55.059 69.2436 55.1496 69.2074 55.2312L67.8621 58.2659C66.9516 60.3132 66.9924 62.6459 67.9753 64.6615C68.9537 66.6771 70.761 68.1492 72.9352 68.7018C76.9392 69.7164 80.9658 67.4018 82.1027 63.4295L83.8512 57.3056C83.8739 57.2286 83.9236 57.1607 83.9961 57.1154C88.829 54.0897 88.9378 48.7812 88.9378 48.7268C88.9378 48.6634 88.9558 48.6 88.992 48.5457L89.4631 47.8391C92.9825 42.5441 94.441 40.3564 93.4898 39.1198C93.2181 38.7665 92.9192 38.5899 92.5704 38.5808C91.8729 38.5536 90.9442 39.1878 89.83 40.4515C88.4666 42.0006 86.1477 45.1802 86.125 45.2119C86.0208 45.3524 85.826 45.3931 85.6765 45.298C85.527 45.2029 85.4817 45.0081 85.5633 44.8541C85.5859 44.8134 87.8734 40.7096 89.1824 37.5164C89.4134 36.9592 89.6625 36.3976 89.9116 35.845C91.2523 32.8646 91.9453 30.9939 90.2332 30.1243C89.7666 29.8887 89.3183 29.8616 88.8608 30.0473C87.2212 30.7086 86.1477 33.7615 86.1341 33.7886C86.0752 33.9607 85.8894 34.0513 85.7128 33.997C85.5406 33.9381 85.4454 33.7524 85.4998 33.5803C85.5994 33.2632 85.7127 32.9416 85.8214 32.611C86.374 30.9849 87.0037 29.1414 86.4285 28.0271C86.1884 27.5561 85.7445 27.2345 85.0787 27.0307C84.585 26.8812 84.1229 26.9355 83.6654 27.1983C81.8627 28.2355 80.9477 32.0312 80.9387 32.0674C80.8979 32.2441 80.7212 32.3573 80.5446 32.3166C80.3679 32.2758 80.2547 32.1037 80.2909 31.927C80.617 30.3145 80.9524 28.6432 80.3771 27.8143C80.1461 27.4836 79.7702 27.2798 79.2176 27.1892C77.9629 26.9854 77.2381 27.7146 76.6357 29.7982C76.1193 31.5692 73.6236 41.4978 73.5964 41.5974C73.5602 41.7424 73.4288 41.8466 73.2793 41.8511C73.1117 41.8511 72.994 41.756 72.9533 41.611C72.0882 38.5808 70.4303 36.0896 68.7363 35.2607C67.9935 34.8983 67.2688 34.853 66.5758 35.1339V35.1248Z" fill="#305070"/>
<path d="M80.7987 49.9135C80.7987 49.9135 80.7624 49.9135 80.7443 49.9135C80.5631 49.8863 80.4409 49.7142 80.4681 49.533C81.3739 43.8848 73.2752 41.8601 73.1937 41.8374C73.017 41.7922 72.9038 41.6155 72.9491 41.4343C72.9899 41.2577 73.1712 41.1444 73.3478 41.1897C73.4339 41.2124 82.1259 43.382 81.1249 49.6326C81.0977 49.7957 80.9572 49.9135 80.7987 49.9135Z" fill="#305070"/>
<path d="M78.3844 40.5149C78.3572 40.5149 78.3255 40.5149 78.2983 40.5013C78.1217 40.4515 78.0176 40.2703 78.0674 40.0936L80.3003 31.8998C80.3502 31.7232 80.5315 31.619 80.7082 31.6643C80.8848 31.7096 80.9889 31.8953 80.9391 32.072L78.7059 40.2658C78.6652 40.4152 78.5338 40.5104 78.3844 40.5104V40.5149Z" fill="#305070"/>
<path d="M82.7284 42.2451C82.6876 42.2451 82.6513 42.2361 82.6105 42.2225C82.4384 42.1591 82.3525 41.9643 82.4159 41.7967L85.5003 33.5621C85.5637 33.39 85.7586 33.304 85.9262 33.3674C86.0984 33.4308 86.1843 33.6255 86.1209 33.7931L83.0363 42.0277C82.9864 42.1636 82.8596 42.2451 82.7238 42.2451H82.7284Z" fill="#305070"/>
<path d="M9.82641 93.0115C9.82641 93.0115 4.73527 72.4885 29.1718 65.2504C29.1718 65.2504 33.8462 93.2878 9.82641 93.0115Z" fill="#F9E2D2"/>
<path d="M36.8306 115.419V130.977C36.8306 136.721 35.1999 141.934 32.5502 145.784H10.1702C7.51596 141.934 5.88979 136.721 5.88979 130.977V115.419H36.8306Z" fill="white"/>
<path d="M36.8306 115.419V130.977C36.8306 136.721 35.1999 141.934 32.5502 145.784H10.1702C7.51596 141.934 5.88979 136.721 5.88979 130.977V115.419H36.8306Z" fill="black"/>
<path d="M10.116 153.244C10.0344 153.244 9.94827 153.213 9.88485 153.154C9.7535 153.027 9.74896 152.814 9.87578 152.683C9.98449 152.569 20.8644 141.078 18.2418 131.82C15.6328 122.602 4.62178 121.452 4.50854 121.443C4.32736 121.425 4.19141 121.262 4.20952 121.081C4.22764 120.899 4.39514 120.764 4.57179 120.782C4.68503 120.791 16.1493 121.977 18.8805 131.639C21.6028 141.264 10.8134 152.665 10.3559 153.145C10.2925 153.213 10.202 153.249 10.116 153.249V153.244Z" fill="#D2F9F9"/>
<path d="M22.2274 148.248C22.0553 148.248 21.9103 148.113 21.8967 147.94C21.8605 147.429 21.077 135.407 26.8657 134.805C32.5773 134.212 35.8566 141.794 35.9925 142.12C36.065 142.288 35.9834 142.482 35.8158 142.555C35.6482 142.627 35.4534 142.546 35.381 142.378C35.3493 142.306 32.1651 134.923 26.9336 135.466C21.779 136.005 22.5536 147.777 22.5627 147.895C22.5762 148.076 22.4358 148.239 22.2546 148.248C22.2455 148.248 22.2365 148.248 22.232 148.248H22.2274Z" fill="#D2F9F9"/>
<path d="M29.0175 129.03C28.5782 129.03 28.1251 128.998 27.6541 128.926C19.9313 127.752 16.0089 112.321 15.8458 111.664C15.8005 111.487 15.9092 111.306 16.0904 111.261C16.2671 111.215 16.4483 111.324 16.4936 111.505C16.5344 111.664 20.4659 127.164 27.7538 128.269C34.9964 129.369 38.3166 120.686 38.3483 120.6C38.4117 120.428 38.6064 120.342 38.774 120.406C38.9462 120.469 39.0321 120.659 38.9687 120.831C38.937 120.917 35.8297 129.03 29.0129 129.03H29.0175Z" fill="#D2F9F9"/>
<path d="M32.5505 146.115H10.1706C10.0619 146.115 9.95763 146.061 9.89875 145.97C7.09953 141.907 5.55948 136.585 5.55948 130.977V115.419C5.55948 115.233 5.70894 115.088 5.89012 115.088H36.831C37.0167 115.088 37.1616 115.238 37.1616 115.419V130.977C37.1616 136.585 35.6215 141.912 32.8223 145.97C32.7589 146.061 32.6592 146.115 32.5505 146.115ZM32.3738 145.449C35.0326 141.517 36.4957 136.386 36.4957 130.977V115.749H6.22077V130.977C6.22077 136.386 7.68383 141.517 10.3426 145.449H32.3738Z" fill="#305070"/>
<path d="M18.5636 102.374C18.5636 102.374 22.3684 81.4295 0.332522 78.5624C0.332522 78.5624 -3.11893 99.724 18.5636 102.374Z" fill="#D2F9F9"/>
<path d="M23.2649 108.638C23.2649 108.638 22.9526 95.2218 39.4896 95.6883C39.4896 95.6883 38.8644 109.417 23.2649 108.638Z" fill="white"/>
<path d="M24.5241 109.005C24.1074 109.005 23.6815 108.996 23.2467 108.973C23.0745 108.964 22.9343 108.824 22.9297 108.647C22.9252 108.43 22.8527 103.325 26.7344 99.4614C29.6288 96.5807 33.9228 95.1992 39.4986 95.3577C39.5892 95.3577 39.6705 95.3985 39.7339 95.4619C39.7928 95.5253 39.8246 95.6159 39.8246 95.702C39.8155 95.9375 39.5165 101.468 35.2316 105.359C32.5683 107.778 28.9721 109.001 24.5241 109.001V109.005ZM23.6045 108.321C28.3061 108.498 32.0655 107.338 34.7787 104.874C38.2664 101.708 38.9911 97.2647 39.127 96.0145C33.9136 95.933 29.9051 97.2465 27.2055 99.9325C24.053 103.067 23.6543 107.171 23.6045 108.321Z" fill="#305070"/>
<path d="M21.1904 115.749C21.0047 115.749 20.8598 115.6 20.8598 115.419V94.9908C20.8598 94.9229 20.8826 94.8549 20.9188 94.8006L37.3426 71.2247C37.4467 71.0752 37.6551 71.039 37.8046 71.1431C37.954 71.2473 37.9904 71.4557 37.8862 71.6051L21.521 95.095V115.419C21.521 115.604 21.3716 115.749 21.1904 115.749Z" fill="#305070"/>
<path d="M18.5636 115.749C18.3779 115.749 18.2329 115.6 18.2329 115.419V102.487L0.0697036 78.7663C-0.0435331 78.6213 -0.0162944 78.413 0.133178 78.2997C0.278121 78.1865 0.486379 78.2137 0.599616 78.3631L18.8307 102.175C18.876 102.233 18.8986 102.306 18.8986 102.378V115.419C18.8986 115.604 18.7492 115.749 18.568 115.749H18.5636Z" fill="#305070"/>
<path d="M23.2651 115.749C23.0794 115.749 22.9345 115.6 22.9345 115.419V108.638C22.9345 108.538 22.9799 108.443 23.0614 108.38L39.2859 95.4302C39.4309 95.317 39.6391 95.3396 39.7524 95.4846C39.8656 95.6295 39.8431 95.8379 39.6982 95.9511L23.5958 108.801V115.419C23.5958 115.604 23.4463 115.749 23.2651 115.749Z" fill="#305070"/>
<path d="M105.643 16.323H168.403C171.388 16.323 173.806 18.9365 173.806 22.166V46.3081C173.806 49.5331 171.388 52.1511 168.403 52.1511H121.016L115.657 59.2669L112.677 52.1511H105.647C102.662 52.1511 100.243 49.5376 100.243 46.3081V22.166C100.243 18.941 102.662 16.323 105.647 16.323H105.643Z" fill="white"/>
<path d="M115.653 59.5976C115.653 59.5976 115.625 59.5976 115.612 59.5976C115.494 59.584 115.394 59.507 115.345 59.3983L112.45 52.4863H105.638C102.476 52.4863 99.9037 49.7188 99.9037 46.3127V22.1706C99.9037 18.7644 102.476 15.9969 105.638 15.9969H168.398C171.56 15.9969 174.133 18.7644 174.133 22.1706V46.3127C174.133 49.7188 171.56 52.4863 168.398 52.4863H121.174L115.915 59.4663C115.852 59.5523 115.752 59.5976 115.648 59.5976H115.653ZM105.638 16.6582C102.843 16.6582 100.565 19.1313 100.565 22.1661V46.3082C100.565 49.3474 102.839 51.816 105.638 51.816H112.668C112.804 51.816 112.921 51.8975 112.976 52.0198L115.734 58.6011L120.744 51.9473C120.807 51.8658 120.907 51.816 121.011 51.816H168.398C171.193 51.816 173.471 49.3429 173.471 46.3082V22.1661C173.471 19.1268 171.197 16.6582 168.398 16.6582H105.638Z" fill="#305070"/>
<path d="M165.409 73.1905C162.945 73.1905 160.938 71.1839 160.938 68.7199C160.938 66.2558 162.945 64.2493 165.409 64.2493C167.873 64.2493 169.879 66.2558 169.879 68.7199C169.879 71.1839 167.873 73.1905 165.409 73.1905ZM165.409 64.9151C163.312 64.9151 161.604 66.6227 161.604 68.7199C161.604 70.817 163.312 72.5247 165.409 72.5247C167.506 72.5247 169.214 70.817 169.214 68.7199C169.214 66.6227 167.506 64.9151 165.409 64.9151Z" fill="#305070"/>
<path d="M115.533 41.114C115.267 41.114 115.045 41.0253 114.868 40.848C114.69 40.658 114.602 40.4363 114.602 40.183V29.106C114.602 28.84 114.69 28.6183 114.868 28.441C115.045 28.2637 115.267 28.175 115.533 28.175C115.799 28.175 116.027 28.2637 116.217 28.441C116.407 28.6183 116.502 28.84 116.502 29.106V34.046L123.418 33.077V29.106C123.418 28.84 123.506 28.6183 123.684 28.441C123.874 28.2637 124.102 28.175 124.368 28.175C124.621 28.175 124.843 28.2637 125.033 28.441C125.223 28.6183 125.318 28.84 125.318 29.106V40.183C125.318 40.4237 125.223 40.639 125.033 40.829C124.843 41.019 124.621 41.114 124.368 41.114C124.102 41.114 123.874 41.0253 123.684 40.848C123.506 40.658 123.418 40.4363 123.418 40.183V34.939L116.502 35.908V40.183C116.502 40.4363 116.407 40.658 116.217 40.848C116.027 41.0253 115.799 41.114 115.533 41.114Z" fill="#305070"/>
<path d="M132.174 41.114C131.275 41.114 130.464 40.924 129.742 40.544C129.033 40.1513 128.476 39.6003 128.07 38.891C127.665 38.169 127.462 37.3203 127.462 36.345C127.462 35.547 127.64 34.787 127.994 34.065C128.362 33.3303 128.868 32.7413 129.514 32.298C130.173 31.8547 130.92 31.633 131.756 31.633C132.529 31.633 133.188 31.7913 133.732 32.108C134.29 32.412 134.708 32.7793 134.986 33.21C135.265 33.6407 135.404 34.027 135.404 34.369C135.404 34.5337 135.354 34.692 135.252 34.844C135.151 34.996 135.005 35.129 134.815 35.243L129.723 38.169C129.901 38.5617 130.211 38.8657 130.654 39.081C131.11 39.2963 131.617 39.404 132.174 39.404C132.909 39.404 133.536 39.1317 134.055 38.587C134.258 38.3843 134.467 38.283 134.682 38.283C134.936 38.283 135.145 38.3653 135.309 38.53C135.487 38.6947 135.575 38.8973 135.575 39.138C135.575 39.3407 135.499 39.5307 135.347 39.708C134.993 40.1007 134.518 40.4363 133.922 40.715C133.34 40.981 132.757 41.114 132.174 41.114ZM133.523 34.141C133.371 33.875 133.156 33.6787 132.877 33.552C132.599 33.4127 132.269 33.343 131.889 33.343C131.167 33.343 130.559 33.59 130.065 34.084C129.584 34.578 129.305 35.186 129.229 35.908C129.204 36.098 129.191 36.326 129.191 36.592L133.523 34.141Z" fill="#305070"/>
<path d="M138.315 41.114C138.075 41.114 137.859 41.0317 137.669 40.867C137.492 40.6897 137.403 40.487 137.403 40.259V29.239C137.403 28.9857 137.486 28.7767 137.65 28.612C137.828 28.4347 138.049 28.346 138.315 28.346C138.556 28.346 138.765 28.4347 138.942 28.612C139.132 28.7893 139.227 28.9983 139.227 29.239V40.259C139.227 40.487 139.132 40.6897 138.942 40.867C138.752 41.0317 138.543 41.114 138.315 41.114Z" fill="#305070"/>
<path d="M142.805 41.114C142.565 41.114 142.349 41.0317 142.159 40.867C141.982 40.6897 141.893 40.487 141.893 40.259V29.239C141.893 28.9857 141.976 28.7767 142.14 28.612C142.318 28.4347 142.539 28.346 142.805 28.346C143.046 28.346 143.255 28.4347 143.432 28.612C143.622 28.7893 143.717 28.9983 143.717 29.239V40.259C143.717 40.487 143.622 40.6897 143.432 40.867C143.242 41.0317 143.033 41.114 142.805 41.114Z" fill="#305070"/>
<path d="M149.69 41.114C148.968 41.114 148.303 40.9177 147.695 40.525C147.099 40.1323 146.631 39.6003 146.289 38.929C145.947 38.245 145.776 37.504 145.776 36.706C145.776 35.8067 145.978 34.9707 146.384 34.198C146.789 33.4127 147.334 32.792 148.018 32.336C148.702 31.8673 149.436 31.633 150.222 31.633C150.944 31.633 151.602 31.8357 152.198 32.241C152.806 32.6463 153.281 33.1847 153.623 33.856C153.977 34.5273 154.155 35.2493 154.155 36.022C154.155 36.934 153.952 37.7827 153.547 38.568C153.141 39.3407 152.59 39.9613 151.894 40.43C151.21 40.886 150.475 41.114 149.69 41.114ZM149.69 39.404C150.133 39.404 150.557 39.252 150.963 38.948C151.368 38.644 151.691 38.2387 151.932 37.732C152.172 37.2253 152.293 36.687 152.293 36.117C152.293 35.6357 152.198 35.186 152.008 34.768C151.818 34.3373 151.558 33.9953 151.229 33.742C150.899 33.476 150.538 33.343 150.146 33.343C149.702 33.343 149.284 33.5013 148.892 33.818C148.512 34.122 148.208 34.5337 147.98 35.053C147.752 35.5597 147.638 36.1043 147.638 36.687C147.638 37.257 147.733 37.7447 147.923 38.15C148.125 38.5553 148.379 38.8657 148.683 39.081C148.999 39.2963 149.335 39.404 149.69 39.404Z" fill="#305070"/>
<path d="M157.434 37.922C157.181 37.922 156.959 37.8333 156.769 37.656C156.592 37.466 156.503 37.2443 156.503 36.991V29.239C156.503 28.9857 156.592 28.764 156.769 28.574C156.959 28.384 157.181 28.289 157.434 28.289C157.7 28.289 157.922 28.384 158.099 28.574C158.276 28.764 158.365 28.9857 158.365 29.239V36.991C158.365 37.2443 158.276 37.466 158.099 37.656C157.922 37.8333 157.7 37.922 157.434 37.922ZM157.282 41.114C156.991 41.114 156.75 41.0127 156.56 40.81C156.383 40.6073 156.294 40.354 156.294 40.05C156.294 39.7333 156.408 39.4483 156.636 39.195C156.864 38.9417 157.124 38.815 157.415 38.815C157.706 38.815 157.941 38.9227 158.118 39.138C158.308 39.3407 158.403 39.5877 158.403 39.879C158.403 40.221 158.289 40.5123 158.061 40.753C157.833 40.9937 157.573 41.114 157.282 41.114Z" fill="#305070"/>
</svg>
