<svg width="180" height="141" viewBox="0 0 180 141" fill="none" xmlns="http://www.w3.org/2000/svg">
<path d="M164.659 110.112C164.659 115.744 160.094 120.31 154.462 120.31C148.83 120.31 144.264 115.744 144.264 110.112C144.264 104.48 148.83 99.9145 154.462 99.9145C160.094 99.9145 164.659 104.48 164.659 110.112Z" fill="#F9E2D2" stroke="#305070"/>
<path d="M146.115 6.6016L146.116 6.60166C168.74 10.0731 181.633 33.6621 178.495 55.2962C177.866 59.6154 176.609 64.0403 174.802 68.3174L174.792 68.3226L174.72 68.4904C168.88 82.1836 157.43 94.2157 143.01 96.4483C135.744 97.5734 128.343 97.2771 120.951 96.9811C120.119 96.9478 119.287 96.9145 118.456 96.8832C104.093 96.3453 87.465 89.9732 74.4876 79.7276C61.5093 69.4814 52.2563 55.4246 52.4819 39.5459C52.6937 24.7096 62.1216 10.7201 75.4385 4.32274L75.4386 4.32268C88.1015 -1.76441 101.656 0.0419758 114.306 5.37338C118.029 6.94312 122.368 7.1473 126.676 6.96002C128.618 6.87556 130.569 6.71041 132.464 6.55006C132.673 6.53234 132.882 6.51469 133.09 6.4972C135.184 6.321 137.199 6.1625 139.075 6.13389L139.076 6.13388C141.433 6.09576 143.789 6.24282 146.115 6.6016Z" fill="#F9E2D2" stroke="#305070"/>
<path d="M159.161 14.7515H72.8734V80.535H159.161V14.7515Z" fill="white"/>
<path d="M159.161 14.7515H72.8734V24.4032H159.161V14.7515Z" fill="white"/>
<path d="M159.161 80.937H72.8734C72.6476 80.937 72.4717 80.7553 72.4717 80.535V14.7515C72.4717 14.5258 72.6532 14.3496 72.8734 14.3496H159.161C159.387 14.3496 159.563 14.5313 159.563 14.7515V80.535C159.563 80.7608 159.381 80.937 159.161 80.937ZM73.2756 80.1276H158.753V15.1534H73.2756V80.1276Z" fill="#305070"/>
<path d="M159.161 24.8052H72.8734C72.6477 24.8052 72.4718 24.6235 72.4718 24.4032C72.4718 24.183 72.6532 24.0013 72.8734 24.0013H159.161C159.387 24.0013 159.563 24.183 159.563 24.4032C159.563 24.6235 159.381 24.8052 159.161 24.8052Z" fill="#305070"/>
<path d="M81.0278 19.5636C81.0278 20.5877 80.1963 21.419 79.1723 21.419C78.1482 21.419 77.3167 20.5877 77.3167 19.5636C77.3167 18.5395 78.1482 17.7081 79.1723 17.7081C80.1963 17.7081 81.0278 18.5395 81.0278 19.5636Z" fill="#305070"/>
<path d="M94.765 19.5636C94.765 20.5877 93.9335 21.419 92.9094 21.419C91.8854 21.419 91.0539 20.5877 91.0539 19.5636C91.0539 18.5395 91.8854 17.7081 92.9094 17.7081C93.9335 17.7081 94.765 18.5395 94.765 19.5636Z" fill="#F9E2D2"/>
<path d="M87.8934 19.5636C87.8934 20.5877 87.062 21.419 86.0379 21.419C85.0138 21.419 84.1824 20.5877 84.1824 19.5636C84.1824 18.5395 85.0138 17.7081 86.0379 17.7081C87.062 17.7081 87.8934 18.5395 87.8934 19.5636Z" fill="#84B6CF"/>
<path d="M76.2791 36.6427C72.8104 31.8966 64.3313 31.2029 64.3313 31.2029C62.4098 30.9662 60.4827 30.9386 58.8035 30.9937C55.7753 31.0928 52.7688 31.5718 49.8232 32.249C47.1639 32.8602 44.6478 33.9503 41.9059 33.7466C36.9837 33.3832 33.4436 29.7384 29.1656 27.7893C22.0686 24.5519 13.6226 25.9449 7.48913 30.5973C1.41071 35.2056 -1.01704 42.9744 0.386946 50.3466C1.30642 55.1697 3.828 60.0754 7.73162 63.1532C11.9766 66.5007 17.2343 66.9467 22.3602 65.6418C25.6637 64.7994 28.78 63.4009 31.9513 62.1786C34.4895 61.2041 37.1658 59.9102 39.9627 60.2241C42.7927 60.5434 44.7143 62.8614 47.1423 64.0892C50.1265 65.5977 53.6227 65.7299 56.8216 64.893C62.8174 63.3294 67.8662 59.0514 70.955 53.7438C72.5186 51.0569 74.0544 47.2854 74.5279 43.591L76.2844 45.7217C76.2844 45.7217 79.7531 41.3887 76.2844 36.6427H76.2791Z" fill="#305070"/>
<path d="M126.156 63.8909C126.156 63.8909 123.893 76.2955 121.696 85.5563C120.755 89.515 116.042 91.0347 113.388 87.9514C110.239 84.2956 106.781 80.2928 104.865 78.1235C102.696 75.4311 100.301 72.926 97.6196 70.7182C92.835 66.787 86.9548 64.4305 80.9645 63.0706C67.3045 59.9598 52.3288 61.3142 38.6799 65.2784C21.6669 70.2227 13.006 85.683 6.66331 95.9183C-0.951242 108.213 -0.307104 119.522 2.6275 125.732C7.39554 135.825 24.4583 137.383 36.962 124.163L36.6093 126.305H89.8781L90.4948 110.107C105.3 137.295 149.088 137.559 152.397 95.0594C153.162 85.2095 150.712 64.926 150.712 64.926L126.162 63.8854L126.156 63.8909Z" fill="#305070"/>
<path d="M80.9646 63.0761C69.4189 60.4499 56.9318 61.0115 45.1053 63.6377C50.2257 68.8242 61.0444 77.5289 69.0443 76.9123C76.8571 76.3066 81.003 68.7362 83.0347 63.5882C82.3465 63.401 81.6584 63.2303 80.9646 63.0761Z" fill="white"/>
<path d="M16.9482 134.107C15.8415 134.107 14.7459 134.024 13.6667 133.848C8.40866 133.011 4.25178 130.115 2.26418 125.909C-0.802559 119.423 -1.34207 108.086 6.32204 95.7091C6.67992 95.131 7.04881 94.5309 7.4232 93.9197C13.7329 83.6569 22.3717 69.595 38.5698 64.8876C49.0364 61.8483 64.8987 58.9963 81.0528 62.6742C87.8635 64.2213 93.5232 66.8256 97.8783 70.4043C100.45 72.5241 102.839 74.9632 105.179 77.8647C106.765 79.6541 109.634 82.9631 113.697 87.6816C114.776 88.9369 116.29 89.4435 117.842 89.0636C119.544 88.6506 120.871 87.2687 121.3 85.4573C123.469 76.3121 125.732 63.935 125.754 63.8139C125.793 63.6157 125.969 63.4725 126.167 63.4835L150.718 64.5242C150.916 64.5352 151.076 64.6838 151.103 64.882C151.125 65.0858 153.553 85.3196 152.788 95.0925C151.362 113.405 142.305 125.666 127.935 128.739C125.727 129.212 123.502 129.438 121.283 129.438C109.226 129.438 97.4545 122.682 90.831 111.538L90.2697 126.321C90.2587 126.536 90.0822 126.712 89.8675 126.712H36.5987C36.4775 126.712 36.3677 126.663 36.2906 126.569C36.2135 126.481 36.1804 126.36 36.2024 126.239L36.3454 125.363C30.6414 130.979 23.6489 134.101 16.9428 134.101L16.9482 134.107ZM65.0305 61.7547C54.9163 61.7547 45.678 63.6707 38.7902 65.6749C22.8894 70.2942 14.3441 84.1964 8.10605 94.3547C7.73166 94.9658 7.36277 95.5659 7.00489 96.144C-0.488534 108.246 0.01798 119.28 2.99112 125.573C4.8631 129.537 8.79983 132.262 13.7936 133.055C21.5293 134.288 30.0798 130.864 36.6648 123.899C36.7859 123.767 36.9788 123.734 37.1385 123.816C37.2982 123.893 37.3859 124.07 37.3584 124.246L37.0831 125.914H89.4874L90.0879 110.101C90.0934 109.92 90.2197 109.765 90.4014 109.721C90.5776 109.677 90.7596 109.76 90.8477 109.92C98.2915 123.596 113.476 131.012 127.775 127.957C141.771 124.967 150.591 112.97 151.99 95.0374C152.689 86.0409 150.663 68.0258 150.349 65.328L126.492 64.3149C126.107 66.3906 124.064 77.3472 122.093 85.6555C121.592 87.7642 120.039 89.3719 118.035 89.8619C116.202 90.3079 114.352 89.6968 113.085 88.2212C109.028 83.5082 106.159 80.2047 104.563 78.3988C102.245 75.5248 99.8937 73.1187 97.3665 71.0375C93.1105 67.5358 87.5605 64.9921 80.8764 63.4725C75.5028 62.2502 70.1569 61.7547 65.0365 61.7547H65.0305Z" fill="#305070"/>
<path d="M89.8728 126.31H36.604C36.604 126.31 34.0108 132.301 33.0032 140.587H94.6797L89.8728 126.31Z" fill="white"/>
<mask id="path-15-inside-1_110_661" fill="white">
<path d="M94.6796 140.994C94.5089 140.994 94.3546 140.89 94.294 140.719L89.5813 126.718H36.8738C36.3893 127.918 34.2807 133.435 33.4053 140.642C33.3777 140.862 33.1738 141.022 32.9536 140.994C32.7334 140.967 32.5739 140.769 32.6014 140.543C33.6035 132.29 36.2077 126.217 36.2297 126.156C36.2958 126.008 36.4389 125.914 36.5985 125.914H89.8673C90.038 125.914 90.1978 126.024 90.2529 126.189L95.0592 140.466C95.1307 140.675 95.0151 140.906 94.8059 140.978C94.7619 140.994 94.7181 141 94.6796 141V140.994Z"/>
</mask>
<path d="M94.6796 140.994C94.5089 140.994 94.3546 140.89 94.294 140.719L89.5813 126.718H36.8738C36.3893 127.918 34.2807 133.435 33.4053 140.642C33.3777 140.862 33.1738 141.022 32.9536 140.994C32.7334 140.967 32.5739 140.769 32.6014 140.543C33.6035 132.29 36.2077 126.217 36.2297 126.156C36.2958 126.008 36.4389 125.914 36.5985 125.914H89.8673C90.038 125.914 90.1978 126.024 90.2529 126.189L95.0592 140.466C95.1307 140.675 95.0151 140.906 94.8059 140.978C94.7619 140.994 94.7181 141 94.6796 141V140.994Z" fill="#305070"/>
<path d="M94.6796 140.994H95.6796V139.994H94.6796V140.994ZM94.294 140.719L93.3463 141.038L93.3489 141.046L93.3516 141.054L94.294 140.719ZM89.5813 126.718L90.5291 126.399L90.2998 125.718H89.5813V126.718ZM36.8738 126.718V125.718H36.1991L35.9465 126.344L36.8738 126.718ZM33.4053 140.642L34.3975 140.766L34.398 140.763L33.4053 140.642ZM32.6014 140.543L33.5941 140.664L33.5941 140.664L32.6014 140.543ZM36.2297 126.156L35.3159 125.75L35.3018 125.782L35.2899 125.815L36.2297 126.156ZM90.2529 126.189L89.3042 126.506L89.3051 126.508L90.2529 126.189ZM95.0592 140.466L94.1114 140.785L94.113 140.79L95.0592 140.466ZM94.8059 140.978L94.4822 140.032L94.4684 140.037L94.4548 140.042L94.8059 140.978ZM94.6796 141H93.6796V142H94.6796V141ZM94.6796 139.994C94.9296 139.994 95.1546 140.154 95.2365 140.385L93.3516 141.054C93.5547 141.626 94.0882 141.994 94.6796 141.994V139.994ZM95.2418 140.4L90.5291 126.399L88.6335 127.037L93.3463 141.038L95.2418 140.4ZM89.5813 125.718H36.8738V127.718H89.5813V125.718ZM35.9465 126.344C35.4442 127.588 33.3025 133.195 32.4126 140.522L34.398 140.763C35.2589 133.675 37.3344 128.248 37.8011 127.092L35.9465 126.344ZM32.413 140.518C32.4535 140.194 32.746 139.961 33.0776 140.002L32.8296 141.987C33.6017 142.083 34.302 141.531 34.3975 140.766L32.413 140.518ZM33.0776 140.002C33.3959 140.042 33.6343 140.334 33.5941 140.664L31.6088 140.422C31.5135 141.203 32.0709 141.892 32.8296 141.987L33.0776 140.002ZM33.5941 140.664C34.5798 132.545 37.1381 126.584 37.1695 126.498L35.2899 125.815C35.2981 125.792 34.6154 127.396 33.8265 129.986C33.0349 132.585 32.1184 136.224 31.6087 140.422L33.5941 140.664ZM37.1435 126.562C37.0518 126.769 36.8407 126.914 36.5985 126.914V124.914C36.037 124.914 35.5397 125.247 35.3159 125.75L37.1435 126.562ZM36.5985 126.914H89.8673V124.914H36.5985V126.914ZM89.8673 126.914C89.6229 126.914 89.39 126.763 89.3042 126.506L91.2015 125.873C91.0056 125.285 90.4531 124.914 89.8673 124.914V126.914ZM89.3051 126.508L94.1114 140.785L96.0069 140.147L91.2006 125.87L89.3051 126.508ZM94.113 140.79C94.0029 140.468 94.1775 140.136 94.4822 140.032L95.1296 141.924C95.8527 141.677 96.2586 140.883 96.0053 140.142L94.113 140.79ZM94.4548 140.042C94.5455 140.008 94.6248 140 94.6796 140V142C94.8114 142 94.9782 141.981 95.157 141.914L94.4548 140.042ZM95.6796 141V140.994H93.6796V141H95.6796Z" fill="#305070" mask="url(#path-15-inside-1_110_661)"/>
<path d="M104.871 84.5764C104.827 84.5764 104.777 84.5709 104.733 84.5543C104.629 84.5158 104.541 84.4332 104.497 84.3341C104.419 84.1579 104.48 83.9487 104.64 83.8386C104.799 83.7284 105.019 83.7505 105.157 83.8882C105.294 84.0203 105.317 84.2295 105.218 84.3947C105.141 84.5158 105.014 84.5818 104.876 84.5818L104.871 84.5764Z" fill="#305070"/>
<path d="M36.9622 124.576C36.8465 124.576 36.7361 124.527 36.6535 124.438C36.5049 124.268 36.5269 124.015 36.6976 123.866C36.7582 123.811 42.9688 118.366 44.5655 111.048C44.615 110.828 44.8298 110.696 45.0445 110.74C45.2648 110.789 45.4027 111.004 45.3532 111.219C43.7014 118.806 37.4904 124.251 37.2262 124.477C37.1491 124.543 37.0558 124.576 36.9622 124.576Z" fill="white"/>
<path d="M74.6434 51.8544C78.3259 46.1642 76.6984 38.566 71.0082 34.8834C65.318 31.2008 57.7199 32.8284 54.0373 38.5186C50.3547 44.2088 51.9822 51.807 57.6724 55.4895C63.3626 59.1721 70.9608 57.5446 74.6434 51.8544Z" fill="#305070"/>
<path d="M57.5815 63.7368L57.9885 61.6611C68.1963 61.072 60.8188 46.3439 60.8188 46.3439C66.4898 45.1767 67.2495 39.1258 67.4312 35.8553C67.4808 34.9523 68.3343 34.3082 69.2152 34.5174C71.0542 34.9524 73.7517 35.7782 74.4345 37.5841C77.6278 46.0356 82.1374 54.0686 72.9096 56.849L71.3401 64.5462L57.5815 63.7423V63.7368Z" fill="white"/>
<path d="M71.7918 62.7238C71.7918 62.7238 71.7365 62.7238 71.709 62.7182C71.4887 62.6742 71.3514 62.4595 71.3955 62.2392L72.5133 56.7665C72.5408 56.6233 72.6508 56.5022 72.794 56.4581C75.1835 55.7369 76.7032 54.6412 77.4465 53.1051C78.9331 50.0218 77.1048 45.4245 75.1668 40.5573C74.7924 39.6213 74.4182 38.6743 74.0548 37.7218C73.3721 35.9159 70.1673 35.1561 69.1157 34.9028C68.8129 34.8313 68.4996 34.8974 68.2463 35.0846C67.993 35.2718 67.844 35.558 67.8275 35.8719C67.7008 38.1678 67.3266 45.0391 61.3968 46.6192C62.2667 48.4967 65.2343 55.5222 62.9604 59.4478C62.0354 61.05 60.367 61.9254 58.0105 62.0631C57.7903 62.0741 57.598 61.9034 57.5815 61.6831C57.5705 61.4629 57.7408 61.2702 57.9611 61.2537C60.0313 61.1325 61.4796 60.3893 62.2614 59.0404C64.6234 54.9551 60.4939 46.6028 60.4554 46.5202C60.4003 46.41 60.4003 46.2779 60.4554 46.1623C60.5104 46.0466 60.6149 45.9696 60.736 45.942C64.6396 45.1382 66.6933 41.8292 67.0236 35.8278C67.0512 35.2773 67.3268 34.7707 67.7672 34.4404C68.2077 34.11 68.7693 33.9944 69.3034 34.121C71.3075 34.5945 74.0604 35.459 74.8092 37.4356C75.1671 38.3826 75.5413 39.3295 75.9157 40.26C77.9199 45.2978 79.8136 50.0549 78.1729 53.4575C77.3525 55.1533 75.745 56.37 73.2564 57.1574L72.188 62.3989C72.1495 62.5916 71.979 62.7238 71.7918 62.7238Z" fill="#305070"/>
<path d="M69.6391 57.5868C68.6425 57.5868 67.9987 57.4932 67.9492 57.4877C67.7289 57.4547 67.5747 57.251 67.6077 57.0307C67.6408 56.8105 67.839 56.6563 68.0648 56.6894C68.0868 56.6894 70.2505 56.9977 72.8162 56.4471C73.031 56.403 73.2513 56.5407 73.2953 56.7555C73.3449 56.9757 73.2014 57.1904 72.9867 57.2345C71.7038 57.5097 70.5257 57.5813 69.6337 57.5813L69.6391 57.5868Z" fill="#305070"/>
<path d="M72.0232 61.2482C72.0232 61.2482 71.4889 61.8373 69.6665 61.0665C67.8441 60.3012 68.0094 57.0858 68.0094 57.0858L72.9044 56.8436L72.0232 61.2482Z" fill="#305070"/>
<path d="M58.1259 47.9846C58.5499 49.9502 60.4826 51.2056 62.4537 50.7871C64.4193 50.3632 65.6745 48.4306 65.2561 46.4595C64.8321 44.4939 62.8999 43.2386 60.9289 43.6571C58.9633 44.081 57.7075 46.0135 58.1259 47.9846Z" fill="white"/>
<path d="M62.4812 48.1278C62.3821 48.1278 62.2884 48.0948 62.2113 48.0232L60.516 46.4761C60.3509 46.3274 60.3394 46.0686 60.4881 45.9034C60.6367 45.7383 60.8955 45.7273 61.0607 45.876L62.7565 47.4231C62.9217 47.5717 62.9326 47.8305 62.784 47.9957C62.7014 48.0838 62.5967 48.1278 62.4866 48.1278H62.4812Z" fill="#305070"/>
<path d="M62.4539 52.505C63.4027 52.505 64.1718 51.7359 64.1718 50.7871C64.1718 49.8384 63.4027 49.0693 62.4539 49.0693C61.5052 49.0693 60.7361 49.8384 60.7361 50.7871C60.7361 51.7359 61.5052 52.505 62.4539 52.505Z" fill="#84B6CF"/>
<path d="M74.5942 47.5277C74.4456 47.5277 74.3024 47.4451 74.2308 47.3019L71.8306 42.3522C71.7315 42.154 71.8195 41.9117 72.0177 41.8126C72.2214 41.7135 72.4634 41.8016 72.557 41.9998L74.9577 46.9495C75.0568 47.1477 74.9688 47.39 74.7706 47.4891C74.7155 47.5166 74.6548 47.5277 74.5942 47.5277Z" fill="#305070"/>
<path d="M66.732 44.6756C66.7981 45.1216 67.2162 45.4299 67.6622 45.3638C68.1082 45.2978 68.4165 44.8794 68.3504 44.4334C68.2844 43.9874 67.8662 43.6791 67.4203 43.7452C66.9743 43.8112 66.666 44.2296 66.732 44.6756Z" fill="#305070"/>
<path d="M73.0525 42.7596C73.1185 43.2056 73.5372 43.5139 73.9832 43.4478C74.4292 43.3818 74.7375 42.9633 74.6714 42.5174C74.6053 42.0714 74.1867 41.7631 73.7407 41.8291C73.2947 41.8952 72.9864 42.3136 73.0525 42.7596Z" fill="#305070"/>
<path d="M90.4895 110.514C90.2528 110.509 90.0769 110.322 90.0879 110.096L90.3352 101.832C90.3407 101.611 90.5173 101.424 90.7541 101.441C90.9798 101.446 91.1505 101.633 91.145 101.859L90.8971 110.123C90.8916 110.344 90.7096 110.514 90.4949 110.514H90.4895Z" fill="white"/>
<path d="M91.2218 85.6224C90.9851 85.6169 90.8092 85.4297 90.8202 85.204L90.974 80.3203C90.9795 80.1001 91.1614 79.9294 91.3762 79.9294C91.6129 79.9349 91.7888 80.1221 91.7778 80.3479L91.624 85.2315C91.6185 85.4518 91.4366 85.6224 91.2218 85.6224Z" fill="white"/>
<path d="M103.362 67.1614C104.81 71.5441 109.529 73.9225 113.911 72.4745C118.294 71.0265 120.673 66.308 119.225 61.9254C117.777 57.5428 113.058 55.1642 108.675 56.6123C104.293 58.0603 101.914 62.7788 103.362 67.1614Z" fill="white"/>
<path d="M111.301 73.3004C107.623 73.3004 104.194 70.966 102.982 67.2881C101.468 62.7018 103.968 57.741 108.554 56.2269C110.773 55.4946 113.146 55.6708 115.238 56.7224C117.325 57.774 118.883 59.5745 119.615 61.7988C120.348 64.0177 120.171 66.3906 119.12 68.4828C118.068 70.5695 116.268 72.1277 114.043 72.86C113.135 73.1573 112.21 73.3004 111.307 73.3004H111.301ZM103.747 67.0348C105.124 71.1972 109.628 73.4656 113.785 72.0892C115.8 71.423 117.435 70.0135 118.393 68.1195C119.351 66.2255 119.505 64.0672 118.844 62.0521C118.178 60.0369 116.769 58.4017 114.875 57.4437C112.981 56.4912 110.823 56.3315 108.807 56.9977C104.645 58.3686 102.376 62.8724 103.753 67.0348H103.747Z" fill="#305070"/>
<path d="M112.844 58.7375C111.731 58.8531 110.701 59.7231 110.454 61.3033C110.426 61.4904 110.173 61.5785 110.035 61.4409C108.874 60.3232 107.569 60.2131 106.6 60.7746C105.355 61.5014 104.997 62.8834 105.537 64.0617C106.154 65.4106 107.618 66.3741 108.846 67.2055C109.347 67.5413 111.412 68.7636 112.414 69.3528C112.695 69.5179 113.086 69.3913 113.212 69.0885C113.669 68.0204 114.616 65.818 114.82 65.2509C115.321 63.8524 115.932 62.2172 115.635 60.7582C115.376 59.4863 114.269 58.5834 112.838 58.7375H112.844Z" fill="#84B6CF"/>
<path d="M149.595 48.2434C149.595 48.2434 150.47 45.5291 148.384 43.9599C146.28 42.3853 144.023 43.2276 144.023 43.2276C144.023 43.2276 144.034 40.9097 141.199 40.6069C138.104 40.2765 136.034 42.8588 136.034 42.8588C136.667 37.4356 139.717 31.0322 136.188 30.3495C130.682 29.2814 129.972 39.748 128.667 45.2428C127.555 49.9227 126.762 60.081 126.156 63.8855C125.099 70.52 129.565 76.7801 136.183 77.9419C143.39 79.2082 150.101 73.9446 150.591 66.6439C150.767 64.0121 150.883 62.2778 150.883 62.2778C150.883 62.2778 151.973 58.5503 153.113 55.6323C155.756 48.8381 149.595 48.2434 149.595 48.2434Z" fill="white"/>
<path d="M138.302 78.5364C137.57 78.5364 136.838 78.4759 136.111 78.3437C129.317 77.149 124.67 70.6411 125.754 63.8249C125.969 62.4704 126.206 60.3342 126.481 57.8566C126.96 53.5455 127.549 48.1828 128.271 45.1546C128.502 44.1746 128.717 43.0294 128.948 41.8181C129.785 37.3529 130.738 32.293 133.353 30.5147C134.206 29.9366 135.186 29.7493 136.265 29.9531C136.948 30.0852 137.46 30.4156 137.796 30.9331C138.732 32.3756 138.109 35.0184 137.388 38.0797C137.102 39.2854 136.81 40.5243 136.606 41.7355C137.542 40.9592 139.161 39.9847 141.242 40.2049C143.538 40.4527 144.182 41.9172 144.359 42.7156C145.184 42.5394 146.946 42.3742 148.626 43.635C150.404 44.9729 150.261 47.0101 150.09 47.913C150.9 48.0837 152.59 48.6068 153.531 50.1319C154.407 51.5579 154.396 53.4519 153.493 55.7754C152.441 58.4787 151.411 61.9254 151.29 62.3494L150.999 66.6714C150.757 70.2667 148.995 73.6032 146.159 75.8276C143.907 77.595 141.133 78.5364 138.308 78.5364H138.302ZM135.423 30.6854C134.828 30.6854 134.294 30.8505 133.799 31.1864C131.464 32.772 130.506 37.8705 129.735 41.9668C129.504 43.1891 129.289 44.3453 129.052 45.3419C128.342 48.3205 127.753 53.6557 127.28 57.9447C127.004 60.4333 126.768 62.5806 126.547 63.9515C125.534 70.3327 129.884 76.4277 136.243 77.5454C139.563 78.129 142.993 77.2701 145.647 75.1889C148.301 73.1077 149.953 69.9804 150.178 66.6164L150.47 62.2502C150.47 62.2227 150.475 62.1896 150.486 62.1621C150.497 62.1236 151.599 58.3796 152.727 55.4835C153.531 53.4134 153.57 51.7561 152.838 50.5614C151.814 48.8876 149.567 48.6454 149.545 48.6399C149.424 48.6288 149.314 48.5627 149.248 48.4581C149.182 48.359 149.165 48.2269 149.198 48.1112C149.231 48.0121 149.958 45.6447 148.13 44.2737C146.231 42.8477 144.171 43.591 144.155 43.5965C144.028 43.6405 143.891 43.6241 143.781 43.547C143.67 43.4699 143.61 43.3488 143.61 43.2111C143.61 43.134 143.566 41.2565 141.143 40.9978C138.313 40.695 136.359 43.0789 136.342 43.101C136.227 43.2386 136.034 43.2881 135.869 43.2221C135.703 43.1505 135.605 42.9799 135.627 42.8037C135.814 41.185 136.21 39.5057 136.596 37.8815C137.245 35.123 137.862 32.5133 137.113 31.3571C136.898 31.0267 136.574 30.823 136.111 30.7349C135.874 30.6909 135.648 30.6688 135.428 30.6688L135.423 30.6854Z" fill="#305070"/>
<path d="M49.4431 55.9571L13.9361 69.7436L30.4666 112.318L65.9737 98.5313L49.4431 55.9571Z" fill="white"/>
<path d="M30.4759 112.755C30.4209 112.755 30.3659 112.744 30.3109 112.722C30.2117 112.678 30.1349 112.601 30.0963 112.496L13.5676 69.9254C13.485 69.7161 13.5895 69.4849 13.7988 69.4023L49.3059 55.6157C49.405 55.5772 49.5149 55.5772 49.614 55.6212C49.7131 55.6653 49.7906 55.7424 49.8291 55.847L66.3573 98.418C66.4399 98.6272 66.3353 98.8585 66.1261 98.9411L30.6189 112.728C30.5749 112.744 30.5201 112.755 30.4705 112.755H30.4759ZM14.4703 70.008L30.7071 111.825L65.4599 98.3299L49.2231 56.5132L14.4703 70.008Z" fill="#305070"/>
<path d="M37.3307 57.8125L24.1275 62.9385C22.4647 63.5826 21.6444 65.4546 22.2886 67.1118C22.9328 68.7746 24.8048 69.595 26.4621 68.9508L39.6653 63.8249C41.328 63.1807 42.1483 61.3088 41.5041 59.6515C40.8599 57.9887 38.9879 57.1683 37.3307 57.8125Z" fill="#84B6CF"/>
<path d="M7.76466 105.041C7.616 105.041 7.46726 104.959 7.40119 104.81C7.30208 104.607 7.39009 104.37 7.5883 104.271C8.07832 104.034 19.7398 98.451 26.6 97.3884C26.8203 97.3553 27.0294 97.5041 27.0625 97.7243C27.0955 97.9445 26.9472 98.1537 26.7269 98.1868C19.9823 99.2329 8.06214 104.937 7.94102 104.997C7.88596 105.025 7.82522 105.036 7.76466 105.036V105.041Z" fill="white"/>
<path d="M62.7735 93.5343C61.81 90.9245 59.4372 92.323 59.4372 92.323C59.4372 92.323 63.1974 90.0326 61.5842 87.8743C59.971 85.7161 56.6623 87.098 56.6623 87.098C58.0607 86.3933 58.8919 84.6424 57.4053 82.6548C55.9188 80.6672 53.5018 81.9446 51.2995 82.9246C49.0971 83.8991 43.3542 87.8578 43.3542 87.8578C43.3542 87.8578 44.8793 78.9879 41.0142 78.9879C37.1491 78.9879 34.9087 89.7408 32.8991 92.6534C32.0952 93.8151 29.4963 95.8137 26.6663 97.7958C21.7551 101.231 20.4394 107.938 23.7209 112.953C27.2666 118.371 34.6442 119.61 39.7647 115.679C42.0826 113.9 44.1255 112.194 44.9624 111.136C47.3794 108.075 58.5338 104.502 60.191 101.369C61.8483 98.2363 58.3688 98.0986 58.3688 98.0986C58.3688 98.0986 63.7424 96.1495 62.7789 93.5398L62.7735 93.5343Z" fill="white"/>
<path d="M32.9812 118.377C32.3426 118.377 31.7042 118.322 31.0655 118.217C27.8831 117.677 25.1575 115.888 23.3901 113.185C19.9655 107.949 21.3037 101.05 26.4296 97.4599C30.6636 94.4978 32.1004 93.0829 32.5629 92.4222C33.1906 91.5137 33.8734 89.7188 34.6002 87.8138C36.2519 83.4862 38.1237 78.586 41.0088 78.5805C41.7741 78.5805 42.413 78.8778 42.903 79.4559C44.3731 81.1958 44.092 85.193 43.8773 87.0044C45.518 85.8922 49.378 83.3265 51.1343 82.5502L51.58 82.352C53.7218 81.3885 56.15 80.2983 57.7246 82.4126C58.6661 83.6734 58.6715 84.736 58.5118 85.4132C58.4347 85.7325 58.3084 86.0298 58.1322 86.3051C59.3159 86.1455 60.8849 86.2721 61.9035 87.6321C62.3219 88.1937 62.4704 88.8048 62.3438 89.46C62.1897 90.2639 61.6281 90.9961 61.0555 91.5577C61.2372 91.5742 61.4243 91.6128 61.6115 91.6788C62.3052 91.9266 62.8287 92.5047 63.1536 93.3966C63.3683 93.9747 63.3407 94.5639 63.0654 95.153C62.4707 96.4359 60.8024 97.4214 59.6517 97.9775C60.0811 98.1537 60.5213 98.4455 60.7856 98.908C61.182 99.6017 61.0999 100.494 60.5383 101.556C59.6023 103.324 56.15 105.063 52.4941 106.913C49.4769 108.433 46.3605 110.008 45.2704 111.39C44.5106 112.353 42.7375 113.906 40.0012 116.004C37.9805 117.556 35.4975 118.382 32.9759 118.382L32.9812 118.377ZM41.0088 79.3899C38.6743 79.3899 36.8356 84.2184 35.3545 88.1C34.5782 90.1372 33.9064 91.8936 33.2237 92.8791C32.5025 93.9252 30.3717 95.6871 26.892 98.1207C22.124 101.457 20.8796 107.871 24.0509 112.722C25.7027 115.249 28.2411 116.906 31.1978 117.413C34.1654 117.92 37.1163 117.187 39.5113 115.348C42.1982 113.289 43.9213 111.781 44.637 110.872C45.8373 109.352 48.8932 107.811 52.1306 106.176C55.5112 104.469 59.0132 102.702 59.828 101.165C60.252 100.362 60.3398 99.7339 60.092 99.2989C59.7396 98.6768 58.7156 98.5005 58.3467 98.484C58.154 98.473 57.9941 98.3298 57.9666 98.1427C57.939 97.9499 58.044 97.7683 58.2257 97.7022C58.2588 97.6912 61.5567 96.4744 62.3331 94.8006C62.5148 94.4097 62.5309 94.0408 62.3933 93.6664C62.151 93.0112 61.7991 92.5983 61.3421 92.4331C60.5493 92.1468 59.6514 92.6589 59.6404 92.6644C59.4477 92.7745 59.2054 92.7139 59.0898 92.5212C58.9742 92.3285 59.0347 92.0863 59.2274 91.9706C59.2495 91.9596 61.2869 90.6988 61.5567 89.3003C61.6392 88.8764 61.5401 88.4855 61.2593 88.1111C59.8553 86.2336 56.8435 87.4559 56.8159 87.4669C56.6177 87.5495 56.3864 87.4614 56.2928 87.2632C56.1992 87.065 56.2822 86.8337 56.4804 86.7346C57.1246 86.4098 57.5812 85.8592 57.7354 85.2205C57.9061 84.4937 57.6805 83.6899 57.0859 82.8916C55.9792 81.4105 54.3221 82.0051 51.9161 83.0842L51.4644 83.288C49.3172 84.2405 43.6409 88.1441 43.5859 88.1826C43.4537 88.2762 43.2772 88.2762 43.1396 88.1882C43.0019 88.1001 42.9303 87.9404 42.9578 87.7807C42.9689 87.7202 43.9379 81.928 42.2917 79.9734C41.9558 79.577 41.5431 79.3843 41.0201 79.3843L41.0088 79.3899Z" fill="#305070"/>
<path d="M43.8664 93.9362C43.7177 93.9362 43.5745 93.8536 43.5029 93.716C43.4038 93.5178 43.4809 93.2755 43.6846 93.1709L57.2234 86.3657C57.4271 86.2666 57.664 86.3437 57.7686 86.5474C57.8677 86.7456 57.7906 86.9879 57.5868 87.0925L44.0481 93.8977C43.9875 93.9252 43.9269 93.9417 43.8664 93.9417V93.9362Z" fill="#305070"/>
<path d="M38.7958 90.9576C38.6581 90.9576 38.5205 90.886 38.4489 90.7594C38.3333 90.5667 38.3993 90.3189 38.592 90.2088L43.1069 87.5605C43.2996 87.4448 43.5473 87.5109 43.6574 87.7036C43.7731 87.8963 43.7066 88.1441 43.5139 88.2542L38.9995 90.9025C38.9335 90.9411 38.8673 90.9576 38.7958 90.9576Z" fill="#305070"/>
<path d="M47.1976 98.4951C47.0489 98.4951 46.9002 98.407 46.8341 98.2639C46.7405 98.0601 46.8234 97.8234 47.0271 97.7243L60.9949 91.1393C61.1986 91.0457 61.4356 91.1283 61.5347 91.332C61.6283 91.5357 61.546 91.7725 61.3423 91.8716L47.3739 98.4565C47.3189 98.4841 47.258 98.4951 47.2029 98.4951H47.1976Z" fill="#305070"/>
<path d="M49.8021 103.274C49.6589 103.274 49.5209 103.197 49.4493 103.065C49.3392 102.872 49.4109 102.624 49.6036 102.514L58.1651 97.7352C58.3633 97.6251 58.6056 97.6967 58.7157 97.8894C58.8258 98.0821 58.7541 98.3299 58.5614 98.44L49.9999 103.219C49.9394 103.252 49.8681 103.269 49.8021 103.269V103.274Z" fill="#305070"/>
<path d="M74.2368 49.6474C73.0861 49.6474 72.3042 48.8987 72.2657 48.8601C72.106 48.706 72.1001 48.4472 72.2598 48.2875C72.4139 48.1278 72.6727 48.1223 72.8324 48.282C72.8709 48.3205 73.6641 49.0528 74.7213 48.7775C74.9415 48.7225 75.1559 48.8491 75.2165 49.0639C75.2715 49.2786 75.1451 49.4988 74.9304 49.5593C74.6882 49.6199 74.4623 49.6474 74.2476 49.6474H74.2368Z" fill="#305070"/>
<path d="M142.564 47.8415C142.503 47.8415 142.443 47.8305 142.382 47.7975C142.184 47.6984 142.101 47.4561 142.2 47.2579C143.131 45.3804 143.615 43.1671 143.621 43.1451C143.67 42.9248 143.885 42.7872 144.1 42.8367C144.32 42.8863 144.458 43.101 144.408 43.3157C144.386 43.4093 143.896 45.6447 142.922 47.6158C142.85 47.7589 142.707 47.8415 142.558 47.8415H142.564Z" fill="#305070"/>
<path d="M145.036 54.5916C144.469 54.5916 143.874 54.4265 143.257 54.1016C141.066 52.9399 141.413 49.0253 141.43 48.8601C141.452 48.6399 141.65 48.4747 141.87 48.4967C142.09 48.5187 142.256 48.7169 142.234 48.9371C142.234 48.9702 141.92 52.4774 143.637 53.3859C144.452 53.8153 145.168 53.8924 145.834 53.6226C147.112 53.0996 148.213 51.2992 149.209 48.1223C149.275 47.9076 149.501 47.792 149.716 47.858C149.931 47.9241 150.046 48.1499 149.98 48.3646C148.895 51.8333 147.673 53.7382 146.142 54.3714C145.785 54.52 145.416 54.5916 145.036 54.5916Z" fill="#305070"/>
<path d="M136.935 52.1758C136.937 52.1759 136.939 52.176 136.941 52.1762L136.935 52.176L136.935 52.1758Z" fill="#305070" stroke="#305070"/>
<path d="M149.446 59.0954C149.209 59.0954 148.962 59.0734 148.708 59.0294C144.64 58.3136 145.206 54.1732 145.212 54.1292C145.245 53.9089 145.443 53.7548 145.669 53.7878C145.889 53.8208 146.043 54.0245 146.01 54.2448C145.988 54.3824 145.565 57.6529 148.846 58.231C152.144 58.8091 153.069 54.5476 153.108 54.3659C153.152 54.1457 153.367 54.008 153.587 54.0521C153.807 54.0961 153.944 54.3108 153.9 54.5311C153.559 56.1938 152.199 59.0954 149.446 59.0954Z" fill="#305070"/>
<path d="M39.9683 6.06786C45.5999 6.06786 50.1659 10.634 50.1659 16.2656C50.1659 21.8972 45.5999 26.4635 39.9683 26.4635C34.3367 26.4635 29.7706 21.8972 29.7706 16.2656C29.7706 10.634 34.3367 6.06786 39.9683 6.06786Z" fill="#F9E2D2" stroke="#305070"/>
</svg>
