<svg width="183" height="145" viewBox="0 0 183 145" fill="none" xmlns="http://www.w3.org/2000/svg">
<path d="M143.157 39.0563C149.686 39.5954 154.542 45.3251 154.003 51.8542C153.464 58.3833 147.734 63.239 141.205 62.6999C134.675 62.1608 129.82 56.4311 130.359 49.902C130.898 43.3729 136.628 38.5172 143.157 39.0563Z" fill="#F9E2D2" stroke="#305070"/>
<path d="M98.7101 17.3749C121.17 39.8351 121.17 76.2501 98.7102 98.7102C76.2501 121.17 39.8351 121.17 17.3749 98.7101C-5.08531 76.2499 -5.08546 39.8349 17.3747 17.3747C39.8349 -5.08545 76.2499 -5.08531 98.7101 17.3749Z" fill="#F9E2D2" stroke="#305070"/>
<path d="M21.339 6.54091C27.8681 7.07999 32.7241 12.8097 32.185 19.3388C31.6459 25.868 25.916 30.7236 19.3868 30.1846C12.8577 29.6455 8.00182 23.9157 8.5409 17.3866C9.07999 10.8575 14.8099 6.00182 21.339 6.54091Z" fill="#F9E2D2" stroke="#305070"/>
<path d="M115.78 43.3782C123.613 43.3782 129.962 37.0287 129.962 29.1963C129.962 21.3638 123.613 15.0144 115.78 15.0144C107.948 15.0144 101.598 21.3638 101.598 29.1963C101.598 37.0287 107.948 43.3782 115.78 43.3782Z" fill="#305070"/>
<path d="M149.177 129.959H77.58L69.8052 144.535H150.042L149.177 129.959Z" fill="white"/>
<path d="M69.7818 144.521C69.7818 144.521 69.7819 144.52 69.7819 144.52L69.7818 144.521Z" fill="#305070" stroke="#305070"/>
<mask id="path-7-inside-1_113_1090" fill="white">
<path d="M100.396 144.999C100.135 144.999 99.9311 144.789 99.9311 144.535C99.9311 142.976 99.149 141.417 97.7365 140.158L94.262 137.065C94.0712 136.894 94.0524 136.601 94.2241 136.404C94.3959 136.213 94.6886 136.194 94.8859 136.366L98.3597 139.458C99.9758 140.902 100.867 142.703 100.867 144.535C100.867 144.796 100.657 144.999 100.402 144.999H100.396Z"/>
</mask>
<path d="M100.396 144.999C100.135 144.999 99.9311 144.789 99.9311 144.535C99.9311 142.976 99.149 141.417 97.7365 140.158L94.262 137.065C94.0712 136.894 94.0524 136.601 94.2241 136.404C94.3959 136.213 94.6886 136.194 94.8859 136.366L98.3597 139.458C99.9758 140.902 100.867 142.703 100.867 144.535C100.867 144.796 100.657 144.999 100.402 144.999H100.396Z" fill="#305070"/>
<path d="M97.7365 140.158L98.4022 139.411L98.4013 139.411L97.7365 140.158ZM94.262 137.065L93.5931 137.809L93.5972 137.812L94.262 137.065ZM94.2241 136.404L93.4808 135.735L93.4754 135.741L93.4701 135.747L94.2241 136.404ZM94.8859 136.366L95.5508 135.619L95.5426 135.611L94.8859 136.366ZM98.3597 139.458L99.0261 138.712L99.0246 138.711L98.3597 139.458ZM100.396 143.999C100.695 143.999 100.931 144.245 100.931 144.535H98.9311C98.9311 145.334 99.5746 145.999 100.396 145.999V143.999ZM100.931 144.535C100.931 142.631 99.9776 140.816 98.4022 139.411L97.0709 140.904C98.3204 142.018 98.9311 143.322 98.9311 144.535H100.931ZM98.4013 139.411L94.9269 136.318L93.5972 137.812L97.0717 140.905L98.4013 139.411ZM94.931 136.322C95.1478 136.517 95.1633 136.848 94.9782 137.06L93.4701 135.747C92.9414 136.354 92.9945 137.27 93.5931 137.809L94.931 136.322ZM94.9674 137.073C94.773 137.289 94.4424 137.305 94.2291 137.12L95.5426 135.611C94.9348 135.082 94.0188 135.137 93.4808 135.735L94.9674 137.073ZM94.221 137.112L97.6949 140.205L99.0246 138.711L95.5507 135.619L94.221 137.112ZM97.6934 140.203C99.1405 141.497 99.8668 143.041 99.8668 144.535H101.867C101.867 142.364 100.811 140.307 99.0261 138.712L97.6934 140.203ZM99.8668 144.535C99.8668 144.234 100.114 143.999 100.402 143.999V145.999C101.199 145.999 101.867 145.358 101.867 144.535H99.8668ZM100.402 143.999H100.396V145.999H100.402V143.999Z" fill="#305070" mask="url(#path-7-inside-1_113_1090)"/>
<path d="M150.838 62.2556C145.061 56.4849 133.513 49.0917 119.808 49.9061L101.236 50.1542C89.8857 50.1542 80.9397 54.538 76.3587 60.7414C70.8679 68.1727 72.4714 74.3888 67.8968 77.6528C62.5014 81.5021 56.737 64.7625 56.737 64.7625L36.5424 68.5863C32.3813 99.2088 33.5712 110.515 40.4618 119.95C50.8835 134.228 70.7341 132.599 75.1751 122.171L73.7186 133.089H148.445C178.953 150.993 204.492 115.847 150.844 62.262L150.838 62.2556Z" fill="#305070"/>
<path d="M130.408 51.2359C126.997 50.0715 123.167 49.4607 119.26 49.7152C119.26 49.7152 99.149 49.9697 97.4757 50.2497L96.5021 50.9814C96.5021 50.9814 111.104 60.5823 130.408 51.2359Z" fill="white"/>
<path d="M164.001 138.287C159.141 138.287 153.745 136.722 148.312 133.553H73.7117C73.5781 133.553 73.451 133.496 73.3619 133.394C73.2728 133.292 73.2348 133.159 73.2476 133.025L74.3796 124.525C71.981 127.916 67.7563 130.207 62.6091 130.798C55.9031 131.568 46.4617 129.278 40.0802 120.536C32.9224 110.738 31.9871 98.5853 36.0781 68.5227C36.1036 68.3254 36.2562 68.1663 36.4534 68.1282L56.648 64.3043C56.8771 64.2598 57.0998 64.3934 57.1761 64.6097C57.2143 64.7243 61.2415 76.2785 65.4852 77.6401C66.2424 77.8818 66.9423 77.7609 67.6295 77.271C69.8372 75.6995 70.5306 73.3708 71.4022 70.425C72.2293 67.6319 73.26 64.158 75.9895 60.4614C80.9713 53.7109 90.4135 49.6834 101.242 49.6834L119.808 49.4353C132.934 48.6591 144.621 55.3778 151.175 61.9248C182.739 93.4507 187.536 119.639 178.285 131.613C174.862 136.041 169.817 138.287 164.008 138.287H164.001ZM74.2461 132.618H148.439C148.522 132.618 148.604 132.637 148.674 132.682C160.21 139.451 171.541 138.809 177.541 131.04C186.537 119.39 181.67 93.7053 150.507 62.5865C144.093 56.1795 132.66 49.6071 119.833 50.3706L101.242 50.6187C90.7062 50.6187 81.5439 54.5062 76.7339 61.0149C74.0998 64.5779 73.1394 67.8228 72.2932 70.6859C71.4088 73.6762 70.6387 76.2658 68.17 78.0218C67.2411 78.6835 66.2423 78.8489 65.1988 78.5181C60.9296 77.1501 57.1883 67.3838 56.4312 65.2842L36.9623 68.968C32.9667 98.5025 33.8828 110.439 40.8369 119.969C46.9831 128.387 56.0563 130.595 62.5078 129.857C68.3549 129.189 72.9292 126.237 74.7425 121.967C74.8316 121.751 75.0671 121.636 75.2961 121.7C75.5188 121.764 75.6653 121.98 75.6335 122.215L74.2461 132.605V132.618Z" fill="#305070"/>
<path d="M105.772 84.836C105.721 84.836 105.67 84.8296 105.619 84.8105C105.377 84.7278 105.25 84.4606 105.333 84.2125C109.208 73.2245 121.64 77.5446 131.635 81.0121C131.877 81.0949 132.011 81.3621 131.922 81.6039C131.839 81.8456 131.572 81.9792 131.33 81.8902C119.12 77.6528 109.519 75.1523 106.217 84.5179C106.147 84.7087 105.969 84.8296 105.778 84.8296L105.772 84.836Z" fill="#305070"/>
<path d="M53.6889 52.6165L52.8998 42.2203C52.7916 41.1132 52.3019 40.0825 51.513 39.2999C47.9309 35.7687 41.2951 31.6331 38.4065 29.9853C32.2922 26.505 30.4979 30.7615 30.3006 31.175C28.9391 34.0063 30.9238 38.74 30.9238 38.74C30.2239 40.2733 28.5447 41.0114 29.7663 47.0366C29.7663 47.0366 26.3937 49.7343 29.7594 54.4298C29.7594 54.4298 27.2208 58.8899 35.5938 60.735L36.8917 71.4494C37.6998 78.1172 44.4889 82.3165 50.8195 80.0578C55.8968 78.2445 58.7661 72.8746 57.4554 67.6447L53.6889 52.6229V52.6165Z" fill="white"/>
<path d="M47.2757 81.1394C45.2715 81.1394 43.2926 80.5859 41.5302 79.4979C38.6862 77.7419 36.8224 74.8278 36.4216 71.5066L35.1615 61.1168C31.9803 60.366 29.9891 59.1317 29.2383 57.4456C28.6657 56.154 29.0029 54.9897 29.2129 54.4743C26.3943 50.3388 28.5254 47.6156 29.2508 46.8712C28.3155 42.0167 29.2699 40.5215 30.0461 39.319C30.1797 39.1154 30.3071 38.9181 30.4089 38.7146C30.0335 37.7538 28.5894 33.6437 29.8746 30.9651C30.6508 29.3045 31.828 28.6428 32.6805 28.3756C34.3157 27.8538 36.3195 28.261 38.6354 29.5781C41.8739 31.4232 48.2998 35.4761 51.8437 38.969C52.709 39.8216 53.2564 40.9605 53.3709 42.1757L54.16 52.5402L57.9135 67.5238C59.2878 73.0146 56.3106 78.5881 50.9788 80.4904C49.7763 80.9231 48.5226 81.133 47.2819 81.133L47.2757 81.1394ZM34.15 29.0945C33.7237 29.0945 33.3292 29.1518 32.9601 29.2727C32.2857 29.489 31.3504 30.0171 30.7333 31.3341C29.4608 33.9809 31.3312 38.5109 31.3503 38.5618C31.4012 38.6827 31.4012 38.8164 31.3503 38.9372C31.2039 39.2617 31.0133 39.5544 30.8352 39.8343C30.1035 40.9732 29.2764 42.2648 30.2244 46.9476C30.2562 47.1194 30.1927 47.2975 30.0591 47.4057C29.9382 47.5075 27.0878 49.8997 30.1418 54.1626C30.2499 54.3089 30.2563 54.5062 30.1672 54.6652C30.1418 54.7098 29.5375 55.8232 30.1101 57.0893C30.7527 58.5145 32.6864 59.6216 35.6959 60.2833C35.8867 60.3278 36.0333 60.4869 36.0587 60.6841L37.3567 71.3985C37.7257 74.4334 39.4306 77.0992 42.0328 78.709C44.6351 80.3187 47.7847 80.6495 50.6669 79.6188C55.5405 77.8755 58.2699 72.7791 57.0101 67.7592L53.2436 52.7374C53.2436 52.7374 53.2311 52.6865 53.2311 52.661L52.4421 42.2648C52.3466 41.2786 51.9014 40.3433 51.1888 39.6435C47.7086 36.2141 41.1551 32.0976 38.1775 30.3988C36.6568 29.5335 35.314 29.1009 34.1624 29.1009L34.15 29.0945Z" fill="#305070"/>
<path d="M34.6078 56.6121C33.5071 56.6121 31.1912 56.3958 29.4352 54.767C29.2443 54.5889 29.2379 54.2962 29.4097 54.1053C29.5879 53.9145 29.8806 53.9081 30.0714 54.0799C32.0883 55.9568 35.1043 55.6578 35.1297 55.6514C35.3842 55.6196 35.6194 55.8105 35.6448 56.065C35.6703 56.3195 35.4861 56.5549 35.2316 56.5803C35.1998 56.5803 34.9642 56.6058 34.6016 56.6058L34.6078 56.6121Z" fill="#305070"/>
<path d="M33.6283 50.3642C33.6283 50.3642 33.5902 50.3642 33.5711 50.3642C33.4566 50.3515 30.7402 49.9824 29.3404 47.253C29.2259 47.0239 29.3146 46.744 29.5436 46.6231C29.7727 46.5022 30.0528 46.5976 30.1737 46.8267C31.3507 49.1235 33.6663 49.4353 33.6854 49.4353C33.9399 49.4671 34.1248 49.7025 34.093 49.957C34.0612 50.1924 33.8637 50.3642 33.6283 50.3642Z" fill="#305070"/>
<path d="M53.9948 50.5233L51.1634 53.2719L39.0871 38.161L30.9178 28.7509L32.7054 28.6301L53.9948 50.5233Z" fill="#305070"/>
<path d="M32.8773 28.8082L30.1285 31.6395L25.0895 26.4604L24.4023 23.5337C24.3132 23.1583 24.6631 22.8211 25.0385 22.9229L27.9209 23.7118L32.8773 28.8082Z" fill="#305070"/>
<path d="M38.4316 62.5165C38.298 62.5165 38.1646 62.4592 38.0756 62.3511C32.3812 55.5814 33.4183 45.4078 33.6728 43.4927C33.1829 43.1237 32.1714 42.1184 30.8035 39.5607C28.9138 36.0232 28.7734 31.7795 30.504 30.297C31.0512 29.8262 32.26 29.2536 34.1624 30.6788C38.5398 33.9618 51.023 52.2348 51.5511 53.011C51.6974 53.2209 51.6405 53.5136 51.4305 53.6599C51.2142 53.8063 50.9276 53.749 50.7812 53.5391C50.654 53.3482 37.8591 34.6171 33.6026 31.4295C32.8773 30.8887 31.8592 30.3733 31.1148 31.0096C29.8804 32.0721 29.8363 35.7623 31.6305 39.1217C33.3165 42.2839 34.3665 42.8374 34.3793 42.8438C34.5638 42.9328 34.6714 43.1428 34.6396 43.34C34.6205 43.4546 32.8966 54.7416 38.7882 61.753C38.9537 61.9502 38.9283 62.2429 38.7311 62.4083C38.642 62.4847 38.5334 62.5165 38.4316 62.5165Z" fill="#305070"/>
<path d="M98.9582 99.0243H129.148V63.9672L98.9582 63.9672V99.0243Z" fill="white"/>
<path d="M117.81 19.2454C117.492 16.3632 115.316 14.0536 112.669 12.9975C111.34 12.4694 109.851 12.5585 108.591 13.2456C107.579 13.7992 106.599 14.8171 106.606 15.9942C104.398 15.0016 101.662 16.0133 100.396 18.0556C98.4937 21.1351 98.9388 25.6206 101.999 27.8156C103.755 29.0754 105.632 28.7955 107.649 28.8909C110.334 29.0181 113.121 28.2165 115.106 26.3459C117.009 24.5581 118.096 21.8604 117.803 19.2454H117.81Z" fill="#305070"/>
<path d="M121.755 42.0612C114.324 40.7123 116.175 34.4771 116.175 34.4771C114.107 32.8229 115.017 28.6046 115.66 26.4541C115.857 25.786 115.431 25.0989 114.743 24.9844C108.47 23.9345 103.354 19.5572 101.917 24.5708C101.605 25.6651 101.548 25.8306 101.191 27.1921C98.5001 37.4739 94.9627 45.5033 105.378 46.1968L105.365 51.7894L121.761 51.2422V42.0612H121.755Z" fill="white"/>
<path d="M121.755 50.7205C121.494 50.7205 121.29 50.5105 121.29 50.256V41.8512C121.29 41.5904 121.5 41.3868 121.755 41.3868C122.009 41.3868 122.219 41.5967 122.219 41.8512V50.256C122.219 50.5169 122.009 50.7205 121.755 50.7205Z" fill="#305070"/>
<path d="M105.365 50.8796C105.104 50.8796 104.901 50.6696 104.901 50.4087V46.1904C104.907 45.9296 105.117 45.726 105.378 45.726C105.639 45.726 105.842 45.9359 105.842 46.1968V50.4151C105.836 50.676 105.626 50.8796 105.365 50.8796Z" fill="#305070"/>
<path d="M105.372 46.6612C102.184 46.4513 100.097 45.5669 98.9514 43.9508C96.8773 41.0241 98.2456 36.0868 99.8362 30.367C100.135 29.2981 100.441 28.1974 100.733 27.0712C100.797 26.8231 101.051 26.6704 101.306 26.7404C101.554 26.804 101.707 27.0585 101.637 27.313C101.338 28.4455 101.032 29.5526 100.733 30.6215C99.2128 36.1123 97.8955 40.8523 99.7088 43.4164C100.682 44.7843 102.54 45.5415 105.397 45.7323C105.651 45.7514 105.849 45.9741 105.83 46.2286C105.811 46.4767 105.607 46.6676 105.365 46.6676L105.372 46.6612Z" fill="#305070"/>
<path d="M110.512 29.3426C110.48 29.3426 110.449 29.3426 110.417 29.3299L100.161 27.1412C99.9062 27.0903 99.7469 26.8422 99.7978 26.5877C99.8551 26.3332 100.097 26.1741 100.351 26.2314L110.608 28.4201C110.862 28.471 111.022 28.7191 110.971 28.9736C110.926 29.1899 110.728 29.3426 110.512 29.3426Z" fill="#84B6CF"/>
<path d="M107.414 46.7567C106.771 46.7567 106.046 46.7312 105.321 46.6549C105.066 46.6294 104.881 46.394 104.907 46.1395C104.932 45.885 105.161 45.6941 105.422 45.726C107.445 45.9423 109.551 45.726 109.57 45.726C109.831 45.7005 110.054 45.885 110.086 46.1395C110.111 46.394 109.927 46.6231 109.672 46.6549C109.615 46.6549 108.661 46.7567 107.414 46.7567Z" fill="#305070"/>
<path d="M109.85 46.2095C109.85 46.2095 110.252 50.9877 105.747 49.8425L105.588 46.324L109.85 46.2095Z" fill="#305070"/>
<path d="M110.06 21.4977C110.06 24.8126 107.375 27.4975 104.061 27.4975C100.746 27.4975 98.061 24.8126 98.061 21.4977C98.061 18.1829 100.746 15.4979 104.061 15.4979C107.375 15.4979 110.06 18.1829 110.06 21.4977Z" fill="#305070"/>
<path d="M116.518 17.0504C116.518 19.8817 114.222 22.1785 111.391 22.1785C108.559 22.1785 106.262 19.8817 106.262 17.0504C106.262 14.2191 108.559 11.9222 111.391 11.9222C114.222 11.9222 116.518 14.2191 116.518 17.0504Z" fill="#305070"/>
<path d="M111.39 21.6568C108.305 21.6568 105.798 19.15 105.798 16.0642C105.798 12.9784 108.305 10.4716 111.39 10.4716C114.476 10.4716 116.983 12.9784 116.983 16.0642C116.983 19.15 114.476 21.6568 111.39 21.6568ZM111.39 11.4005C108.82 11.4005 106.733 13.4938 106.733 16.0578C106.733 18.6219 108.826 20.7152 111.39 20.7152C113.955 20.7152 116.047 18.6219 116.047 16.0578C116.047 13.4938 113.955 11.4005 111.39 11.4005Z" fill="#305070"/>
<path d="M123.415 60.7414H104.691V65.4687H123.415V60.7414Z" fill="#84B6CF"/>
<path d="M120.762 35.3615C120.762 37.6902 118.879 39.5735 116.55 39.5735C114.221 39.5735 112.338 37.6902 112.338 35.3615C112.338 33.0329 114.221 31.1496 116.55 31.1496C118.879 31.1496 120.762 33.0329 120.762 35.3615Z" fill="white"/>
<path d="M115.78 36.5831C115.685 36.5831 115.59 36.5577 115.507 36.494C115.297 36.3413 115.246 36.055 115.399 35.8451L116.939 33.6882C117.091 33.4782 117.377 33.4273 117.587 33.58C117.797 33.7327 117.848 34.019 117.695 34.229L116.156 36.3859C116.067 36.5131 115.92 36.5831 115.774 36.5831H115.78Z" fill="#305070"/>
<path d="M110.888 32.5493C110.888 33.071 110.468 33.4909 109.946 33.4909C109.424 33.4909 109.005 33.071 109.005 32.5493C109.005 32.0276 109.424 31.6077 109.946 31.6077C110.468 31.6077 110.888 32.0276 110.888 32.5493Z" fill="#305070"/>
<path d="M103.278 31.6077C103.278 32.1294 102.858 32.5493 102.336 32.5493C101.815 32.5493 101.395 32.1294 101.395 31.6077C101.395 31.086 101.815 30.666 102.336 30.666C102.858 30.666 103.278 31.086 103.278 31.6077Z" fill="#305070"/>
<path d="M109.812 38.3201C109.551 38.3201 109.291 38.301 109.03 38.2564C107.713 38.0465 106.561 37.3402 105.778 36.265C104.996 35.1897 104.677 33.8727 104.887 32.5557C105.097 31.2386 105.803 30.087 106.879 29.3045C107.954 28.5219 109.277 28.2038 110.588 28.4137C113.305 28.8464 115.163 31.4041 114.73 34.1208C114.342 36.5704 112.217 38.3264 109.812 38.3264V38.3201ZM109.8 29.2854C108.953 29.2854 108.126 29.5526 107.426 30.0616C106.548 30.6978 105.976 31.6395 105.804 32.702C105.632 33.7709 105.893 34.8398 106.529 35.7178C107.165 36.5958 108.107 37.1685 109.17 37.3402C111.384 37.6902 113.458 36.1823 113.808 33.9745C114.158 31.7667 112.643 29.6862 110.442 29.3363C110.226 29.3044 110.01 29.2854 109.8 29.2854Z" fill="#84B6CF"/>
<path d="M99.5557 36.1377C99.2948 36.1377 99.0343 36.1187 98.7734 36.0741C97.4564 35.8642 96.3045 35.1579 95.522 34.0827C94.7394 33.0074 94.421 31.6904 94.631 30.3733C95.0572 27.6566 97.6213 25.7987 100.332 26.2314C101.649 26.4414 102.801 27.1476 103.583 28.2228C104.366 29.2981 104.684 30.6151 104.474 31.9321C104.086 34.3817 101.961 36.1377 99.5557 36.1377ZM99.5557 27.103C97.596 27.103 95.8718 28.5282 95.5536 30.5197C95.3819 31.5886 95.6431 32.6575 96.2794 33.5355C96.9156 34.4135 97.8569 34.9861 98.9194 35.1579C101.134 35.5079 103.208 33.9936 103.558 31.7922C103.729 30.7233 103.469 29.6544 102.833 28.7764C102.196 27.8984 101.254 27.3257 100.192 27.1539C99.9756 27.1221 99.7656 27.103 99.5557 27.103Z" fill="#84B6CF"/>
<path d="M102.743 37.8429C102.699 37.8429 102.648 37.8365 102.603 37.8238C102.355 37.7475 102.222 37.4866 102.298 37.2385L104.27 30.9269C104.347 30.6788 104.608 30.5452 104.856 30.6215C105.104 30.6979 105.238 30.9587 105.161 31.2068L103.189 37.5184C103.125 37.7156 102.94 37.8492 102.743 37.8492V37.8429Z" fill="#305070"/>
<path d="M73.7117 133.553C73.7117 133.553 73.6865 133.553 73.6738 133.553C73.4193 133.534 73.2284 133.305 73.2475 133.051L78.5407 69.9606C78.5598 69.7061 78.8016 69.5088 79.0433 69.5343C79.2978 69.5534 79.495 69.7824 79.4696 70.0369L74.1764 133.127C74.1573 133.369 73.9534 133.553 73.7117 133.553Z" fill="white"/>
<path d="M176.007 104.07C175.861 104.07 175.715 104 175.626 103.872C168.398 93.6226 163.823 92.84 157.499 91.752C154.451 91.2303 150.997 90.6385 146.74 88.8507C146.505 88.7489 146.39 88.4753 146.492 88.2399C146.594 88.0045 146.868 87.89 147.103 87.9918C151.264 89.7351 154.661 90.3204 157.658 90.8294C163.963 91.911 168.938 92.7636 176.389 103.332C176.535 103.542 176.485 103.834 176.275 103.981C176.192 104.038 176.096 104.063 176.007 104.063V104.07Z" fill="white"/>
<path d="M148.083 88.6916L138.488 81.4957C138.488 81.4957 134.518 65.4559 129.689 65.9204C124.859 66.3849 129.141 77.6464 129.141 77.6464C129.141 77.6464 120.049 71.144 117.734 70.3678C115.418 69.5915 112.656 69.0444 111.091 71.373C109.704 73.4408 111.638 75.1141 113.827 76.3421C112.134 75.515 108.368 74.0707 106.847 76.6093C105.721 78.4926 107.611 80.3377 109.469 81.5848C108.126 81.0949 106.637 80.9549 105.765 82.1956C104.347 84.2252 105.995 86.1657 108.858 87.9727C108.043 88.7234 106.993 90.1995 108.069 92.2292C109.678 95.2641 121.487 100.399 121.487 100.399L132.507 109.013C138.348 113.582 146.836 112.245 150.997 106.106C154.827 100.449 153.541 92.7827 148.076 88.6789L148.083 88.6916Z" fill="white"/>
<path d="M140.358 112.207C137.425 112.207 134.594 111.234 132.228 109.389L121.252 100.806C120.266 100.373 109.284 95.5186 107.662 92.4519C106.612 90.4731 107.357 88.9589 108.133 88.0554C106.167 86.7384 105.091 85.4977 104.837 84.257C104.678 83.4553 104.862 82.6728 105.384 81.922C105.791 81.343 106.485 80.7767 107.662 80.7513C105.664 78.8871 105.842 77.3665 106.447 76.3612C107.305 74.9233 108.934 74.4207 111.079 74.8597C110.633 74.3634 110.353 73.8608 110.226 73.3454C110.048 72.5946 110.207 71.8439 110.703 71.1058C112.453 68.4972 115.462 69.1016 117.88 69.916C119.744 70.5459 125.668 74.6242 128.226 76.4185C127.449 73.988 126.139 69.0062 127.564 66.703C128.028 65.9586 128.728 65.5323 129.638 65.4432C134.613 64.9597 138.316 78.9125 138.895 81.2094L148.356 88.3035C154.031 92.56 155.361 100.488 151.384 106.36C149.298 109.44 146.129 111.45 142.458 112.029C141.752 112.137 141.052 112.195 140.352 112.195L140.358 112.207ZM107.744 81.6993C107.045 81.6993 106.516 81.9538 106.16 82.4692C105.785 83.01 105.651 83.5381 105.766 84.0789C105.976 85.135 107.108 86.3121 109.119 87.5782C109.24 87.6546 109.322 87.7882 109.335 87.9282C109.348 88.0745 109.297 88.2145 109.189 88.3163C108.381 89.067 107.598 90.3204 108.495 92.0128C109.748 94.386 118.44 98.5598 121.685 99.9723C121.723 99.985 121.755 100.01 121.787 100.03L132.806 108.644C135.529 110.776 138.908 111.647 142.324 111.113C145.741 110.578 148.687 108.708 150.621 105.845C154.317 100.386 153.083 93.0118 147.809 89.0543L138.214 81.8584C138.125 81.7947 138.068 81.6993 138.043 81.5975C136.98 77.3092 133.481 66.3722 129.911 66.3722C129.854 66.3722 129.797 66.3721 129.746 66.3785C129.129 66.4358 128.683 66.7094 128.378 67.1993C127.01 69.407 128.791 75.3623 129.593 77.4746C129.663 77.6655 129.606 77.8818 129.44 78.0091C129.275 78.1363 129.052 78.1363 128.88 78.0218C128.791 77.9582 119.814 71.5512 117.594 70.8068C115.354 70.056 112.879 69.5661 111.486 71.6339C111.136 72.1556 111.027 72.6455 111.142 73.1354C111.352 74.0262 112.338 74.9678 114.062 75.9349C114.285 76.0558 114.368 76.3357 114.247 76.5584C114.132 76.7811 113.859 76.8702 113.63 76.762C112.16 76.0431 108.597 74.6179 107.255 76.8511C106.307 78.429 108.082 80.0832 109.736 81.1967C109.933 81.3303 109.997 81.5848 109.889 81.7947C109.781 82.0047 109.532 82.1001 109.31 82.0174C108.718 81.8011 108.196 81.6929 107.738 81.6929L107.744 81.6993Z" fill="#305070"/>
<path d="M127.328 83.6208C127.258 83.6208 127.188 83.6017 127.118 83.5699L113.624 76.762C113.395 76.6475 113.299 76.3676 113.414 76.1322C113.528 75.9031 113.815 75.8077 114.044 75.9285L127.538 82.7364C127.767 82.8509 127.863 83.1308 127.748 83.3663C127.666 83.5317 127.5 83.6208 127.328 83.6208Z" fill="#305070"/>
<path d="M131.482 79.4724C131.406 79.4724 131.324 79.4533 131.248 79.4088L128.913 78.0536C128.69 77.9264 128.613 77.64 128.741 77.4174C128.868 77.1947 129.154 77.1183 129.377 77.2456L131.712 78.6008C131.934 78.728 132.011 79.0143 131.884 79.237C131.795 79.3834 131.642 79.4724 131.476 79.4724H131.482Z" fill="#305070"/>
<path d="M123.479 88.8889C123.409 88.8889 123.339 88.8762 123.276 88.8443L109.272 82.0111C109.043 81.8965 108.947 81.6166 109.055 81.3875C109.17 81.1585 109.444 81.0567 109.679 81.1712L123.683 88.0045C123.912 88.119 124.013 88.399 123.899 88.628C123.816 88.7934 123.651 88.8889 123.479 88.8889Z" fill="#305070"/>
<path d="M120.463 94.4115C120.393 94.4115 120.317 94.3924 120.253 94.3606L108.654 88.399C108.425 88.2781 108.337 87.9982 108.451 87.7691C108.572 87.5401 108.845 87.451 109.081 87.5655L120.68 93.5271C120.909 93.648 120.998 93.928 120.883 94.157C120.801 94.3161 120.635 94.4115 120.47 94.4115H120.463Z" fill="#305070"/>
</svg>
