<svg width="167" height="44" viewBox="0 0 167 44" fill="none" xmlns="http://www.w3.org/2000/svg">
<path d="M4.6111 18.8C4.1711 18.0667 3.7711 17.34 3.4111 16.62C3.06443 15.9 2.7711 15.1733 2.5311 14.44C2.2911 13.7067 2.10443 12.9533 1.9711 12.18C1.8511 11.3933 1.7911 10.56 1.7911 9.68C1.7911 7.96 2.03776 6.33333 2.5311 4.8C3.03776 3.25333 3.7311 1.79333 4.6111 0.419999H5.6111C4.71776 1.86 4.06443 3.39333 3.6511 5.02C3.2511 6.64667 3.0511 8.35333 3.0511 10.14C3.0511 10.86 3.1111 11.6 3.2311 12.36C3.3511 13.12 3.52443 13.88 3.7511 14.64C3.97776 15.3867 4.24443 16.1133 4.5511 16.82C4.8711 17.5267 5.22443 18.1867 5.6111 18.8H4.6111ZM8.07532 10.3C8.06198 11.0333 8.17532 11.6467 8.41532 12.14C8.65532 12.6333 8.98198 13.0267 9.39532 13.32C9.82198 13.6133 10.322 13.8267 10.8953 13.96C11.4686 14.08 12.082 14.14 12.7353 14.14C13.1086 14.14 13.5153 14.0867 13.9553 13.98C14.3953 13.8733 14.802 13.7067 15.1753 13.48C15.562 13.24 15.882 12.94 16.1353 12.58C16.3886 12.2067 16.5153 11.76 16.5153 11.24C16.5153 10.84 16.422 10.4933 16.2353 10.2C16.062 9.90667 15.8286 9.66 15.5353 9.46C15.2553 9.26 14.942 9.1 14.5953 8.98C14.2486 8.84667 13.9086 8.74 13.5753 8.66L10.3953 7.88C9.98198 7.77333 9.57532 7.64 9.17532 7.48C8.78865 7.32 8.44865 7.10667 8.15532 6.84C7.86198 6.57333 7.62198 6.24667 7.43532 5.86C7.26198 5.47333 7.17532 5 7.17532 4.44C7.17532 4.09333 7.24198 3.68667 7.37532 3.22C7.50865 2.75333 7.75532 2.31333 8.11532 1.9C8.48865 1.48667 8.99532 1.14 9.63532 0.86C10.2753 0.566666 11.0953 0.419999 12.0953 0.419999C12.802 0.419999 13.4753 0.513333 14.1153 0.699999C14.7553 0.886666 15.3153 1.16667 15.7953 1.54C16.2753 1.91333 16.6553 2.38 16.9353 2.94C17.2286 3.48667 17.3753 4.12667 17.3753 4.86H16.0153C15.9886 4.31333 15.862 3.84 15.6353 3.44C15.422 3.02667 15.1353 2.68667 14.7753 2.42C14.4286 2.14 14.022 1.93333 13.5553 1.8C13.102 1.65333 12.622 1.58 12.1153 1.58C11.6486 1.58 11.1953 1.63333 10.7553 1.74C10.3286 1.83333 9.94865 1.99333 9.61532 2.22C9.29532 2.43333 9.03532 2.72 8.83532 3.08C8.63532 3.44 8.53532 3.88667 8.53532 4.42C8.53532 4.75333 8.58865 5.04667 8.69532 5.3C8.81532 5.54 8.97532 5.74667 9.17532 5.92C9.37532 6.09333 9.60198 6.23333 9.85532 6.34C10.122 6.44667 10.402 6.53333 10.6953 6.6L14.1753 7.46C14.682 7.59333 15.1553 7.76 15.5953 7.96C16.0486 8.14667 16.442 8.38667 16.7753 8.68C17.122 8.96 17.3886 9.30667 17.5753 9.72C17.7753 10.1333 17.8753 10.6333 17.8753 11.22C17.8753 11.38 17.8553 11.5933 17.8153 11.86C17.7886 12.1267 17.7086 12.4133 17.5753 12.72C17.4553 13.0133 17.2753 13.3133 17.0353 13.62C16.8086 13.9267 16.4886 14.2067 16.0753 14.46C15.6753 14.7 15.1753 14.8933 14.5753 15.04C13.9753 15.2 13.2553 15.28 12.4153 15.28C11.5753 15.28 10.7953 15.1867 10.0753 15C9.35532 14.8 8.74198 14.5 8.23532 14.1C7.72865 13.7 7.33532 13.1867 7.05532 12.56C6.78865 11.9333 6.67532 11.18 6.71532 10.3H8.07532ZM20.193 4.68H21.353V6.64H21.393C21.6863 5.92 22.1596 5.36667 22.813 4.98C23.4796 4.58 24.233 4.38 25.073 4.38C25.8596 4.38 26.5396 4.52667 27.113 4.82C27.6996 5.11333 28.1863 5.51333 28.573 6.02C28.9596 6.51333 29.2463 7.09333 29.433 7.76C29.6196 8.41333 29.713 9.10667 29.713 9.84C29.713 10.5733 29.6196 11.2733 29.433 11.94C29.2463 12.5933 28.9596 13.1733 28.573 13.68C28.1863 14.1733 27.6996 14.5667 27.113 14.86C26.5396 15.14 25.8596 15.28 25.073 15.28C24.6996 15.28 24.3263 15.2333 23.953 15.14C23.5796 15.0467 23.233 14.9067 22.913 14.72C22.593 14.5333 22.3063 14.3 22.053 14.02C21.813 13.74 21.6263 13.4133 21.493 13.04H21.453V18.8H20.193V4.68ZM28.453 9.84C28.453 9.30667 28.3863 8.78 28.253 8.26C28.133 7.72667 27.933 7.25333 27.653 6.84C27.3863 6.42667 27.0396 6.09333 26.613 5.84C26.1863 5.57333 25.673 5.44 25.073 5.44C24.3796 5.44 23.7996 5.56 23.333 5.8C22.8663 6.04 22.493 6.36 22.213 6.76C21.933 7.16 21.733 7.62667 21.613 8.16C21.5063 8.69333 21.453 9.25333 21.453 9.84C21.453 10.3733 21.513 10.9067 21.633 11.44C21.7663 11.96 21.973 12.4267 22.253 12.84C22.5463 13.2533 22.9196 13.5933 23.373 13.86C23.8396 14.1133 24.4063 14.24 25.073 14.24C25.673 14.24 26.1863 14.1133 26.613 13.86C27.0396 13.5933 27.3863 13.2533 27.653 12.84C27.933 12.4267 28.133 11.96 28.253 11.44C28.3863 10.9067 28.453 10.3733 28.453 9.84ZM39.4973 9.12C39.484 8.64 39.3973 8.18 39.2373 7.74C39.0907 7.3 38.8773 6.91333 38.5973 6.58C38.3173 6.23333 37.9773 5.96 37.5773 5.76C37.1773 5.54667 36.724 5.44 36.2173 5.44C35.6973 5.44 35.2373 5.54667 34.8373 5.76C34.4373 5.96 34.0973 6.23333 33.8173 6.58C33.5373 6.91333 33.3107 7.30667 33.1373 7.76C32.9773 8.2 32.8707 8.65333 32.8173 9.12H39.4973ZM32.8173 10.18C32.8173 10.6333 32.8773 11.1067 32.9973 11.6C33.1307 12.08 33.3373 12.5133 33.6173 12.9C33.8973 13.2867 34.2507 13.6067 34.6773 13.86C35.104 14.1133 35.6173 14.24 36.2173 14.24C37.1373 14.24 37.8573 14 38.3773 13.52C38.8973 13.04 39.2573 12.4 39.4573 11.6H40.7173C40.4507 12.7733 39.9573 13.68 39.2373 14.32C38.5307 14.96 37.524 15.28 36.2173 15.28C35.404 15.28 34.6973 15.14 34.0973 14.86C33.5107 14.5667 33.0307 14.1733 32.6573 13.68C32.284 13.1733 32.004 12.5933 31.8173 11.94C31.644 11.2733 31.5573 10.5733 31.5573 9.84C31.5573 9.16 31.644 8.49333 31.8173 7.84C32.004 7.18667 32.284 6.60667 32.6573 6.1C33.0307 5.58 33.5107 5.16667 34.0973 4.86C34.6973 4.54 35.404 4.38 36.2173 4.38C37.044 4.38 37.7507 4.54667 38.3373 4.88C38.924 5.21333 39.3973 5.65333 39.7573 6.2C40.1307 6.73333 40.3973 7.35333 40.5573 8.06C40.7173 8.75333 40.784 9.46 40.7573 10.18H32.8173ZM50.1284 7.92C49.9551 7.14667 49.6351 6.54 49.1684 6.1C48.7018 5.66 48.0484 5.44 47.2084 5.44C46.6084 5.44 46.0818 5.56667 45.6284 5.82C45.1751 6.07333 44.7951 6.40667 44.4884 6.82C44.1951 7.23333 43.9684 7.70667 43.8084 8.24C43.6618 8.76 43.5884 9.29333 43.5884 9.84C43.5884 10.3867 43.6618 10.9267 43.8084 11.46C43.9684 11.98 44.1951 12.4467 44.4884 12.86C44.7951 13.2733 45.1751 13.6067 45.6284 13.86C46.0818 14.1133 46.6084 14.24 47.2084 14.24C47.5951 14.24 47.9618 14.1667 48.3084 14.02C48.6551 13.8733 48.9618 13.6733 49.2284 13.42C49.4951 13.1533 49.7151 12.84 49.8884 12.48C50.0618 12.12 50.1684 11.7267 50.2084 11.3H51.4684C51.2951 12.5533 50.8351 13.5333 50.0884 14.24C49.3418 14.9333 48.3818 15.28 47.2084 15.28C46.4218 15.28 45.7218 15.14 45.1084 14.86C44.5084 14.5667 44.0018 14.1733 43.5884 13.68C43.1751 13.1867 42.8618 12.6133 42.6484 11.96C42.4351 11.2933 42.3284 10.5867 42.3284 9.84C42.3284 9.09333 42.4351 8.39333 42.6484 7.74C42.8618 7.07333 43.1751 6.49333 43.5884 6C44.0018 5.50667 44.5084 5.11333 45.1084 4.82C45.7218 4.52667 46.4218 4.38 47.2084 4.38C48.3151 4.38 49.2484 4.67333 50.0084 5.26C50.7818 5.84667 51.2418 6.73333 51.3884 7.92H50.1284ZM53.6395 0.719999H54.8995V2.74H53.6395V0.719999ZM53.6395 4.68H54.8995V15H53.6395V4.68ZM57.5909 7.84C57.6309 7.24 57.7576 6.72 57.9709 6.28C58.1843 5.84 58.4709 5.48 58.8309 5.2C59.2043 4.92 59.6376 4.71333 60.1309 4.58C60.6243 4.44667 61.1709 4.38 61.7709 4.38C62.2243 4.38 62.6776 4.42667 63.1309 4.52C63.5843 4.6 63.9909 4.76 64.3509 5C64.7109 5.24 65.0043 5.58 65.2309 6.02C65.4576 6.44667 65.5709 7.00667 65.5709 7.7V13.18C65.5709 13.6867 65.8176 13.94 66.3109 13.94C66.4576 13.94 66.5909 13.9133 66.7109 13.86V14.92C66.5643 14.9467 66.4309 14.9667 66.3109 14.98C66.2043 14.9933 66.0643 15 65.8909 15C65.5709 15 65.3109 14.96 65.1109 14.88C64.9243 14.7867 64.7776 14.66 64.6709 14.5C64.5643 14.34 64.4909 14.1533 64.4509 13.94C64.4243 13.7133 64.4109 13.4667 64.4109 13.2H64.3709C64.1443 13.5333 63.9109 13.8333 63.6709 14.1C63.4443 14.3533 63.1843 14.5667 62.8909 14.74C62.6109 14.9133 62.2843 15.0467 61.9109 15.14C61.5509 15.2333 61.1176 15.28 60.6109 15.28C60.1309 15.28 59.6776 15.22 59.2509 15.1C58.8376 14.9933 58.4709 14.82 58.1509 14.58C57.8443 14.3267 57.5976 14.0133 57.4109 13.64C57.2376 13.2533 57.1509 12.8 57.1509 12.28C57.1509 11.56 57.3109 11 57.6309 10.6C57.9509 10.1867 58.3709 9.87333 58.8909 9.66C59.4243 9.44667 60.0176 9.3 60.6709 9.22C61.3376 9.12667 62.0109 9.04 62.6909 8.96C62.9576 8.93333 63.1909 8.9 63.3909 8.86C63.5909 8.82 63.7576 8.75333 63.8909 8.66C64.0243 8.55333 64.1243 8.41333 64.1909 8.24C64.2709 8.06667 64.3109 7.84 64.3109 7.56C64.3109 7.13333 64.2376 6.78667 64.0909 6.52C63.9576 6.24 63.7643 6.02 63.5109 5.86C63.2709 5.7 62.9843 5.59333 62.6509 5.54C62.3309 5.47333 61.9843 5.44 61.6109 5.44C60.8109 5.44 60.1576 5.63333 59.6509 6.02C59.1443 6.39333 58.8776 7 58.8509 7.84H57.5909ZM64.3109 9.36H64.2709C64.1909 9.50667 64.0376 9.61333 63.8109 9.68C63.5843 9.74667 63.3843 9.79333 63.2109 9.82C62.6776 9.91333 62.1243 10 61.5509 10.08C60.9909 10.1467 60.4776 10.2533 60.0109 10.4C59.5443 10.5467 59.1576 10.76 58.8509 11.04C58.5576 11.3067 58.4109 11.6933 58.4109 12.2C58.4109 12.52 58.4709 12.8067 58.5909 13.06C58.7243 13.3 58.8976 13.5133 59.1109 13.7C59.3243 13.8733 59.5709 14.0067 59.8509 14.1C60.1309 14.1933 60.4176 14.24 60.7109 14.24C61.1909 14.24 61.6509 14.1667 62.0909 14.02C62.5309 13.8733 62.9109 13.66 63.2309 13.38C63.5643 13.1 63.8243 12.76 64.0109 12.36C64.2109 11.96 64.3109 11.5067 64.3109 11V9.36ZM68.502 0.719999H69.762V15H68.502V0.719999ZM78.7798 0.719999H88.6398V1.88H80.1398V7.04H88.0998V8.2H80.1398V13.84H88.7398V15H78.7798V0.719999ZM99.8753 15H98.7153V13.04H98.6753C98.542 13.3733 98.342 13.68 98.0753 13.96C97.822 14.24 97.5286 14.48 97.1953 14.68C96.862 14.8667 96.502 15.0133 96.1153 15.12C95.742 15.2267 95.3686 15.28 94.9953 15.28C94.2086 15.28 93.522 15.14 92.9353 14.86C92.362 14.5667 91.882 14.1733 91.4953 13.68C91.1086 13.1733 90.822 12.5933 90.6353 11.94C90.4486 11.2733 90.3553 10.5733 90.3553 9.84C90.3553 9.10667 90.4486 8.41333 90.6353 7.76C90.822 7.09333 91.1086 6.51333 91.4953 6.02C91.882 5.51333 92.362 5.11333 92.9353 4.82C93.522 4.52667 94.2086 4.38 94.9953 4.38C95.382 4.38 95.7553 4.42667 96.1153 4.52C96.4886 4.61333 96.8353 4.76 97.1553 4.96C97.4753 5.14667 97.7553 5.38 97.9953 5.66C98.2486 5.94 98.442 6.26667 98.5753 6.64H98.6153V0.719999H99.8753V15ZM91.6153 9.84C91.6153 10.3733 91.6753 10.9067 91.7953 11.44C91.9286 11.96 92.1286 12.4267 92.3953 12.84C92.6753 13.2533 93.0286 13.5933 93.4553 13.86C93.882 14.1133 94.3953 14.24 94.9953 14.24C95.662 14.24 96.222 14.1133 96.6753 13.86C97.142 13.5933 97.5153 13.2533 97.7953 12.84C98.0886 12.4267 98.2953 11.96 98.4153 11.44C98.5486 10.9067 98.6153 10.3733 98.6153 9.84C98.6153 9.30667 98.5486 8.78 98.4153 8.26C98.2953 7.72667 98.0886 7.25333 97.7953 6.84C97.5153 6.42667 97.142 6.09333 96.6753 5.84C96.222 5.57333 95.662 5.44 94.9953 5.44C94.3953 5.44 93.882 5.57333 93.4553 5.84C93.0286 6.09333 92.6753 6.42667 92.3953 6.84C92.1286 7.25333 91.9286 7.72667 91.7953 8.26C91.6753 8.78 91.6153 9.30667 91.6153 9.84ZM111.04 15H109.88V13.14H109.84C109.506 13.8333 109.02 14.3667 108.38 14.74C107.753 15.1 107.053 15.28 106.28 15.28C105.626 15.28 105.066 15.1867 104.6 15C104.146 14.8267 103.773 14.5733 103.48 14.24C103.2 13.9067 102.993 13.5 102.86 13.02C102.726 12.54 102.66 11.9933 102.66 11.38V4.68H103.92V11.4C103.946 12.3333 104.16 13.04 104.56 13.52C104.973 14 105.68 14.24 106.68 14.24C107.226 14.24 107.693 14.1267 108.08 13.9C108.466 13.66 108.786 13.3467 109.04 12.96C109.293 12.5733 109.48 12.1333 109.6 11.64C109.72 11.1333 109.78 10.62 109.78 10.1V4.68H111.04V15ZM121.102 7.92C120.929 7.14667 120.609 6.54 120.142 6.1C119.675 5.66 119.022 5.44 118.182 5.44C117.582 5.44 117.055 5.56667 116.602 5.82C116.149 6.07333 115.769 6.40667 115.462 6.82C115.169 7.23333 114.942 7.70667 114.782 8.24C114.635 8.76 114.562 9.29333 114.562 9.84C114.562 10.3867 114.635 10.9267 114.782 11.46C114.942 11.98 115.169 12.4467 115.462 12.86C115.769 13.2733 116.149 13.6067 116.602 13.86C117.055 14.1133 117.582 14.24 118.182 14.24C118.569 14.24 118.935 14.1667 119.282 14.02C119.629 13.8733 119.935 13.6733 120.202 13.42C120.469 13.1533 120.689 12.84 120.862 12.48C121.035 12.12 121.142 11.7267 121.182 11.3H122.442C122.269 12.5533 121.809 13.5333 121.062 14.24C120.315 14.9333 119.355 15.28 118.182 15.28C117.395 15.28 116.695 15.14 116.082 14.86C115.482 14.5667 114.975 14.1733 114.562 13.68C114.149 13.1867 113.835 12.6133 113.622 11.96C113.409 11.2933 113.302 10.5867 113.302 9.84C113.302 9.09333 113.409 8.39333 113.622 7.74C113.835 7.07333 114.149 6.49333 114.562 6C114.975 5.50667 115.482 5.11333 116.082 4.82C116.695 4.52667 117.395 4.38 118.182 4.38C119.289 4.38 120.222 4.67333 120.982 5.26C121.755 5.84667 122.215 6.73333 122.362 7.92H121.102ZM124.473 7.84C124.513 7.24 124.64 6.72 124.853 6.28C125.066 5.84 125.353 5.48 125.713 5.2C126.086 4.92 126.52 4.71333 127.013 4.58C127.506 4.44667 128.053 4.38 128.653 4.38C129.106 4.38 129.56 4.42667 130.013 4.52C130.466 4.6 130.873 4.76 131.233 5C131.593 5.24 131.886 5.58 132.113 6.02C132.34 6.44667 132.453 7.00667 132.453 7.7V13.18C132.453 13.6867 132.7 13.94 133.193 13.94C133.34 13.94 133.473 13.9133 133.593 13.86V14.92C133.446 14.9467 133.313 14.9667 133.193 14.98C133.086 14.9933 132.946 15 132.773 15C132.453 15 132.193 14.96 131.993 14.88C131.806 14.7867 131.66 14.66 131.553 14.5C131.446 14.34 131.373 14.1533 131.333 13.94C131.306 13.7133 131.293 13.4667 131.293 13.2H131.253C131.026 13.5333 130.793 13.8333 130.553 14.1C130.326 14.3533 130.066 14.5667 129.773 14.74C129.493 14.9133 129.166 15.0467 128.793 15.14C128.433 15.2333 128 15.28 127.493 15.28C127.013 15.28 126.56 15.22 126.133 15.1C125.72 14.9933 125.353 14.82 125.033 14.58C124.726 14.3267 124.48 14.0133 124.293 13.64C124.12 13.2533 124.033 12.8 124.033 12.28C124.033 11.56 124.193 11 124.513 10.6C124.833 10.1867 125.253 9.87333 125.773 9.66C126.306 9.44667 126.9 9.3 127.553 9.22C128.22 9.12667 128.893 9.04 129.573 8.96C129.84 8.93333 130.073 8.9 130.273 8.86C130.473 8.82 130.64 8.75333 130.773 8.66C130.906 8.55333 131.006 8.41333 131.073 8.24C131.153 8.06667 131.193 7.84 131.193 7.56C131.193 7.13333 131.12 6.78667 130.973 6.52C130.84 6.24 130.646 6.02 130.393 5.86C130.153 5.7 129.866 5.59333 129.533 5.54C129.213 5.47333 128.866 5.44 128.493 5.44C127.693 5.44 127.04 5.63333 126.533 6.02C126.026 6.39333 125.76 7 125.733 7.84H124.473ZM131.193 9.36H131.153C131.073 9.50667 130.92 9.61333 130.693 9.68C130.466 9.74667 130.266 9.79333 130.093 9.82C129.56 9.91333 129.006 10 128.433 10.08C127.873 10.1467 127.36 10.2533 126.893 10.4C126.426 10.5467 126.04 10.76 125.733 11.04C125.44 11.3067 125.293 11.6933 125.293 12.2C125.293 12.52 125.353 12.8067 125.473 13.06C125.606 13.3 125.78 13.5133 125.993 13.7C126.206 13.8733 126.453 14.0067 126.733 14.1C127.013 14.1933 127.3 14.24 127.593 14.24C128.073 14.24 128.533 14.1667 128.973 14.02C129.413 13.8733 129.793 13.66 130.113 13.38C130.446 13.1 130.706 12.76 130.893 12.36C131.093 11.96 131.193 11.5067 131.193 11V9.36ZM137.364 4.68H139.464V5.74H137.364V12.7C137.364 13.1133 137.417 13.44 137.524 13.68C137.644 13.9067 137.931 14.0333 138.384 14.06C138.744 14.06 139.104 14.04 139.464 14V15.06C139.277 15.06 139.091 15.0667 138.904 15.08C138.717 15.0933 138.531 15.1 138.344 15.1C137.504 15.1 136.917 14.94 136.584 14.62C136.251 14.2867 136.091 13.68 136.104 12.8V5.74H134.304V4.68H136.104V1.58H137.364V4.68ZM141.702 0.719999H142.962V2.74H141.702V0.719999ZM141.702 4.68H142.962V15H141.702V4.68ZM150.133 5.44C149.533 5.44 149.007 5.56667 148.553 5.82C148.1 6.07333 147.72 6.40667 147.413 6.82C147.12 7.23333 146.893 7.70667 146.733 8.24C146.587 8.76 146.513 9.29333 146.513 9.84C146.513 10.3867 146.587 10.9267 146.733 11.46C146.893 11.98 147.12 12.4467 147.413 12.86C147.72 13.2733 148.1 13.6067 148.553 13.86C149.007 14.1133 149.533 14.24 150.133 14.24C150.733 14.24 151.26 14.1133 151.713 13.86C152.167 13.6067 152.54 13.2733 152.833 12.86C153.14 12.4467 153.367 11.98 153.513 11.46C153.673 10.9267 153.753 10.3867 153.753 9.84C153.753 9.29333 153.673 8.76 153.513 8.24C153.367 7.70667 153.14 7.23333 152.833 6.82C152.54 6.40667 152.167 6.07333 151.713 5.82C151.26 5.56667 150.733 5.44 150.133 5.44ZM150.133 4.38C150.92 4.38 151.613 4.52667 152.213 4.82C152.827 5.11333 153.34 5.50667 153.753 6C154.167 6.49333 154.48 7.07333 154.693 7.74C154.907 8.39333 155.013 9.09333 155.013 9.84C155.013 10.5867 154.907 11.2933 154.693 11.96C154.48 12.6133 154.167 13.1867 153.753 13.68C153.34 14.1733 152.827 14.5667 152.213 14.86C151.613 15.14 150.92 15.28 150.133 15.28C149.347 15.28 148.647 15.14 148.033 14.86C147.433 14.5667 146.927 14.1733 146.513 13.68C146.1 13.1867 145.787 12.6133 145.573 11.96C145.36 11.2933 145.253 10.5867 145.253 9.84C145.253 9.09333 145.36 8.39333 145.573 7.74C145.787 7.07333 146.1 6.49333 146.513 6C146.927 5.50667 147.433 5.11333 148.033 4.82C148.647 4.52667 149.347 4.38 150.133 4.38ZM157.267 4.68H158.527V6.46H158.567C158.807 5.83333 159.233 5.33333 159.847 4.96C160.46 4.57333 161.133 4.38 161.867 4.38C162.587 4.38 163.187 4.47333 163.667 4.66C164.16 4.84667 164.553 5.11333 164.847 5.46C165.14 5.79333 165.347 6.20667 165.467 6.7C165.587 7.19333 165.647 7.74667 165.647 8.36V15H164.387V8.56C164.387 8.12 164.347 7.71333 164.267 7.34C164.187 6.95333 164.047 6.62 163.847 6.34C163.647 6.06 163.373 5.84 163.027 5.68C162.693 5.52 162.273 5.44 161.767 5.44C161.26 5.44 160.807 5.53333 160.407 5.72C160.02 5.89333 159.687 6.14 159.407 6.46C159.14 6.76667 158.927 7.14 158.767 7.58C158.62 8.00667 158.54 8.47333 158.527 8.98V15H157.267V4.68ZM4.24086 33.4H9.86086L7.10086 26.08L4.24086 33.4ZM6.40086 24.72H7.92086L13.5209 39H12.0609L10.3209 34.56H3.82086L2.10086 39H0.660861L6.40086 24.72ZM21.1585 31.7C21.1452 31.3133 21.0652 30.98 20.9185 30.7C20.7719 30.4067 20.5719 30.1667 20.3185 29.98C20.0785 29.7933 19.7985 29.66 19.4785 29.58C19.1585 29.4867 18.8185 29.44 18.4585 29.44C18.1785 29.44 17.8919 29.4733 17.5985 29.54C17.3185 29.5933 17.0585 29.6933 16.8185 29.84C16.5785 29.9733 16.3852 30.1533 16.2385 30.38C16.0919 30.6067 16.0185 30.8867 16.0185 31.22C16.0185 31.5 16.0852 31.74 16.2185 31.94C16.3652 32.1267 16.5452 32.2867 16.7585 32.42C16.9719 32.5533 17.2052 32.6667 17.4585 32.76C17.7119 32.84 17.9452 32.9067 18.1585 32.96L19.8385 33.34C20.1985 33.3933 20.5519 33.4933 20.8985 33.64C21.2585 33.7733 21.5719 33.9533 21.8385 34.18C22.1185 34.4067 22.3452 34.6867 22.5185 35.02C22.6919 35.3533 22.7785 35.7467 22.7785 36.2C22.7785 36.76 22.6519 37.24 22.3985 37.64C22.1452 38.0267 21.8185 38.3467 21.4185 38.6C21.0319 38.84 20.5919 39.0133 20.0985 39.12C19.6052 39.2267 19.1185 39.28 18.6385 39.28C17.4252 39.28 16.4385 38.9933 15.6785 38.42C14.9319 37.8467 14.5052 36.9267 14.3985 35.66H15.6585C15.7119 36.5133 16.0185 37.16 16.5785 37.6C17.1519 38.0267 17.8585 38.24 18.6985 38.24C19.0052 38.24 19.3185 38.2067 19.6385 38.14C19.9719 38.0733 20.2785 37.96 20.5585 37.8C20.8385 37.64 21.0652 37.44 21.2385 37.2C21.4252 36.9467 21.5185 36.64 21.5185 36.28C21.5185 35.9733 21.4519 35.72 21.3185 35.52C21.1985 35.3067 21.0319 35.1333 20.8185 35C20.6052 34.8533 20.3585 34.7333 20.0785 34.64C19.8119 34.5467 19.5385 34.4667 19.2585 34.4L17.6385 34.04C17.2252 33.9333 16.8452 33.8133 16.4985 33.68C16.1519 33.5333 15.8452 33.36 15.5785 33.16C15.3252 32.9467 15.1252 32.6933 14.9785 32.4C14.8319 32.0933 14.7585 31.72 14.7585 31.28C14.7585 30.76 14.8719 30.3133 15.0985 29.94C15.3385 29.5667 15.6452 29.2667 16.0185 29.04C16.3919 28.8133 16.8052 28.6467 17.2585 28.54C17.7252 28.4333 18.1852 28.38 18.6385 28.38C19.1585 28.38 19.6385 28.4467 20.0785 28.58C20.5319 28.7133 20.9252 28.92 21.2585 29.2C21.6052 29.48 21.8785 29.8267 22.0785 30.24C22.2785 30.6533 22.3919 31.14 22.4185 31.7H21.1585ZM31.1874 31.7C31.1741 31.3133 31.0941 30.98 30.9474 30.7C30.8008 30.4067 30.6008 30.1667 30.3474 29.98C30.1074 29.7933 29.8274 29.66 29.5074 29.58C29.1874 29.4867 28.8474 29.44 28.4874 29.44C28.2074 29.44 27.9208 29.4733 27.6274 29.54C27.3474 29.5933 27.0874 29.6933 26.8474 29.84C26.6074 29.9733 26.4141 30.1533 26.2674 30.38C26.1208 30.6067 26.0474 30.8867 26.0474 31.22C26.0474 31.5 26.1141 31.74 26.2474 31.94C26.3941 32.1267 26.5741 32.2867 26.7874 32.42C27.0008 32.5533 27.2341 32.6667 27.4874 32.76C27.7408 32.84 27.9741 32.9067 28.1874 32.96L29.8674 33.34C30.2274 33.3933 30.5808 33.4933 30.9274 33.64C31.2874 33.7733 31.6008 33.9533 31.8674 34.18C32.1474 34.4067 32.3741 34.6867 32.5474 35.02C32.7208 35.3533 32.8074 35.7467 32.8074 36.2C32.8074 36.76 32.6808 37.24 32.4274 37.64C32.1741 38.0267 31.8474 38.3467 31.4474 38.6C31.0608 38.84 30.6208 39.0133 30.1274 39.12C29.6341 39.2267 29.1474 39.28 28.6674 39.28C27.4541 39.28 26.4674 38.9933 25.7074 38.42C24.9608 37.8467 24.5341 36.9267 24.4274 35.66H25.6874C25.7408 36.5133 26.0474 37.16 26.6074 37.6C27.1808 38.0267 27.8874 38.24 28.7274 38.24C29.0341 38.24 29.3474 38.2067 29.6674 38.14C30.0008 38.0733 30.3074 37.96 30.5874 37.8C30.8674 37.64 31.0941 37.44 31.2674 37.2C31.4541 36.9467 31.5474 36.64 31.5474 36.28C31.5474 35.9733 31.4808 35.72 31.3474 35.52C31.2274 35.3067 31.0608 35.1333 30.8474 35C30.6341 34.8533 30.3874 34.7333 30.1074 34.64C29.8408 34.5467 29.5674 34.4667 29.2874 34.4L27.6674 34.04C27.2541 33.9333 26.8741 33.8133 26.5274 33.68C26.1808 33.5333 25.8741 33.36 25.6074 33.16C25.3541 32.9467 25.1541 32.6933 25.0074 32.4C24.8608 32.0933 24.7874 31.72 24.7874 31.28C24.7874 30.76 24.9008 30.3133 25.1274 29.94C25.3674 29.5667 25.6741 29.2667 26.0474 29.04C26.4208 28.8133 26.8341 28.6467 27.2874 28.54C27.7541 28.4333 28.2141 28.38 28.6674 28.38C29.1874 28.38 29.6674 28.4467 30.1074 28.58C30.5608 28.7133 30.9541 28.92 31.2874 29.2C31.6341 29.48 31.9074 29.8267 32.1074 30.24C32.3074 30.6533 32.4208 31.14 32.4474 31.7H31.1874ZM35.0563 24.72H36.3163V26.74H35.0563V24.72ZM35.0563 28.68H36.3163V39H35.0563V28.68ZM45.3077 31.7C45.2944 31.3133 45.2144 30.98 45.0677 30.7C44.9211 30.4067 44.7211 30.1667 44.4677 29.98C44.2277 29.7933 43.9477 29.66 43.6277 29.58C43.3077 29.4867 42.9677 29.44 42.6077 29.44C42.3277 29.44 42.0411 29.4733 41.7477 29.54C41.4677 29.5933 41.2077 29.6933 40.9677 29.84C40.7277 29.9733 40.5344 30.1533 40.3877 30.38C40.2411 30.6067 40.1677 30.8867 40.1677 31.22C40.1677 31.5 40.2344 31.74 40.3677 31.94C40.5144 32.1267 40.6944 32.2867 40.9077 32.42C41.1211 32.5533 41.3544 32.6667 41.6077 32.76C41.8611 32.84 42.0944 32.9067 42.3077 32.96L43.9877 33.34C44.3477 33.3933 44.7011 33.4933 45.0477 33.64C45.4077 33.7733 45.7211 33.9533 45.9877 34.18C46.2677 34.4067 46.4944 34.6867 46.6677 35.02C46.8411 35.3533 46.9277 35.7467 46.9277 36.2C46.9277 36.76 46.8011 37.24 46.5477 37.64C46.2944 38.0267 45.9677 38.3467 45.5677 38.6C45.1811 38.84 44.7411 39.0133 44.2477 39.12C43.7544 39.2267 43.2677 39.28 42.7877 39.28C41.5744 39.28 40.5877 38.9933 39.8277 38.42C39.0811 37.8467 38.6544 36.9267 38.5477 35.66H39.8077C39.8611 36.5133 40.1677 37.16 40.7277 37.6C41.3011 38.0267 42.0077 38.24 42.8477 38.24C43.1544 38.24 43.4677 38.2067 43.7877 38.14C44.1211 38.0733 44.4277 37.96 44.7077 37.8C44.9877 37.64 45.2144 37.44 45.3877 37.2C45.5744 36.9467 45.6677 36.64 45.6677 36.28C45.6677 35.9733 45.6011 35.72 45.4677 35.52C45.3477 35.3067 45.1811 35.1333 44.9677 35C44.7544 34.8533 44.5077 34.7333 44.2277 34.64C43.9611 34.5467 43.6877 34.4667 43.4077 34.4L41.7877 34.04C41.3744 33.9333 40.9944 33.8133 40.6477 33.68C40.3011 33.5333 39.9944 33.36 39.7277 33.16C39.4744 32.9467 39.2744 32.6933 39.1277 32.4C38.9811 32.0933 38.9077 31.72 38.9077 31.28C38.9077 30.76 39.0211 30.3133 39.2477 29.94C39.4877 29.5667 39.7944 29.2667 40.1677 29.04C40.5411 28.8133 40.9544 28.6467 41.4077 28.54C41.8744 28.4333 42.3344 28.38 42.7877 28.38C43.3077 28.38 43.7877 28.4467 44.2277 28.58C44.6811 28.7133 45.0744 28.92 45.4077 29.2C45.7544 29.48 46.0277 29.8267 46.2277 30.24C46.4277 30.6533 46.5411 31.14 46.5677 31.7H45.3077ZM51.1566 28.68H53.2566V29.74H51.1566V36.7C51.1566 37.1133 51.21 37.44 51.3166 37.68C51.4366 37.9067 51.7233 38.0333 52.1766 38.06C52.5366 38.06 52.8966 38.04 53.2566 38V39.06C53.07 39.06 52.8833 39.0667 52.6966 39.08C52.51 39.0933 52.3233 39.1 52.1366 39.1C51.2966 39.1 50.71 38.94 50.3766 38.62C50.0433 38.2867 49.8833 37.68 49.8966 36.8V29.74H48.0966V28.68H49.8966V25.58H51.1566V28.68ZM55.4946 24.72H56.7546V26.74H55.4946V24.72ZM55.4946 28.68H56.7546V39H55.4946V28.68ZM58.406 28.68H59.806L63.046 37.74H63.086L66.286 28.68H67.586L63.726 39H62.386L58.406 28.68ZM76.6438 33.12C76.6305 32.64 76.5438 32.18 76.3838 31.74C76.2372 31.3 76.0238 30.9133 75.7438 30.58C75.4638 30.2333 75.1238 29.96 74.7238 29.76C74.3238 29.5467 73.8705 29.44 73.3638 29.44C72.8438 29.44 72.3838 29.5467 71.9838 29.76C71.5838 29.96 71.2438 30.2333 70.9638 30.58C70.6838 30.9133 70.4572 31.3067 70.2838 31.76C70.1238 32.2 70.0172 32.6533 69.9638 33.12H76.6438ZM69.9638 34.18C69.9638 34.6333 70.0238 35.1067 70.1438 35.6C70.2772 36.08 70.4838 36.5133 70.7638 36.9C71.0438 37.2867 71.3972 37.6067 71.8238 37.86C72.2505 38.1133 72.7638 38.24 73.3638 38.24C74.2838 38.24 75.0038 38 75.5238 37.52C76.0438 37.04 76.4038 36.4 76.6038 35.6H77.8638C77.5972 36.7733 77.1038 37.68 76.3838 38.32C75.6772 38.96 74.6705 39.28 73.3638 39.28C72.5505 39.28 71.8438 39.14 71.2438 38.86C70.6572 38.5667 70.1772 38.1733 69.8038 37.68C69.4305 37.1733 69.1505 36.5933 68.9638 35.94C68.7905 35.2733 68.7038 34.5733 68.7038 33.84C68.7038 33.16 68.7905 32.4933 68.9638 31.84C69.1505 31.1867 69.4305 30.6067 69.8038 30.1C70.1772 29.58 70.6572 29.1667 71.2438 28.86C71.8438 28.54 72.5505 28.38 73.3638 28.38C74.1905 28.38 74.8972 28.5467 75.4838 28.88C76.0705 29.2133 76.5438 29.6533 76.9038 30.2C77.2772 30.7333 77.5438 31.3533 77.7038 32.06C77.8638 32.7533 77.9305 33.46 77.9038 34.18H69.9638ZM86.2013 24.72H87.5613V37.84H95.5613V39H86.2013V24.72ZM104.524 33.12C104.51 32.64 104.424 32.18 104.264 31.74C104.117 31.3 103.904 30.9133 103.624 30.58C103.344 30.2333 103.004 29.96 102.604 29.76C102.204 29.5467 101.75 29.44 101.244 29.44C100.724 29.44 100.264 29.5467 99.8635 29.76C99.4635 29.96 99.1235 30.2333 98.8435 30.58C98.5635 30.9133 98.3369 31.3067 98.1635 31.76C98.0035 32.2 97.8969 32.6533 97.8435 33.12H104.524ZM97.8435 34.18C97.8435 34.6333 97.9035 35.1067 98.0235 35.6C98.1569 36.08 98.3635 36.5133 98.6435 36.9C98.9235 37.2867 99.2769 37.6067 99.7035 37.86C100.13 38.1133 100.644 38.24 101.244 38.24C102.164 38.24 102.884 38 103.404 37.52C103.924 37.04 104.284 36.4 104.484 35.6H105.744C105.477 36.7733 104.984 37.68 104.264 38.32C103.557 38.96 102.55 39.28 101.244 39.28C100.43 39.28 99.7235 39.14 99.1235 38.86C98.5369 38.5667 98.0569 38.1733 97.6835 37.68C97.3102 37.1733 97.0302 36.5933 96.8435 35.94C96.6702 35.2733 96.5835 34.5733 96.5835 33.84C96.5835 33.16 96.6702 32.4933 96.8435 31.84C97.0302 31.1867 97.3102 30.6067 97.6835 30.1C98.0569 29.58 98.5369 29.1667 99.1235 28.86C99.7235 28.54 100.43 28.38 101.244 28.38C102.07 28.38 102.777 28.5467 103.364 28.88C103.95 29.2133 104.424 29.6533 104.784 30.2C105.157 30.7333 105.424 31.3533 105.584 32.06C105.744 32.7533 105.81 33.46 105.784 34.18H97.8435ZM107.755 31.84C107.795 31.24 107.921 30.72 108.135 30.28C108.348 29.84 108.635 29.48 108.995 29.2C109.368 28.92 109.801 28.7133 110.295 28.58C110.788 28.4467 111.335 28.38 111.935 28.38C112.388 28.38 112.841 28.4267 113.295 28.52C113.748 28.6 114.155 28.76 114.515 29C114.875 29.24 115.168 29.58 115.395 30.02C115.621 30.4467 115.735 31.0067 115.735 31.7V37.18C115.735 37.6867 115.981 37.94 116.475 37.94C116.621 37.94 116.755 37.9133 116.875 37.86V38.92C116.728 38.9467 116.595 38.9667 116.475 38.98C116.368 38.9933 116.228 39 116.055 39C115.735 39 115.475 38.96 115.275 38.88C115.088 38.7867 114.941 38.66 114.835 38.5C114.728 38.34 114.655 38.1533 114.615 37.94C114.588 37.7133 114.575 37.4667 114.575 37.2H114.535C114.308 37.5333 114.075 37.8333 113.835 38.1C113.608 38.3533 113.348 38.5667 113.055 38.74C112.775 38.9133 112.448 39.0467 112.075 39.14C111.715 39.2333 111.281 39.28 110.775 39.28C110.295 39.28 109.841 39.22 109.415 39.1C109.001 38.9933 108.635 38.82 108.315 38.58C108.008 38.3267 107.761 38.0133 107.575 37.64C107.401 37.2533 107.315 36.8 107.315 36.28C107.315 35.56 107.475 35 107.795 34.6C108.115 34.1867 108.535 33.8733 109.055 33.66C109.588 33.4467 110.181 33.3 110.835 33.22C111.501 33.1267 112.175 33.04 112.855 32.96C113.121 32.9333 113.355 32.9 113.555 32.86C113.755 32.82 113.921 32.7533 114.055 32.66C114.188 32.5533 114.288 32.4133 114.355 32.24C114.435 32.0667 114.475 31.84 114.475 31.56C114.475 31.1333 114.401 30.7867 114.255 30.52C114.121 30.24 113.928 30.02 113.675 29.86C113.435 29.7 113.148 29.5933 112.815 29.54C112.495 29.4733 112.148 29.44 111.775 29.44C110.975 29.44 110.321 29.6333 109.815 30.02C109.308 30.3933 109.041 31 109.015 31.84H107.755ZM114.475 33.36H114.435C114.355 33.5067 114.201 33.6133 113.975 33.68C113.748 33.7467 113.548 33.7933 113.375 33.82C112.841 33.9133 112.288 34 111.715 34.08C111.155 34.1467 110.641 34.2533 110.175 34.4C109.708 34.5467 109.321 34.76 109.015 35.04C108.721 35.3067 108.575 35.6933 108.575 36.2C108.575 36.52 108.635 36.8067 108.755 37.06C108.888 37.3 109.061 37.5133 109.275 37.7C109.488 37.8733 109.735 38.0067 110.015 38.1C110.295 38.1933 110.581 38.24 110.875 38.24C111.355 38.24 111.815 38.1667 112.255 38.02C112.695 37.8733 113.075 37.66 113.395 37.38C113.728 37.1 113.988 36.76 114.175 36.36C114.375 35.96 114.475 35.5067 114.475 35V33.36ZM118.646 28.68H119.806V31.1H119.846C120.166 30.26 120.659 29.6133 121.326 29.16C122.006 28.7067 122.812 28.5 123.746 28.54V29.8C123.172 29.7733 122.652 29.8533 122.186 30.04C121.719 30.2133 121.312 30.4667 120.966 30.8C120.632 31.1333 120.372 31.5333 120.186 32C119.999 32.4533 119.906 32.9533 119.906 33.5V39H118.646V28.68ZM125.686 28.68H126.946V30.46H126.986C127.226 29.8333 127.653 29.3333 128.266 28.96C128.879 28.5733 129.553 28.38 130.286 28.38C131.006 28.38 131.606 28.4733 132.086 28.66C132.579 28.8467 132.973 29.1133 133.266 29.46C133.559 29.7933 133.766 30.2067 133.886 30.7C134.006 31.1933 134.066 31.7467 134.066 32.36V39H132.806V32.56C132.806 32.12 132.766 31.7133 132.686 31.34C132.606 30.9533 132.466 30.62 132.266 30.34C132.066 30.06 131.793 29.84 131.446 29.68C131.113 29.52 130.693 29.44 130.186 29.44C129.679 29.44 129.226 29.5333 128.826 29.72C128.439 29.8933 128.106 30.14 127.826 30.46C127.559 30.7667 127.346 31.14 127.186 31.58C127.039 32.0067 126.959 32.4733 126.946 32.98V39H125.686V28.68ZM136.868 24.72H138.128V26.74H136.868V24.72ZM136.868 28.68H138.128V39H136.868V28.68ZM140.919 28.68H142.179V30.46H142.219C142.459 29.8333 142.886 29.3333 143.499 28.96C144.113 28.5733 144.786 28.38 145.519 28.38C146.239 28.38 146.839 28.4733 147.319 28.66C147.813 28.8467 148.206 29.1133 148.499 29.46C148.793 29.7933 148.999 30.2067 149.119 30.7C149.239 31.1933 149.299 31.7467 149.299 32.36V39H148.039V32.56C148.039 32.12 147.999 31.7133 147.919 31.34C147.839 30.9533 147.699 30.62 147.499 30.34C147.299 30.06 147.026 29.84 146.679 29.68C146.346 29.52 145.926 29.44 145.419 29.44C144.913 29.44 144.459 29.5333 144.059 29.72C143.673 29.8933 143.339 30.14 143.059 30.46C142.793 30.7667 142.579 31.14 142.419 31.58C142.273 32.0067 142.193 32.4733 142.179 32.98V39H140.919V28.68ZM160.802 38.16C160.802 38.92 160.715 39.6067 160.542 40.22C160.382 40.8333 160.122 41.3533 159.762 41.78C159.402 42.2067 158.928 42.5333 158.342 42.76C157.768 42.9867 157.062 43.1 156.222 43.1C155.702 43.1 155.195 43.04 154.702 42.92C154.208 42.8 153.762 42.6133 153.362 42.36C152.975 42.1067 152.648 41.78 152.382 41.38C152.128 40.9933 151.982 40.5267 151.942 39.98H153.202C153.268 40.3667 153.395 40.6867 153.582 40.94C153.782 41.2067 154.015 41.42 154.282 41.58C154.562 41.74 154.868 41.8533 155.202 41.92C155.535 42 155.875 42.04 156.222 42.04C157.395 42.04 158.242 41.7067 158.762 41.04C159.282 40.3733 159.542 39.4133 159.542 38.16V36.76H159.502C159.208 37.4 158.775 37.9133 158.202 38.3C157.642 38.6867 156.982 38.88 156.222 38.88C155.395 38.88 154.688 38.7467 154.102 38.48C153.515 38.2 153.028 37.82 152.642 37.34C152.268 36.86 151.995 36.3 151.822 35.66C151.648 35.0067 151.562 34.3133 151.562 33.58C151.562 32.8733 151.662 32.2067 151.862 31.58C152.075 30.94 152.375 30.3867 152.762 29.92C153.162 29.44 153.648 29.0667 154.222 28.8C154.808 28.52 155.475 28.38 156.222 28.38C156.608 28.38 156.968 28.4333 157.302 28.54C157.648 28.6467 157.962 28.8 158.242 29C158.522 29.1867 158.768 29.4067 158.982 29.66C159.208 29.9133 159.382 30.18 159.502 30.46H159.542V28.68H160.802V38.16ZM156.222 37.82C156.768 37.82 157.248 37.7067 157.662 37.48C158.075 37.24 158.422 36.9333 158.702 36.56C158.982 36.1733 159.188 35.7333 159.322 35.24C159.468 34.7467 159.542 34.24 159.542 33.72C159.542 33.2133 159.482 32.7067 159.362 32.2C159.242 31.6933 159.048 31.2333 158.782 30.82C158.515 30.4067 158.168 30.0733 157.742 29.82C157.328 29.5667 156.822 29.44 156.222 29.44C155.622 29.44 155.108 29.5667 154.682 29.82C154.255 30.06 153.902 30.38 153.622 30.78C153.342 31.18 153.135 31.64 153.002 32.16C152.882 32.6667 152.822 33.1867 152.822 33.72C152.822 34.24 152.888 34.7467 153.022 35.24C153.155 35.7333 153.362 36.1733 153.642 36.56C153.922 36.9333 154.275 37.24 154.702 37.48C155.128 37.7067 155.635 37.82 156.222 37.82ZM163.375 24.42C163.815 25.1533 164.208 25.88 164.555 26.6C164.915 27.32 165.215 28.0533 165.455 28.8C165.695 29.5333 165.875 30.2933 165.995 31.08C166.128 31.8667 166.195 32.6933 166.195 33.56C166.195 35.28 165.942 36.9067 165.435 38.44C164.942 39.9733 164.255 41.4267 163.375 42.8H162.395C163.275 41.36 163.915 39.8333 164.315 38.22C164.728 36.5933 164.935 34.8867 164.935 33.1C164.935 32.3667 164.868 31.62 164.735 30.86C164.615 30.1 164.442 29.3533 164.215 28.62C163.988 27.8733 163.715 27.1467 163.395 26.44C163.088 25.7333 162.755 25.06 162.395 24.42H163.375Z" fill="#305070"/>
</svg>
