<svg width="204" height="20" viewBox="0 0 204 20" fill="none" xmlns="http://www.w3.org/2000/svg">
<path d="M6.56639 19.162C5.93639 19.162 5.52239 18.856 5.32439 18.244L0.626391 2.827C0.536391 2.503 0.491391 2.215 0.491391 1.963C0.491391 1.621 0.617391 1.342 0.869391 1.126C1.12139 0.891999 1.42739 0.775 1.78739 0.775C2.45339 0.775 2.88539 1.09 3.08339 1.72L6.62039 13.357L10.4004 1.693C10.5984 1.081 11.0304 0.775 11.6964 0.775C12.3444 0.775 12.7584 1.09 12.9384 1.72L16.1514 13.384L20.4714 1.423C20.7054 0.792999 21.1374 0.477999 21.7674 0.477999C22.1274 0.477999 22.4334 0.594999 22.6854 0.828999C22.9374 1.045 23.0634 1.324 23.0634 1.666C23.0634 1.972 23.0184 2.26 22.9284 2.53L17.2314 18.298C17.1414 18.568 16.9884 18.784 16.7724 18.946C16.5564 19.09 16.3044 19.162 16.0164 19.162C15.3144 19.162 14.8824 18.838 14.7204 18.19L11.5614 6.796L7.86239 18.244C7.75439 18.586 7.59239 18.829 7.37639 18.973C7.17839 19.099 6.90839 19.162 6.56639 19.162ZM29.5394 19.162C28.2614 19.162 27.1094 18.892 26.0834 18.352C25.0754 17.794 24.2834 17.011 23.7074 16.003C23.1314 14.977 22.8434 13.771 22.8434 12.385C22.8434 11.251 23.0954 10.171 23.5994 9.145C24.1214 8.101 24.8414 7.264 25.7594 6.634C26.6954 6.004 27.7574 5.689 28.9454 5.689C30.0434 5.689 30.9794 5.914 31.7534 6.364C32.5454 6.796 33.1394 7.318 33.5354 7.93C33.9314 8.542 34.1294 9.091 34.1294 9.577C34.1294 9.811 34.0574 10.036 33.9134 10.252C33.7694 10.468 33.5624 10.657 33.2924 10.819L26.0564 14.977C26.3084 15.535 26.7494 15.967 27.3794 16.273C28.0274 16.579 28.7474 16.732 29.5394 16.732C30.5834 16.732 31.4744 16.345 32.2124 15.571C32.5004 15.283 32.7974 15.139 33.1034 15.139C33.4634 15.139 33.7604 15.256 33.9944 15.49C34.2464 15.724 34.3724 16.012 34.3724 16.354C34.3724 16.642 34.2644 16.912 34.0484 17.164C33.5444 17.722 32.8694 18.199 32.0234 18.595C31.1954 18.973 30.3674 19.162 29.5394 19.162ZM31.4564 9.253C31.2404 8.875 30.9344 8.596 30.5384 8.416C30.1424 8.218 29.6744 8.119 29.1344 8.119C28.1084 8.119 27.2444 8.47 26.5424 9.172C25.8584 9.874 25.4624 10.738 25.3544 11.764C25.3184 12.034 25.3004 12.358 25.3004 12.736L31.4564 9.253ZM38.2661 19.162C37.9241 19.162 37.6181 19.045 37.3481 18.811C37.0961 18.559 36.9701 18.271 36.9701 17.947V2.287C36.9701 1.927 37.0871 1.63 37.3211 1.396C37.5731 1.144 37.8881 1.018 38.2661 1.018C38.6081 1.018 38.9051 1.144 39.1571 1.396C39.4271 1.648 39.5621 1.945 39.5621 2.287V17.947C39.5621 18.271 39.4271 18.559 39.1571 18.811C38.8871 19.045 38.5901 19.162 38.2661 19.162ZM48.3729 19.162C47.2929 19.162 46.3029 18.901 45.4029 18.379C44.5029 17.857 43.7919 17.146 43.2699 16.246C42.7479 15.328 42.4869 14.329 42.4869 13.249C42.4869 12.025 42.7749 10.828 43.3509 9.658C43.9269 8.488 44.6829 7.534 45.6189 6.796C46.5549 6.058 47.5449 5.689 48.5889 5.689C49.5429 5.689 50.3079 5.842 50.8839 6.148C51.4779 6.436 52.0539 6.904 52.6119 7.552C52.8819 7.84 53.0169 8.155 53.0169 8.497C53.0169 8.839 52.8909 9.136 52.6389 9.388C52.3869 9.622 52.0809 9.739 51.7209 9.739C51.4869 9.739 51.2979 9.703 51.1539 9.631C51.0279 9.559 50.8749 9.415 50.6949 9.199C50.3889 8.857 50.0829 8.596 49.7769 8.416C49.4889 8.236 49.1019 8.146 48.6159 8.146C48.0579 8.146 47.4909 8.389 46.9149 8.875C46.3569 9.361 45.8979 10 45.5379 10.792C45.1959 11.566 45.0249 12.367 45.0249 13.195C45.0249 13.915 45.1779 14.545 45.4839 15.085C45.8079 15.607 46.2219 16.012 46.7259 16.3C47.2299 16.57 47.7609 16.705 48.3189 16.705C49.0389 16.705 49.6239 16.57 50.0739 16.3C50.5419 16.03 50.9559 15.661 51.3159 15.193C51.6579 14.743 52.0449 14.518 52.4769 14.518C52.8189 14.518 53.1159 14.644 53.3679 14.896C53.6199 15.13 53.7459 15.4 53.7459 15.706C53.7459 16.066 53.6469 16.372 53.4489 16.624C52.9269 17.326 52.2159 17.929 51.3159 18.433C50.4159 18.919 49.4349 19.162 48.3729 19.162ZM60.7316 19.162C59.7056 19.162 58.7606 18.883 57.8966 18.325C57.0506 17.767 56.3846 17.011 55.8986 16.057C55.4126 15.085 55.1696 14.032 55.1696 12.898C55.1696 11.62 55.4576 10.432 56.0336 9.334C56.6096 8.218 57.3836 7.336 58.3556 6.688C59.3276 6.022 60.3716 5.689 61.4876 5.689C62.5136 5.689 63.4496 5.977 64.2956 6.553C65.1596 7.129 65.8346 7.894 66.3206 8.848C66.8246 9.802 67.0766 10.828 67.0766 11.926C67.0766 13.222 66.7886 14.428 66.2126 15.544C65.6366 16.642 64.8536 17.524 63.8636 18.19C62.8916 18.838 61.8476 19.162 60.7316 19.162ZM60.7316 16.732C61.3616 16.732 61.9646 16.516 62.5406 16.084C63.1166 15.652 63.5756 15.076 63.9176 14.356C64.2596 13.636 64.4306 12.871 64.4306 12.061C64.4306 11.377 64.2956 10.738 64.0256 10.144C63.7556 9.532 63.3866 9.046 62.9186 8.686C62.4506 8.308 61.9376 8.119 61.3796 8.119C60.7496 8.119 60.1556 8.344 59.5976 8.794C59.0576 9.226 58.6256 9.811 58.3016 10.549C57.9776 11.269 57.8156 12.043 57.8156 12.871C57.8156 13.681 57.9506 14.374 58.2206 14.95C58.5086 15.526 58.8686 15.967 59.3006 16.273C59.7506 16.579 60.2276 16.732 60.7316 16.732ZM71.2778 19.162C70.9358 19.162 70.6298 19.036 70.3598 18.784C70.1078 18.532 69.9818 18.235 69.9818 17.893V6.985C69.9818 6.643 70.1078 6.346 70.3598 6.094C70.6298 5.824 70.9358 5.689 71.2778 5.689C71.6378 5.689 71.9438 5.824 72.1958 6.094C72.4478 6.346 72.5738 6.643 72.5738 6.985V8.875C73.6898 6.751 75.1748 5.689 77.0288 5.689C77.7668 5.689 78.4058 5.905 78.9458 6.337C79.5038 6.769 79.8998 7.417 80.1338 8.281C81.2858 6.553 82.6898 5.689 84.3458 5.689C85.4618 5.689 86.3438 6.121 86.9918 6.985C87.6398 7.831 87.9638 9.109 87.9638 10.819V17.893C87.9638 18.235 87.8288 18.532 87.5588 18.784C87.3068 19.036 87.0098 19.162 86.6678 19.162C86.3078 19.162 86.0018 19.036 85.7498 18.784C85.4978 18.532 85.3718 18.235 85.3718 17.893V10.657C85.3718 9.829 85.2548 9.208 85.0208 8.794C84.7868 8.38 84.4178 8.173 83.9138 8.173C83.3918 8.173 82.8698 8.38 82.3478 8.794C81.8258 9.208 81.3938 9.775 81.0518 10.495C80.7278 11.215 80.5658 12.007 80.5658 12.871V17.893C80.5658 18.253 80.4398 18.559 80.1878 18.811C79.9358 19.045 79.6298 19.162 79.2698 19.162C78.9278 19.162 78.6218 19.036 78.3518 18.784C78.0998 18.532 77.9738 18.235 77.9738 17.893V10.657C77.9738 9.793 77.8658 9.163 77.6498 8.767C77.4518 8.371 77.1188 8.173 76.6508 8.173C76.0748 8.173 75.5078 8.407 74.9498 8.875C74.3918 9.325 73.9058 9.874 73.4918 10.522C73.1678 11.062 72.9248 11.602 72.7628 12.142C72.6188 12.682 72.5468 13.276 72.5468 13.924L72.5738 17.893C72.5738 18.235 72.4478 18.532 72.1958 18.784C71.9438 19.036 71.6378 19.162 71.2778 19.162ZM97.3031 19.162C96.0251 19.162 94.8731 18.892 93.8471 18.352C92.8391 17.794 92.0471 17.011 91.4711 16.003C90.8951 14.977 90.6071 13.771 90.6071 12.385C90.6071 11.251 90.8591 10.171 91.3631 9.145C91.8851 8.101 92.6051 7.264 93.5231 6.634C94.4591 6.004 95.5211 5.689 96.7091 5.689C97.8071 5.689 98.7431 5.914 99.5171 6.364C100.309 6.796 100.903 7.318 101.299 7.93C101.695 8.542 101.893 9.091 101.893 9.577C101.893 9.811 101.821 10.036 101.677 10.252C101.533 10.468 101.326 10.657 101.056 10.819L93.8201 14.977C94.0721 15.535 94.5131 15.967 95.1431 16.273C95.7911 16.579 96.5111 16.732 97.3031 16.732C98.3471 16.732 99.2381 16.345 99.9761 15.571C100.264 15.283 100.561 15.139 100.867 15.139C101.227 15.139 101.524 15.256 101.758 15.49C102.01 15.724 102.136 16.012 102.136 16.354C102.136 16.642 102.028 16.912 101.812 17.164C101.308 17.722 100.633 18.199 99.7871 18.595C98.9591 18.973 98.1311 19.162 97.3031 19.162ZM99.2201 9.253C99.0041 8.875 98.6981 8.596 98.3021 8.416C97.9061 8.218 97.4381 8.119 96.8981 8.119C95.8721 8.119 95.0081 8.47 94.3061 9.172C93.6221 9.874 93.2261 10.738 93.1181 11.764C93.0821 12.034 93.0641 12.358 93.0641 12.736L99.2201 9.253ZM116.707 19.189C116.365 19.189 116.059 19.063 115.789 18.811C115.537 18.559 115.411 18.262 115.411 17.92V8.281H113.278C112.918 8.281 112.612 8.155 112.36 7.903C112.108 7.633 111.982 7.327 111.982 6.985C111.982 6.589 112.117 6.274 112.387 6.04C112.657 5.788 112.972 5.662 113.332 5.662H115.411V2.773C115.411 2.431 115.537 2.125 115.789 1.855C116.041 1.585 116.347 1.45 116.707 1.45C117.085 1.45 117.391 1.585 117.625 1.855C117.877 2.107 118.003 2.413 118.003 2.773V5.662H120.298C120.658 5.662 120.964 5.788 121.216 6.04C121.468 6.292 121.594 6.607 121.594 6.985C121.594 7.327 121.468 7.633 121.216 7.903C120.964 8.155 120.658 8.281 120.298 8.281H118.003V17.92C118.003 18.262 117.877 18.559 117.625 18.811C117.373 19.063 117.067 19.189 116.707 19.189ZM127.256 19.162C126.23 19.162 125.285 18.883 124.421 18.325C123.575 17.767 122.909 17.011 122.423 16.057C121.937 15.085 121.694 14.032 121.694 12.898C121.694 11.62 121.982 10.432 122.558 9.334C123.134 8.218 123.908 7.336 124.88 6.688C125.852 6.022 126.896 5.689 128.012 5.689C129.038 5.689 129.974 5.977 130.82 6.553C131.684 7.129 132.359 7.894 132.845 8.848C133.349 9.802 133.601 10.828 133.601 11.926C133.601 13.222 133.313 14.428 132.737 15.544C132.161 16.642 131.378 17.524 130.388 18.19C129.416 18.838 128.372 19.162 127.256 19.162ZM127.256 16.732C127.886 16.732 128.489 16.516 129.065 16.084C129.641 15.652 130.1 15.076 130.442 14.356C130.784 13.636 130.955 12.871 130.955 12.061C130.955 11.377 130.82 10.738 130.55 10.144C130.28 9.532 129.911 9.046 129.443 8.686C128.975 8.308 128.462 8.119 127.904 8.119C127.274 8.119 126.68 8.344 126.122 8.794C125.582 9.226 125.15 9.811 124.826 10.549C124.502 11.269 124.34 12.043 124.34 12.871C124.34 13.681 124.475 14.374 124.745 14.95C125.033 15.526 125.393 15.967 125.825 16.273C126.275 16.579 126.752 16.732 127.256 16.732ZM151.53 19.162C149.982 19.162 148.632 18.82 147.48 18.136C146.346 17.452 145.545 16.615 145.077 15.625C144.879 15.193 144.78 14.842 144.78 14.572C144.78 14.194 144.915 13.879 145.185 13.627C145.455 13.357 145.779 13.222 146.157 13.222C146.481 13.222 146.76 13.312 146.994 13.492C147.228 13.672 147.399 13.915 147.507 14.221C147.795 14.995 148.326 15.589 149.1 16.003C149.874 16.417 150.702 16.624 151.584 16.624C152.7 16.624 153.618 16.363 154.338 15.841C155.076 15.301 155.445 14.644 155.445 13.87C155.445 13.276 155.148 12.736 154.554 12.25C153.978 11.764 152.988 11.323 151.584 10.927C149.766 10.423 148.335 9.775 147.291 8.983C146.247 8.173 145.725 7.066 145.725 5.662C145.725 4.708 145.977 3.862 146.481 3.124C147.003 2.368 147.741 1.783 148.695 1.369C149.649 0.954998 150.765 0.747998 152.043 0.747998C153.879 0.747998 155.319 1.108 156.363 1.828C157.425 2.548 157.956 3.511 157.956 4.717C157.956 5.113 157.83 5.446 157.578 5.716C157.326 5.986 157.011 6.121 156.633 6.121C156.309 6.121 156.03 6.013 155.796 5.797C155.562 5.581 155.427 5.311 155.391 4.987C155.319 4.483 154.986 4.069 154.392 3.745C153.798 3.403 153.015 3.232 152.043 3.232C150.837 3.232 149.919 3.439 149.289 3.853C148.659 4.249 148.344 4.789 148.344 5.473C148.344 6.103 148.668 6.634 149.316 7.066C149.964 7.498 151.026 7.93 152.502 8.362C154.32 8.884 155.697 9.586 156.633 10.468C157.569 11.35 158.037 12.439 158.037 13.735C158.037 14.743 157.74 15.661 157.146 16.489C156.552 17.317 155.751 17.974 154.743 18.46C153.753 18.928 152.682 19.162 151.53 19.162ZM162.354 19C161.976 19 161.652 18.874 161.382 18.622C161.13 18.352 161.004 18.028 161.004 17.65V2.26C161.004 1.882 161.13 1.567 161.382 1.315C161.652 1.045 161.976 0.91 162.354 0.91H173.127C173.505 0.91 173.82 1.045 174.072 1.315C174.324 1.567 174.45 1.882 174.45 2.26C174.45 2.638 174.324 2.962 174.072 3.232C173.82 3.484 173.505 3.61 173.127 3.61H163.677V8.254H171.885C172.263 8.254 172.578 8.38 172.83 8.632C173.082 8.884 173.208 9.199 173.208 9.577C173.208 9.955 173.082 10.279 172.83 10.549C172.578 10.801 172.263 10.927 171.885 10.927H163.677V16.3H173.073C173.451 16.3 173.766 16.435 174.018 16.705C174.27 16.957 174.396 17.272 174.396 17.65C174.396 18.028 174.27 18.352 174.018 18.622C173.766 18.874 173.451 19 173.073 19H162.354ZM188.322 19.189C187.674 19.189 187.251 18.883 187.053 18.271L185.109 12.655L179.601 13.87L177.846 18.298C177.738 18.55 177.576 18.757 177.36 18.919C177.162 19.081 176.91 19.162 176.604 19.162C176.244 19.162 175.929 19.036 175.659 18.784C175.389 18.532 175.254 18.235 175.254 17.893C175.254 17.659 175.317 17.389 175.443 17.083L176.523 14.383C176.415 14.347 176.334 14.311 176.28 14.275C175.812 14.041 175.578 13.645 175.578 13.087C175.578 12.763 175.668 12.484 175.848 12.25C176.046 12.016 176.298 11.863 176.604 11.791L177.603 11.575L181.599 1.423C181.707 1.153 181.878 0.946 182.112 0.801999C182.346 0.657999 182.598 0.585999 182.868 0.585999C183.156 0.585999 183.408 0.657999 183.624 0.801999C183.84 0.946 184.002 1.171 184.11 1.477L189.483 17.056C189.501 17.092 189.537 17.2 189.591 17.38C189.645 17.542 189.672 17.713 189.672 17.893C189.672 18.235 189.546 18.541 189.294 18.811C189.042 19.063 188.718 19.189 188.322 19.189ZM184.218 10.144L182.76 5.797L180.735 10.9L184.218 10.144ZM193.23 19.135C192.888 19.153 192.582 19.027 192.312 18.757C192.042 18.487 191.907 18.181 191.907 17.839V2.098C191.907 1.738 192.033 1.432 192.285 1.18C192.555 0.91 192.879 0.775 193.257 0.775C193.617 0.775 193.923 0.91 194.175 1.18C194.445 1.432 194.58 1.738 194.58 2.098V16.408L201.924 15.922C202.302 15.904 202.617 16.021 202.869 16.273C203.121 16.507 203.247 16.822 203.247 17.218C203.247 17.542 203.121 17.848 202.869 18.136C202.635 18.406 202.356 18.55 202.032 18.568L193.23 19.135Z" fill="#305070"/>
</svg>
